<?xml version="1.0" encoding="UTF-8" standalone="no"?>
<svg
   width="24"
   height="24"
   version="1.1"
   id="svg1"
   sodipodi:docname="preferences-desktop-display-randr-symbolic.svg"
   inkscape:version="1.3.2 (091e20ef0f, 2023-11-25)"
   xmlns:inkscape="http://www.inkscape.org/namespaces/inkscape"
   xmlns:sodipodi="http://sodipodi.sourceforge.net/DTD/sodipodi-0.dtd"
   xmlns="http://www.w3.org/2000/svg"
   xmlns:svg="http://www.w3.org/2000/svg">
  <defs
     id="defs1" />
  <sodipodi:namedview
     id="namedview1"
     pagecolor="#ffffff"
     bordercolor="#999999"
     borderopacity="1"
     inkscape:showpageshadow="2"
     inkscape:pageopacity="0"
     inkscape:pagecheckerboard="0"
     inkscape:deskcolor="#d1d1d1"
     inkscape:zoom="17.318182"
     inkscape:cx="11.721785"
     inkscape:cy="11.779527"
     inkscape:window-width="1920"
     inkscape:window-height="994"
     inkscape:window-x="0"
     inkscape:window-y="0"
     inkscape:window-maximized="1"
     inkscape:current-layer="svg1"
     showgrid="true">
    <inkscape:grid
       id="grid1"
       units="px"
       originx="1"
       originy="-18"
       spacingx="1"
       spacingy="1"
       empcolor="#0099e5"
       empopacity="0.30196078"
       color="#0099e5"
       opacity="0.14902"
       empspacing="5"
       dotted="false"
       gridanglex="30"
       gridanglez="30"
       visible="true" />
  </sodipodi:namedview>
  <style
     type="text/css"
     id="current-color-scheme">.ColorScheme-Text{color:#232629;}.ColorScheme-Background{color:#eff0f1;}.ColorScheme-ViewBackground{color:#fcfcfc;}.ColorScheme-ButtonFocus{color:#3daee9;}.ColorScheme-PositiveText{color:#27ae60;}.ColorScheme-NeutralText{color:#f67400;}.ColorScheme-NegativeText { color: #da4453; } </style>
  <g
     id="preferences-desktop-display-randr">
    <rect
       y="0"
       x="0"
       height="24"
       width="24"
       id="rect2991"
       style="opacity:0.01;fill:#000000;fill-opacity:0.00392157;stroke:none" />
    <path
       id="Computer"
       class="st0"
       d="m 20.985713,3 h 1.285715 v 11.571429 c 0,1.414285 -1.157143,2.571428 -2.571429,2.571428 H 1.7 v -2.571428 h 19.285713 z m -4.5,18 -2.571428,-1.285714 H 8.128571 V 21 Z"
       style="fill:#cdd8e5;fill-opacity:0.403922;stroke-width:0.321429" />
    <path
       id="Computer-s"
       class="st1"
       d="M 2.985714,14.571429 H 1.7 v -9 C 1.7,4.157143 2.857143,3 4.271429,3 H 22.271428 V 4.285714 H 4.271429 c -0.707143,0 -1.285715,0.578572 -1.285715,1.285715 z m 18,0 c 0,1.414285 -1.157143,2.571428 -2.571428,2.571428 h -6.428572 v 1.285714 C 11.985714,19.842857 13.142857,21 14.557142,21 h 1.928571 v -1.285714 h -1.928571 c -0.707142,0 -1.285713,-0.578572 -1.285713,-1.285715 h 5.142856 c 2.121428,0 3.857143,-1.735714 3.857143,-3.857142 z"
       style="fill:#eff0f1;fill-opacity:1;stroke-width:0.321429" />
  </g>
</svg>
