<?xml version="1.0" encoding="UTF-8" standalone="no"?>
<svg
   viewBox="0 0 22 22"
   version="1.1"
   id="svg1"
   sodipodi:docname="system-suspend.svg"
   inkscape:version="1.3.2 (091e20ef0f, 2023-11-25)"
   width="100%"
   height="100%"
   xmlns:inkscape="http://www.inkscape.org/namespaces/inkscape"
   xmlns:sodipodi="http://sodipodi.sourceforge.net/DTD/sodipodi-0.dtd"
   xmlns:xlink="http://www.w3.org/1999/xlink"
   xmlns="http://www.w3.org/2000/svg"
   xmlns:svg="http://www.w3.org/2000/svg">
  <sodipodi:namedview
     id="namedview1"
     pagecolor="#ffffff"
     bordercolor="#000000"
     borderopacity="0.25"
     inkscape:showpageshadow="2"
     inkscape:pageopacity="0.0"
     inkscape:pagecheckerboard="0"
     inkscape:deskcolor="#d1d1d1"
     inkscape:zoom="12.326157"
     inkscape:cx="16.469042"
     inkscape:cy="3.8941578"
     inkscape:window-width="1920"
     inkscape:window-height="996"
     inkscape:window-x="0"
     inkscape:window-y="0"
     inkscape:window-maximized="1"
     inkscape:current-layer="svg1" />
  <defs
     id="defs1">
    <linearGradient
       id="linearGradient1"
       inkscape:collect="always">
      <stop
         style="stop-color:#ffd42a;stop-opacity:1;"
         offset="0"
         id="stop1" />
      <stop
         style="stop-color:#ffb380;stop-opacity:1"
         offset="1"
         id="stop2" />
    </linearGradient>
    <style
       type="text/css"
       id="style1">.ColorScheme-Text {
        color:#d8dee9;
      }</style>
    <linearGradient
       inkscape:collect="always"
       xlink:href="#linearGradient1"
       id="linearGradient2"
       x1="0.999927"
       y1="11.00009"
       x2="21.000104"
       y2="11.00009"
       gradientUnits="userSpaceOnUse" />
    <linearGradient
       inkscape:collect="always"
       xlink:href="#linearGradient1"
       id="linearGradient4"
       x1="5.166625"
       y1="11"
       x2="16.833376"
       y2="11"
       gradientUnits="userSpaceOnUse" />
  </defs>
  <path
     d="m 12.210973,13.587063 c -0.805945,0 -1.560758,-0.219694 -2.210136,-0.602116 h -3.12592 c -0.07892,0 -0.141809,-0.06459 -0.141809,-0.14213 0,-0.07903 0.06453,-0.142122 0.141809,-0.142122 H 9.575159 C 8.520425,11.90085 7.838956,10.633755 7.838956,9.2098245 c 0,-1.046009 0.374411,-2.058177 1.053183,-2.850774 0.449015,-0.522905 1.012194,-0.93026 1.638327,-1.192432 -2.997189,0.240159 -5.363841,2.761422 -5.363841,5.8244495 0,3.22144 2.616754,5.842313 5.833234,5.842313 1.456967,0 2.790916,-0.537552 3.813264,-1.425351 H 9.86036 c -0.07898,0 -0.141922,-0.06453 -0.141922,-0.142132 0,-0.07907 0.06443,-0.142002 0.141922,-0.142002 h 5.25865 c 1.057539,-1.05761 1.714365,-2.519706 1.714365,-4.132598 0,-0.588873 -0.08493,-1.1602455 -0.253017,-1.7096345 -0.03669,2.3805535 -1.983442,4.3054655 -4.369121,4.3054655 z"
     id="path4-7-1"
     style="color:#d6dbf1;fill:url(#linearGradient4);fill-opacity:1;fill-rule:nonzero;stroke:none;stroke-width:0.0302483;stroke-opacity:1"
     class="ColorScheme-Text" />
  <path
     d="m 3.923772,3.9378275 c -3.930358,3.932855 -3.8982,10.3522135 0.09648,14.2443545 3.720842,3.625363 9.71685,3.773543 13.60016,0.323017 3.402586,-3.023367 4.305613,-7.840258 2.391342,-11.8177875 -0.229753,-0.477375 -0.831217,-0.641271 -1.28384,-0.366324 -0.40581,0.246543 -0.542975,0.758903 -0.338963,1.187869 1.577243,3.3163795 0.767949,7.3363975 -2.153365,9.7893985 -2.96313,2.488133 -7.359488,2.529992 -10.36697,0.09572 C 2.032933,14.289466 1.813151,8.6223735 5.209282,5.2241045 c 2.475026,-2.476614 6.191645,-3.087802 9.291609,-1.608694 0.426153,0.203325 0.935401,0.06341 1.180409,-0.340383 l 0.002,-0.003 c 0.273622,-0.45104 0.112391,-1.051651 -0.363095,-1.281062 -3.797221,-1.831799 -8.360871,-1.090376 -11.396411,1.947079 z"
     id="path1-0-9-8-0"
     style="fill:url(#linearGradient2);fill-opacity:1;stroke-width:0.363698" />
</svg>
