<?xml version="1.0" encoding="UTF-8" standalone="no"?>
<svg
   width="22"
   height="22"
   version="1.1"
   id="svg1"
   sodipodi:docname="input-keyboard-brightness.svg"
   inkscape:version="1.3.2 (091e20ef0f, 2023-11-25)"
   xmlns:inkscape="http://www.inkscape.org/namespaces/inkscape"
   xmlns:sodipodi="http://sodipodi.sourceforge.net/DTD/sodipodi-0.dtd"
   xmlns="http://www.w3.org/2000/svg"
   xmlns:svg="http://www.w3.org/2000/svg">
  <defs
     id="defs1" />
  <sodipodi:namedview
     id="namedview1"
     pagecolor="#9b9b9b"
     bordercolor="#999999"
     borderopacity="1"
     inkscape:showpageshadow="2"
     inkscape:pageopacity="0"
     inkscape:pagecheckerboard="0"
     inkscape:deskcolor="#d1d1d1"
     inkscape:zoom="6.1229019"
     inkscape:cx="10.779203"
     inkscape:cy="10.615881"
     inkscape:window-width="1920"
     inkscape:window-height="994"
     inkscape:window-x="0"
     inkscape:window-y="0"
     inkscape:window-maximized="1"
     inkscape:current-layer="svg1" />
  <style
     type="text/css"
     id="current-color-scheme">.ColorScheme-Text {
        color:#fcfcfc;
      }
      .ColorScheme-Background {
        color:#eff0f1;
      }
      .ColorScheme-Highlight {
        color:#3daee9;
      }
      .ColorScheme-ViewText {
        color:#31363b;
      }
      .ColorScheme-ViewBackground {
        color:#fcfcfc;
      }
      .ColorScheme-ViewHover {
        color:#93cee9;
      }
      .ColorScheme-ViewFocus{
        color:#3daee9;
      }
      .ColorScheme-ButtonText {
        color:#31363b;
      }
      .ColorScheme-ButtonBackground {
        color:#eff0f1;
      }
      .ColorScheme-ButtonHover {
        color:#93cee9;
      }
      .ColorScheme-ButtonFocus{
        color:#3daee9;
      }</style>
  <g
     id="22-22-input-keyboard-brightness-3">
    <rect
       ry="0"
       y="2.6171874e-06"
       x="0"
       height="22"
       width="22"
       style="fill:none"
       id="rect20" />
    <path
       style="fill:#3daee9;fill-opacity:1;stroke:none;stroke-width:0.632451"
       d="m 15.374999,3.399994 c -0.173124,0 -0.312498,0.142718 -0.312498,0.319996 v 0.639992 c 0,0.177278 0.139374,0.319997 0.312498,0.319997 0.173126,0 0.312501,-0.142719 0.312501,-0.319997 V 3.71999 c 0,-0.177278 -0.139375,-0.319996 -0.312501,-0.319996 z m -1.988526,0.84374 c -0.07989,0 -0.159738,0.03107 -0.220946,0.09375 -0.122418,0.125354 -0.122418,0.32714 0,0.452494 l 0.441894,0.452495 c 0.122419,0.125354 0.319476,0.125354 0.441895,0 0.122418,-0.125354 0.122418,-0.32714 0,-0.452495 L 13.607421,4.337484 c -0.0612,-0.06267 -0.141064,-0.09375 -0.220948,-0.09375 z m 3.977052,0 c -0.07989,0 -0.159738,0.03107 -0.22095,0.09375 l -0.441896,0.452494 c -0.12241,0.125355 -0.12241,0.327141 0,0.452495 0.122421,0.125354 0.319483,0.125354 0.441896,0 l 0.4419,-0.452495 c 0.122411,-0.125354 0.122411,-0.32714 0,-0.452494 -0.06119,-0.06267 -0.141069,-0.09375 -0.22095,-0.09375 z m -1.988526,1.076237 c -0.690355,0 -1.249999,0.573069 -1.249999,1.279985 0,0.706915 0.559644,1.279984 1.249999,1.279984 0.690357,0 1.250001,-0.573069 1.250001,-1.279984 0,-0.706916 -0.559644,-1.279985 -1.250001,-1.279985 z m 0,0.639992 V 7.239948 C 15.029823,7.239948 14.75,6.953414 14.75,6.599956 c 0,-0.353459 0.279823,-0.639993 0.624999,-0.639993 z m -2.8125,0.319996 c -0.173124,0 -0.312499,0.142719 -0.312499,0.319997 0,0.177277 0.139375,0.319996 0.312499,0.319996 h 0.625002 c 0.173124,0 0.312498,-0.142719 0.312498,-0.319996 0,-0.177278 -0.139374,-0.319997 -0.312498,-0.319997 z m 5.000001,0 c -0.173125,0 -0.312501,0.142719 -0.312501,0.319997 0,0.177277 0.139376,0.319996 0.312501,0.319996 h 0.624999 C 18.360624,6.919952 18.5,6.777233 18.5,6.599956 18.5,6.422678 18.360624,6.279959 18.187499,6.279959 Z M 13.828369,7.86369 c -0.07989,0 -0.159739,0.03107 -0.220948,0.09375 l -0.441894,0.452495 c -0.122418,0.125355 -0.122418,0.32714 0,0.452494 0.122417,0.125355 0.319476,0.125355 0.441894,0 l 0.441895,-0.452494 c 0.122418,-0.125355 0.122418,-0.327141 0,-0.452495 C 13.988126,7.89477 13.90825,7.86369 13.828369,7.86369 Z m 3.09326,0 c -0.07989,0 -0.159737,0.03107 -0.22095,0.09375 -0.12241,0.125354 -0.12241,0.32714 0,0.452495 l 0.441896,0.452494 c 0.122417,0.125355 0.319482,0.125355 0.4419,0 0.122411,-0.125354 0.122411,-0.327139 0,-0.452494 L 17.142575,7.95744 C 17.081385,7.89477 17.001513,7.86369 16.921629,7.86369 Z m -1.54663,0.656243 c -0.173124,0 -0.312498,0.142718 -0.312498,0.319996 v 0.639992 c 0,0.177278 0.139374,0.319996 0.312498,0.319996 0.173126,0 0.312501,-0.142718 0.312501,-0.319996 V 8.839929 c 0,-0.177278 -0.139375,-0.319996 -0.312501,-0.319996 z"
       id="path4274-4"
       inkscape:connector-curvature="0" />
    <path
       id="Edit-7-8"
       class="st0"
       d="m 5.6153769,15.708609 v 0 0 0 0 0 0 0 l 9.5672751,0.09377 -9.5672751,-0.09377 V 5.816158 H 11 L 12.875,3.640101 3.5,3.640184 v 14.26269 h 11.10577 c 1.185021,0 1.676521,-2.094592 1.676521,-2.094592 z"
       sodipodi:nodetypes="cccccccccccccccscc"
       style="fill:#cdd8e5;fill-opacity:0.403922;stroke-width:0.269308" />
    <path
       id="Edit-s-6-7"
       class="st1"
       d="M 14.076923,17.902874 H 4.5576983 V 19 H 14.076923 C 15.822118,19 17.25,17.518879 17.25,15.708609 V 9.400032 l -1.057691,1.279985 v 5.028592 c 0,1.206846 -0.951923,2.194265 -2.115386,2.194265 z"
       sodipodi:nodetypes="ccccccccc"
       style="fill:#eff0f1;fill-opacity:1;stroke-width:0.269308" />
    <path
       d="m 14.156182,13.751865 h -0.116277 c -0.19691,0 -0.363836,-0.125817 -0.434169,-0.299594 L 11.312032,7.337522 c -0.0019,-0.0038 -0.0045,-0.0067 -0.0068,-0.01056 -0.01312,-0.0336 -0.03562,-0.06048 -0.05626,-0.09024 -0.015,-0.02208 -0.02623,-0.04704 -0.045,-0.06628 -0.01599,-0.01638 -0.0375,-0.02592 -0.05531,-0.04038 -0.03194,-0.02298 -0.06194,-0.04793 -0.09754,-0.0624 -0.0038,-0.0019 -0.0058,-0.0045 -0.0083,-0.0058 -0.01975,-0.0077 -0.03944,-0.0058 -0.05907,-0.01056 -0.03657,-0.0086 -0.07127,-0.0192 -0.108788,-0.0192 -0.03844,0 -0.07411,0.01056 -0.110675,0.02016 -0.01874,0.0045 -0.03849,0.0019 -0.05719,0.0096 -0.0013,0 -0.0032,0.0038 -0.0038,0.0038 -0.118106,0.048 -0.21753,0.141138 -0.266299,0.271728 l -2.2937187,6.114756 c -0.069434,0.173777 -0.236331,0.299593 -0.4332376,0.299593 H 7.5939261 c -0.2597687,0 -0.4688632,0.215088 -0.4688632,0.480109 0,0.263107 0.2090945,0.480122 0.4688632,0.480122 h 0.7689154 0.010352 1.095302 c 0.2588195,0 0.4688745,-0.217015 0.4688745,-0.480122 0,-0.265021 -0.210055,-0.480109 -0.4688745,-0.480109 h -0.088116 c -0.1303502,0 -0.2344375,-0.108511 -0.2344375,-0.240061 0,-0.03072 0.00499,-0.05952 0.015,-0.08739 0.00127,-0.0019 -0.00373,0.0032 -0.00373,0.0013 l 0.2382043,-0.635679 h 2.5028257 l 0.266306,0.728804 c 6.24e-4,6.4e-4 0,6.4e-4 0,0.0019 0.03849,0.110437 -0.0067,0.231428 -0.100319,0.288067 0,0 0.0038,0.0032 0.0038,0.0038 -0.151019,0.07968 -0.255106,0.235235 -0.255106,0.419624 0,0.2631 0.209101,0.480115 0.468869,0.480115 h 1.01278 0.03657 0.825239 c 0.258811,0 0.468868,-0.217015 0.468868,-0.480115 -5.1e-5,-0.265028 -0.210107,-0.480116 -0.468926,-0.480116 z m -4.399863,-1.922384 0.651706,-1.73898 c 0.0013,-0.0019 0.0019,0.0058 0.0038,0 0.04875,-0.140178 0.199736,-0.215096 0.337567,-0.165144 0.07411,0.02688 0.131295,0.0874 0.157564,0.158449 v -0.0013 l 0.639511,1.747621 H 9.75633 Z"
       id="path2-7-1"
       style="fill:#eff0f1;fill-opacity:1;stroke-width:0.013556"
       sodipodi:nodetypes="cscccccccccscccccssssccsssssccccccccssccscccccccccccc" />
  </g>
</svg>
