<?xml version="1.0" encoding="UTF-8" standalone="no"?>
<svg
   width="22"
   height="22"
   version="1.1"
   id="svg1"
   sodipodi:docname="input-keyboard-battery.svg"
   inkscape:version="1.3.2 (091e20ef0f, 2023-11-25)"
   xmlns:inkscape="http://www.inkscape.org/namespaces/inkscape"
   xmlns:sodipodi="http://sodipodi.sourceforge.net/DTD/sodipodi-0.dtd"
   xmlns="http://www.w3.org/2000/svg"
   xmlns:svg="http://www.w3.org/2000/svg">
  <defs
     id="defs1" />
  <sodipodi:namedview
     id="namedview1"
     pagecolor="#8e8e8e"
     bordercolor="#999999"
     borderopacity="1"
     inkscape:showpageshadow="2"
     inkscape:pageopacity="0"
     inkscape:pagecheckerboard="0"
     inkscape:deskcolor="#d1d1d1"
     inkscape:zoom="8.6590909"
     inkscape:cx="11.317585"
     inkscape:cy="11.086614"
     inkscape:window-width="1920"
     inkscape:window-height="994"
     inkscape:window-x="0"
     inkscape:window-y="0"
     inkscape:window-maximized="1"
     inkscape:current-layer="svg1" />
  <style
     type="text/css"
     id="current-color-scheme">.ColorScheme-Text {
        color:#fcfcfc;
      }
      .ColorScheme-Background {
        color:#eff0f1;
      }
      .ColorScheme-Highlight {
        color:#3daee9;
      }
      .ColorScheme-ViewText {
        color:#31363b;
      }
      .ColorScheme-ViewBackground {
        color:#fcfcfc;
      }
      .ColorScheme-ViewHover {
        color:#93cee9;
      }
      .ColorScheme-ViewFocus{
        color:#3daee9;
      }
      .ColorScheme-ButtonText {
        color:#31363b;
      }
      .ColorScheme-ButtonBackground {
        color:#eff0f1;
      }
      .ColorScheme-ButtonHover {
        color:#93cee9;
      }
      .ColorScheme-ButtonFocus{
        color:#3daee9;
      }</style>
  <g
     id="22-22-input-keyboard-battery-2"
     transform="translate(0,-32)">
    <rect
       style="fill:none"
       width="22"
       height="22"
       x="0"
       y="32"
       ry="0"
       id="rect15" />
    <path
       id="Edit-7-2-2"
       class="st0"
       d="m 5.807693,47.571446 v 0 0 0 0 0 0 0 l 10.437018,0.09767 -10.437018,-0.09767 V 37.266742 h 5.874124 L 13.318182,35.000001 3.5,35.000088 v 14.857066 h 12.115382 c 1.292755,0 1.828932,-2.181882 1.828932,-2.181882 z"
       sodipodi:nodetypes="cccccccccccccccscc"
       style="fill:#cdd8e5;fill-opacity:0.403922;stroke-width:0.287084" />
    <path
       id="Edit-s-6-9-2"
       class="st1"
       d="M 15.038461,49.857154 H 4.653846 v 1.142847 h 10.384615 c 1.903845,0 3.461539,-1.542845 3.461539,-3.428555 v -6.571477 l -1.153846,1.666657 v 4.90482 c 0,1.25714 -1.038461,2.285708 -2.307693,2.285708 z"
       sodipodi:nodetypes="ccccccccc"
       style="fill:#eff0f1;fill-opacity:1;stroke-width:0.287084" />
    <path
       d="m 15.124922,45.533157 h -0.126843 c -0.214814,0 -0.396913,-0.131059 -0.47364,-0.312078 l -2.502224,-6.369572 c -0.002,-0.004 -0.0047,-0.007 -0.0071,-0.011 -0.01435,-0.035 -0.03887,-0.063 -0.06137,-0.094 -0.01637,-0.023 -0.02863,-0.049 -0.0491,-0.06904 -0.01747,-0.01707 -0.0409,-0.027 -0.06033,-0.04207 -0.03483,-0.02393 -0.06757,-0.04993 -0.106404,-0.065 -0.004,-0.002 -0.006,-0.0047 -0.0094,-0.006 -0.02153,-0.008 -0.04304,-0.006 -0.06443,-0.011 -0.0399,-0.009 -0.07774,-0.02 -0.118678,-0.02 -0.04193,0 -0.08084,0.011 -0.120737,0.021 -0.02047,0.0047 -0.042,0.002 -0.0624,0.01 -0.0013,0 -0.0033,0.004 -0.004,0.004 -0.128843,0.05 -0.237306,0.147019 -0.290508,0.283051 l -2.5022178,6.369579 c -0.075692,0.181019 -0.2578151,0.312079 -0.4726221,0.312079 H 7.9660438 c -0.283384,0 -0.511493,0.224052 -0.511493,0.500117 0,0.274072 0.228109,0.500131 0.511493,0.500131 h 0.83882 0.01126 1.1948742 c 0.282347,0 0.511499,-0.226059 0.511499,-0.500131 0,-0.276065 -0.229152,-0.500117 -0.511499,-0.500117 h -0.09615 c -0.142199,0 -0.255749,-0.113033 -0.255749,-0.250066 0,-0.032 0.0053,-0.062 0.01637,-0.09103 0.0013,-0.002 -0.004,0.0033 -0.004,0.0013 l 0.259854,-0.66217 h 2.730347 l 0.290517,0.759176 c 6.82e-4,6.67e-4 0,6.67e-4 0,0.002 0.042,0.115039 -0.007,0.241072 -0.109439,0.300072 0,0 0.004,0.0033 0.004,0.004 -0.164749,0.08301 -0.278299,0.245038 -0.278299,0.437111 0,0.274065 0.228109,0.500124 0.511493,0.500124 h 1.104853 0.0399 0.90026 c 0.28234,0 0.511494,-0.226059 0.511494,-0.500124 -5.7e-5,-0.276072 -0.229207,-0.500124 -0.511556,-0.500124 z m -4.799845,-2.002496 0.710949,-1.81145 c 0.0013,-0.002 0.002,0.006 0.004,0 0.05317,-0.146019 0.217896,-0.224059 0.368256,-0.172025 0.08084,0.028 0.143231,0.09104 0.171888,0.165052 v -0.0013 l 0.697649,1.82045 h -1.952903 z"
       id="path2-7-3-6"
       style="fill:#eff0f1;fill-opacity:1;stroke-width:0.0144508"
       sodipodi:nodetypes="cscccccccccscccccssssccsssssccccccccssccscccccccccccc" />
    <path
       style="fill:#eff0f1;fill-opacity:1;stroke:none;stroke-width:0.938443"
       d="M 16.23209,35.000001 13.573,39.166645 h 2.113637 l -0.545454,2.499987 2.65909,-4.166645 h -2.113636 z"
       id="path12-2-9-1"
       inkscape:connector-curvature="0"
       sodipodi:nodetypes="ccccccc" />
  </g>
</svg>
