<?xml version="1.0" encoding="UTF-8" standalone="no"?>
<svg
   width="22"
   height="22"
   version="1.1"
   id="svg1"
   sodipodi:docname="input-keyboard-virtual-off.svg"
   inkscape:version="1.3.2 (091e20ef0f, 2023-11-25)"
   xmlns:inkscape="http://www.inkscape.org/namespaces/inkscape"
   xmlns:sodipodi="http://sodipodi.sourceforge.net/DTD/sodipodi-0.dtd"
   xmlns="http://www.w3.org/2000/svg"
   xmlns:svg="http://www.w3.org/2000/svg">
  <defs
     id="defs1" />
  <sodipodi:namedview
     id="namedview1"
     pagecolor="#ffffff"
     bordercolor="#999999"
     borderopacity="1"
     inkscape:showpageshadow="2"
     inkscape:pageopacity="0"
     inkscape:pagecheckerboard="0"
     inkscape:deskcolor="#d1d1d1"
     inkscape:zoom="12.245804"
     inkscape:cx="10.534221"
     inkscape:cy="-2.4498188"
     inkscape:window-width="1920"
     inkscape:window-height="994"
     inkscape:window-x="0"
     inkscape:window-y="0"
     inkscape:window-maximized="1"
     inkscape:current-layer="svg1" />
  <style
     type="text/css"
     id="current-color-scheme">.ColorScheme-Text {
        color:#fcfcfc;
      }
      .ColorScheme-Background {
        color:#eff0f1;
      }
      .ColorScheme-Highlight {
        color:#3daee9;
      }
      .ColorScheme-ViewText {
        color:#31363b;
      }
      .ColorScheme-ViewBackground {
        color:#fcfcfc;
      }
      .ColorScheme-ViewHover {
        color:#93cee9;
      }
      .ColorScheme-ViewFocus{
        color:#3daee9;
      }
      .ColorScheme-ButtonText {
        color:#31363b;
      }
      .ColorScheme-ButtonBackground {
        color:#eff0f1;
      }
      .ColorScheme-ButtonHover {
        color:#93cee9;
      }
      .ColorScheme-ButtonFocus{
        color:#3daee9;
      }</style>
  <g
     id="22-22-input-keyboard-virtual-off-7">
    <rect
       style="fill:none;fill-opacity:1;stroke:none;stroke-linejoin:bevel"
       id="rect4172"
       width="22"
       height="22"
       x="0"
       y="0" />
    <path
       id="Keyboard-35-6"
       class="st0"
       d="M 1,6.6923074 V 17.769229 h 16.875 c 1.71875,0 3.125,-1.384614 3.125,-3.076922 V 6.6923074 Z m 10.625,2.4615377 h 1.25 v 1.2307699 h -1.25 z m -2.500001,0 H 10.375 V 10.384615 H 9.124999 Z M 11.625,11.615385 v 1.23077 h -1.25 v -1.23077 z M 3.5,9.153835 h 1.875001 v 1.23078 H 3.5 Z M 6,15.307693 H 4.75 V 14.076922 H 6 Z M 6.625,12.846155 H 3.5 v -1.23077 h 3.125 z m 0,-3.6923099 h 1.25 v 1.2307699 h -1.25 z m 2.499999,2.4615399 v 1.23077 H 7.875 v -1.23077 z M 13.5,15.307693 H 7.25 v -1.230771 h 6.25 z m 0.625,-2.461538 h -1.25 v -1.23077 h 1.25 z m 0,-3.6923099 h 1.25 v 1.2307699 h -1.25 z M 16,15.307693 H 14.75 V 14.076922 H 16 Z m 1.875,-2.461538 h -2.5 v -1.23077 h 2.5 z m 0,-2.46154 h -1.25 V 9.1538451 h 1.25 z"
       style="clip-rule:evenodd;fill:#bf616a;fill-opacity:1;fill-rule:evenodd;stroke-width:0.310088" />
    <path
       id="Keyboard-s-62-2"
       class="st1"
       d="M 21,7.9230779 V 15.307693 C 21,17.338463 19.3125,19 17.25,19 h -15 v -1.230771 h 15 c 1.375,0 2.5,-1.107692 2.5,-2.461536 V 7.9230779 Z M 14.125,3.6153836 V 3 h 1.25 v 0.6153836 c 0,1.0153852 -0.84375,1.8461549 -1.875,1.8461549 h -1.25 c -0.343749,0 -0.625,0.276928 -0.625,0.6153828 v 0.6153861 h -1.25 V 6.0769213 c 0,-1.0153828 0.84375,-1.8461516 1.875,-1.8461516 h 1.25 c 0.343749,0 0.625,-0.276923 0.625,-0.6153861 z"
       style="clip-rule:evenodd;fill:#eff0f1;fill-opacity:1;fill-rule:evenodd;stroke-width:0.310088" />
  </g>
</svg>
