<?xml version="1.0" encoding="UTF-8" standalone="no"?>
<svg
   width="22"
   height="22"
   version="1.1"
   id="svg1"
   sodipodi:docname="kalarm-disabled.svg"
   inkscape:version="1.3.2 (091e20ef0f, 2023-11-25)"
   xmlns:inkscape="http://www.inkscape.org/namespaces/inkscape"
   xmlns:sodipodi="http://sodipodi.sourceforge.net/DTD/sodipodi-0.dtd"
   xmlns="http://www.w3.org/2000/svg"
   xmlns:svg="http://www.w3.org/2000/svg">
  <defs
     id="defs1" />
  <sodipodi:namedview
     id="namedview1"
     pagecolor="#ffffff"
     bordercolor="#999999"
     borderopacity="1"
     inkscape:showpageshadow="2"
     inkscape:pageopacity="0"
     inkscape:pagecheckerboard="0"
     inkscape:deskcolor="#d1d1d1"
     inkscape:zoom="12.245804"
     inkscape:cx="10.860863"
     inkscape:cy="10.860863"
     inkscape:window-width="1920"
     inkscape:window-height="994"
     inkscape:window-x="0"
     inkscape:window-y="0"
     inkscape:window-maximized="1"
     inkscape:current-layer="svg1" />
  <style
     type="text/css"
     id="current-color-scheme">.ColorScheme-Text{color:#31363b;}.ColorScheme-Background{color:#eff0f1;}.ColorScheme-Highlight{color:#3daee9;}.ColorScheme-ViewText{color:#31363b;}.ColorScheme-ViewBackground{color:#fcfcfc;}.ColorScheme-ViewHover{color:#93cee9;}.ColorScheme-ViewFocus{color:#3daee9;}.ColorScheme-ButtonText{color:#31363b;}.ColorScheme-ButtonBackground{color:#eff0f1;}.ColorScheme-ButtonHover{color:#93cee9;}.ColorScheme-ButtonFocus { color: #3daee9; } </style>
  <rect
     style="opacity:0.00100002"
     width="22"
     height="22"
     x="0"
     y="0"
     id="rect7" />
  <path
     d="M 9.887114,14.5 C 9.3974191,14.499381 9.0005824,14.080017 9,13.562501 V 9.4374971 c 0,-1.2499962 1.774232,-1.2499962 1.774232,0 V 13.562501 C 10.773651,14.080017 10.376819,14.499383 9.887114,14.5 Z m 0,-5.6250031 z"
     id="path8-5-36"
     style="fill:#c83771;fill-opacity:1;stroke-width:0.141072"
     sodipodi:nodetypes="ccsscccccccc" />
  <path
     d="m 12.371039,14.5 c -0.489691,-6.19e-4 -0.886516,-0.419983 -0.887112,-0.937499 V 9.4374971 c 0.0013,-1.2485638 1.772873,-1.2485638 1.774241,0 V 13.562501 C 13.257575,14.080017 12.860746,14.499383 12.371039,14.5 Z m 0,-5.6250031 z"
     id="path10-7"
     style="fill:#c83771;fill-opacity:1;stroke-width:0.141072"
     sodipodi:nodetypes="cccccccccccc" />
  <path
     id="Alarm-3-5"
     class="st0"
     d="m 16.3,11.533333 c 0,2.933334 -2.4,5.333334 -5.333333,5.333334 -2.9333338,0 -5.3333337,-2.4 -5.3333337,-5.333334 C 5.6333333,8.6 8.0333332,6.2 10.966667,6.2 13.9,6.2 16.3,8.6 16.3,11.533333 Z m -0.32,-8.08 c -0.933333,-0.72 -2.24,-0.56 -2.96,0.346667 L 12.646667,4.253333 C 12.113334,4.12 11.553334,4.066667 10.966667,4.066667 6.8333333,4.066667 3.5,7.4 3.5,11.533333 3.5,15.666667 6.8333333,19 10.966667,19 15.1,19 18.433333,15.666667 18.433333,11.533333 c 0,-1.226666 -0.293333,-2.4 -0.826666,-3.413333 L 17.98,7.64 C 18.7,6.733333 18.54,5.426667 17.633333,4.733333 Z"
     style="clip-rule:evenodd;fill:#cdd8e5;fill-opacity:0.403922;fill-rule:evenodd;stroke-width:0.266667" />
  <path
     id="Alarm-s-6-3"
     class="st1"
     d="M 4.9666667,5.16 C 4.5133333,5.533333 4.4333333,6.2 4.78,6.653333 l 0.2666667,0.32 C 4.8333333,7.266667 4.62,7.586667 4.4333333,7.906667 l -0.48,-0.613334 c -0.72,-0.906666 -0.56,-2.24 0.3466667,-2.96 L 5.98,3 6.6466666,3.826667 Z m 12.4000003,6.373333 c 0,1.92 -0.853333,3.653334 -2.213333,4.826667 l 0.693333,0.8 v 0 0 l 1.68,1.68 0.746666,-0.746667 -1.679999,-1.68 C 17.58,15.293333 18.193333,13.88 18.38,12.386667 18.593333,10.52 18.113333,8.653333 16.993333,7.16 L 16.14,7.8 c 0.773333,1.04 1.226667,2.32 1.226667,3.733333 z M 11.5,11.266667 Z m -6.1866667,5.146666 -1.68,1.68 L 4.38,18.84 6.0599999,17.16 C 5.82,16.946667 5.5533333,16.68 5.3133333,16.413333 Z"
     style="fill:#eff0f1;fill-opacity:1;stroke-width:0.266667"
     sodipodi:nodetypes="cccccccccsccccccccccsccccccccccc" />
</svg>
