<?xml version="1.0" encoding="UTF-8" standalone="no"?>
<svg
   width="22"
   height="22"
   version="1.1"
   id="svg6"
   sodipodi:docname="konv_message.svg"
   inkscape:version="1.3.2 (091e20ef0f, 2023-11-25)"
   xmlns:inkscape="http://www.inkscape.org/namespaces/inkscape"
   xmlns:sodipodi="http://sodipodi.sourceforge.net/DTD/sodipodi-0.dtd"
   xmlns="http://www.w3.org/2000/svg"
   xmlns:svg="http://www.w3.org/2000/svg">
  <sodipodi:namedview
     id="namedview1"
     pagecolor="#ffffff"
     bordercolor="#999999"
     borderopacity="1"
     inkscape:showpageshadow="2"
     inkscape:pageopacity="0"
     inkscape:pagecheckerboard="0"
     inkscape:deskcolor="#d1d1d1"
     inkscape:zoom="17.318182"
     inkscape:cx="11.144357"
     inkscape:cy="6.351706"
     inkscape:window-width="1920"
     inkscape:window-height="994"
     inkscape:window-x="0"
     inkscape:window-y="0"
     inkscape:window-maximized="1"
     inkscape:current-layer="svg6" />
  <defs
     id="defs10" />
  <namedview
     id="namedview8"
     pagecolor="#ffffff"
     bordercolor="#000000"
     borderopacity="0.25"
     inkscape:showpageshadow="2"
     inkscape:pageopacity="0.0"
     inkscape:pagecheckerboard="0"
     inkscape:deskcolor="#d1d1d1"
     showgrid="false"
     inkscape:zoom="35.136364"
     inkscape:cx="9.4773609"
     inkscape:cy="10.98577"
     inkscape:window-width="1920"
     inkscape:window-height="1011"
     inkscape:window-x="0"
     inkscape:window-y="0"
     inkscape:window-maximized="1"
     inkscape:current-layer="svg6" />
  <style
     type="text/css"
     id="current-color-scheme">.ColorScheme-Text{color:#31363b;}.ColorScheme-Background{color:#eff0f1;}.ColorScheme-Highlight{color:#3daee9;}.ColorScheme-ViewText{color:#31363b;}.ColorScheme-ViewBackground{color:#fcfcfc;}.ColorScheme-ViewHover{color:#93cee9;}.ColorScheme-ViewFocus{color:#3daee9;}.ColorScheme-ButtonText{color:#31363b;}.ColorScheme-ButtonBackground{color:#eff0f1;}.ColorScheme-ButtonHover{color:#93cee9;}.ColorScheme-ButtonFocus { color: #3daee9; } </style>
  <g
     id="22-22-konv_message-1">
    <rect
       style="opacity:0.00100002"
       width="22"
       height="22"
       x="0"
       y="4.7683716e-07"
       id="rect2-8" />
    <path
       id="Megaphone-3"
       class="st0"
       d="m 13.025,7.0000001 h 4.724999 L 19.4375,8.7142862 V 12.714285 H 17.749999 V 8.1428571 H 16.625 v 4.5714279 l -1.125001,5.142858 H 12.125 l 1.125001,-5.142858 H 13.025 c -3.0374998,0 -5.8781255,1.485715 -7.6500005,4.000001 H 4.2499998 V 3 H 5.3749995 C 7.1468745,5.514286 9.9875002,7.0000001 13.025,7.0000001 Z"
       style="fill:#a3be8c;fill-opacity:0.970146;stroke-width:0.283473" />
    <path
       id="Megaphone-s-6"
       class="st1"
       d="m 13.5875,19 h -0.618749 l 0.28125,-1.142857 H 13.5875 c 0.534374,0 0.984375,-0.371428 1.096875,-0.885714 L 15.6125,12.714285 h 2.137499 C 18.368752,12.714285 18.875,12.2 18.875,11.571428 V 9.2857141 c 0,-0.628571 -0.506248,-1.142857 -1.125001,-1.142857 v -1.142857 c 1.2375,0 2.250001,1.0285711 2.250001,2.285714 v 2.2857139 c 0,1.257145 -1.012501,2.285714 -2.250001,2.285714 h -1.237498 l -0.731253,3.342859 C 15.556248,18.257144 14.628126,19 13.5875,19 Z M 4.2499998,8.7142862 V 7.5714291 C 3.0124997,7.5714291 2,8.6000002 2,9.8571429 2,11.114286 3.0124997,12.142858 4.2499998,12.142858 V 11 c -0.6187497,0 -1.125,-0.514285 -1.125,-1.1428571 0,-0.6285717 0.5062503,-1.1428567 1.125,-1.1428567 z M 16.625,7.0000001 h -1.125001 v 1.142857 H 16.625 Z"
       style="fill:#eff0f1;fill-opacity:1;stroke-width:0.283473" />
  </g>
</svg>
