<?xml version="1.0" encoding="UTF-8" standalone="no"?>
<svg
   version="1.1"
   viewBox="0 0 22 21.999981"
   id="svg2"
   sodipodi:docname="network-limited.svg"
   width="22"
   height="21.999981"
   inkscape:version="1.3.2 (091e20ef0f, 2023-11-25)"
   xmlns:inkscape="http://www.inkscape.org/namespaces/inkscape"
   xmlns:sodipodi="http://sodipodi.sourceforge.net/DTD/sodipodi-0.dtd"
   xmlns="http://www.w3.org/2000/svg"
   xmlns:svg="http://www.w3.org/2000/svg">
  <defs
     id="defs2" />
  <sodipodi:namedview
     id="namedview2"
     pagecolor="#ffffff"
     bordercolor="#999999"
     borderopacity="1"
     inkscape:showpageshadow="2"
     inkscape:pageopacity="0"
     inkscape:pagecheckerboard="0"
     inkscape:deskcolor="#d1d1d1"
     inkscape:zoom="12.245804"
     inkscape:cx="10.860863"
     inkscape:cy="10.615881"
     inkscape:window-width="1920"
     inkscape:window-height="994"
     inkscape:window-x="0"
     inkscape:window-y="0"
     inkscape:window-maximized="1"
     inkscape:current-layer="svg2" />
  <style
     id="current-color-scheme"
     type="text/css">.ColorScheme-Text{color:#232629;}.ColorScheme-NegativeText { color: #da4453; } </style>
  <g
     id="network-wired-activated-limited"
     transform="translate(0,-1.8303417e-5)">
    <rect
       style="opacity:0.01;fill:#3b709a;fill-opacity:1;stroke:none;stroke-width:1.50003"
       id="rect3969-4"
       width="22"
       height="21.999981"
       x="-9.8032e-09"
       y="1.8303417e-05" />
    <path
       id="Computer-0"
       class="st0"
       d="m 18,3 h 1 v 10.285714 c 0,1.257143 -0.9,2.488487 -2,2.488487 H 3 v -2.488487 h 15 z m -3.5,16 -1.560358,-0.06968 v 0 0 z"
       sodipodi:nodetypes="ccssccccccccc"
       style="opacity:1;fill:#cdd8e5;fill-opacity:0.403922;stroke-width:0.267262;enable-background:new" />
    <path
       id="Computer-s-6"
       class="st1"
       d="M 4,13.285714 H 3 v -8 C 3,4.028571 3.9,3 5,3 H 19 V 3.974 H 5 c -0.55,0 -1,0.683143 -1,1.311714 z m 14,0 c 0,1.257143 -0.900937,2.533059 -2,2.488487 h -5 v 0.940085 c 0,1.257143 0.902436,2.112543 2,2.185714 h 1.5 V 18.257 H 13 c -0.55,0 -1,-0.914143 -1,-1.542714 h 4 c 1.649999,0 3,-1.542857 3,-3.428572 z"
       sodipodi:nodetypes="ccssccssccscssccscscc"
       style="fill:#eff0f1;fill-opacity:1;stroke-width:0.267262" />
    <path
       class="ColorScheme-ButtonFocus"
       id="path4564-9"
       d="m 5.505273,5.300967 v 5.107727 h 2 v 5.959014 c 0,1.414841 1.338,2.553864 3,2.553864 H 14.505 v -0.851288 h -3.999727 c -1.108,0 -2,-0.759349 -2,-1.702576 v -5.959014 h 2 V 5.300967 Z m 1,0.851288 h 3 v 3.405151 h -3 z m 1,0.851288 v 1.702575 h 1 V 7.003543 Z"
       style="color:#3daee9;fill:#eff0f1;fill-opacity:1;stroke:none;stroke-width:0.922653"
       sodipodi:nodetypes="cccssccsscccccccccccccc" />
    <path
       id="rect7021-9-4"
       style="fill:#ffd42a;fill-opacity:1;stroke:none;stroke-width:1.39646"
       d="m 14.466664,10.056912 h 0.866672 c 0.480134,0 0.866664,0.446108 0.866664,1.000068 v 0 c 0,0.55396 -0.38653,0.999918 -0.866664,0.999918 H 14.466664 C 13.986531,12.056898 13.6,11.61094 13.6,11.05698 v 0 c 0,-0.55396 0.386531,-1.000068 0.866664,-1.000068 z m 0,-4.999892 h 0.866663 c 0.480131,0 0.866663,0.445958 0.866663,0.999918 v 1.999987 c 0,0.55411 -0.386532,1.000068 -0.866663,1.000068 H 14.466664 C 13.986531,9.056993 13.6,8.611035 13.6,8.056925 V 6.056938 c 0,-0.55396 0.386531,-0.999918 0.866664,-0.999918 z" />
  </g>
</svg>
