<?xml version="1.0" encoding="UTF-8" standalone="no"?>
<svg
   id="svg6"
   version="1.1"
   viewBox="0 0 22 21.999989"
   sodipodi:docname="network-wired-unavailable.svg"
   width="22"
   height="21.999989"
   inkscape:version="1.4.2 (unknown)"
   xmlns:inkscape="http://www.inkscape.org/namespaces/inkscape"
   xmlns:sodipodi="http://sodipodi.sourceforge.net/DTD/sodipodi-0.dtd"
   xmlns="http://www.w3.org/2000/svg"
   xmlns:svg="http://www.w3.org/2000/svg">
  <defs
     id="defs1" />
  <sodipodi:namedview
     id="namedview1"
     pagecolor="#000000"
     bordercolor="#999999"
     borderopacity="1"
     inkscape:showpageshadow="2"
     inkscape:pageopacity="0"
     inkscape:pagecheckerboard="0"
     inkscape:deskcolor="#d1d1d1"
     inkscape:zoom="8.6590909"
     inkscape:cx="10.566929"
     inkscape:cy="-7.5643045"
     inkscape:window-width="1920"
     inkscape:window-height="994"
     inkscape:window-x="0"
     inkscape:window-y="0"
     inkscape:window-maximized="1"
     inkscape:current-layer="svg6" />
  <style
     id="current-color-scheme"
     type="text/css">.ColorScheme-Text{color:#232629;}.ColorScheme-NegativeText { color: #da4453; } </style>
  <g
     id="network-unavailable"
     transform="translate(-1.9209288e-8,-1.2890625e-5)">
    <path
       id="Computer-0-7"
       class="st0"
       d="m 17.99999,3 h 1 v 10.285712 c 0,1.257143 -0.9,2.488487 -1.99999,2.488487 H 3 V 13.285712 H 17.99999 Z M 14.5,18.999998 12.93964,18.930318 v 0 0 z"
       sodipodi:nodetypes="ccssccccccccc"
       style="opacity:0.4;fill:#ffffff;stroke-width:0.267262;enable-background:new" />
    <path
       id="Computer-s-6-7"
       class="st1"
       d="M 4,13.285712 H 3 V 5.28571 C 3,4.02857 3.9,3 5,3 H 18.99999 V 3.974 H 5 c -0.55,0 -1,0.68314 -1,1.31171 z m 13.99999,0 c 0,1.257143 -0.90093,2.533059 -1.99999,2.488487 h -5 v 0.940085 c 0,1.257143 0.90243,2.112543 2,2.185714 h 1.5 v -0.643 H 13 c -0.55,0 -1,-0.914143 -1,-1.542714 h 4 c 1.65,0 2.99999,-1.542857 2.99999,-3.428572 z"
       sodipodi:nodetypes="ccssccssccscssccscscc"
       style="fill:#bf616a;fill-opacity:1;stroke-width:0.267262" />
    <path
       class="ColorScheme-ButtonFocus"
       id="path4564-9-6"
       d="m 5.50527,5.30097 v 5.107723 h 2 v 5.959013 c 0,1.414841 1.3380001,2.553864 3,2.553864 H 14.505 v -0.851288 h -3.99973 c -1.1079999,0 -2,-0.759349 -2,-1.702576 v -5.959013 h 2 V 5.30097 Z m 1,0.85128 H 9.5052701 V 9.557405 H 6.50527 Z m 1,0.85129 v 1.702577 h 1 V 7.00354 Z"
       style="color:#3daee9;fill:#bf616a;fill-opacity:1;stroke:none;stroke-width:0.922653"
       sodipodi:nodetypes="cccssccsscccccccccccccc" />
  </g>
</svg>
