<?xml version="1.0" encoding="UTF-8" standalone="no"?>
<svg
   width="22"
   height="21.999989"
   version="1.1"
   id="svg1"
   sodipodi:docname="network-wired.svg"
   inkscape:version="1.4.2 (unknown)"
   xmlns:inkscape="http://www.inkscape.org/namespaces/inkscape"
   xmlns:sodipodi="http://sodipodi.sourceforge.net/DTD/sodipodi-0.dtd"
   xmlns="http://www.w3.org/2000/svg"
   xmlns:svg="http://www.w3.org/2000/svg">
  <defs
     id="defs1" />
  <sodipodi:namedview
     id="namedview1"
     pagecolor="#171717"
     bordercolor="#999999"
     borderopacity="1"
     inkscape:showpageshadow="2"
     inkscape:pageopacity="0"
     inkscape:pagecheckerboard="0"
     inkscape:deskcolor="#d1d1d1"
     inkscape:zoom="8.6590911"
     inkscape:cx="13.107611"
     inkscape:cy="7.7952754"
     inkscape:window-width="1920"
     inkscape:window-height="994"
     inkscape:window-x="0"
     inkscape:window-y="0"
     inkscape:window-maximized="1"
     inkscape:current-layer="svg1"
     showgrid="true">
    <inkscape:grid
       id="grid1"
       units="px"
       originx="-1.9209288e-08"
       originy="-22.999998"
       spacingx="1"
       spacingy="1"
       empcolor="#0099e5"
       empopacity="0.30196078"
       color="#0099e5"
       opacity="0.14902"
       empspacing="5"
       dotted="false"
       gridanglex="30"
       gridanglez="30"
       visible="true" />
  </sodipodi:namedview>
  <style
     type="text/css"
     id="current-color-scheme">.ColorScheme-Text{color:#31363b;}.ColorScheme-Background{color:#eff0f1;}.ColorScheme-Highlight{color:#3498db;}.ColorScheme-ViewText{color:#31363b;}.ColorScheme-ViewBackground{color:#fcfcfc;}.ColorScheme-ViewHover{color:#93cee9;}.ColorScheme-ViewFocus{color:#3daee9;}.ColorScheme-ButtonText{color:#31363b;}.ColorScheme-ButtonBackground{color:#eff0f1;}.ColorScheme-ButtonHover{color:#93cee9;}.ColorScheme-ButtonFocus{color:#3daee9;}.ColorScheme-NegativeText { color: #e74c3c; } </style>
  <g
     id="network-wired"
     transform="translate(-1.9209288e-8,-1.2890625e-5)">
    <path
       class="ColorScheme-ButtonFocus"
       id="path4564-2"
       d="m 5.317222,5.496678 v 5.103644 h 2 v 5.954249 0 2.445233 h 1 v 0 0 -8.399146 l 2,-3.36e-4 V 5.496678 Z m 1,0.850607 h 3 v 3.402428 h -3 z m 1,0.850608 v 1.701213 h 1 V 7.197893 Z"
       style="color:#3daee9;fill:#eff0f1;fill-opacity:1;stroke:none;stroke-width:0.922284"
       sodipodi:nodetypes="ccccccccccccccccccccccc" />
    <path
       id="Computer-7"
       class="st0"
       d="m 18,3 h 1 v 10.27749 c 0,1.256138 -0.9,2.486497 -2,2.486497 H 3 V 13.27749 h 15 z m -1,12.763987 z"
       sodipodi:nodetypes="ccssccccccccc"
       style="opacity:1;fill:#cdd8e5;fill-opacity:0.403922;stroke-width:0.267155;enable-background:new" />
    <path
       id="Computer-s-2"
       class="st1"
       d="M 4,13.27749 H 3 V 5.283886 C 3,4.027749 3.9,3 5,3 H 19 V 3.973221 H 5 c -0.55,0 -1,0.682597 -1,1.310665 z m 14,0 c 0,1.256138 -0.900937,2.531034 -2,2.486497 h -5 v 0.939333 0 0 h 1 v 0 0 h 4 c 1.649999,0 3,-1.541623 3,-3.42583 z"
       sodipodi:nodetypes="ccssccssccscccccccscc"
       style="fill:#eff0f1;fill-opacity:1;stroke-width:0.267155" />
    <path
       d="m 12.5,4.998401 h 4.400002 V 7.396482 H 12.5 Z"
       id="path81-2"
       style="fill:#cdd8e5;fill-opacity:0.403922;stroke-width:0.0421324" />
    <path
       d="m 12.522423,9.631758 h 4.400002 v 2.398082 h -4.400002 z"
       id="path81-8-6"
       style="fill:#cdd8e5;fill-opacity:0.403922;stroke-width:0.0421324" />
    <path
       d="m 12.145,15.902479 v 3.09752 H 11 v -3.09752 z"
       id="path81-9"
       style="fill:#eff0f1;fill-opacity:1;stroke-width:0.0227965"
       sodipodi:nodetypes="ccccc" />
  </g>
</svg>
