<?xml version="1.0" encoding="UTF-8" standalone="no"?>
<svg
   version="1.1"
   viewBox="0 0 22 21.999981"
   id="svg2"
   sodipodi:docname="network-wired-available.svg"
   width="22"
   height="21.999981"
   inkscape:version="1.4.2 (unknown)"
   xmlns:inkscape="http://www.inkscape.org/namespaces/inkscape"
   xmlns:sodipodi="http://sodipodi.sourceforge.net/DTD/sodipodi-0.dtd"
   xmlns="http://www.w3.org/2000/svg"
   xmlns:svg="http://www.w3.org/2000/svg">
  <defs
     id="defs2" />
  <sodipodi:namedview
     id="namedview2"
     pagecolor="#ffffff"
     bordercolor="#999999"
     borderopacity="1"
     inkscape:showpageshadow="2"
     inkscape:pageopacity="0"
     inkscape:pagecheckerboard="0"
     inkscape:deskcolor="#d1d1d1"
     inkscape:zoom="12.245804"
     inkscape:cx="10.656711"
     inkscape:cy="11.146675"
     inkscape:window-width="1920"
     inkscape:window-height="994"
     inkscape:window-x="0"
     inkscape:window-y="0"
     inkscape:window-maximized="1"
     inkscape:current-layer="svg2" />
  <style
     type="text/css"
     id="current-color-scheme">.ColorScheme-Text{color:#31363b;}.ColorScheme-Highlight { color: #3498db; } </style>
  <g
     id="network-wired-available"
     transform="translate(0,-1.8303417e-5)">
    <path
       id="Computer-0-9"
       class="st0"
       d="m 18,3 h 1 v 10.285714 c 0,1.257143 -0.9,2.488487 -2,2.488487 H 3 v -2.488487 h 15 z m -3.5,15.999997 -1.560358,-0.0697 v 0 0 z"
       sodipodi:nodetypes="ccssccccccccc"
       style="opacity:1;fill:#cdd8e5;fill-opacity:0.403922;stroke-width:0.267262;enable-background:new" />
    <path
       id="Computer-s-6-0"
       class="st1"
       d="M 4,13.285714 H 3 v -8 C 3,4.028571 3.9,3 5,3 H 19 V 3.974 H 5 c -0.55,0 -1,0.683143 -1,1.311714 z m 14,0 c 0,1.257143 -0.900937,2.533059 -2,2.488487 h -5 v 0.940086 c 0,1.25714 0.902436,2.11254 2,2.18571 h 1.5 v -0.643 H 13 c -0.55,0 -1,-0.91414 -1,-1.54271 h 4 c 1.649999,0 3,-1.542858 3,-3.428573 z"
       sodipodi:nodetypes="ccssccssccscssccscscc"
       style="fill:#eff0f1;fill-opacity:1;stroke-width:0.267262" />
    <path
       class="ColorScheme-ButtonFocus"
       id="path4564-9-9"
       d="m 5.505273,5.300967 v 5.107727 h 2 v 5.959014 c 0,1.414839 1.338,2.553859 3,2.553859 H 14.505 v -0.85128 h -3.999727 c -1.108,0 -2,-0.75935 -2,-1.702579 v -5.959014 h 2 V 5.300967 Z m 1,0.851288 h 3 v 3.405151 h -3 z m 1,0.851287 v 1.702576 h 1 V 7.003542 Z"
       style="color:#3daee9;fill:#3daee9;fill-opacity:1;stroke:none;stroke-width:0.922653"
       sodipodi:nodetypes="cccssccsscccccccccccccc" />
    <path
       id="rect6935-9-4-7-7"
       style="fill:#cdd8e5;fill-opacity:0.403922;stroke:none;stroke-width:0.753492"
       d="m 16.266692,11.238389 v 9e-6 c 0,0.738659 -0.594652,1.333328 -1.333379,1.333328 -0.738652,0 -1.333313,-0.594669 -1.333313,-1.333328 v -9e-6 c 0,-0.738669 0.594661,-1.333338 1.333313,-1.333338 0.738727,0 1.333379,0.594669 1.333379,1.333338 z m 0,-2.666667 v 9e-6 c 0,0.738668 -0.594652,1.33332 -1.333379,1.33332 C 14.194661,9.905051 13.6,9.310399 13.6,8.571731 v -9e-6 c 0,-0.738669 0.594661,-1.333329 1.333313,-1.333329 0.738727,0 1.333379,0.59466 1.333379,1.333329 z m 0,-2.666683 v 3.3e-5 c 0,0.73866 -0.594652,1.333321 -1.333305,1.333321 -0.738651,0 -1.333312,-0.594661 -1.333312,-1.333321 v -3.3e-5 c 0,-0.738652 0.594661,-1.333313 1.333312,-1.333313 0.738653,0 1.333305,0.594661 1.333305,1.333313 z" />
  </g>
</svg>
