<?xml version="1.0" encoding="UTF-8" standalone="no"?>
<svg
   viewBox="0 0 22 22.000065"
   version="1.1"
   id="svg1"
   sodipodi:docname="network-wired-activated.svg"
   width="22"
   height="22.000065"
   inkscape:version="1.4.2 (unknown)"
   xmlns:inkscape="http://www.inkscape.org/namespaces/inkscape"
   xmlns:sodipodi="http://sodipodi.sourceforge.net/DTD/sodipodi-0.dtd"
   xmlns="http://www.w3.org/2000/svg"
   xmlns:svg="http://www.w3.org/2000/svg">
  <sodipodi:namedview
     id="namedview1"
     pagecolor="#262626"
     bordercolor="#999999"
     borderopacity="1"
     inkscape:showpageshadow="2"
     inkscape:pageopacity="0"
     inkscape:pagecheckerboard="0"
     inkscape:deskcolor="#d1d1d1"
     inkscape:zoom="12.245804"
     inkscape:cx="10.534221"
     inkscape:cy="-2.3273278"
     inkscape:window-width="1920"
     inkscape:window-height="994"
     inkscape:window-x="0"
     inkscape:window-y="0"
     inkscape:window-maximized="1"
     inkscape:current-layer="svg1" />
  <defs
     id="defs3051">
    <style
       type="text/css"
       id="current-color-scheme">.ColorScheme-Text { color: #fcfcfc; } </style>
  </defs>
  <g
     id="network-wired-activated"
     transform="translate(0,-3.5194578e-5)">
    <path
       id="Computer"
       class="st0"
       d="m 18,3 h 1 v 10.285714 c 0,1.257143 -0.9,2.488487 -2,2.488487 H 3 v -2.488487 h 15 z m -3.5,16 -1.560358,-0.06968 v 0 0 z"
       sodipodi:nodetypes="ccssccccccccc"
       style="opacity:1;fill:#cdd8e5;fill-opacity:0.403922;stroke-width:0.267262;enable-background:new" />
    <path
       id="Computer-s"
       class="st1"
       d="M 4,13.285714 H 3 v -8 C 3,4.028571 3.9000001,3 4.9999999,3 H 19 V 3.974 H 4.9999999 C 4.4499998,3.974 4,4.657143 4,5.285714 Z m 14,0 c 0,1.257143 -0.900937,2.533059 -2,2.488487 h -5 v 0.940085 c 0,1.257143 0.902436,2.112543 2,2.185714 h 1.5 V 18.257 H 13 c -0.55,0 -1,-0.914143 -1,-1.542714 h 4 c 1.649999,0 3,-1.542857 3,-3.428572 z"
       sodipodi:nodetypes="ccssccssccscssccscscc"
       style="fill:#eff0f1;fill-opacity:1;stroke-width:0.267262" />
    <path
       d="m 12.5,5 h 4.400002 V 7.4 H 12.5 Z"
       id="path81"
       style="fill:#00e75c;fill-opacity:1;stroke-width:0.0421493" />
    <path
       d="m 12.522423,9.6370651 h 4.400002 v 2.3999999 h -4.400002 z"
       id="path81-8"
       style="fill:#00e75c;fill-opacity:1;stroke-width:0.0421493" />
    <path
       class="ColorScheme-ButtonFocus"
       id="path4564"
       d="m 5.5052732,5.300967 v 5.107727 h 2 v 5.959014 c 0,1.414841 1.338,2.553864 2.9999998,2.553864 H 14.505 v -0.851288 h -3.999727 c -1.1079998,0 -1.9999998,-0.759349 -1.9999998,-1.702576 V 10.408694 H 10.505273 V 5.300967 Z m 1,0.8512878 h 3 V 9.557406 h -3 z m 1,0.8512878 v 1.7025756 h 1 V 7.0035426 Z"
       style="color:#3daee9;fill:#eff0f1;fill-opacity:1;stroke:none;stroke-width:0.922653"
       sodipodi:nodetypes="cccssccsscccccccccccccc" />
  </g>
</svg>
