<?xml version="1.0" encoding="UTF-8" standalone="no"?>
<svg
   width="22"
   height="21.999981"
   version="1.1"
   id="svg1"
   sodipodi:docname="network-wired-activated-locked.svg"
   inkscape:version="1.3.2 (091e20ef0f, 2023-11-25)"
   xmlns:inkscape="http://www.inkscape.org/namespaces/inkscape"
   xmlns:sodipodi="http://sodipodi.sourceforge.net/DTD/sodipodi-0.dtd"
   xmlns="http://www.w3.org/2000/svg"
   xmlns:svg="http://www.w3.org/2000/svg">
  <defs
     id="defs1" />
  <sodipodi:namedview
     id="namedview1"
     pagecolor="#ffffff"
     bordercolor="#999999"
     borderopacity="1"
     inkscape:showpageshadow="2"
     inkscape:pageopacity="0"
     inkscape:pagecheckerboard="0"
     inkscape:deskcolor="#d1d1d1"
     inkscape:zoom="8.6590909"
     inkscape:cx="11.433071"
     inkscape:cy="1.3858268"
     inkscape:window-width="1920"
     inkscape:window-height="994"
     inkscape:window-x="0"
     inkscape:window-y="0"
     inkscape:window-maximized="1"
     inkscape:current-layer="svg1" />
  <style
     type="text/css"
     id="current-color-scheme">.ColorScheme-Text{color:#31363b;}.ColorScheme-Background{color:#eff0f1;}.ColorScheme-Highlight{color:#3498db;}.ColorScheme-ViewText{color:#31363b;}.ColorScheme-ViewBackground{color:#fcfcfc;}.ColorScheme-ViewHover{color:#93cee9;}.ColorScheme-ViewFocus{color:#3daee9;}.ColorScheme-ButtonText{color:#31363b;}.ColorScheme-ButtonBackground{color:#eff0f1;}.ColorScheme-ButtonHover{color:#93cee9;}.ColorScheme-ButtonFocus{color:#3daee9;}.ColorScheme-NegativeText { color: #e74c3c; } </style>
  <g
     id="network-wired-activated-locked"
     transform="translate(0,-1.8303417e-5)">
    <rect
       style="opacity:0.01;fill:#3b709a;fill-opacity:1;stroke:none;stroke-width:1.50003"
       id="rect3969-6"
       width="22"
       height="21.999981"
       x="-9.8032e-09"
       y="1.8303417e-05" />
    <path
       id="Computer-0-9-7"
       class="st0"
       d="m 18,3 h 1 v 10.285714 c 0,1.257143 -0.9,2.488487 -2,2.488487 H 3 v -2.488487 h 15 z m -3.5,16 -1.56036,-0.06968 v 0 0 z"
       sodipodi:nodetypes="ccssccccccccc"
       style="opacity:1;fill:#cdd8e5;fill-opacity:0.403922;stroke-width:0.267262;enable-background:new" />
    <path
       id="Computer-s-6-0-1"
       class="st1"
       d="M 4,13.285714 H 3 v -8 C 3,4.028571 3.9,3 5,3 H 19 V 3.974 H 5 c -0.55,0 -1,0.683143 -1,1.311714 z m 14,0 c 0,1.257143 -0.90094,2.533059 -2,2.488487 h -5 v 0.940085 c 0,1.257143 0.90244,2.112543 2,2.185714 h 1.5 V 18.257 H 13 c -0.55,0 -1,-0.914143 -1,-1.542714 h 4 c 1.65,0 3,-1.542857 3,-3.428572 z"
       sodipodi:nodetypes="ccssccssccscssccscscc"
       style="fill:#eff0f1;fill-opacity:1;stroke-width:0.267262" />
    <path
       class="ColorScheme-ButtonFocus"
       id="path4564-9-9-1"
       d="m 5.50527,5.300967 v 5.107727 h 2 v 5.959014 c 0,1.414841 1.338,2.553864 3,2.553864 H 14.505 v -0.851288 h -3.99973 c -1.108,0 -2,-0.759349 -2,-1.702576 v -5.959014 h 2 V 5.300967 Z m 1,0.851288 h 3 v 3.4051513 h -3 z m 1,0.851287 v 1.702576 h 1 V 7.003542 Z"
       style="color:#3daee9;fill:#eff0f1;fill-opacity:1;stroke:none;stroke-width:0.922653"
       sodipodi:nodetypes="cccssccsscccccccccccccc" />
    <path
       id="path6814-3-9"
       d="m 14.36746,6.625196 c -1.10625,2e-6 -1.84375,0.737502 -1.84375,1.475 v 1.4749983 h -0.7375 v 0.5531247 2.396877 h 0.55315 4.05625 0.5531 V 9.5751943 c -0.36875,0 -0.36875,0 -0.7375,0 V 8.100196 c 0,-0.737498 -0.7375,-1.475001 -1.84375,-1.475 z m 0,0.737502 c 0.36875,0 1.10625,0 1.10625,1.014058 v 1.1984383 h -2.2125 V 8.376756 c 0,-1.014058 0.75159,-1.014058 1.10625,-1.014058 z"
       style="fill:#cdd8e5;fill-opacity:0.403922;stroke:none;stroke-width:0.553125" />
  </g>
</svg>
