<?xml version="1.0" encoding="UTF-8" standalone="no"?>
<svg
   id="svg7"
   version="1.1"
   viewBox="0 0 24 24"
   width="24"
   height="24"
   sodipodi:docname="update-none.svg"
   inkscape:version="1.3.2 (091e20ef0f, 2023-11-25)"
   xmlns:inkscape="http://www.inkscape.org/namespaces/inkscape"
   xmlns:sodipodi="http://sodipodi.sourceforge.net/DTD/sodipodi-0.dtd"
   xmlns="http://www.w3.org/2000/svg"
   xmlns:svg="http://www.w3.org/2000/svg">
  <sodipodi:namedview
     id="namedview1"
     pagecolor="#ffffff"
     bordercolor="#999999"
     borderopacity="1"
     inkscape:showpageshadow="2"
     inkscape:pageopacity="0"
     inkscape:pagecheckerboard="0"
     inkscape:deskcolor="#d1d1d1"
     inkscape:zoom="11.254783"
     inkscape:cx="12.261454"
     inkscape:cy="19.191841"
     inkscape:window-width="1920"
     inkscape:window-height="996"
     inkscape:window-x="0"
     inkscape:window-y="0"
     inkscape:window-maximized="1"
     inkscape:current-layer="svg7" />
  <defs
     id="defs3">
    <style
       type="text/css"
       id="current-color-scheme">.ColorScheme-Text { color: #fcfcfc; } </style>
  </defs>
  <g
     id="22-22-update-none"
     transform="matrix(3.7795276,0,0,3.7795276,1,-1099.5196)">
    <rect
       style="opacity:0.003;fill:#000000;fill-opacity:1;stroke:none;stroke-width:0.10795;stroke-miterlimit:4;stroke-dasharray:none;stroke-opacity:1"
       id="rect1396"
       width="5.8208332"
       height="5.8208332"
       x="0"
       y="291.17914"
       ry="1.2988289e-06"
       rx="1.2988289e-06" />
    <polygon
       id="Arrow-Down-367"
       class="st0"
       points="4,28 20,28 20,4 40,4 40,0 44,0 44,28 60,28 32,56 "
       transform="matrix(-0.06604269,0,0,-0.06604269,5.0208947,296.20623)"
       style="fill:#cdd8e5;fill-opacity:0.403922" />
    <path
       id="ArrowDown-s-5"
       class="st1"
       d="m 2.1150163,294.35208 v 1.58503 H 2.379187 v -1.58503 z m 1.8491955,-1.54539 -0.6802399,-0.68024 c -0.2047322,-0.20474 -0.5415501,-0.20474 -0.7462824,0 l -0.6868439,0.68684 0.1849195,0.18492 0.686844,-0.68024 c 0.1056683,-0.10567 0.270775,-0.10567 0.3764433,0 l 0.6802398,0.68024 z"
       style="clip-rule:evenodd;fill:#eff0f1;fill-opacity:1;fill-rule:evenodd;stroke-width:0.0660427" />
  </g>
</svg>
