<?xml version="1.0" encoding="UTF-8" standalone="no"?>
<svg
   width="22.008957"
   height="22.083927"
   version="1.1"
   id="svg1"
   sodipodi:docname="wallet-closed.svg"
   inkscape:version="1.3.2 (091e20ef0f, 2023-11-25)"
   xmlns:inkscape="http://www.inkscape.org/namespaces/inkscape"
   xmlns:sodipodi="http://sodipodi.sourceforge.net/DTD/sodipodi-0.dtd"
   xmlns="http://www.w3.org/2000/svg"
   xmlns:svg="http://www.w3.org/2000/svg">
  <defs
     id="defs1" />
  <sodipodi:namedview
     id="namedview1"
     pagecolor="#ffffff"
     bordercolor="#999999"
     borderopacity="1"
     inkscape:showpageshadow="2"
     inkscape:pageopacity="0"
     inkscape:pagecheckerboard="0"
     inkscape:deskcolor="#d1d1d1"
     inkscape:zoom="12.245804"
     inkscape:cx="11.269166"
     inkscape:cy="17.720355"
     inkscape:window-width="1920"
     inkscape:window-height="994"
     inkscape:window-x="0"
     inkscape:window-y="0"
     inkscape:window-maximized="1"
     inkscape:current-layer="svg1" />
  <style
     type="text/css"
     id="current-color-scheme">
      .ColorScheme-Text {
        color:#fcfcfc;
      }
      .ColorScheme-Background {
        color:#eff0f1;
      }
      .ColorScheme-Highlight {
        color:#3daee9;
      }
      .ColorScheme-ViewText {
        color:#31363b;
      }
      .ColorScheme-ViewBackground {
        color:#fcfcfc;
      }
      .ColorScheme-ViewHover {
        color:#93cee9;
      }
      .ColorScheme-ViewFocus{
        color:#3daee9;
      }
      .ColorScheme-ButtonText {
        color:#31363b;
      }
      .ColorScheme-ButtonBackground {
        color:#eff0f1;
      }
      .ColorScheme-ButtonHover {
        color:#93cee9;
      }
      .ColorScheme-ButtonFocus{
        color:#3daee9;
      }
      </style>
  <g
     id="22-22-wallet-closed-3">
    <rect
       style="opacity:0.00100002;stroke-width:0.688951"
       width="22.008957"
       height="22.083927"
       x="0"
       y="0"
       id="rect12-7-6-6" />
    <path
       id="Wallet-3-5"
       class="st0"
       d="M 3,6.1414716 4.3338759,7.2122075 H 19.006515 v 8.0305185 c 0,1.472266 -1.20049,2.676841 -2.667753,2.676841 H 3 Z m 4.8019546,0 z"
       style="fill:#cdd8e5;fill-opacity:0.403922;stroke-width:0.267229"
       sodipodi:nodetypes="cccsscccccc" />
    <path
       id="Wallet-s-6-3"
       class="st1"
       d="M 17.939414,4 V 5.0707354 H 5.1342018 c -0.586905,0 -1.0671004,0.4818318 -1.0671004,1.0707361 0,0.5889049 0.4801954,1.0707353 1.0671004,1.0707353 H 4.6006515 C 3.7202931,7.2122068 3,7.0248281 3,6.1414715 3,4.9636619 3.9603909,4 5.1342018,4 Z M 4.0671014,17.919567 v 1.070734 H 15.805213 c 1.760715,0 3.201302,-1.445491 3.201302,-3.212202 V 8.2829479 h -1.067101 v 7.4951511 c 0,1.1778 -0.960392,2.141468 -2.134201,2.141468 z M 17.939414,4 v 0 1.0707354 0 z"
       style="fill:#eff0f1;fill-opacity:1;stroke-width:0.267229"
       sodipodi:nodetypes="ccsscssscccssccsscccccc" />
  </g>
</svg>
