<?xml version="1.0" encoding="UTF-8" standalone="no"?>
<!-- Created with Inkscape (http://www.inkscape.org/) -->

<svg
   width="22"
   version="1.1"
   height="22"
   id="svg1"
   sodipodi:docname="start-here-kde.svg"
   inkscape:version="1.3.2 (091e20ef0f, 2023-11-25)"
   xmlns:inkscape="http://www.inkscape.org/namespaces/inkscape"
   xmlns:sodipodi="http://sodipodi.sourceforge.net/DTD/sodipodi-0.dtd"
   xmlns="http://www.w3.org/2000/svg"
   xmlns:svg="http://www.w3.org/2000/svg">
  <sodipodi:namedview
     id="namedview1"
     pagecolor="#000000"
     bordercolor="#999999"
     borderopacity="1"
     inkscape:showpageshadow="2"
     inkscape:pageopacity="0"
     inkscape:pagecheckerboard="0"
     inkscape:deskcolor="#d1d1d1"
     inkscape:zoom="2.9765625"
     inkscape:cx="11.422572"
     inkscape:cy="11.422572"
     inkscape:window-width="1920"
     inkscape:window-height="994"
     inkscape:window-x="0"
     inkscape:window-y="0"
     inkscape:window-maximized="1"
     inkscape:current-layer="layer1" />
  <defs
     id="defs5455" />
  <metadata
     id="metadata5458" />
  <g
     inkscape:label="Capa 1"
     inkscape:groupmode="layer"
     id="layer1"
     transform="translate(-416.57143,-618.798)">
    <flowRoot
       line-height="125%"
       style="font-size:32.5px;font-family:sans-serif"
       id="flowRoot4170"><flowRegion
         id="flowRegion4172"><rect
           width="87.75001"
           x="452.32144"
           y="489.79807"
           height="48.750004"
           id="rect4174" /></flowRegion><flowPara
         id="flowPara4176">Plasm</flowPara></flowRoot>
    <g
       id="22-22-start-here-kde"
       transform="translate(416.57143,618.798)">
      <rect
         style="opacity:0.00100002;vector-effect:none;fill:#000000;fill-opacity:1;stroke:none;stroke-width:2.71574;stroke-linecap:round;stroke-linejoin:round;stroke-miterlimit:4;stroke-dasharray:none;stroke-dashoffset:0;stroke-opacity:1"
         y="0"
         x="0"
         height="22"
         width="22"
         id="rect849" />
      <path
         style="color:#d3dae3;fill:#cdd8e5;fill-opacity:0.403922;stroke-width:0.708064"
         d="M 11.727267,3 8.818179,3.417385 v 9.974149 l 2.909088,-0.740522 V 8.797609 l 2.909094,4.542762 2.909093,-1.034038 L 13.909092,8.170185 17.546875,3.690704 14.724434,3 11.727267,7.521219 Z M 5.8039739,5.704922 c -0.068793,0 -0.1375888,0.0254 -0.1903408,0.0754 L 4.4701664,6.864176 c -0.1055033,0.100003 -0.080107,0.242866 0,0.362182 l 1.1832393,1.761095 c -0.087668,0.172491 -0.1635799,0.350131 -0.2272732,0.531828 -0.00279,0.0078 -0.00715,0.01506 -0.00992,0.02289 L 3.269888,9.994562 C 3.1242351,10.025242 3,10.108956 3,10.250381 v 0.67724 0.677241 c 0,0.141425 0.1242351,0.225137 0.2698866,0.255817 l 2.1463072,0.452391 c 0.00473,0.01337 0.012209,0.02572 0.017052,0.03905 0.062001,0.176505 0.1355283,0.349178 0.2201697,0.517019 l -1.1832387,1.759748 c -0.080107,0.119316 -0.1055041,0.262179 0,0.362182 l 1.1434664,1.083854 c 0.1055032,0.100003 0.2751766,0.100003 0.380682,0 l 1.8551122,-1.120207 c 0.18237,0.08407 0.3702581,0.156923 0.5624995,0.218117 0.012619,0.0042 0.024286,0.01071 0.036933,0.01481 l 0.4758517,2.033067 c 0,0.141426 0.120684,0.255816 0.2698867,0.255816 h 1.6150547 c 0.149208,0 0.237523,-0.117759 0.269889,-0.255816 l 0.475852,-2.095002 c 0.218625,-0.07791 0.430851,-0.171064 0.634947,-0.278706 l 1.811078,1.227919 c 0.105501,0.100004 0.27518,0.100004 0.38068,0 l 1.143468,-1.083854 c 0.105502,-0.100003 0.0801,-0.242865 0,-0.362182 l -0.688922,-0.990952 -0.07242,0.02558 c -0.163815,0.05833 -0.348233,-0.0022 -0.438919,-0.144064 L 13.60088,12.388473 c -0.603588,1.36851 -2.02904,2.330623 -3.691762,2.330623 -2.2091386,0 -4,-1.697499 -4,-3.79147 0,-1.606838 1.0565814,-2.976889 2.5454551,-3.528921 V 6.643374 l -0.00572,0.02424 c -0.016051,0.0052 -0.030869,0.01349 -0.046869,0.01885 -0.1896827,0.05971 -0.3751881,0.130763 -0.55539,0.212731 L 5.994313,5.780335 c -0.052758,-0.05 -0.1215472,-0.0754 -0.1903417,-0.0754 z"
         class="ColorScheme-Text"
         id="path10-7-7" />
      <path
         id="Power-s-5"
         class="st1"
         d="m 19,11.761741 v 0 h -1.090908 v 0 c 0,3.438173 -3.645455,6.204222 -7.272733,6.204222 V 19 C 14.863637,19 19,15.768634 19,11.761741 Z"
         style="fill:#eff0f1;fill-opacity:1;stroke-width:0.265523"
         sodipodi:nodetypes="ccccccc" />
    </g>
  </g>
</svg>
