<?xml version="1.0" encoding="UTF-8" standalone="no"?>
<svg
   viewBox="0 0 22 22"
   version="1.1"
   id="svg4"
   sodipodi:docname="audio-volume-high-warning.svg"
   width="22"
   height="22"
   inkscape:version="1.3.2 (091e20ef0f, 2023-11-25)"
   xmlns:inkscape="http://www.inkscape.org/namespaces/inkscape"
   xmlns:sodipodi="http://sodipodi.sourceforge.net/DTD/sodipodi-0.dtd"
   xmlns:xlink="http://www.w3.org/1999/xlink"
   xmlns="http://www.w3.org/2000/svg"
   xmlns:svg="http://www.w3.org/2000/svg">
  <defs
     id="defs4">
    <linearGradient
       inkscape:collect="always"
       xlink:href="#linearGradient1"
       id="linearGradient2"
       x1="2"
       y1="10.628571"
       x2="20"
       y2="10.628571"
       gradientUnits="userSpaceOnUse" />
    <linearGradient
       id="linearGradient1"
       inkscape:collect="always">
      <stop
         style="stop-color:#eff0f1;stop-opacity:1;"
         offset="0"
         id="stop1" />
      <stop
         style="stop-color:#cdd8e5;stop-opacity:0.40392157;"
         offset="0.64115644"
         id="stop4" />
      <stop
         style="stop-color:#ff9955;stop-opacity:1;"
         offset="0.64115644"
         id="stop3" />
      <stop
         style="stop-color:#ff9955;stop-opacity:1;"
         offset="1"
         id="stop2" />
    </linearGradient>
  </defs>
  <sodipodi:namedview
     id="namedview4"
     pagecolor="#ffffff"
     bordercolor="#999999"
     borderopacity="1"
     inkscape:showpageshadow="2"
     inkscape:pageopacity="0"
     inkscape:pagecheckerboard="0"
     inkscape:deskcolor="#d1d1d1"
     inkscape:zoom="16.83798"
     inkscape:cx="10.987066"
     inkscape:cy="-3.0882564"
     inkscape:window-width="1920"
     inkscape:window-height="994"
     inkscape:window-x="0"
     inkscape:window-y="0"
     inkscape:window-maximized="1"
     inkscape:current-layer="svg4" />
  <style
     id="current-color-scheme"
     type="text/css">.ColorScheme-Text { color: #fcfcfc; } </style>
  <g
     id="22-22-audio-volume-high">
    <path
       style="opacity:0.00100002"
       d="M 0,0 H 22 V 22 H 0 Z"
       id="path7" />
    <path
       id="Sound-36"
       class="st0"
       d="M 12.125,19 H 11 L 6.5000005,14.428571 V 7.571429 H 5.3749996 v 6.857142 H 2 v -4 C 2,8.857143 3.2656248,7.571429 4.8125002,7.571429 L 5.3749996,6.428571 H 5.9375001 L 6.5000005,5.914285 6.7812502,7.285714 11,3 h 1.125 z"
       style="fill:#cdd8e5;fill-opacity:0.403922;stroke-width:0.283474" />
    <path
       id="Sound-s-7"
       class="st1"
       d="M 15.78125,17.342857 C 16.7375,16.6 17.525001,15.628571 18.059375,14.542857 18.59375,13.428571 18.875,12.228571 18.875,11 18.875,9.771429 18.59375,8.571429 18.059375,7.457143 17.525001,6.342857 16.7375,5.4 15.78125,4.657143 l 0.675,-0.914286 C 17.553126,4.6 18.425,5.685714 19.04375,6.942857 19.690626,8.2 20,9.6 20,11 c 0,1.4 -0.309374,2.8 -0.928125,4.057143 -0.618749,1.257142 -1.490625,2.342857 -2.5875,3.2 z m -0.675,-4.428572 c -0.253124,0.628572 -0.61875,1.2 -1.096875,1.657144 l 0.7875,0.8 c 0.562501,-0.571429 1.040625,-1.285715 1.35,-2.028572 0.309375,-0.771428 0.478125,-1.571428 0.478125,-2.4 0,-0.828572 -0.16875,-1.628572 -0.478125,-2.4 C 15.8375,7.771429 15.3875,7.085714 14.796875,6.514286 l -0.7875,0.8 C 14.4875,7.8 14.853126,8.371429 15.10625,8.971429 15.359376,9.6 15.5,10.257143 15.5,10.942857 c 0,0.685714 -0.140624,1.371428 -0.39375,1.971428 z M 3.1249999,13.285714 V 9.857143 C 3.1249999,8.6 4.1375005,7.571429 5.3749996,7.571429 V 6.428571 C 3.5187499,6.428571 2,7.971429 2,9.857143 v 3.428571 z M 9.3687499,3 6.5000005,5.914285 V 7.571429 L 10.184375,3.828571 Z"
       style="fill:url(#linearGradient2);fill-opacity:1;stroke-width:0.283474" />
  </g>
</svg>
