<?xml version="1.0" encoding="UTF-8" standalone="no"?>
<svg
   viewBox="0 0 22 22"
   version="1.1"
   id="svg1"
   sodipodi:docname="audio-ready.svg"
   width="22"
   height="22"
   inkscape:version="1.3.2 (091e20ef0f, 2023-11-25)"
   xmlns:inkscape="http://www.inkscape.org/namespaces/inkscape"
   xmlns:sodipodi="http://sodipodi.sourceforge.net/DTD/sodipodi-0.dtd"
   xmlns="http://www.w3.org/2000/svg"
   xmlns:svg="http://www.w3.org/2000/svg">
  <sodipodi:namedview
     id="namedview1"
     pagecolor="#000000"
     bordercolor="#999999"
     borderopacity="1"
     inkscape:showpageshadow="2"
     inkscape:pageopacity="0"
     inkscape:pagecheckerboard="0"
     inkscape:deskcolor="#d1d1d1"
     inkscape:zoom="23.8125"
     inkscape:cx="11.002625"
     inkscape:cy="9.3228347"
     inkscape:window-width="1920"
     inkscape:window-height="994"
     inkscape:window-x="0"
     inkscape:window-y="0"
     inkscape:window-maximized="1"
     inkscape:current-layer="svg1"
     showgrid="true">
    <inkscape:grid
       id="grid1"
       units="px"
       originx="0"
       originy="0"
       spacingx="1"
       spacingy="1"
       empcolor="#0099e5"
       empopacity="0.30196078"
       color="#0099e5"
       opacity="0.14901961"
       empspacing="5"
       dotted="false"
       gridanglex="30"
       gridanglez="30"
       visible="true" />
  </sodipodi:namedview>
  <defs
     id="defs3051">
    <style
       type="text/css"
       id="current-color-scheme">.ColorScheme-Text{color:#232629;}.ColorScheme-NeutralText { color: #f67400; } </style>
  </defs>
  <path
     style="opacity:1;fill:#ff9955;fill-opacity:1;stroke:none;stroke-width:0.999993"
     d="m 19.996072,10.790963 a 3.0000061,3.0000061 0 0 1 -3.000006,3.000001 3.0000061,3.0000061 0 0 1 -3.000007,-3.000001 3.0000061,3.0000061 0 0 1 3.000007,-2.9999992 3.0000061,3.0000061 0 0 1 3.000006,2.9999992 z"
     class="ColorScheme-NeutralText"
     id="path1" />
  <g
     id="22-22-audio-volume-high">
    <path
       style="opacity:0.00100002"
       d="M 0,0 H 22 V 22 H 0 Z"
       id="path7" />
    <path
       id="Sound-36"
       class="st0"
       d="M 12.125,19 H 11 L 6.5000005,14.428571 V 7.571429 H 5.3749996 v 6.857142 H 2 v -4 C 2,8.857143 3.2656248,7.571429 4.8125002,7.571429 L 5.3749996,6.428571 H 5.9375001 L 6.5000005,5.914285 6.7812502,7.285714 11,3 h 1.125 z"
       style="fill:#cdd8e5;fill-opacity:0.403922;stroke-width:0.283474" />
    <path
       id="Sound-s-7"
       class="st1"
       d="m 8.7681266,4.7864265 0.094398,0.013648 0.017725,-0.015298 -0.017725,-0.099287 -0.094398,0.055643 0.171063,0.093588 -0.100164,-0.033596 -0.00963,-0.058343 -0.00424,-0.142332 -0.067815,0.092388 z m -0.00308,0.022872 c 0.040839,-0.1693282 0.036983,0.019349 0.036983,0.019349 l -0.052395,-0.1658792 0.090158,0.155155 c 0,0 -0.075525,0.018318 -0.067807,-0.0063 l 0.067807,-0.216273 -0.048162,0.1971508 0.052395,0.044094 -0.078978,-0.1066365 -0.026197,0.03967 c 0,0 0.06935,-0.014399 0.026196,0.03967 z M 3.1249999,13.285714 V 9.857143 C 3.1249999,8.6 4.1375005,7.571429 5.3749996,7.571429 V 6.428571 C 3.5187499,6.428571 2,7.971429 2,9.857143 v 3.428571 z M 9.3687499,3 6.5000005,5.914285 V 7.571429 L 10.184375,3.828571 Z"
       style="opacity:1;fill:#ebebeb;fill-opacity:1;stroke-width:0.283474"
       sodipodi:nodetypes="cccccccccccccccccccccccsccsccccccc" />
  </g>
</svg>
