<?xml version="1.0" encoding="UTF-8" standalone="no"?>
<svg
   width="22"
   height="22"
   version="1.1"
   id="svg2"
   sodipodi:docname="input-keyboard-virtual-on.svg"
   inkscape:version="1.3.2 (091e20ef0f, 2023-11-25)"
   xmlns:inkscape="http://www.inkscape.org/namespaces/inkscape"
   xmlns:sodipodi="http://sodipodi.sourceforge.net/DTD/sodipodi-0.dtd"
   xmlns="http://www.w3.org/2000/svg"
   xmlns:svg="http://www.w3.org/2000/svg">
  <defs
     id="defs2" />
  <sodipodi:namedview
     id="namedview2"
     pagecolor="#ffffff"
     bordercolor="#999999"
     borderopacity="1"
     inkscape:showpageshadow="2"
     inkscape:pageopacity="0"
     inkscape:pagecheckerboard="0"
     inkscape:deskcolor="#d1d1d1"
     inkscape:zoom="12.245804"
     inkscape:cx="11.350827"
     inkscape:cy="24.253206"
     inkscape:window-width="1920"
     inkscape:window-height="994"
     inkscape:window-x="0"
     inkscape:window-y="0"
     inkscape:window-maximized="1"
     inkscape:current-layer="svg2" />
  <style
     type="text/css"
     id="current-color-scheme">.ColorScheme-Text {
        color:#fcfcfc;
      }
      .ColorScheme-Background {
        color:#eff0f1;
      }
      .ColorScheme-Highlight {
        color:#3daee9;
      }
      .ColorScheme-ViewText {
        color:#31363b;
      }
      .ColorScheme-ViewBackground {
        color:#fcfcfc;
      }
      .ColorScheme-ViewHover {
        color:#93cee9;
      }
      .ColorScheme-ViewFocus{
        color:#3daee9;
      }
      .ColorScheme-ButtonText {
        color:#31363b;
      }
      .ColorScheme-ButtonBackground {
        color:#eff0f1;
      }
      .ColorScheme-ButtonHover {
        color:#93cee9;
      }
      .ColorScheme-ButtonFocus{
        color:#3daee9;
      }</style>
  <g
     id="22-22-input-keyboard-virtual-on-3">
    <rect
       y="0"
       x="0"
       height="22"
       width="22"
       id="rect4140"
       style="fill:none;fill-opacity:1;stroke:none;stroke-linejoin:bevel" />
    <path
       id="path8-9-7"
       d="M 4.625,2.2 A 1.8749996,1.9047499 0 0 0 2.75,4.10476 1.8749996,1.9047499 0 0 0 4.625,6.009522 1.8749996,1.9047499 0 0 0 6.5,4.10476 1.8749996,1.9047499 0 0 0 4.625,2.2 Z"
       style="fill:#00d400;fill-opacity:1;stroke:none;stroke-width:1.09954"
       inkscape:connector-curvature="0" />
    <path
       id="Keyboard-3-3"
       class="st0"
       d="M 1,6.6923074 V 17.769229 H 17.875001 C 19.59375,17.769229 21,16.384615 21,14.692307 V 6.6923074 Z m 10.625,2.4615368 h 1.25 v 1.2307698 h -1.25 z m -2.5,0 h 1.25 v 1.2307698 h -1.25 z m 2.5,2.4615408 v 1.230771 h -1.25 V 11.615385 Z M 3.5,9.1538442 H 5.375001 V 10.384614 H 3.5 Z M 6,15.307692 H 4.75 v -1.23077 H 6 Z M 6.625,12.846156 H 3.5 v -1.230771 h 3.125 z m 0,-3.6923118 h 1.25 v 1.2307698 h -1.25 z m 2.5,2.4615408 v 1.230771 H 7.875 V 11.615385 Z M 13.5,15.307692 H 7.25 v -1.23077 h 6.25 z m 0.625,-2.461536 h -1.25 v -1.230771 h 1.25 z m 0,-3.6923118 h 1.250001 V 10.384614 H 14.125 Z M 16,15.307692 h -1.25 v -1.23077 H 16 Z m 1.875001,-2.461536 h -2.5 v -1.230771 h 2.5 z m 0,-2.461542 H 16.625 V 9.1538442 h 1.250001 z"
       style="clip-rule:evenodd;fill:#cdd8e5;fill-opacity:0.403922;fill-rule:evenodd;stroke-width:0.310088" />
    <path
       id="Keyboard-s-6-5"
       class="st1"
       d="M 21,7.9230779 V 15.307692 C 21,17.338463 19.312499,19 17.25,19 h -15 v -1.230771 h 15 c 1.375,0 2.5,-1.107692 2.5,-2.461537 V 7.9230779 Z M 14.125,3.615384 V 3 h 1.250001 v 0.615384 c 0,1.015386 -0.843751,1.846155 -1.875001,1.846155 h -1.25 c -0.343749,0 -0.625,0.2769242 -0.625,0.6153831 v 0.6153853 h -1.25 V 6.0769221 C 10.375,5.061539 11.21875,4.23077 12.25,4.23077 h 1.25 c 0.34375,0 0.625,-0.276924 0.625,-0.615386 z"
       style="clip-rule:evenodd;fill:#eff0f1;fill-opacity:1;fill-rule:evenodd;stroke-width:0.310088" />
  </g>
</svg>
