<?xml version="1.0" encoding="UTF-8" standalone="no"?>
<svg
   width="22"
   height="22"
   version="1.1"
   id="svg1"
   sodipodi:docname="input-combo-on.svg"
   inkscape:version="1.3.2 (091e20ef0f, 2023-11-25)"
   xmlns:inkscape="http://www.inkscape.org/namespaces/inkscape"
   xmlns:sodipodi="http://sodipodi.sourceforge.net/DTD/sodipodi-0.dtd"
   xmlns="http://www.w3.org/2000/svg"
   xmlns:svg="http://www.w3.org/2000/svg">
  <defs
     id="defs1" />
  <sodipodi:namedview
     id="namedview1"
     pagecolor="#353535"
     bordercolor="#999999"
     borderopacity="1"
     inkscape:showpageshadow="2"
     inkscape:pageopacity="0"
     inkscape:pagecheckerboard="0"
     inkscape:deskcolor="#d1d1d1"
     inkscape:zoom="8.6590909"
     inkscape:cx="16.052493"
     inkscape:cy="10.047244"
     inkscape:window-width="1920"
     inkscape:window-height="994"
     inkscape:window-x="0"
     inkscape:window-y="0"
     inkscape:window-maximized="1"
     inkscape:current-layer="svg1" />
  <style
     type="text/css"
     id="current-color-scheme">.ColorScheme-Text {
        color:#fcfcfc;
      }
      .ColorScheme-Background {
        color:#eff0f1;
      }
      .ColorScheme-Highlight {
        color:#3daee9;
      }
      .ColorScheme-ViewText {
        color:#31363b;
      }
      .ColorScheme-ViewBackground {
        color:#fcfcfc;
      }
      .ColorScheme-ViewHover {
        color:#93cee9;
      }
      .ColorScheme-ViewFocus{
        color:#3daee9;
      }
      .ColorScheme-ButtonText {
        color:#31363b;
      }
      .ColorScheme-ButtonBackground {
        color:#eff0f1;
      }
      .ColorScheme-ButtonHover {
        color:#93cee9;
      }
      .ColorScheme-ButtonFocus{
        color:#3daee9;
      }</style>
  <g
     id="22-22-input-caps-on">
    <rect
       y="-1.2158202e-06"
       x="2.1582031e-07"
       height="22"
       width="22"
       id="rect964"
       style="opacity:0.00100002;fill-opacity:1;stroke:none;stroke-width:0.49066;stroke-linecap:round;stroke-linejoin:round;stroke-miterlimit:4;stroke-dasharray:none;stroke-opacity:1" />
    <path
       id="Edit-0"
       class="st0"
       d="m 5.8076923,15.571445 v 0 0 0 0 0 0 0 L 16.244713,15.669115 5.8076923,15.571445 V 5.266741 H 16.454545 L 18.499999,3 3.5,3.000087 v 14.857066 h 12.115384 c 1.292755,0 1.828932,-2.181882 1.828932,-2.181882 z"
       sodipodi:nodetypes="cccccccccccccccscc"
       style="fill:#cdd8e5;fill-opacity:0.403922;stroke-width:0.287084" />
    <path
       id="Edit-s-61"
       class="st1"
       d="M 15.038462,17.857153 H 4.6538462 V 19 H 15.038462 C 16.942306,19 18.5,17.457155 18.5,15.571445 V 5.200075 l -1.153845,1.333326 v 9.038044 c 0,1.25714 -1.038462,2.285708 -2.307693,2.285708 z"
       sodipodi:nodetypes="ccccccccc"
       style="fill:#eff0f1;fill-opacity:1;stroke-width:0.287084" />
    <path
       d="m 14.125413,13.533156 h -0.126844 c -0.214813,0 -0.396913,-0.131059 -0.473638,-0.312078 L 11.022706,6.851506 c -0.002,-0.004 -0.0047,-0.007 -0.0071,-0.011 -0.01434,-0.035 -0.03887,-0.063 -0.06137,-0.094 -0.01637,-0.023 -0.02863,-0.049 -0.0491,-0.06904 -0.01747,-0.01707 -0.0409,-0.027 -0.06033,-0.04207 -0.03484,-0.02393 -0.06757,-0.04993 -0.106404,-0.065 -0.004,-0.002 -0.006,-0.0047 -0.0094,-0.006 -0.02154,-0.008 -0.04304,-0.006 -0.06443,-0.011 -0.0399,-0.009 -0.07774,-0.02 -0.118678,-0.02 -0.04193,0 -0.08084,0.011 -0.120735,0.021 -0.02047,0.0047 -0.042,0.002 -0.0624,0.01 -0.0013,0 -0.0033,0.004 -0.004,0.004 -0.128843,0.05 -0.237307,0.147019 -0.290508,0.283051 l -2.5022772,6.369579 c -0.075703,0.181019 -0.2578157,0.312079 -0.4726233,0.312079 H 6.9664931 c -0.2833839,0 -0.5114931,0.224052 -0.5114931,0.500117 0,0.274072 0.2281092,0.500131 0.5114931,0.500131 h 0.838821 0.01125 1.1948729 c 0.282349,0 0.511499,-0.226059 0.511499,-0.500131 0,-0.276065 -0.22915,-0.500117 -0.511499,-0.500117 H 8.915309 c -0.1422007,0 -0.2557507,-0.113033 -0.2557507,-0.250066 0,-0.032 0.00544,-0.062 0.016364,-0.09103 0.00133,-0.002 -0.0041,0.0033 -0.0041,0.0013 l 0.2598549,-0.66217 h 2.7303538 l 0.290518,0.759176 c 6.81e-4,6.67e-4 0,6.67e-4 0,0.002 0.042,0.115039 -0.007,0.241072 -0.10944,0.300072 0,0 0.004,0.0033 0.004,0.004 -0.164747,0.08301 -0.278297,0.245038 -0.278297,0.437111 0,0.274065 0.228108,0.500124 0.511492,0.500124 h 1.104852 0.0399 0.900258 c 0.282343,0 0.511494,-0.226059 0.511494,-0.500124 -5.5e-5,-0.276072 -0.229207,-0.500124 -0.511555,-0.500124 z M 9.325563,11.53066 10.036517,9.71921 c 0.0013,-0.002 0.002,0.006 0.004,0 0.05318,-0.146019 0.217897,-0.224059 0.368256,-0.172025 0.08084,0.028 0.143231,0.09104 0.171888,0.165052 v -0.0013 l 0.697649,1.82045 H 9.325514 Z"
       id="path2-5"
       style="fill:#eff0f1;fill-opacity:1;stroke-width:0.0144508"
       sodipodi:nodetypes="cscccccccccscccccssssccsssssccccccccssccscccccccccccc" />
  </g>
  <path
     d="M 16.328093,9.6428613 H 15.816761 V 6.7680401 c 0,-0.09956 -0.04042,-0.194852 -0.112366,-0.26516 C 15.632425,6.4325201 15.534893,6.393 15.433212,6.393 h -0.894851 c -0.137088,0 -0.263692,0.07149 -0.332169,0.1875149 -0.06843,0.1160117 -0.06843,0.2590306 0,0.3749998 0.06842,0.1160118 0.195115,0.1875119 0.332169,0.1875119 h 0.51134 v 2.500048 h -0.511339 v -9.47e-5 c -0.137088,0 -0.263692,0.07149 -0.332168,0.1875151 -0.06843,0.116012 -0.06843,0.259026 0,0.374996 0.06843,0.116012 0.195114,0.187509 0.332168,0.187509 h 1.789788 -8.6e-5 c 0.137107,0 0.263673,-0.0715 0.33213,-0.187509 0.06843,-0.116012 0.06843,-0.259031 0,-0.374996 -0.06843,-0.1160123 -0.195111,-0.1875151 -0.33213,-0.1875151 z"
     id="path6-9"
     style="fill:#eff0f1;fill-opacity:1;stroke-width:0.0433416" />
</svg>
