<?xml version="1.0" encoding="UTF-8" standalone="no"?>
<svg
   width="22"
   height="22"
   version="1.1"
   id="svg1"
   sodipodi:docname="kalarm-partdisabled.svg"
   inkscape:version="1.3.2 (091e20ef0f, 2023-11-25)"
   xmlns:inkscape="http://www.inkscape.org/namespaces/inkscape"
   xmlns:sodipodi="http://sodipodi.sourceforge.net/DTD/sodipodi-0.dtd"
   xmlns="http://www.w3.org/2000/svg"
   xmlns:svg="http://www.w3.org/2000/svg">
  <defs
     id="defs1" />
  <sodipodi:namedview
     id="namedview1"
     pagecolor="#ffffff"
     bordercolor="#999999"
     borderopacity="1"
     inkscape:showpageshadow="2"
     inkscape:pageopacity="0"
     inkscape:pagecheckerboard="0"
     inkscape:deskcolor="#d1d1d1"
     inkscape:zoom="12.245804"
     inkscape:cx="13.637325"
     inkscape:cy="8.737687"
     inkscape:window-width="1920"
     inkscape:window-height="994"
     inkscape:window-x="0"
     inkscape:window-y="0"
     inkscape:window-maximized="1"
     inkscape:current-layer="svg1"
     showgrid="true">
    <inkscape:grid
       id="grid1"
       units="px"
       originx="0"
       originy="0"
       spacingx="1"
       spacingy="1"
       empcolor="#0099e5"
       empopacity="0.30196078"
       color="#0099e5"
       opacity="0.14901961"
       empspacing="5"
       dotted="false"
       gridanglex="30"
       gridanglez="30"
       visible="true" />
  </sodipodi:namedview>
  <style
     type="text/css"
     id="current-color-scheme">.ColorScheme-Text{color:#31363b;}.ColorScheme-Background{color:#eff0f1;}.ColorScheme-Highlight{color:#3daee9;}.ColorScheme-ViewText{color:#31363b;}.ColorScheme-ViewBackground{color:#fcfcfc;}.ColorScheme-ViewHover{color:#93cee9;}.ColorScheme-ViewFocus{color:#3daee9;}.ColorScheme-ButtonText{color:#31363b;}.ColorScheme-ButtonBackground{color:#eff0f1;}.ColorScheme-ButtonHover{color:#93cee9;}.ColorScheme-ButtonFocus { color: #3daee9; } </style>
  <rect
     style="opacity:0.00100002"
     width="22"
     height="22"
     x="0"
     y="0"
     id="rect12-3" />
  <path
     d="M 13.307684,14.5 H 8.6923214 C 8.3099674,14.500001 7.9999985,14.190054 8,13.807703 V 9.1923217 C 7.9999985,8.8099548 8.3099674,8.4999984 8.6923214,8.5 h 4.6153626 c 0.382352,-1.6e-6 0.692318,0.3099548 0.692317,0.6923217 v 4.6153813 c 1e-6,0.382351 -0.309965,0.692298 -0.692317,0.692297 z M 8.9892841,9.2213756 c 0,0 -0.013856,-0.045158 -0.013856,-0.029052 v 4.3926574 c 0.037124,-0.0396 -0.025719,-0.06125 -0.025719,-0.06125 h 4.3579729 l 0.0076,0.0056 z"
     id="path8-56"
     style="fill:#00b2b2;fill-opacity:1;stroke-width:0.179487"
     sodipodi:nodetypes="cccccccccccccccc" />
  <path
     id="Alarm-7-2"
     class="st0"
     d="m 16.3,11.533333 c 0,2.933333 -2.4,5.333334 -5.333333,5.333334 -2.933334,0 -5.333334,-2.400001 -5.333334,-5.333334 C 5.633333,8.6 8.033333,6.2 10.966667,6.2 13.9,6.2 16.3,8.6 16.3,11.533333 Z M 15.98,3.4533333 c -0.933333,-0.72 -2.24,-0.56 -2.96,0.3466667 L 12.646667,4.2533333 C 12.113333,4.12 11.553333,4.0666666 10.966667,4.0666666 6.833333,4.0666666 3.5,7.4 3.5,11.533333 3.5,15.666667 6.833333,19 10.966667,19 15.1,19 18.433333,15.666667 18.433333,11.533333 18.433333,10.306666 18.14,9.1333333 17.606667,8.12 L 17.98,7.64 C 18.7,6.7333333 18.54,5.4266666 17.633333,4.7333333 Z"
     style="clip-rule:evenodd;fill:#cdd8e5;fill-opacity:0.403922;fill-rule:evenodd;stroke-width:0.266667" />
  <path
     id="Alarm-s-5-9"
     class="st1"
     d="M 4.966667,5.16 C 4.513333,5.5333333 4.433333,6.2 4.78,6.6533333 l 0.266667,0.32 C 4.833333,7.2666667 4.62,7.5866667 4.433333,7.9066667 l -0.48,-0.6133334 c -0.72,-0.9066666 -0.56,-2.24 0.346667,-2.96 L 5.98,3 6.646667,3.8266667 Z m 12.4,6.373333 c 0,1.92 -0.853334,3.653334 -2.213334,4.826667 l 0.693334,0.8 v 0 0 l 1.68,1.68 0.746666,-0.746667 -1.68,-1.68 C 17.58,15.293333 18.193333,13.88 18.38,12.386666 18.593333,10.52 18.113333,8.6533333 16.993333,7.16 L 16.14,7.8 c 0.773333,1.04 1.226667,2.32 1.226667,3.733333 z M 11.5,11.266666 Z m -6.186667,5.146667 -1.68,1.68 L 4.38,18.84 6.06,17.16 C 5.82,16.946667 5.553333,16.68 5.313333,16.413333 Z"
     style="fill:#eff0f1;fill-opacity:1;stroke-width:0.266667"
     sodipodi:nodetypes="cccccccccsccccccccccscccccccccccc" />
</svg>
