<?xml version="1.0" encoding="UTF-8" standalone="no"?>
<svg
   width="22"
   height="22"
   version="1.1"
   id="svg1"
   sodipodi:docname="keyboard-layout.svg"
   inkscape:version="1.3.2 (091e20ef0f, 2023-11-25)"
   xmlns:inkscape="http://www.inkscape.org/namespaces/inkscape"
   xmlns:sodipodi="http://sodipodi.sourceforge.net/DTD/sodipodi-0.dtd"
   xmlns="http://www.w3.org/2000/svg"
   xmlns:svg="http://www.w3.org/2000/svg">
  <defs
     id="defs1" />
  <sodipodi:namedview
     id="namedview1"
     pagecolor="#ffffff"
     bordercolor="#999999"
     borderopacity="1"
     inkscape:showpageshadow="2"
     inkscape:pageopacity="0"
     inkscape:pagecheckerboard="0"
     inkscape:deskcolor="#d1d1d1"
     inkscape:zoom="12.245804"
     inkscape:cx="11.269166"
     inkscape:cy="10.697542"
     inkscape:window-width="1920"
     inkscape:window-height="994"
     inkscape:window-x="0"
     inkscape:window-y="0"
     inkscape:window-maximized="1"
     inkscape:current-layer="svg1" />
  <style
     type="text/css"
     id="current-color-scheme">
      .ColorScheme-Text {
        color:#fcfcfc;
      }
      .ColorScheme-Background {
        color:#eff0f1;
      }
      .ColorScheme-Highlight {
        color:#3daee9;
      }
      .ColorScheme-ViewText {
        color:#31363b;
      }
      .ColorScheme-ViewBackground {
        color:#fcfcfc;
      }
      .ColorScheme-ViewHover {
        color:#93cee9;
      }
      .ColorScheme-ViewFocus{
        color:#3daee9;
      }
      .ColorScheme-ButtonText {
        color:#31363b;
      }
      .ColorScheme-ButtonBackground {
        color:#eff0f1;
      }
      .ColorScheme-ButtonHover {
        color:#93cee9;
      }
      .ColorScheme-ButtonFocus{
        color:#3daee9;
      }
      </style>
  <g
     id="22-22-input-keyboard">
    <rect
       y="0"
       x="0"
       height="22"
       width="22"
       id="rect4147"
       style="fill:none;fill-rule:evenodd;stroke:none;stroke-width:1px;stroke-linecap:butt;stroke-linejoin:miter;stroke-opacity:1" />
    <path
       id="Keyboard-36"
       class="st0"
       d="m 1,6.69231 v 11.07692 h 16.875 c 1.71875,0 3.125,-1.38461 3.125,-3.07692 v -8 z M 11.624999,9.15385 H 12.875 v 1.23077 h -1.250001 z m -2.4999991,0 H 10.375 v 1.23077 H 9.1249999 Z m 2.4999991,2.46153 v 1.23077 H 10.375 V 11.61538 Z M 3.4999995,9.15385 h 1.8750001 v 1.23077 H 3.4999995 Z M 6,15.30769 H 4.7500003 V 14.07692 H 6 Z M 6.6250004,12.84615 H 3.4999995 v -1.23077 h 3.1250009 z m 0,-3.6923 h 1.2499997 v 1.23077 H 6.6250004 Z m 2.4999995,2.46153 v 1.23077 H 7.8750001 v -1.23077 z m 4.3749991,3.69231 H 7.2499997 V 14.07692 H 13.499999 Z M 14.125,12.84615 h -1.25 v -1.23077 h 1.25 z m 0,-3.6923 h 1.25 v 1.23077 h -1.25 z M 16,15.30769 H 14.75 V 14.07692 H 16 Z m 1.875,-2.46154 h -2.5 v -1.23077 h 2.5 z m 0,-2.46153 H 16.624999 V 9.15385 H 17.875 Z"
       style="clip-rule:evenodd;fill:#cdd8e5;fill-opacity:0.403922;fill-rule:evenodd;stroke-width:0.310086" />
    <path
       id="Keyboard-s-7"
       class="st1"
       d="m 21,7.92308 v 7.38461 C 21,17.33846 19.312498,19 17.25,19 H 2.2499997 V 17.76923 H 17.25 c 1.375,0 2.499999,-1.10769 2.499999,-2.46154 V 7.92308 Z M 14.125,3.61538 V 3 h 1.25 v 0.61538 c 0,1.01539 -0.843751,1.84616 -1.875001,1.84616 H 12.25 c -0.343751,0 -0.625001,0.27692 -0.625001,0.61538 V 6.69231 H 10.375 V 6.07692 c 0,-1.01538 0.84375,-1.84615 1.875,-1.84615 h 1.249999 c 0.343752,0 0.625001,-0.27692 0.625001,-0.61539 z"
       style="clip-rule:evenodd;fill:#eff0f1;fill-opacity:1;fill-rule:evenodd;stroke-width:0.310086" />
  </g>
</svg>
