<?xml version="1.0" encoding="UTF-8" standalone="no"?>
<svg
   width="22"
   height="22"
   version="1.1"
   id="svg1"
   sodipodi:docname="mail-unread-new.svg"
   inkscape:version="1.3.2 (091e20ef0f, 2023-11-25)"
   xmlns:inkscape="http://www.inkscape.org/namespaces/inkscape"
   xmlns:sodipodi="http://sodipodi.sourceforge.net/DTD/sodipodi-0.dtd"
   xmlns="http://www.w3.org/2000/svg"
   xmlns:svg="http://www.w3.org/2000/svg">
  <defs
     id="defs1" />
  <sodipodi:namedview
     id="namedview1"
     pagecolor="#ffffff"
     bordercolor="#999999"
     borderopacity="1"
     inkscape:showpageshadow="2"
     inkscape:pageopacity="0"
     inkscape:pagecheckerboard="0"
     inkscape:deskcolor="#d1d1d1"
     inkscape:zoom="12.245804"
     inkscape:cx="10.534221"
     inkscape:cy="4.4913344"
     inkscape:window-width="1920"
     inkscape:window-height="994"
     inkscape:window-x="0"
     inkscape:window-y="0"
     inkscape:window-maximized="1"
     inkscape:current-layer="svg1" />
  <style
     type="text/css"
     id="current-color-scheme">
      .ColorScheme-Text {
        color:#fcfcfc;
      }
      .ColorScheme-Background {
        color:#eff0f1;
      }
      .ColorScheme-Highlight {
        color:#3daee9;
      }
      .ColorScheme-ViewText {
        color:#31363b;
      }
      .ColorScheme-ViewBackground {
        color:#fcfcfc;
      }
      .ColorScheme-ViewHover {
        color:#93cee9;
      }
      .ColorScheme-ViewFocus{
        color:#3daee9;
      }
      .ColorScheme-ButtonText {
        color:#31363b;
      }
      .ColorScheme-ButtonBackground {
        color:#eff0f1;
      }
      .ColorScheme-ButtonHover {
        color:#93cee9;
      }
      .ColorScheme-ButtonFocus{
        color:#3daee9;
      }
      </style>
  <g
     id="22-22-kmail">
    <rect
       style="opacity:0.00100002"
       width="22"
       height="22"
       x="0"
       y="0"
       id="rect2" />
    <path
       id="Mailbox-3"
       class="st0"
       d="M 5.3749989,6.428571 C 3.51875,6.428571 2,7.971429 2,9.857143 v 5.714286 h 6.1874993 l 0.5624996,1.142857 H 9.8750005 L 10.4375,15.571429 h 7.875 C 19.240625,15.571429 20,14.8 20,13.857143 v -3.428572 c 0,-2.2 -1.771876,-4 -3.937501,-4 H 14.375 V 7.571429 H 13.25 V 6.428571 H 8.3562492 C 9.2281263,7.2 9.7906261,8.314286 9.8750005,9.571429 v 0 6 H 8.7499989 V 9.857143 c 0,-1.885714 -1.518749,-3.428572 -3.375,-3.428572 z"
       style="fill:#cdd8e5;fill-opacity:0.403922;stroke-width:0.283473" />
    <path
       id="Mailbox-s-6"
       class="st1"
       d="M 13.25,9.857143 H 12.125 V 5.285714 C 12.125,4.028571 13.1375,3 14.375,3 H 15.5 v 1.142857 h -1.125 c -0.61875,0 -1.125,0.514286 -1.125,1.142857 z m 6.75,0 C 20,7.971429 18.48125,6.428571 16.625,6.428571 h -2.25 v 1.142858 h 2.25 c 1.237499,0 2.25,1.028571 2.25,2.285714 v 4.571428 c 0,0.628572 -0.50625,1.142858 -1.125001,1.142858 H 9.8750005 V 19 H 11 v -2.285714 h 6.749999 C 18.9875,16.714286 20,15.685714 20,14.428571 Z M 7.6249996,12.714286 H 3.1250003 v 1.142857 h 4.4999993 z m 1.1249993,2.857143 H 3.1250003 v 1.142857 h 5.6249986 z"
       style="fill:#eff0f1;fill-opacity:1;stroke-width:0.283473" />
  </g>
  <path
     id="path8-9-7"
     d="m 16.346262,1.4055618 a 1.8749996,1.9047499 0 0 0 -1.875,1.90476 1.8749996,1.9047499 0 0 0 1.875,1.904762 1.8749996,1.9047499 0 0 0 1.875,-1.904762 1.8749996,1.9047499 0 0 0 -1.875,-1.90476 z"
     style="fill:#00aad4;fill-opacity:1;stroke:none;stroke-width:1.09954"
     inkscape:connector-curvature="0" />
</svg>
