<?xml version="1.0" encoding="UTF-8" standalone="no"?>
<svg
   viewBox="0 0 22 22"
   version="1.1"
   id="svg2"
   sodipodi:docname="input-touchpad-on.svg"
   width="22"
   height="22"
   inkscape:version="1.3.2 (091e20ef0f, 2023-11-25)"
   xmlns:inkscape="http://www.inkscape.org/namespaces/inkscape"
   xmlns:sodipodi="http://sodipodi.sourceforge.net/DTD/sodipodi-0.dtd"
   xmlns="http://www.w3.org/2000/svg"
   xmlns:svg="http://www.w3.org/2000/svg">
  <sodipodi:namedview
     id="namedview2"
     pagecolor="#000000"
     bordercolor="#999999"
     borderopacity="1"
     inkscape:showpageshadow="2"
     inkscape:pageopacity="0"
     inkscape:pagecheckerboard="0"
     inkscape:deskcolor="#d1d1d1"
     inkscape:zoom="8.6590909"
     inkscape:cx="11.2021"
     inkscape:cy="1.9632546"
     inkscape:window-width="1920"
     inkscape:window-height="994"
     inkscape:window-x="0"
     inkscape:window-y="0"
     inkscape:window-maximized="1"
     inkscape:current-layer="svg2" />
  <defs
     id="defs3051">
    <style
       type="text/css"
       id="current-color-scheme">.ColorScheme-Text {color:#fcfcfc;}.ColorScheme-PositiveText {color:#27ae60;}</style>
  </defs>
  <g
     id="22-22-touchpad_enabled"
     transform="translate(0,22.000015)">
    <rect
       style="opacity:0.00100002"
       width="22"
       height="22"
       x="0"
       y="-22.000015"
       id="rect2" />
    <rect
       style="fill:#27ae60;fill-opacity:1;stroke-width:0.560001;stroke-opacity:0.550265"
       height="8"
       rx="4"
       y="-16.666683"
       x="6.9666677"
       width="8"
       id="rect16-7"
       ry="4" />
    <path
       style="fill:#ffffff;fill-opacity:1;fill-rule:nonzero;stroke:none;stroke-width:8.50747;stroke-miterlimit:4;stroke-dasharray:none;stroke-opacity:1"
       d="m 10.923201,-15.389734 c -0.537997,-0.0025 -0.999275,0.09739 -1.418747,0.307422 -0.1396497,0.06991 -0.1613857,0.09444 -0.1523457,0.169922 0.01849,0.154054 0.09801,0.169009 0.3335907,0.06328 0.437971,-0.196548 0.651077,-0.238463 1.203516,-0.239063 0.634034,-5.14e-4 0.867523,0.05379 1.387501,0.323048 0.08934,0.0462 0.372171,0.264523 0.477741,0.147266 0.104549,-0.104543 0.0493,-0.191073 -0.219924,-0.344141 -0.53096,-0.30187 -0.99488,-0.424814 -1.611332,-0.427734 z m -0.01641,0.622656 c -0.709843,-5.4e-4 -1.419249,0.279914 -1.9394497,0.841796 -0.2012466,0.217365 -0.4359406,0.573634 -0.4359406,0.66172 0,0.102706 0.042327,0.159378 0.1191413,0.159378 0.0602,0 0.12144,-0.06494 0.267188,-0.283985 0.3259613,-0.489897 0.748546,-0.814889 1.29297,-0.994536 0.422221,-0.137804 0.916651,-0.121854 1.391793,0 0.613498,0.201658 1.139813,0.650891 1.428132,1.219143 0.06275,0.123645 0.10026,0.161327 0.161714,0.161327 0.105832,0 0.167974,-0.07876 0.139064,-0.176563 -0.04662,-0.157752 -0.295309,-0.539985 -0.483596,-0.74336 -0.520935,-0.562671 -1.231177,-0.844384 -1.941018,-0.84492 z m 0.03359,0.618357 c -0.151295,-0.0029 -0.304807,0.01167 -0.458205,0.04372 -0.72892,0.152363 -1.3381787,0.742698 -1.5332047,1.485544 -0.103496,0.394209 -0.055907,1.038105 0.1148454,1.553125 0.05102,0.153912 0.075676,0.186012 0.1488246,0.194535 0.168199,0.01955 0.184629,-0.06049 0.083985,-0.408597 -0.287992,-0.996027 -0.04008,-1.84342 0.6742247,-2.305468 0.70618,-0.456816 1.677412,-0.321622 2.23008,0.310157 0.346324,0.395906 0.536279,1.065569 0.38515,1.357813 -0.09983,0.193064 -0.342906,0.309095 -0.542575,0.258985 -0.145916,-0.03659 -0.318879,-0.215937 -0.341019,-0.353517 -0.07813,-0.485497 -0.188419,-0.675494 -0.467576,-0.805468 -0.238131,-0.110878 -0.436619,-0.107817 -0.670311,0.01057 -0.217745,0.110289 -0.384577,0.332899 -0.418365,0.558201 -0.01221,0.08119 -0.0068,0.256889 0.01214,0.390235 0.117798,0.830621 0.71208,1.487709 1.528121,1.689845 0.102629,0.02538 0.270425,0.04339 0.373051,0.03982 l 0.186718,-0.0061 c 0.105471,-0.05353 0.111246,-0.176757 0,-0.2375 l -0.26406,-0.04026 c -0.332363,-0.05067 -0.46999,-0.09443 -0.698443,-0.223045 -0.4968,-0.279673 -0.852729,-0.885945 -0.852729,-1.452342 0,-0.249604 0.0945,-0.395406 0.31484,-0.486719 0.15921,-0.06599 0.16149,-0.06599 0.3207,0 0.201495,0.0835 0.298478,0.223252 0.323438,0.465234 0.04584,0.444096 0.354016,0.736328 0.776562,0.736328 0.339116,0 0.62456,-0.220062 0.725788,-0.559376 0.09907,-0.332072 -0.03397,-0.889822 -0.313282,-1.314063 -0.370228,-0.562232 -0.98306,-0.890171 -1.63868,-0.90156 z m -0.02191,0.643361 c -0.211149,0.003 -0.428291,0.04164 -0.606252,0.110941 -0.274389,0.134383 -0.53585,0.402755 -0.671091,0.688277 -0.102914,0.217257 -0.109049,0.251091 -0.108988,0.619923 7.6e-5,0.453781 0.05496,0.694841 0.250392,1.102348 0.168378,0.351134 0.401648,0.657383 0.660942,0.867186 0.224746,0.181857 0.248626,0.190683 0.342183,0.122268 0.09579,-0.07004 0.04234,-0.190305 -0.151171,-0.338675 -0.209837,-0.160871 -0.436478,-0.451866 -0.589454,-0.75703 -0.251268,-0.50124 -0.314574,-1.120738 -0.15078,-1.475394 0.118875,-0.257392 0.300138,-0.449394 0.531248,-0.562886 0.277673,-0.136364 0.683269,-0.136364 0.960944,0 0.331421,0.162747 0.543327,0.459101 0.618357,0.86562 0.04477,0.242663 0.11258,0.323322 0.216017,0.256641 0.04791,-0.03086 0.05836,-0.08238 0.05395,-0.267186 -0.01081,-0.449246 -0.325597,-0.900302 -0.785555,-1.126175 -0.1544,-0.07513 -0.359544,-0.108525 -0.570699,-0.105858 z"
       id="path20-5" />
    <path
       style="fill:#ffffff;fill-opacity:1;fill-rule:nonzero;stroke:none;stroke-width:8.50747;stroke-miterlimit:4;stroke-dasharray:none;stroke-opacity:1"
       d="m 11.856047,-10.775655 c -0.579728,-0.126457 -1.02656,-0.637227 -1.076726,-1.230781 -0.01584,-0.187593 -0.01034,-0.212385 0.05461,-0.247158 0.123739,-0.06622 0.195254,0.0037 0.22,0.213868 0.06223,0.529484 0.451339,0.928818 0.974794,1.000402 0.2561,0.035 0.338467,0.133351 0.215071,0.25675 -0.06179,0.06179 -0.130595,0.063 -0.387724,0.0069 z"
       id="path22-3" />
    <path
       id="Grid-5"
       class="st0"
       d="M 3.5615333,-6.692322 H 10.3308 v 2.602466 L 3.5,-4.066646 Z m 13.8076207,0 v 0 0 h -5.80756 l -0.06133,2.625645 h 4.26662 c 1.466746,0 2.666746,-1.2 2.666746,-2.666673 z"
       style="fill:#cdd8e5;fill-opacity:0.403922;stroke-width:0.266662"
       sodipodi:nodetypes="ccccccccccssc" />
    <path
       id="Grid-s-6"
       class="st1"
       d="M 10.43338,-3.000015 H 4.566662 v -1.066662 h 5.866718 z m 8.000001,-8 v 4.8 c 0,1.76 -1.44,3.2 -3.2,3.2 h -3.73338 v -1.066662 h 3.73338 c 1.17324,0 2.13324,-0.96 2.13324,-2.133338 v -4.8 z m 0,-6.933334 v 5.866668 h -1.06676 v -5.866668 z M 3.5,-16.866681 c 0,-1.173334 0.96,-2.133334 2.133338,-2.133334 h 2.133324 v 1.066666 H 5.633338 c -0.586676,0 -1.066676,0.48 -1.066676,1.066668 v 4.8 H 3.5 Z"
       style="clip-rule:evenodd;fill:#eff0f1;fill-opacity:1;fill-rule:evenodd;stroke-width:0.266662" />
  </g>
</svg>
