<?xml version="1.0" encoding="UTF-8" standalone="no"?>
<svg
   id="svg7"
   version="1.1"
   viewBox="0 0 24 24"
   width="24"
   height="24"
   sodipodi:docname="update-high.svg"
   inkscape:version="1.3.2 (091e20ef0f, 2023-11-25)"
   xmlns:inkscape="http://www.inkscape.org/namespaces/inkscape"
   xmlns:sodipodi="http://sodipodi.sourceforge.net/DTD/sodipodi-0.dtd"
   xmlns="http://www.w3.org/2000/svg"
   xmlns:svg="http://www.w3.org/2000/svg">
  <sodipodi:namedview
     id="namedview1"
     pagecolor="#ffffff"
     bordercolor="#999999"
     borderopacity="1"
     inkscape:showpageshadow="2"
     inkscape:pageopacity="0"
     inkscape:pagecheckerboard="0"
     inkscape:deskcolor="#d1d1d1"
     inkscape:zoom="7.9583333"
     inkscape:cx="7.7905759"
     inkscape:cy="42.848168"
     inkscape:window-width="1920"
     inkscape:window-height="996"
     inkscape:window-x="0"
     inkscape:window-y="0"
     inkscape:window-maximized="1"
     inkscape:current-layer="svg7" />
  <defs
     id="defs3">
    <style
       type="text/css"
       id="current-color-scheme">.ColorScheme-Text{color:#232629;}.ColorScheme-NegativeText { color: #da4453; } </style>
  </defs>
  <g
     id="22-22-update-high"
     transform="matrix(4.123121,0,0,4.1231211,-24,-1200.5668)"
     style="stroke-width:0.916666">
    <rect
       style="opacity:0.003;fill:#000000;fill-opacity:1;stroke:none;stroke-width:0.0989547;stroke-miterlimit:4;stroke-dasharray:none;stroke-opacity:1"
       id="rect1396-3"
       width="5.8208332"
       height="5.8208332"
       x="5.8208332"
       y="291.17914"
       ry="1.190593e-06"
       rx="1.190593e-06" />
    <polygon
       id="Arrow-Down-36-3"
       class="st0"
       points="44,0 44,28 60,28 32,56 4,28 20,28 20,4 40,4 40,0 "
       transform="matrix(-0.06604261,0,0,-0.06604261,10.841723,296.20623)"
       style="fill:#bf616a;fill-opacity:1;stroke-width:0.916666" />
    <path
       id="ArrowDown-s-7-5"
       class="st1"
       d="m 7.9358501,294.35208 v 1.58503 h 0.2641698 v -1.58503 z m 1.8491937,-1.54539 -0.6802394,-0.68024 c -0.2047319,-0.20474 -0.5415499,-0.20474 -0.7462818,0 l -0.6868431,0.68684 0.1849193,0.18492 0.686843,-0.68024 c 0.1056686,-0.10566 0.2707747,-0.10566 0.3764427,0 l 0.680239,0.68024 z"
       style="clip-rule:evenodd;fill:#eff0f1;fill-opacity:1;fill-rule:evenodd;stroke-width:0.0605391" />
  </g>
</svg>
