<?xml version="1.0" encoding="UTF-8" standalone="no"?>
<svg
   width="22"
   height="22"
   version="1.1"
   id="svg1"
   sodipodi:docname="wallet-open.svg"
   inkscape:version="1.3.2 (091e20ef0f, 2023-11-25)"
   xmlns:inkscape="http://www.inkscape.org/namespaces/inkscape"
   xmlns:sodipodi="http://sodipodi.sourceforge.net/DTD/sodipodi-0.dtd"
   xmlns="http://www.w3.org/2000/svg"
   xmlns:svg="http://www.w3.org/2000/svg">
  <defs
     id="defs1" />
  <sodipodi:namedview
     id="namedview1"
     pagecolor="#ffffff"
     bordercolor="#999999"
     borderopacity="1"
     inkscape:showpageshadow="2"
     inkscape:pageopacity="0"
     inkscape:pagecheckerboard="0"
     inkscape:deskcolor="#d1d1d1"
     inkscape:zoom="12.245804"
     inkscape:cx="10.534221"
     inkscape:cy="24.008224"
     inkscape:window-width="1920"
     inkscape:window-height="994"
     inkscape:window-x="0"
     inkscape:window-y="0"
     inkscape:window-maximized="1"
     inkscape:current-layer="svg1" />
  <style
     type="text/css"
     id="current-color-scheme">
      .ColorScheme-Text {
        color:#fcfcfc;
      }
      .ColorScheme-Background {
        color:#eff0f1;
      }
      .ColorScheme-Highlight {
        color:#3daee9;
      }
      .ColorScheme-ViewText {
        color:#31363b;
      }
      .ColorScheme-ViewBackground {
        color:#fcfcfc;
      }
      .ColorScheme-ViewHover {
        color:#93cee9;
      }
      .ColorScheme-ViewFocus{
        color:#3daee9;
      }
      .ColorScheme-ButtonText {
        color:#31363b;
      }
      .ColorScheme-ButtonBackground {
        color:#eff0f1;
      }
      .ColorScheme-ButtonHover {
        color:#93cee9;
      }
      .ColorScheme-ButtonFocus{
        color:#3daee9;
      }
      </style>
  <g
     id="22-22-wallet-open">
    <rect
       style="opacity:0.00100002;stroke-width:0.6875"
       width="22"
       height="22"
       x="4.038086e-07"
       y="-8.1054685e-10"
       id="rect12-7-2" />
    <path
       id="Wallet-36"
       class="st0"
       d="M 3,6.2 4.333333,7.266667 H 19 v 8 c 0,1.466666 -1.2,2.666666 -2.666667,2.666666 H 3 Z m 13.333333,0 -1.6,-3.2 L 7.8,6.2 Z"
       style="fill:#cdd8e5;fill-opacity:0.403922;stroke-width:0.266667" />
    <path
       id="Wallet-s-7"
       class="st1"
       d="M 10.2,4.066667 7.8,5.133333 H 5.133333 c -0.586666,0 -1.066666,0.48 -1.066666,1.066667 0,0.586667 0.48,1.066667 1.066666,1.066667 H 4.6 C 3.72,7.266667 3,7.08 3,6.2 3,5.026667 3.96,4.066667 5.133333,4.066667 Z M 4.066667,17.933333 V 19 H 15.8 C 17.56,19 19,17.56 19,15.8 V 8.3333334 H 17.933333 V 15.8 c 0,1.173333 -0.96,2.133333 -2.133333,2.133333 z M 17.933333,4.066667 H 15.266667 L 15.8,5.133333 h 2.133333 z"
       style="fill:#eff0f1;fill-opacity:1;stroke-width:0.266667" />
  </g>
</svg>
