<?xml version="1.0" encoding="UTF-8" standalone="no"?>
<svg
   width="32"
   version="1.1"
   height="32"
   viewBox="0 0 32 32"
   id="svg15"
   sodipodi:docname="folder-inkscape.svg"
   inkscape:version="1.3.2 (091e20ef0f, 2023-11-25)"
   xmlns:inkscape="http://www.inkscape.org/namespaces/inkscape"
   xmlns:sodipodi="http://sodipodi.sourceforge.net/DTD/sodipodi-0.dtd"
   xmlns:xlink="http://www.w3.org/1999/xlink"
   xmlns="http://www.w3.org/2000/svg"
   xmlns:svg="http://www.w3.org/2000/svg"
   xmlns:rdf="http://www.w3.org/1999/02/22-rdf-syntax-ns#"
   xmlns:cc="http://creativecommons.org/ns#"
   xmlns:dc="http://purl.org/dc/elements/1.1/">
  <sodipodi:namedview
     pagecolor="#ffffff"
     bordercolor="#666666"
     borderopacity="1"
     objecttolerance="10"
     gridtolerance="10"
     guidetolerance="10"
     inkscape:pageopacity="0"
     inkscape:pageshadow="2"
     inkscape:window-width="1920"
     inkscape:window-height="994"
     id="namedview17"
     showgrid="true"
     inkscape:zoom="27.753941"
     inkscape:cx="19.672882"
     inkscape:cy="24.825303"
     inkscape:window-x="0"
     inkscape:window-y="0"
     inkscape:window-maximized="1"
     inkscape:current-layer="layer1"
     inkscape:pagecheckerboard="0"
     inkscape:showpageshadow="2"
     inkscape:deskcolor="#d1d1d1">
    <inkscape:grid
       type="xygrid"
       id="grid862"
       originx="0"
       originy="0"
       spacingy="1"
       spacingx="1"
       units="px"
       visible="true" />
  </sodipodi:namedview>
  <defs
     id="defs5455">
    <linearGradient
       inkscape:collect="always"
       xlink:href="#linearGradient1"
       id="linearGradient2"
       x1="403.81348"
       y1="501.37759"
       x2="410.34882"
       y2="508.19263"
       gradientUnits="userSpaceOnUse"
       gradientTransform="translate(-7.2255154e-7,31.999998)" />
    <linearGradient
       id="linearGradient1"
       inkscape:collect="always">
      <stop
         style="stop-color:#f0f0f0;stop-opacity:1;"
         offset="0"
         id="stop1" />
      <stop
         style="stop-color:#f0f0f0;stop-opacity:1;"
         offset="0.99989998"
         id="stop4" />
      <stop
         style="stop-color:#4e4e4e;stop-opacity:1;"
         offset="0.99989998"
         id="stop3" />
      <stop
         style="stop-color:#000000;stop-opacity:1"
         offset="1"
         id="stop2" />
    </linearGradient>
  </defs>
  <metadata
     id="metadata5458">
    <rdf:RDF>
      <cc:Work
         rdf:about="">
        <dc:format>image/svg+xml</dc:format>
        <dc:type
           rdf:resource="http://purl.org/dc/dcmitype/StillImage" />
      </cc:Work>
    </rdf:RDF>
  </metadata>
  <g
     inkscape:label="Capa 1"
     inkscape:groupmode="layer"
     id="layer1"
     transform="translate(-384.57143,-515.798)">
    <path
       style="fill:#8484ac;fill-opacity:1;stroke-width:0.0908071"
       d="m 397.16109,521.9059 c -0.37416,2e-4 -0.81705,-0.3122 -0.98475,-0.6938 l -0.7521,-1.7153 c -0.16735,-0.3816 -0.61024,-0.6936 -0.98442,-0.6938 h -7.38054 c -1.48487,0 -2.48409,1.0045 -2.48085,2.4923 v 0 0 l -0.007,20.9995 c -5e-4,2.0102 0.49921,2.5028 2.49487,2.5032 h 27.02773 c 2.45575,4e-4 2.47954,-0.014 2.47732,-2.5278 l -0.0157,-17.8698 c -0.001,-1.5065 -1.00012,-2.5006 -2.51369,-2.5003 z"
       id="path16"
       sodipodi:nodetypes="sccsscccsssssss" />
    <g
       id="g24"
       transform="matrix(0.08490719,0,0,0.09696453,379.48077,506.7744)">
      <path
         style="fill:#efefef;fill-opacity:1"
         d="m 179.58,131.156 8.844,17.688 c 1.968,3.936 4.8248,7.156 9.2248,7.156 H 208 c -4.4,0 -9.608,-3.22 -11.58,-7.156 l -8.844,-17.688 c -1.968,-3.936 -7.17873,-7.15601 -11.57873,-7.15601 L 168,124 c 4.4,0 9.608,3.22 11.58,7.156 z"
         id="path18"
         sodipodi:nodetypes="cssccsscc" />
      <rect
         x="75.888275"
         y="176.05383"
         style="fill:#263740;fill-opacity:1;stroke-width:0.991651"
         width="345.64072"
         height="205.93738"
         id="rect22"
         ry="10.823075" />
    </g>
    <rect
       x="386.14438"
       y="524.04803"
       style="fill:#9494b7;fill-opacity:1;stroke-width:0.0910473"
       width="28.904839"
       height="19.501451"
       id="rect26"
       ry="0.83319944" />
    <rect
       x="386.84277"
       y="524.89484"
       style="fill:#ffffff;stroke-width:0.0907359"
       width="27.509966"
       height="17.841471"
       id="rect28"
       ry="0.5996924" />
    <g
       id="g36"
       transform="matrix(0.08490719,0,0,0.09696453,379.07864,506.2248)">
      <polygon
         style="fill:#aaccff"
         points="100,276 100,272 168,204 172,204 172,276 "
         id="polygon34"
         transform="translate(-8.8452971)" />
    </g>
    <polygon
       style="fill:#2a7fff"
       points="168,272 100,272 168,204 "
       id="polygon38"
       transform="matrix(0.08490719,0,0,0.09696453,378.37753,506.2248)" />
    <path
       style="opacity:0.7;fill:#8484ac;fill-opacity:1;stroke-width:0.0910382"
       d="m 391.77897,526.0441 -5.85924,6.4309 v 10.4103 c 0.0241,0.6667 0.53116,0.9043 0.91722,0.9384 l 27.33758,0.019 c 1.05115,0 1.08137,-0.9306 1.08137,-0.9306 v -16.868 z"
       id="path30-3"
       sodipodi:nodetypes="ccccsccc" />
    <path
       id="path18-3-9-7"
       d="m 407.51167,529.97902 c -0.37108,-0.002 -0.74,0.13595 -1.00627,0.41223 l -4.42954,4.59357 c -1.49707,1.87839 1.01879,1.6604 2.09715,2.20142 0.38693,0.4006 -1.48244,0.69498 -1.09565,1.09591 0.38691,0.40078 2.33744,0.77158 2.7249,1.17227 0.38681,0.40069 -0.7912,0.82623 -0.40439,1.22692 0.38681,0.40068 1.28074,0.0204 1.44835,0.9458 0.1193,0.66103 1.61397,0.28408 2.34399,-0.25729 0.3869,-0.40098 -0.73955,-0.36176 -0.35273,-0.76233 0.96198,-0.99695 1.8575,-0.36402 2.18669,-1.36288 0.16249,-0.49353 -1.41738,-0.7596 -1.02993,-1.16023 1.1132,-0.65879 4.95964,-1.088 3.13409,-2.93762 l -4.59164,-4.75554 c -0.28081,-0.27327 -0.65404,-0.4115 -1.02526,-0.41221 z m 0.0379,0.43601 c 0.26493,0.002 0.52929,0.10257 0.71941,0.29779 l 1.75394,1.80359 c 0.16623,0.172 0.16356,0.50439 0.0702,0.60028 l -0.86999,-0.70512 -0.17162,1.04581 -0.72654,-0.38826 -1.16611,0.74329 -0.38563,-1.56999 -0.62537,1.09593 h -0.95463 c -0.38976,0 -0.4365,-0.50119 -0.082,-0.86012 0.61877,-0.67673 1.32818,-1.36577 1.71392,-1.76541 0.19395,-0.2008 0.45928,-0.29919 0.72419,-0.29779 z m -2.10423,7.01869 c 0.11839,0.0746 1.90883,0.44338 2.34647,0.51702 0.15165,0.0323 0.0444,0.19088 -0.16464,0.29779 -0.47155,0.127 -2.75907,-0.81481 -2.18191,-0.81481 z m 6.96426,1.2627 c -0.36043,0.0132 -0.71569,0.1982 -0.81356,0.54801 0,0.22797 1.65522,0.37865 1.65522,-0.0526 -0.11803,-0.3463 -0.48153,-0.50815 -0.84163,-0.49561 z m -7.59913,0.98639 c -0.51934,-0.008 -1.12742,0.3811 -0.67938,0.77421 0.39243,0.3439 0.9985,-0.0872 1.18022,-0.56699 -0.10696,-0.144 -0.29754,-0.20532 -0.50083,-0.20722 z m 6.57599,0.0306 c -0.50578,0.45984 0.0561,0.92601 0.55486,0.629 0.11108,-0.11431 -0.006,-0.51473 -0.55486,-0.629 z"
       stroke-width="1.58377"
       style="color:#eff0f1;fill:url(#linearGradient2);fill-opacity:1"
       class="ColorScheme-Text" />
  </g>
</svg>
