<?xml version="1.0" encoding="UTF-8" standalone="no"?>
<svg
   viewBox="0 0 32 32"
   version="1.1"
   id="svg1"
   sodipodi:docname="configure.svg"
   inkscape:version="1.3.2 (091e20ef0f, 2023-11-25)"
   width="32"
   height="32"
   xmlns:inkscape="http://www.inkscape.org/namespaces/inkscape"
   xmlns:sodipodi="http://sodipodi.sourceforge.net/DTD/sodipodi-0.dtd"
   xmlns="http://www.w3.org/2000/svg"
   xmlns:svg="http://www.w3.org/2000/svg">
  <sodipodi:namedview
     id="namedview1"
     pagecolor="#ffffff"
     bordercolor="#999999"
     borderopacity="1"
     inkscape:showpageshadow="2"
     inkscape:pageopacity="0"
     inkscape:pagecheckerboard="0"
     inkscape:deskcolor="#d1d1d1"
     inkscape:zoom="11.9375"
     inkscape:cx="14.743455"
     inkscape:cy="19.685864"
     inkscape:window-width="1870"
     inkscape:window-height="994"
     inkscape:window-x="0"
     inkscape:window-y="0"
     inkscape:window-maximized="1"
     inkscape:current-layer="svg1" />
  <defs
     id="defs3051">
    <style
       type="text/css"
       id="current-color-scheme">
      .ColorScheme-Text {
        color:#fcfcfc;
      }
      .ColorScheme-Highlight {
        color:#3daee9;
      }
      </style>
  </defs>
  <rect
     id="rect856"
     style="opacity:0.00100002;stroke-width:1"
     width="32"
     height="32"
     x="0"
     y="0" />
  <path
     d="m 18.999998,15.999966 c 0,1.657206 -1.34288,3.000046 -2.999973,3.000046 -1.657125,0 -3.000019,-1.34284 -3.000019,-3.000046 0,-1.657112 1.342894,-2.99996 3.000019,-2.99996 1.657093,0 2.999973,1.342848 2.999973,2.99996 z"
     id="path4-3-5"
     style="fill:#aaaaff;fill-opacity:1;stroke-width:0.011026" />
  <path
     d="m 28.000014,14.63001 c 0,-0.23001 -0.159973,-0.434995 -0.384983,-0.484985 l -3.304994,-0.750001 c -0.165006,-0.490019 -0.365019,-0.965028 -0.610015,-1.420013 l 1.82001,-2.8750033 c 0.12,-0.1950074 0.09502,-0.4549862 -0.07,-0.6199952 L 23.520028,6.5549921 C 23.355022,6.3900143 23.100016,6.3600159 22.900034,6.4850171 L 19.975013,8.3250143 C 19.535012,8.1000081 19.08503,7.9150117 18.620032,7.7700213 L 17.840034,4.3900152 C 17.790011,4.1600036 17.585028,4 17.355016,4 H 14.640019 C 14.410007,4 14.20502,4.1600036 14.155033,4.3900152 L 13.38001,7.7700213 c -0.459994,0.1449904 -0.914981,0.3299868 -1.354985,0.554993 L 9.095001,6.4850172 C 8.9000246,6.360022 8.6400145,6.3900222 8.4750055,6.5549921 L 6.5550223,8.4800125 C 6.3900129,8.6450215 6.3600144,8.9050003 6.4850172,9.1000077 L 8.2950158,11.980013 C 8.06003,12.435001 7.855013,12.910006 7.6950094,13.395024 L 4.3900152,14.145025 C 4.165009,14.195035 4,14.4 4,14.63001 v 2.730012 c 0,0.234986 0.165009,0.435001 0.3900152,0.484987 l 3.225008,0.735017 c 0.1600037,0.539978 0.3649908,1.054993 0.6199956,1.539977 l -1.7500016,2.780003 c -0.1249952,0.195006 -0.094996,0.455018 0.070007,0.620024 l 1.9199847,1.919985 c 0.1650075,0.165009 0.4250177,0.190001 0.6199954,0.06999 l 2.7250067,-1.714993 c 0.515014,0.274992 1.059996,0.505005 1.625,0.674988 l 0.71002,3.140017 c 0.05001,0.229982 0.254976,0.389986 0.484988,0.389986 h 2.714996 c 0.230012,0 0.434999,-0.160004 0.485017,-0.389983 l 0.720001,-3.140016 c 0.564971,-0.174989 1.104982,-0.399996 1.614994,-0.674988 l 2.725007,1.714994 c 0.199982,0.12 0.454988,0.09504 0.619994,-0.06999 l 1.929994,-1.919986 c 0.165013,-0.165006 0.19501,-0.425018 0.06999,-0.620024 l -1.750004,-2.769991 c 0.250002,-0.484986 0.459995,-1.005006 0.619996,-1.549988 l 3.225009,-0.735017 c 0.225012,-0.05001 0.384984,-0.250003 0.384984,-0.484989 z m -11.99,7.505009 c -3.389985,0 -6.144992,-2.755005 -6.144992,-6.140016 0,-3.379977 2.755007,-6.12998 6.144992,-6.12998 3.380009,0 6.13001,2.750003 6.13001,6.12998 0,3.385011 -2.750001,6.140016 -6.13001,6.140016 z"
     id="path2-5"
     style="fill:#eff0f1;fill-opacity:1;stroke-width:0.333332" />
</svg>
