<?xml version="1.0" encoding="UTF-8" standalone="no"?>
<svg
   width="32"
   height="32"
   version="1.1"
   id="svg1"
   sodipodi:docname="start-here-kde.svg"
   inkscape:version="1.3.2 (091e20ef0f, 2023-11-25)"
   xmlns:inkscape="http://www.inkscape.org/namespaces/inkscape"
   xmlns:sodipodi="http://sodipodi.sourceforge.net/DTD/sodipodi-0.dtd"
   xmlns="http://www.w3.org/2000/svg"
   xmlns:svg="http://www.w3.org/2000/svg">
  <defs
     id="defs1" />
  <sodipodi:namedview
     id="namedview1"
     pagecolor="#000000"
     bordercolor="#999999"
     borderopacity="1"
     inkscape:showpageshadow="2"
     inkscape:pageopacity="0"
     inkscape:pagecheckerboard="0"
     inkscape:deskcolor="#d1d1d1"
     inkscape:zoom="5.953125"
     inkscape:cx="21.83727"
     inkscape:cy="5.8792651"
     inkscape:window-width="1920"
     inkscape:window-height="994"
     inkscape:window-x="0"
     inkscape:window-y="0"
     inkscape:window-maximized="1"
     inkscape:current-layer="svg1" />
  <style
     type="text/css"
     id="current-color-scheme">.ColorScheme-Text { color: #fcfcfc; } </style>
  <g
     id="start-here-kde-1">
    <rect
       style="opacity:0.00100002;vector-effect:none;fill:#000000;fill-opacity:1;stroke:none;stroke-width:3.22818;stroke-linecap:round;stroke-linejoin:round;stroke-miterlimit:4;stroke-dasharray:none;stroke-dashoffset:0;stroke-opacity:1"
       y="0"
       x="0"
       height="32"
       width="32"
       id="rect860" />
    <path
       style="color:#d3dae3;fill:#cdd8e5;fill-opacity:0.403922;stroke-width:1.0621"
       d="m 17.090869,4 -4.363632,0.626078 v 14.961223 l 4.363632,-1.110783 V 12.696413 L 21.45451,19.510557 25.818149,17.9595 20.363607,11.755278 25.820281,5.036056 21.58662,4 17.090869,10.781829 Z m -8.88494,4.057383 c -0.103185,0 -0.206383,0.0381 -0.285511,0.1131 L 6.205217,9.796264 c -0.158254,0.150004 -0.120164,0.364299 0,0.543273 l 1.77486,2.641642 c -0.131505,0.258737 -0.24537,0.525197 -0.340909,0.797743 -0.0042,0.0117 -0.0108,0.02259 -0.01485,0.03433 L 4.404832,14.491838 C 4.186352,14.537858 4,14.663429 4,14.875566 v 1.01586 1.015862 c 0,0.212138 0.186352,0.337705 0.40483,0.383726 L 7.624291,17.9696 c 0.007,0.02005 0.01831,0.03858 0.02557,0.05858 0.093,0.264757 0.203292,0.523767 0.330253,0.775528 L 6.205257,21.44333 c -0.120165,0.178974 -0.158256,0.393269 0,0.543273 l 1.715199,1.625781 c 0.158255,0.150005 0.412766,0.150005 0.571023,0 l 2.782668,-1.68031 c 0.273555,0.126105 0.555387,0.235384 0.84375,0.327175 0.01893,0.0063 0.03644,0.01607 0.0554,0.02222 l 0.713778,3.049601 c 0,0.212139 0.181026,0.383724 0.404829,0.383724 h 2.422583 c 0.223812,0 0.356284,-0.176639 0.404833,-0.383724 l 0.713778,-3.142503 c 0.327938,-0.116865 0.646277,-0.256596 0.952421,-0.418059 l 2.716617,1.841878 c 0.158251,0.150006 0.41277,0.150006 0.57102,0 l 1.715202,-1.625781 c 0.158253,-0.150004 0.12015,-0.364297 0,-0.543273 l -1.033383,-1.486428 -0.10863,0.03837 c -0.245723,0.0875 -0.52235,-0.0033 -0.658379,-0.216096 l -1.086654,-1.696463 c -0.905382,2.052764 -3.04356,3.495934 -5.537643,3.495934 -3.313708,0 -6,-2.546249 -6,-5.687205 0,-2.410257 1.584872,-4.465334 3.818183,-5.293382 V 9.465066 l -0.0085,0.03636 c -0.02408,0.0078 -0.04631,0.02023 -0.07031,0.02828 -0.284525,0.08957 -0.562782,0.196144 -0.833085,0.319096 L 8.491535,8.170512 c -0.07914,-0.075 -0.18232,-0.1131 -0.285513,-0.1131 z"
       class="ColorScheme-Text"
       id="path10-7-7-6" />
    <path
       id="Power-s-5-2"
       class="st1"
       d="m 27.999968,17.142612 v 0 h -1.636361 v 0 c 0,5.157259 -5.468183,9.306332 -10.9091,9.306332 V 28 c 6.340917,0 12.545461,-4.847049 12.545461,-10.857388 z"
       style="fill:#eff0f1;fill-opacity:1;stroke-width:0.398284"
       sodipodi:nodetypes="ccccccc" />
  </g>
</svg>
