<?xml version="1.0" encoding="UTF-8" standalone="no"?>
<svg
   viewBox="0 0 16 16"
   version="1.1"
   id="svg1"
   sodipodi:docname="configure.svg"
   inkscape:version="1.3.2 (091e20ef0f, 2023-11-25)"
   xmlns:inkscape="http://www.inkscape.org/namespaces/inkscape"
   xmlns:sodipodi="http://sodipodi.sourceforge.net/DTD/sodipodi-0.dtd"
   xmlns="http://www.w3.org/2000/svg"
   xmlns:svg="http://www.w3.org/2000/svg">
  <sodipodi:namedview
     id="namedview1"
     pagecolor="#ffffff"
     bordercolor="#999999"
     borderopacity="1"
     inkscape:showpageshadow="2"
     inkscape:pageopacity="0"
     inkscape:pagecheckerboard="0"
     inkscape:deskcolor="#d1d1d1"
     inkscape:zoom="47.75"
     inkscape:cx="8"
     inkscape:cy="8"
     inkscape:window-width="1870"
     inkscape:window-height="994"
     inkscape:window-x="0"
     inkscape:window-y="0"
     inkscape:window-maximized="1"
     inkscape:current-layer="svg1" />
  <defs
     id="defs3051">
    <style
       type="text/css"
       id="current-color-scheme">
      .ColorScheme-Text {
        color:#fcfcfc;
      }
      </style>
  </defs>
  <g
     id="22-22-configure">
    <rect
       id="rect817"
       style="opacity:0.00100002"
       width="16"
       height="16"
       x="0"
       y="0" />
    <path
       d="m 9.499993,7.99998 c 0,0.828602 -0.671452,1.500021 -1.499983,1.500021 C 7.17146,9.500001 6.5,8.828582 6.5,7.99998 6.5,7.171423 7.17146,6.5 8.00001,6.5 c 0.828531,0 1.499983,0.671423 1.499983,1.49998 z"
       id="path4-3-5-6"
       style="fill:#aaaaff;fill-opacity:1;stroke-width:0.00826974" />
    <path
       d="m 13.999999,7.315002 c 0,-0.115006 -0.07998,-0.217499 -0.192489,-0.242493 l -1.652496,-0.375 C 12.072511,6.452498 11.972503,6.214994 11.850004,5.987502 L 12.76001,4.550003 c 0.06,-0.0975 0.04749,-0.227493 -0.03499,-0.309998 l -0.965,-0.962518 c -0.0825,-0.08241 -0.210006,-0.09747 -0.309998,-0.03505 L 9.9875,4.162438 C 9.767509,4.04994 9.542519,3.957442 9.310003,3.884947 L 8.920004,2.194948 C 8.895013,2.079989 8.792519,2 8.6775,2 H 7.32002 C 7.205,2 7.102504,2.0799 7.0775,2.19501 L 6.690015,3.885013 C 6.459995,3.957503 6.232509,4.050002 6.0125,4.162505 L 4.547505,3.242517 C 4.449995,3.179987 4.32002,3.195027 4.237495,3.277567 L 3.277507,4.240074 c -0.08244,0.0825 -0.09749,0.212494 -0.03507,0.309998 l 0.905,1.440002 C 4.029946,6.217568 3.927444,6.45507 3.847434,6.697578 l -1.6525,0.375 C 2.0825,7.097507 2,7.199996 2,7.315002 v 1.365006 c 0,0.117493 0.08244,0.2175 0.19501,0.242493 L 3.8075,9.290007 c 0.07991,0.26999 0.18252,0.527497 0.310004,0.769991 l -0.874987,1.389998 c -0.06253,0.0975 -0.04748,0.227509 0.03507,0.310014 l 0.959989,0.959992 c 0.08244,0.0825 0.212505,0.095 0.309993,0.035 l 1.362497,-0.857499 c 0.257511,0.137497 0.530008,0.252502 0.812505,0.337494 l 0.354977,1.57001 C 7.102508,13.920001 7.205,14.000002 7.32002,14.000002 H 8.6775 c 0.115019,0 0.217517,-0.08 0.242504,-0.194992 l 0.36,-1.570008 c 0.282488,-0.08749 0.552494,-0.199996 0.807502,-0.337493 l 1.362505,0.857498 c 0.09999,0.06 0.227493,0.0475 0.309999,-0.035 l 0.964996,-0.959992 c 0.0825,-0.0825 0.0975,-0.212508 0.03499,-0.310012 l -0.874995,-1.385 c 0.125001,-0.242492 0.229996,-0.5025 0.309998,-0.774994 l 1.612502,-0.367506 c 0.112506,-0.02501 0.192492,-0.125001 0.192492,-0.242493 z m -5.995007,3.752503 c -1.694989,0 -3.072492,-1.377503 -3.072492,-3.070007 0,-1.689988 1.377503,-3.064989 3.072492,-3.064989 1.690016,0 3.065019,1.375001 3.065019,3.064989 0,1.692504 -1.375003,3.070007 -3.065019,3.070007 z"
       id="path2-5-2"
       style="fill:#eff0f1;fill-opacity:1;stroke-width:0.250013" />
  </g>
</svg>
