<?xml version="1.0" encoding="UTF-8" standalone="no"?>
<svg
   width="32"
   height="32"
   version="1.1"
   id="svg12"
   sodipodi:docname="akonadi-symbolic.svg"
   inkscape:version="1.3.2 (091e20ef0f, 2023-11-25)"
   xmlns:inkscape="http://www.inkscape.org/namespaces/inkscape"
   xmlns:sodipodi="http://sodipodi.sourceforge.net/DTD/sodipodi-0.dtd"
   xmlns="http://www.w3.org/2000/svg"
   xmlns:svg="http://www.w3.org/2000/svg"
   xmlns:rdf="http://www.w3.org/1999/02/22-rdf-syntax-ns#"
   xmlns:cc="http://creativecommons.org/ns#"
   xmlns:dc="http://purl.org/dc/elements/1.1/">
  <metadata
     id="metadata18">
    <rdf:RDF>
      <cc:Work
         rdf:about="">
        <dc:format>image/svg+xml</dc:format>
        <dc:type
           rdf:resource="http://purl.org/dc/dcmitype/StillImage" />
      </cc:Work>
    </rdf:RDF>
  </metadata>
  <defs
     id="defs16" />
  <sodipodi:namedview
     pagecolor="#201933"
     bordercolor="#000000"
     borderopacity="1"
     objecttolerance="10"
     gridtolerance="10"
     guidetolerance="10"
     inkscape:pageopacity="0"
     inkscape:pageshadow="2"
     inkscape:window-width="1920"
     inkscape:window-height="994"
     id="namedview14"
     showgrid="true"
     inkscape:zoom="11.313708"
     inkscape:cx="16.175068"
     inkscape:cy="23.06936"
     inkscape:window-x="0"
     inkscape:window-y="0"
     inkscape:window-maximized="1"
     inkscape:current-layer="svg12"
     inkscape:document-rotation="0"
     showguides="false"
     inkscape:pagecheckerboard="true"
     inkscape:showpageshadow="true"
     inkscape:deskcolor="#201933">
    <inkscape:grid
       type="xygrid"
       id="grid862"
       originx="-11"
       originy="-115"
       spacingy="1"
       spacingx="1"
       units="px"
       visible="true" />
  </sodipodi:namedview>
  <g
     id="akonadi-3">
    <path
       style="opacity:0.00100002"
       d="M 0,0 H 32.000001 V 32.000001 H 0 Z"
       id="path7-6" />
    <path
       id="List"
       class="st0"
       d="M 11.125,4 H 29 v 18 c 0,2.357143 -1.828125,4.285714 -4.0625,4.285714 H 11.125 v -5.142857 h 16.25 v -3.428571 h -16.25 v -5.142857 h 16.25 V 9.1428572 H 11.125 Z M 3,17.714286 H 7.875 V 12.571429 H 3 Z m 4.875,3.428571 H 3 v 5.142857 h 4.875 z"
       style="fill:#cdd8e5;fill-opacity:0.403922;stroke-width:0.417261" />
    <path
       id="List-s"
       class="st1"
       d="M 4.625,9.1428572 H 3 V 7.4285715 C 3,5.5428572 4.4625,4 6.25,4 H 7.875 V 5.7142857 H 6.25 c -0.89375,0 -1.625,0.7714286 -1.625,1.7142858 z M 27.375,4 V 9.1428572 H 29 V 4 Z m 0,8.571429 v 5.142857 H 29 v -5.142857 z m 0,8.571428 v 1.714286 c 0,1.885714 -1.4625,3.428571 -3.25,3.428571 h -13 V 28 h 13 C 26.80625,28 29,25.685714 29,22.857143 V 21.142857 Z M 7.875,28 V 26.285714 H 4.625 V 28 Z"
       style="fill:#eff0f1;fill-opacity:1;stroke-width:0.417261" />
  </g>
</svg>
