<?xml version="1.0" encoding="UTF-8" standalone="no"?>
<svg
   width="32"
   height="32"
   version="1.1"
   id="svg12"
   sodipodi:docname="akregator-symbolic.svg"
   inkscape:version="1.3.2 (091e20ef0f, 2023-11-25)"
   xmlns:inkscape="http://www.inkscape.org/namespaces/inkscape"
   xmlns:sodipodi="http://sodipodi.sourceforge.net/DTD/sodipodi-0.dtd"
   xmlns:xlink="http://www.w3.org/1999/xlink"
   xmlns="http://www.w3.org/2000/svg"
   xmlns:svg="http://www.w3.org/2000/svg"
   xmlns:rdf="http://www.w3.org/1999/02/22-rdf-syntax-ns#"
   xmlns:cc="http://creativecommons.org/ns#"
   xmlns:dc="http://purl.org/dc/elements/1.1/">
  <metadata
     id="metadata18">
    <rdf:RDF>
      <cc:Work
         rdf:about="">
        <dc:format>image/svg+xml</dc:format>
        <dc:type
           rdf:resource="http://purl.org/dc/dcmitype/StillImage" />
      </cc:Work>
    </rdf:RDF>
  </metadata>
  <defs
     id="defs16">
    <linearGradient
       inkscape:collect="always"
       xlink:href="#linearGradient855"
       id="linearGradient873"
       x1="3.0619521"
       y1="16.631489"
       x2="8.1415768"
       y2="16.631489"
       gradientUnits="userSpaceOnUse"
       gradientTransform="matrix(1.3750003,0,0,1.3750003,-31.210187,-9.3848437)" />
    <linearGradient
       inkscape:collect="always"
       id="linearGradient855">
      <stop
         style="stop-color:#00cccc;stop-opacity:1"
         offset="0"
         id="stop851" />
      <stop
         style="stop-color:#008080;stop-opacity:1"
         offset="1"
         id="stop853" />
    </linearGradient>
  </defs>
  <sodipodi:namedview
     pagecolor="#201933"
     bordercolor="#000000"
     borderopacity="1"
     objecttolerance="10"
     gridtolerance="10"
     guidetolerance="10"
     inkscape:pageopacity="0"
     inkscape:pageshadow="2"
     inkscape:window-width="1920"
     inkscape:window-height="994"
     id="namedview14"
     showgrid="true"
     inkscape:zoom="9.8125003"
     inkscape:cx="16.305732"
     inkscape:cy="31.999999"
     inkscape:window-x="0"
     inkscape:window-y="0"
     inkscape:window-maximized="1"
     inkscape:current-layer="svg12"
     inkscape:document-rotation="0"
     inkscape:lockguides="false"
     inkscape:showpageshadow="2"
     inkscape:pagecheckerboard="true"
     inkscape:deskcolor="#201933">
    <inkscape:grid
       type="xygrid"
       id="grid894"
       originx="-16.428436"
       originy="-21.037106"
       spacingy="1"
       spacingx="1"
       units="px"
       visible="true" />
  </sodipodi:namedview>
  <g
     id="akregator">
    <rect
       style="opacity:0.00100002"
       width="32"
       height="32"
       x="0"
       y="0"
       id="rect7" />
    <g
       id="g1408"
       transform="matrix(0.37500001,0,0,0.37469011,4,4.0198328)">
      <path
         class="st1"
         d="m 0,20.000001 h 2.031746 c 5.5873016,0 11.174602,1.099998 16.355556,3.199998 5.180952,2.100001 9.853968,5.200003 13.815873,9.100002 3.961905,3.9 7.111111,8.499999 9.244443,13.6 2.133334,5.1 3.250794,10.599999 3.250794,16.1 V 64 H 28.444445 v -1.999999 c 0,-14.400001 -11.784128,-26 -26.412699,-26 H 0 Z m 31.288888,28 c 2.234922,0 4.063493,-1.8 4.063493,-4.000001 0,-0.599999 -0.101589,-1.199999 -0.40635,-1.699999 -1.625396,-2.600001 -3.453967,-5 -5.688887,-7.099999 -3.555557,-3.500001 -7.822224,-6.300003 -12.49524,-8.2 C 12.698412,25.3 8.431746,24.399999 4.063492,24.200002 v 7.999997 c 10.260318,0.7 19.098413,6.300002 24.177778,14.500002 0.711111,0.799999 1.828571,1.3 3.047618,1.3 z M 10.15873,44 C 4.5714285,44 0,48.500001 0,54 c 0,5.500001 4.5714285,10 10.15873,10 5.587301,0 10.15873,-4.499999 10.15873,-10 0,-5.499999 -4.571429,-10 -10.15873,-10 z M 4.063492,54 c 0,-3.3 2.7428572,-5.999999 6.095238,-5.999999 3.35238,0 6.095239,2.699999 6.095239,5.999999 0,3.300001 -2.742859,6.200001 -6.095239,6.200001 -3.3523808,0 -6.095238,-2.9 -6.095238,-6.200001 z M 3.9707326,-0.05293123 C 1.2639211,-0.03687541 0,1.7268151 0,5.3333333 V 16 h 2.031746 c 25.803175,0 46.730159,20.600001 46.730159,46.000001 L 64,61.000001 53.84127,30 h -2.641271 c 0.304762,0.600001 0.507937,1.199999 0.507937,2.000001 0,2.2 -1.828571,4 -4.063491,4 -1.219049,0 -2.234922,-0.5 -3.04762,-1.300002 C 35.860317,21.600001 21.028571,12.700001 4.063492,12.000002 V 4 C 4.6730159,4 5.2825397,4.1000001 5.9936507,4.1000001 L 6.2984127,0.09999999 C 4.8761905,0 3.9707326,-0.05293123 3.9707326,-0.05293123 Z"
         id="path6"
         sodipodi:nodetypes="csssssccssccssccccccssssssssssssccsccccsscccccs"
         style="fill:#cdd8e5;fill-opacity:0.403922;stroke-width:1.00789" />
      <path
         class="st2"
         d="M 4,4 C 34.4,5 58.9,29.499361 60,59.999361 L 55.712365,60 H 48 v 4 H 58.757973 C 63.999998,64 64,59.996692 64,59.996692 L 63.97753,58.767219 C 63.439154,29.309317 37.3,1.1 4,0 Z"
         id="path8"
         style="fill:#eff0f1;fill-opacity:1"
         sodipodi:nodetypes="cccccccscc" />
    </g>
  </g>
</svg>
