<?xml version="1.0" encoding="UTF-8" standalone="no"?>
<svg
   width="32"
   height="32"
   version="1.1"
   id="svg12"
   sodipodi:docname="amarok-symbolic.svg"
   inkscape:version="1.3.2 (091e20ef0f, 2023-11-25)"
   xmlns:inkscape="http://www.inkscape.org/namespaces/inkscape"
   xmlns:sodipodi="http://sodipodi.sourceforge.net/DTD/sodipodi-0.dtd"
   xmlns="http://www.w3.org/2000/svg"
   xmlns:svg="http://www.w3.org/2000/svg"
   xmlns:rdf="http://www.w3.org/1999/02/22-rdf-syntax-ns#"
   xmlns:cc="http://creativecommons.org/ns#"
   xmlns:dc="http://purl.org/dc/elements/1.1/">
  <style
     id="current-color-scheme"
     type="text/css">.ColorScheme-Text { color:#d6dbf1; }
</style>
  <metadata
     id="metadata18">
    <rdf:RDF>
      <cc:Work
         rdf:about="">
        <dc:format>image/svg+xml</dc:format>
        <dc:type
           rdf:resource="http://purl.org/dc/dcmitype/StillImage" />
      </cc:Work>
    </rdf:RDF>
  </metadata>
  <defs
     id="defs16">
    <linearGradient
       id="oomox"
       x1="0"
       x2="0"
       y1="0"
       y2="16"
       gradientUnits="userSpaceOnUse"
       gradientTransform="matrix(1.5000001,0,0,1.5000001,3.999995,3.9999999)">
      <stop
         offset="0%"
         style="stop-color:#303b3d; stop-opacity:1"
         id="stop18" />
      <stop
         offset="100%"
         style="stop-color:#bc985d; stop-opacity:1"
         id="stop20" />
    </linearGradient>
    <linearGradient
       id="oomox-3"
       x1="0.81322718"
       x2="0.81322718"
       y1="0.49186769"
       y2="15.247891"
       gradientTransform="matrix(0.98373494,0,0,1.016534,5.9966823,11.726037)"
       gradientUnits="userSpaceOnUse">
      <stop
         offset="0%"
         style="stop-color:#303b3d; stop-opacity:1"
         id="stop18-6" />
      <stop
         offset="100%"
         style="stop-color:#bc985d; stop-opacity:1"
         id="stop20-7" />
    </linearGradient>
  </defs>
  <sodipodi:namedview
     pagecolor="#201933"
     bordercolor="#000000"
     borderopacity="1"
     objecttolerance="10"
     gridtolerance="10"
     guidetolerance="10"
     inkscape:pageopacity="0"
     inkscape:pageshadow="2"
     inkscape:window-width="1920"
     inkscape:window-height="994"
     id="namedview14"
     showgrid="true"
     inkscape:zoom="9.8125"
     inkscape:cx="16"
     inkscape:cy="7.5414013"
     inkscape:window-x="0"
     inkscape:window-y="0"
     inkscape:window-maximized="1"
     inkscape:current-layer="svg12"
     inkscape:document-rotation="0"
     inkscape:lockguides="true"
     inkscape:showpageshadow="true"
     inkscape:pagecheckerboard="true"
     inkscape:deskcolor="#201933">
    <inkscape:grid
       type="xygrid"
       id="grid889"
       originx="21.21656"
       originy="-61.666693"
       spacingy="1"
       spacingx="1"
       units="px"
       visible="true" />
  </sodipodi:namedview>
  <g
     id="amarok">
    <path
       style="opacity:0.00100002"
       d="M 0,0 V 32.000001 H 32 V 0 Z"
       id="path7" />
    <path
       id="Music"
       class="st0"
       d="M 11.5,10.675 C 11.5,8.95 12.6625,7.45 14.35,7.0375 L 26.5,4 V 21.25 C 26.5,23.3125 24.8125,25 22.75,25 20.6875,25 19,23.3125 19,21.25 19,19.1875 20.6875,17.5 22.75,17.5 H 25 V 10.375 L 11.5,13.75 Z M 13,20.5 H 9.25 C 7.1875,20.5 5.5,22.1875 5.5,24.25 5.5,26.3125 7.1875,28 9.25,28 11.3125,28 13,26.3125 13,24.25 Z"
       style="fill:#cdd8e5;fill-opacity:0.403922;stroke-width:0.375" />
    <path
       id="Music-s"
       class="st1"
       d="M 26.5,10 25,10.375 v -4.5 L 26.5,5.5 Z M 14.125,8.65 14.5,8.5375 V 7 L 13.7875,7.1875 C 12.4375,7.525 11.5,8.725 11.5,10.1125 V 20.5 H 13 V 10.075 C 13,9.4 13.45,8.8 14.125,8.65 Z M 25,17.5 v 5.25 C 25,23.9875 23.9875,25 22.75,25 v 1.5 c 2.0625,0 3.75,-1.6875 3.75,-3.75 V 17.5 Z"
       style="fill:#eff0f1;fill-opacity:1;stroke-width:0.375" />
  </g>
</svg>
