<?xml version="1.0" encoding="UTF-8" standalone="no"?>
<svg
   width="32"
   height="32"
   version="1"
   id="svg14"
   sodipodi:docname="antimicro-symbolic.svg"
   inkscape:version="1.3.2 (091e20ef0f, 2023-11-25)"
   xmlns:inkscape="http://www.inkscape.org/namespaces/inkscape"
   xmlns:sodipodi="http://sodipodi.sourceforge.net/DTD/sodipodi-0.dtd"
   xmlns="http://www.w3.org/2000/svg"
   xmlns:svg="http://www.w3.org/2000/svg">
  <style
     id="current-color-scheme"
     type="text/css">.ColorScheme-Text { color:#eceff4; }
</style>
  <sodipodi:namedview
     id="namedview16"
     pagecolor="#201933"
     bordercolor="#000000"
     borderopacity="1"
     inkscape:showpageshadow="true"
     inkscape:pageopacity="0"
     inkscape:pagecheckerboard="true"
     inkscape:deskcolor="#201933"
     showgrid="false"
     inkscape:zoom="10.429825"
     inkscape:cx="15.820016"
     inkscape:cy="8.5332208"
     inkscape:window-width="1920"
     inkscape:window-height="994"
     inkscape:window-x="0"
     inkscape:window-y="0"
     inkscape:window-maximized="1"
     inkscape:current-layer="svg14">
    <inkscape:grid
       type="xygrid"
       id="grid1266"
       originx="-31.999996"
       originy="-79"
       spacingy="1"
       spacingx="1"
       units="px"
       visible="false" />
  </sodipodi:namedview>
  <defs
     id="defs5">
    <style
       type="text/css"
       id="style646" />
  </defs>
  <g
     id="antimicro-3">
    <rect
       style="opacity:0.00100002"
       width="32"
       height="32"
       x="0"
       y="0"
       id="rect4" />
    <path
       id="Game"
       class="st0"
       d="M 7.75,12.333333 V 13.8 h -1.5 v 1.466667 h 1.5 v 1.466666 h 1.5 v -1.466666 h 1.5 V 13.8 H 9.25 V 12.333333 Z M 22,14.9 c 0,0.623333 -0.4875,1.1 -1.125,1.1 -0.6375,0 -1.125,-0.476667 -1.125,-1.1 0,-0.623333 0.4875,-1.1 1.125,-1.1 0.6375,0 1.125,0.476667 1.125,1.1 z m 3.375,1.1 c 0.6375,0 1.125,-0.476667 1.125,-1.1 0,-0.623333 -0.4875,-1.1 -1.125,-1.1 -0.6375,0 -1.125,0.476667 -1.125,1.1 0,0.623333 0.4875,1.1 1.125,1.1 z m -1.125,1.1 c 0,0.623333 -0.4875,1.1 -1.125,1.1 C 22.4875,18.2 22,17.723333 22,17.1 22,16.476667 22.4875,16 23.125,16 c 0.6375,0 1.125,0.476667 1.125,1.1 z m 0,-4.4 c 0,0.623333 -0.4875,1.1 -1.125,1.1 C 22.4875,13.8 22,13.323333 22,12.7 c 0,-0.623333 0.4875,-1.1 1.125,-1.1 0.6375,0 1.125,0.476667 1.125,1.1 z M 4,13.8 v 9.533333 c 0,1.210001 1.0125,2.200001 2.25,2.200001 h 0.675 c 1.425,0 2.7375,-0.77 3.3375,-2.016667 l 1.9875,-3.85 h 7.5 l 2.325,4.51 c 0.4125,0.806667 1.275,1.356667 2.2125,1.356667 C 26.35,25.533334 28,23.92 28,21.903333 V 13.066667 C 28,11.05 26.3125,9.4 24.25,9.4 h -3 l -1.5,1.466667 h -7.5 L 10.75,9.4 H 8.5 C 6.025,9.4 4,11.38 4,13.8 Z"
       style="clip-rule:evenodd;fill:#cdd8e5;fill-opacity:0.403922;fill-rule:evenodd;stroke-width:0.37081" />
    <path
       id="Game-s"
       class="st1"
       d="m 21.25,5 v 0.7333333 c 0,1.2100001 -1.0125,2.2000001 -2.25,2.2000001 h -1.5 c -0.4125,0 -0.75,0.33 -0.75,0.7333333 V 9.4 h -1.5 V 8.6666667 c 0,-1.21 1.0125,-2.2 2.25,-2.2 H 19 c 0.4125,0 0.75,-0.33 0.75,-0.7333334 V 5 Z m 3,20.533334 V 27 C 26.3125,27 28,25.35 28,23.333333 V 18.2 h -1.5 v 5.133333 c 0,1.210001 -1.0125,2.200001 -2.25,2.200001 z M 19.375,18.933333 H 11.05 l -2.7375,5.390001 c -0.375,0.733333 -1.1625,1.21 -2.025,1.21 H 6.25 V 27 H 6.2875 C 7.7125,27 9.025,26.23 9.625,24.983334 L 11.95,20.4 h 8.175 z"
       style="fill:#eff0f1;fill-opacity:1;stroke-width:0.37081" />
  </g>
</svg>
