<?xml version="1.0" encoding="UTF-8" standalone="no"?>
<svg
   width="32"
   height="32"
   version="1.1"
   id="svg12"
   sodipodi:docname="audacious-symbolic.svg"
   inkscape:version="1.3.2 (091e20ef0f, 2023-11-25)"
   xmlns:inkscape="http://www.inkscape.org/namespaces/inkscape"
   xmlns:sodipodi="http://sodipodi.sourceforge.net/DTD/sodipodi-0.dtd"
   xmlns="http://www.w3.org/2000/svg"
   xmlns:svg="http://www.w3.org/2000/svg"
   xmlns:rdf="http://www.w3.org/1999/02/22-rdf-syntax-ns#"
   xmlns:cc="http://creativecommons.org/ns#"
   xmlns:dc="http://purl.org/dc/elements/1.1/">
  <style
     id="current-color-scheme"
     type="text/css">.ColorScheme-Text { color:#d6dbf1; }
</style>
  <metadata
     id="metadata18">
    <rdf:RDF>
      <cc:Work
         rdf:about="">
        <dc:format>image/svg+xml</dc:format>
        <dc:type
           rdf:resource="http://purl.org/dc/dcmitype/StillImage" />
      </cc:Work>
    </rdf:RDF>
  </metadata>
  <defs
     id="defs16" />
  <sodipodi:namedview
     pagecolor="#201933"
     bordercolor="#000000"
     borderopacity="1"
     objecttolerance="10"
     gridtolerance="10"
     guidetolerance="10"
     inkscape:pageopacity="0"
     inkscape:pageshadow="2"
     inkscape:window-width="1920"
     inkscape:window-height="994"
     id="namedview14"
     showgrid="true"
     inkscape:zoom="9.8125"
     inkscape:cx="15.694268"
     inkscape:cy="23.949045"
     inkscape:window-x="0"
     inkscape:window-y="0"
     inkscape:window-maximized="1"
     inkscape:current-layer="svg12"
     inkscape:lockguides="false"
     inkscape:document-rotation="0"
     inkscape:showpageshadow="true"
     inkscape:pagecheckerboard="true"
     inkscape:deskcolor="#201933">
    <inkscape:grid
       type="xygrid"
       id="grid845"
       originx="-9.2750006"
       originy="-40.1265"
       spacingy="1"
       spacingx="1"
       units="px"
       visible="true" />
  </sodipodi:namedview>
  <g
     id="audacious">
    <rect
       style="opacity:0.00100002;fill:#d1d5e9;fill-opacity:1"
       width="32"
       height="32"
       x="0"
       y="0"
       id="rect7" />
    <path
       d="m 20.075,10.05 v 2.0355 C 18.993828,10.847975 17.421478,10.05 15.65,10.05 c -3.258272,0 -5.9,2.641725 -5.9,5.9 0,3.258275 2.641728,5.9 5.9,5.9 1.771478,0 3.343828,-0.797975 4.425,-2.0355 V 21.85 H 21.55 V 10.05 Z M 15.65,18.9 c -1.6284,0 -2.95,-1.3216 -2.95,-2.95 0,-1.6284 1.3216,-2.95 2.95,-2.95 1.626928,0 2.95,1.3216 2.95,2.95 0,1.6284 -1.323072,2.95 -2.95,2.95 z"
       id="path4-3-36"
       style="fill:#eff0f1;fill-opacity:1;stroke-width:1.475" />
    <path
       id="Zoom-4-9"
       class="st0"
       d="m 25.695859,23.049081 h 1e-6 c 0.876921,-1.615386 2.30415,-5.064464 2.30415,-7.049079 C 28.00001,9.3538465 22.646152,4 15.999999,4 9.3538459,4 4.0000006,9.3538465 4.0000006,16.000002 c 0,6.646154 5.3538453,11.999997 11.9999984,11.999997 3.969231,0 7.476927,-1.938455 9.692315,-4.938458 z m -9.69586,1.258614 c -4.569231,0 -8.3076883,-3.738462 -8.3076883,-8.307693 0,-4.569232 3.7384573,-8.3076932 8.3076883,-8.3076932 4.569231,0 8.307701,3.7384612 8.307701,8.3076932 0,4.569231 -3.73847,8.307693 -8.307701,8.307693 z"
       sodipodi:nodetypes="ccssssccscccs"
       style="fill:#cdd8e5;fill-opacity:0.403922" />
    <path
       id="Zoom-s-8"
       class="st1"
       d="M 25.080234,23.049081 Z M 23.848984,9.5053284 Z M 25.69229,23.061541 c 1.661535,-2.261538 2.492309,-5.076924 2.261536,-7.892309 C 27.769212,12.26154 26.523051,9.5384626 24.446129,7.5076927 l -1.292308,1.2923079 c 1.846161,1.8461534 2.953856,4.3846164 2.953856,7.2000014 0,2.123077 -0.64616,4.107693 -1.800002,5.769231 z"
       style="fill:#eff0f1;fill-opacity:1;stroke-width:0.461539"
       sodipodi:nodetypes="ccccccccccccccccsccc" />
  </g>
</svg>
