<?xml version="1.0" encoding="UTF-8" standalone="no"?>
<svg
   width="32"
   height="32"
   version="1"
   id="svg1154"
   sodipodi:docname="cadence-symbolic.svg"
   inkscape:version="1.3.2 (091e20ef0f, 2023-11-25)"
   xmlns:inkscape="http://www.inkscape.org/namespaces/inkscape"
   xmlns:sodipodi="http://sodipodi.sourceforge.net/DTD/sodipodi-0.dtd"
   xmlns="http://www.w3.org/2000/svg"
   xmlns:svg="http://www.w3.org/2000/svg">
  <style
     id="current-color-scheme"
     type="text/css">.ColorScheme-Text { color:#d1d5e9; }
</style>
  <sodipodi:namedview
     id="namedview1156"
     pagecolor="#201933"
     bordercolor="#000000"
     borderopacity="1"
     inkscape:showpageshadow="true"
     inkscape:pageopacity="0"
     inkscape:pagecheckerboard="true"
     inkscape:deskcolor="#201933"
     showgrid="true"
     inkscape:zoom="7.375"
     inkscape:cx="15.864407"
     inkscape:cy="5.0169492"
     inkscape:window-width="1920"
     inkscape:window-height="994"
     inkscape:window-x="0"
     inkscape:window-y="0"
     inkscape:window-maximized="1"
     inkscape:current-layer="svg1154">
    <inkscape:grid
       type="xygrid"
       id="grid1340"
       originx="17"
       originy="-98"
       spacingy="1"
       spacingx="1"
       units="px"
       visible="true" />
  </sodipodi:namedview>
  <defs
     id="l4k1">
    <style
       type="text/css"
       id="style201" />
  </defs>
  <g
     id="cadence-3">
    <rect
       style="opacity:0.00100002;fill:#d1d5e9;fill-opacity:1"
       width="32"
       height="32"
       x="0"
       y="0"
       id="rect1149-6" />
    <path
       id="path14"
       d="M 0,0 V 32 H 32 V 0 Z"
       style="fill:none" />
    <path
       id="Page_1_"
       class="st0  ColorScheme-Highlight "
       d="m 21.249998,8.5 v 0 l -1.5,-1.5 V 7 H 9.2500005 V 26.5 H 21.999998 c 2.0625,0 3.75,-1.6875 3.75,-3.75 V 13 Z m -8.999999,2.25 z m 0,3.75 z m 0,7.5 z m 0,-3.75 z"
       sodipodi:nodetypes="ccccccsscccccccccccccccccccccc"
       style="color:#cdd8e5;fill:#cdd8e5;fill-opacity:0.403922;stroke-width:0.375" />
    <path
       id="Page-s"
       class="st1  ColorScheme-Text "
       d="M 22.549999,13 H 25.75 v 10.5 c 0,2.475 -2.025,4.5 -4.5,4.5 h -10.5 v -1.5 h 10.499999 c 1.65,0 3,-1.350001 3,-3 v -9 H 22.55 Z M 6.2500005,7 c 0,-1.65 1.35,-3 3,-3 H 16.75 V 5.5 H 9.2500005 c -0.825,0 -1.5,0.675 -1.5,1.5 v 12.75 h -1.5 z"
       style="color:#eff0f1;fill:currentColor;fill-opacity:1;stroke-width:0.375"
       sodipodi:nodetypes="ccssccsscccssccssccs" />
    <path
       style="color:#eff0f1;fill:currentColor;fill-opacity:1;stroke-width:0.499996"
       d="m 16.750144,11.000002 c -0.678716,0.0114 -1.713717,0.169147 -1.981918,0.461428 -0.286023,0.31171 -0.347978,0.749948 -0.268069,1.234879 0.152351,0.924513 1.429011,2.057976 2.185538,3.077676 -0.005,0.0051 -0.0109,0.01381 -0.0162,0.02055 -0.38106,0.474202 -1.175796,0.909211 -1.546868,1.277354 0.05982,-0.269431 0.102921,-0.862098 0.11279,-1.048846 0.0091,-0.159967 0.0038,-0.284098 -0.04541,-0.385258 -0.02486,-0.05059 -0.06936,-0.09913 -0.130382,-0.118646 -0.06105,-0.0196 -0.124038,-0.005 -0.178699,0.01901 -0.147594,0.378709 -0.3917,0.888142 -0.590326,1.363791 -0.18266,0.303362 -0.311789,0.846551 -0.395507,1.040052 -0.0431,0.09963 -0.07526,0.186526 -0.09517,0.262209 -0.01889,0.07129 -0.02804,0.133942 -0.02495,0.191898 0.104337,0.140695 0.273037,0.120117 0.41015,0.128906 0.05953,-0.001 0.1217,-0.0113 0.190423,-0.05269 0.161287,-0.09753 0.3588,-0.251763 0.569819,-0.432138 -0.150498,0.498162 -0.175951,0.656998 -0.416016,1.214369 -0.0026,0.0082 -0.0089,0.01574 -0.0118,0.02343 -1.266679,-0.17243 -2.587611,-0.06307 -3.48192,0.244632 -0.46909,0.161441 -0.830334,0.521219 -0.971178,0.918464 -0.1408491,0.397254 -0.05503,0.901969 0.298822,1.527858 0.353886,0.625886 0.744253,0.912777 1.160146,1.001969 0.41589,0.08913 0.831237,-0.02739 1.215812,-0.338401 0.733177,-0.592765 1.394267,-1.968022 1.908677,-3.125995 0.0091,0.002 0.01794,0.0021 0.02637,0.0026 0.605801,0.08942 1.186918,0.904709 1.694815,1.038586 -0.265957,0.0835 -0.577076,0.169958 -0.745605,0.254883 -0.144285,0.07272 -0.251185,0.138362 -0.314932,0.231453 -0.03191,0.04652 -0.05295,0.1093 -0.03954,0.171383 0.01339,0.06209 0.05723,0.109498 0.106918,0.143555 0.0995,0.06807 0.240683,0.105537 0.451172,0.136236 0.210487,0.03061 0.563012,0.04942 0.91992,0.05423 0.0012,1.8e-5 0.0016,-1.5e-5 0.0024,0 0.0012,-1.5e-5 0.0016,1.8e-5 0.0024,0 0.356899,-0.007 0.709422,-0.0234 0.91991,-0.05423 0.210487,-0.03063 0.351684,-0.06815 0.451168,-0.136236 0.04968,-0.03405 0.09354,-0.08143 0.106928,-0.143555 0.01342,-0.06209 -0.008,-0.124838 -0.03953,-0.171383 -0.06379,-0.09315 -0.170651,-0.158737 -0.314938,-0.231453 -0.168526,-0.08495 -0.479651,-0.171379 -0.7456,-0.254883 0.507891,-0.133878 1.089007,-0.949211 1.694807,-1.038586 0.0089,-0.002 0.01791,-0.002 0.02636,-0.0026 0.514418,1.157975 1.175505,2.533231 1.908674,3.125995 0.384575,0.31094 0.799921,0.427571 1.215818,0.338402 0.41588,-0.08916 0.806253,-0.376084 1.160143,-1.001969 0.353888,-0.625889 0.439666,-1.130604 0.298823,-1.527858 -0.140844,-0.39725 -0.502083,-0.757027 -0.971178,-0.918468 -0.894311,-0.30779 -2.215249,-0.417063 -3.481914,-0.244632 -0.0027,-0.0082 -0.0089,-0.01573 -0.01169,-0.02343 -0.240059,-0.557371 -0.265512,-0.716211 -0.416008,-1.214369 0.211016,0.180373 0.408531,0.334564 0.569815,0.432133 0.06868,0.04153 0.130918,0.05219 0.190426,0.05269 0.137109,-0.0094 0.305817,0.0118 0.410149,-0.128903 0.0025,-0.05797 -0.007,-0.120601 -0.02492,-0.191898 -0.02004,-0.07568 -0.05215,-0.162572 -0.09521,-0.26221 -0.0838,-0.193496 -0.212891,-0.736683 -0.39555,-1.040045 -0.198627,-0.475649 -0.442733,-0.985082 -0.590323,-1.363791 -0.05463,-0.02556 -0.11767,-0.03859 -0.178703,-0.01901 -0.06101,0.01958 -0.105558,0.06809 -0.13038,0.118647 -0.0496,0.101107 -0.05387,0.22529 -0.0454,0.385257 0.0099,0.186749 0.05301,0.779415 0.112791,1.048845 -0.371168,-0.368129 -1.165898,-0.803147 -1.546952,-1.277348 -0.005,-0.005 -0.01099,-0.01391 -0.01612,-0.02056 0.756514,-1.0197 2.033179,-2.153163 2.185524,-3.077676 0.07997,-0.484932 0.01795,-0.923168 -0.268063,-1.234879 C 18.462465,11.169133 17.427467,11.011249 16.748754,11 Z"
       id="path1151-5-3"
       class="ColorScheme-Text" />
  </g>
</svg>
