<?xml version="1.0" encoding="UTF-8" standalone="no"?>
<svg
   id="svg"
   version="1.1"
   viewBox="0 0 32 32"
   sodipodi:docname="device-notifier-symbolic.svg"
   inkscape:version="1.3.2 (091e20ef0f, 2023-11-25)"
   width="32"
   height="32"
   xmlns:inkscape="http://www.inkscape.org/namespaces/inkscape"
   xmlns:sodipodi="http://sodipodi.sourceforge.net/DTD/sodipodi-0.dtd"
   xmlns="http://www.w3.org/2000/svg"
   xmlns:svg="http://www.w3.org/2000/svg"
   xmlns:rdf="http://www.w3.org/1999/02/22-rdf-syntax-ns#"
   xmlns:cc="http://creativecommons.org/ns#"
   xmlns:dc="http://purl.org/dc/elements/1.1/">
  <sodipodi:namedview
     id="namedview27"
     pagecolor="#201933"
     bordercolor="#000000"
     borderopacity="1"
     inkscape:pageshadow="2"
     inkscape:pageopacity="0.0"
     inkscape:pagecheckerboard="true"
     showgrid="true"
     inkscape:zoom="9.208459"
     inkscape:cx="16.397966"
     inkscape:cy="33.013124"
     inkscape:window-width="1920"
     inkscape:window-height="994"
     inkscape:window-x="0"
     inkscape:window-y="0"
     inkscape:window-maximized="1"
     inkscape:current-layer="svg"
     inkscape:showpageshadow="2"
     inkscape:deskcolor="#201933">
    <inkscape:grid
       type="xygrid"
       id="grid951"
       originx="-6.0000458"
       originy="26.499996"
       spacingy="1"
       spacingx="1"
       units="px"
       visible="true" />
  </sodipodi:namedview>
  <metadata
     id="metadata47">
    <rdf:RDF>
      <cc:Work
         rdf:about="">
        <dc:format>image/svg+xml</dc:format>
        <dc:type
           rdf:resource="http://purl.org/dc/dcmitype/StillImage" />
      </cc:Work>
    </rdf:RDF>
  </metadata>
  <defs
     id="defs3">
    <style
       id="current-color-scheme"
       type="text/css">.ColorScheme-Text { color:#333333; } .ColorScheme-Highlight { color:#5294e2; } .ColorScheme-ButtonBackground { color:#dedede; }</style>
  </defs>
  <g
     id="device-notifier">
    <rect
       style="opacity:0.00100002;fill:#eff0f1;fill-opacity:1"
       width="32"
       height="32"
       x="0"
       y="0"
       id="rect7" />
    <path
       id="Save"
       class="st0"
       d="m 20.857151,17.512205 h -9.714302 v 7.768704 h 9.714302 z M 12.357152,6.6360182 H 7.5 V 26.83465 H 21.464283 C 23.133935,26.83465 24.5,25.08669 24.5,22.950299 V 6.6360182 h -3.642849 -1.214302 v 6.2149628 h -7.285697 z"
       sodipodi:nodetypes="ccccccccsscccccc"
       style="clip-rule:evenodd;fill:#cdd8e5;fill-opacity:0.403922;fill-rule:evenodd;stroke-width:0.343392" />
    <path
       id="Save-s"
       class="st1"
       d="M 18.073298,4.1273741 V 11.29724 H 13.938304 V 4.1273741 Z m 5.284808,8.7236069 2.9e-5,10.876187 c 4e-6,1.709116 -1.165286,3.107482 -2.500984,3.107482 H 8.7142848 v 1.126462 l 12.1428662,0.03887 C 22.860707,28.006355 24.5,26.290843 24.5,23.72717 V 12.850981 Z"
       sodipodi:nodetypes="ccccccssccsscc"
       style="fill:#eff0f1;fill-opacity:1;stroke-width:0.343392" />
    <path
       d="m 14.213057,4 c -0.402464,0 -0.722642,0.5399389 -0.722619,1.0224919 v 2.0332476 h 0.722642 l -2.3e-5,-1.018619 c 0.02067,-1.2065699 0,-1.2898768 0.722653,-1.2898768 h 2.173788 c 0.71675,-4.97e-5 0.720236,0.09902 0.71675,1.2898768 l 3.3e-5,1.018619 h 0.72263 l -1.6e-5,-2.0371799 C 18.548895,4.4050504 18.246742,4 17.836299,4.0000507 Z m 0.722658,2.0371817 v 1.0185578 h 0.72265 V 6.0371817 Z m 1.445291,0 v 1.0185578 h 0.722633 V 6.0371817 Z"
       style="solid-color:#d5c289;fill:#cdd8e5;fill-opacity:0.403922;fill-rule:evenodd;stroke-width:0.857938"
       id="path4-7-3"
       sodipodi:nodetypes="ccccccccccccccccccccccc" />
  </g>
</svg>
