<?xml version="1.0" encoding="UTF-8" standalone="no"?>
<svg
   inkscape:version="1.3.2 (091e20ef0f, 2023-11-25)"
   sodipodi:docname="jami-symbolic.svg"
   id="svg44"
   version="1.1"
   height="32"
   width="32"
   style="enable-background:new"
   xmlns:inkscape="http://www.inkscape.org/namespaces/inkscape"
   xmlns:sodipodi="http://sodipodi.sourceforge.net/DTD/sodipodi-0.dtd"
   xmlns="http://www.w3.org/2000/svg"
   xmlns:svg="http://www.w3.org/2000/svg"
   xmlns:rdf="http://www.w3.org/1999/02/22-rdf-syntax-ns#"
   xmlns:cc="http://creativecommons.org/ns#"
   xmlns:dc="http://purl.org/dc/elements/1.1/">
  <metadata
     id="metadata48">
    <rdf:RDF>
      <cc:Work
         rdf:about="">
        <dc:format>image/svg+xml</dc:format>
        <dc:type
           rdf:resource="http://purl.org/dc/dcmitype/StillImage" />
      </cc:Work>
    </rdf:RDF>
  </metadata>
  <sodipodi:namedview
     showguides="false"
     inkscape:current-layer="svg44"
     inkscape:window-maximized="1"
     inkscape:window-y="0"
     inkscape:window-x="0"
     inkscape:cy="16.242952"
     inkscape:cx="16.342602"
     inkscape:zoom="10.035122"
     showgrid="true"
     id="namedview46"
     inkscape:window-height="994"
     inkscape:window-width="1920"
     inkscape:pageshadow="2"
     inkscape:pageopacity="0"
     guidetolerance="10"
     gridtolerance="10"
     objecttolerance="10"
     borderopacity="1"
     bordercolor="#000000"
     pagecolor="#02334b"
     inkscape:document-rotation="0"
     inkscape:pagecheckerboard="true"
     inkscape:showpageshadow="true"
     inkscape:deskcolor="#02334b">
    <inkscape:grid
       id="grid845"
       type="xygrid"
       originx="-7"
       originy="-104"
       spacingy="1"
       spacingx="1"
       units="px"
       visible="true" />
  </sodipodi:namedview>
  <defs
     id="defs4">
    <linearGradient
       id="linearGradient5606"
       inkscape:swatch="solid">
      <stop
         style="stop-color:#000000"
         offset="0"
         id="stop5608" />
    </linearGradient>
  </defs>
  <g
     id="g128"
     transform="matrix(0,0.23269337,-0.3257329,0,25.286645,-99.331588)">
    <g
       id="g126">
      <g
         id="g124">
        <g
           id="g122">
          <g
             id="g120">
            <g
               id="g118">
              <g
                 id="g116">
                <g
                   id="g114" />
              </g>
            </g>
          </g>
        </g>
      </g>
    </g>
  </g>
  <g
     id="g146"
     transform="matrix(0,0.23269337,-0.3257329,0,25.286645,-99.331588)">
    <g
       id="g144">
      <g
         id="g142">
        <g
           id="g140">
          <g
             id="g138">
            <g
               id="g136">
              <g
                 id="g134">
                <g
                   id="g132" />
              </g>
            </g>
          </g>
        </g>
      </g>
    </g>
  </g>
  <g
     id="g6"
     style="fill:#e5e9ef;fill-opacity:1"
     transform="matrix(0,0.23269337,-0.3257329,0,25.286645,-99.331588)">
    <g
       id="g4"
       style="fill:#e5e9ef;fill-opacity:1" />
  </g>
  <g
     id="g24"
     style="fill:#e5e9ef;fill-opacity:1"
     transform="matrix(0,0.23269337,-0.3257329,0,25.286645,-99.331588)">
    <g
       id="g22"
       style="fill:#e5e9ef;fill-opacity:1" />
  </g>
  <g
     id="g42"
     style="fill:#e5e9ef;fill-opacity:1"
     transform="matrix(0,0.23269337,-0.3257329,0,25.286645,-99.331588)">
    <g
       id="g40"
       style="fill:#e5e9ef;fill-opacity:1" />
  </g>
  <g
     id="g60"
     style="fill:#e5e9ef;fill-opacity:1"
     transform="matrix(0,0.23269337,-0.3257329,0,25.286645,-99.331588)">
    <g
       id="g58"
       style="fill:#e5e9ef;fill-opacity:1" />
  </g>
  <g
     id="g78"
     style="fill:#e5e9ef;fill-opacity:1"
     transform="matrix(0,0.23269337,-0.3257329,0,25.286645,-99.331588)">
    <g
       id="g76"
       style="fill:#e5e9ef;fill-opacity:1" />
  </g>
  <g
     id="g96"
     style="fill:#e5e9ef;fill-opacity:1"
     transform="matrix(0,0.23269337,-0.3257329,0,25.286645,-99.331588)">
    <g
       id="g94"
       style="fill:#e5e9ef;fill-opacity:1" />
  </g>
  <g
     id="jami">
    <rect
       style="opacity:0.00100002"
       width="32"
       height="32"
       x="0"
       y="0"
       id="rect976" />
    <path
       id="Page_1_"
       class="st0  ColorScheme-Highlight "
       d="m 21.249999,8.5 v 0 l -1.5,-1.5 V 7 H 9.2500006 V 26.5 H 21.999999 c 2.0625,0 3.75,-1.6875 3.75,-3.75 V 13 Z M 12.25,10.75 Z m 0,3.75 z m 0,7.5 z m 0,-3.75 z"
       sodipodi:nodetypes="ccccccsscccccccccccccccccccccc"
       style="color:#cdd8e5;fill:#cdd8e5;fill-opacity:0.403922;stroke-width:0.375" />
    <path
       id="Page-s"
       class="st1  ColorScheme-Text "
       d="m 24.25,13 h 1.499999 v 10.5 c 0,2.475 -2.024999,4.5 -4.5,4.5 H 10.75 v -1.5 h 10.499999 c 1.65,0 3,-1.350001 3,-3 v -9 h 1e-6 z M 6.2500006,7 c 0,-1.65 1.35,-3 3,-3 H 16.749999 V 5.5 H 9.2500006 c -0.825,0 -1.5,0.675 -1.5,1.5 v 12.75 h -1.5 z"
       style="color:#eff0f1;fill:currentColor;fill-opacity:1;stroke-width:0.375"
       sodipodi:nodetypes="ccssccsscccssccssccs" />
    <path
       d="m 23.73736,16.728126 c 0,-1.11496 -1.254375,-1.881563 -2.926875,-2.299688 0,-0.209062 0.06976,-0.487772 0.139415,-0.627187 0.418125,-1.95121 -0.139415,-2.78746 -0.696835,-3.066349 -0.55754,-0.278711 -1.533085,-0.418125 -2.996463,0.905897 -0.139415,0.139415 -0.348477,0.27871 -0.487773,0.487773 -0.139415,-0.139415 -0.348477,-0.348477 -0.487772,-0.487773 -1.463557,-1.324022 -2.439222,-1.254255 -2.996762,-0.975545 -0.55742,0.348477 -1.11496,1.11496 -0.696835,3.135937 0.06965,0.139415 0.139415,0.418125 0.139415,0.627188 C 11.054375,14.846504 9.8,15.613106 9.8,16.728066 c 0,1.11496 1.254375,1.881562 2.926875,2.299687 0,0.209063 -0.06976,0.487773 -0.139415,0.696836 -0.418125,1.95121 0.139415,2.78746 0.696835,3.066349 C 13.493358,22.930353 13.70242,23 14.050897,23 c 0.55754,0 1.324023,-0.27871 2.23004,-1.11496 0.139415,-0.139414 0.348477,-0.27871 0.487773,-0.487772 0.139415,0.139415 0.348477,0.348477 0.487772,0.487772 C 18.232147,22.72129 18.99863,23 19.486522,23 c 0.27871,0 0.55754,-0.06965 0.766602,-0.209062 0.55754,-0.27871 1.114961,-1.11496 0.696836,-3.066349 -0.06965,-0.209063 -0.139415,-0.418125 -0.139415,-0.627188 1.6725,-0.487773 2.926875,-1.254375 2.926875,-2.369335 z m -9.756051,-4.808437 c 0.209063,0 0.627188,0.06965 1.39379,0.766602 0.139415,0.139415 0.348478,0.27871 0.487773,0.487772 -0.209063,0.209063 -0.487892,0.55754 -0.696955,0.83625 -0.348477,0 -0.696835,0.06965 -1.045312,0.139415 -0.06965,-0.209062 -0.139298,-0.487892 -0.139298,-0.696954 -0.278827,-1.11496 -0.06976,-1.533085 0,-1.533085 z m -0.766602,5.784161 c -1.324022,-0.278826 -2.020977,-0.766602 -2.020977,-0.975664 0,-0.209063 0.696835,-0.696836 2.020977,-0.975665 0.139415,0.278826 0.27871,0.627187 0.418125,0.975665 -0.139415,0.348477 -0.27871,0.696835 -0.418125,0.975664 z m 2.160273,3.066051 c -0.905898,0.83625 -1.324023,0.83625 -1.393671,0.766602 -0.06965,0 -0.27871,-0.418125 0,-1.602852 0,-0.139298 0.06965,-0.418125 0.139299,-0.627187 0.348477,0.06965 0.696835,0.06965 1.045312,0.139414 0.209063,0.278711 0.418125,0.627188 0.627188,0.83625 -0.139299,0.209063 -0.27871,0.348478 -0.418125,0.487773 z m 1.39379,-2.648045 h -0.766603 c -0.139415,-0.209063 -0.27871,-0.418125 -0.418125,-0.696835 -0.139415,-0.209063 -0.27871,-0.487773 -0.348477,-0.696835 0.139415,-0.209063 0.209062,-0.487773 0.348477,-0.696836 0.139415,-0.209062 0.27871,-0.487772 0.418125,-0.696835 h 0.766603 0.766602 c 0.139415,0.209063 0.27871,0.418125 0.418125,0.696835 0.139415,0.209063 0.27871,0.487773 0.348477,0.696836 -0.139415,0.209062 -0.209062,0.487772 -0.348477,0.696835 -0.139415,0.209062 -0.27871,0.487772 -0.418125,0.696835 z m 2.78746,3.414588 c -0.06965,0 -0.487773,0 -1.39379,-0.766603 -0.139415,-0.139414 -0.348477,-0.27871 -0.487773,-0.487772 0.209063,-0.27871 0.418125,-0.55754 0.627188,-0.83625 0.348477,0 0.696835,-0.06965 1.045312,-0.139415 0.06965,0.209062 0.139415,0.418125 0.139415,0.627187 0.348477,1.184728 0.139415,1.602853 0.06965,1.602853 z m 0,-8.08385 c 0,0.209063 -0.06965,0.487893 -0.139299,0.696955 -0.348477,-0.06965 -0.696835,-0.06965 -1.045312,-0.139415 -0.209063,-0.27871 -0.418125,-0.627187 -0.627188,-0.83625 l 0.487773,-0.487772 c 0.766602,-0.696836 1.184727,-0.766603 1.324023,-0.766603 h 0.06965 c 1.2e-4,0 0.209179,0.418125 -0.06965,1.533085 z m 0.766602,4.251137 c -0.139415,-0.348477 -0.27871,-0.627188 -0.418125,-0.975665 0.139415,-0.348477 0.27871,-0.696835 0.418125,-0.975665 1.324022,0.278827 2.020977,0.766603 2.020977,0.975665 0,0.209063 -0.696955,0.696835 -2.020977,0.975665 z"
       id="path355"
       style="fill:#eff0f1;fill-opacity:1;stroke-width:0.0298661" />
    <path
       d="m 17.395897,16.728126 c 0,0.346386 -0.280809,0.627187 -0.627187,0.627187 -0.346378,0 -0.627188,-0.280809 -0.627188,-0.627187 0,-0.346378 0.28081,-0.627188 0.627188,-0.627188 0.346378,0 0.627187,0.28081 0.627187,0.627188"
       id="path357"
       style="fill:#eff0f1;fill-opacity:1;stroke-width:0.0298661" />
  </g>
</svg>
