<?xml version="1.0" encoding="UTF-8" standalone="no"?>
<svg
   width="32"
   height="32"
   version="1"
   id="svg12"
   sodipodi:docname="juk-symbolic.svg"
   inkscape:version="1.3.2 (091e20ef0f, 2023-11-25)"
   xmlns:inkscape="http://www.inkscape.org/namespaces/inkscape"
   xmlns:sodipodi="http://sodipodi.sourceforge.net/DTD/sodipodi-0.dtd"
   xmlns="http://www.w3.org/2000/svg"
   xmlns:svg="http://www.w3.org/2000/svg"
   xmlns:rdf="http://www.w3.org/1999/02/22-rdf-syntax-ns#"
   xmlns:cc="http://creativecommons.org/ns#"
   xmlns:dc="http://purl.org/dc/elements/1.1/">
  <style
     id="current-color-scheme"
     type="text/css">.ColorScheme-Text { color:#d6dbf1; }
</style>
  <metadata
     id="metadata18">
    <rdf:RDF>
      <cc:Work
         rdf:about="">
        <dc:format>image/svg+xml</dc:format>
        <dc:type
           rdf:resource="http://purl.org/dc/dcmitype/StillImage" />
      </cc:Work>
    </rdf:RDF>
  </metadata>
  <defs
     id="defs16" />
  <sodipodi:namedview
     pagecolor="#02334b"
     bordercolor="#000000"
     borderopacity="1"
     objecttolerance="10"
     gridtolerance="10"
     guidetolerance="10"
     inkscape:pageopacity="0"
     inkscape:pageshadow="2"
     inkscape:window-width="1920"
     inkscape:window-height="994"
     id="namedview14"
     showgrid="true"
     inkscape:zoom="9.8125"
     inkscape:cx="16.305732"
     inkscape:cy="24.050955"
     inkscape:window-x="0"
     inkscape:window-y="0"
     inkscape:window-maximized="1"
     inkscape:current-layer="svg12"
     inkscape:document-rotation="0"
     inkscape:showpageshadow="true"
     inkscape:lockguides="false"
     inkscape:pagecheckerboard="true"
     inkscape:deskcolor="#02334b">
    <inkscape:grid
       type="xygrid"
       id="grid865"
       originx="-38"
       originy="-83"
       spacingy="1"
       spacingx="1"
       units="px"
       visible="true" />
  </sodipodi:namedview>
  <g
     id="juk-3">
    <rect
       style="opacity:0.00100002;fill:#eff0f1;fill-opacity:1"
       width="32"
       height="32"
       x="0"
       y="0"
       id="rect7-6" />
    <path
       id="Page_1_-5"
       class="st0  ColorScheme-Highlight "
       d="m 21.249999,8.5 v 0 L 22.15,7 V 7 H 9.250001 v 19.5 h 12.749998 c 2.0625,0 3.75,-1.6875 3.75,-3.75 V 11 c -1.456426,-0.896936 -2.630082,-2.2039826 -4.5,-2.5 z"
       sodipodi:nodetypes="ccccccsscc"
       style="color:#cdd8e5;fill:#cdd8e5;fill-opacity:0.403922;stroke-width:0.375" />
    <path
       id="Page-s-6"
       class="st1  ColorScheme-Text "
       d="m 24.25,13 h 1.499999 v 10.5 c 0,2.475 -2.024999,4.5 -4.5,4.5 H 10.75 v -1.5 h 10.499999 c 1.65,0 3,-1.350001 3,-3 v -9 h 1e-6 z M 6.250001,7 c 0,-1.65 1.35,-3 3,-3 h 7.499998 V 5.5 H 9.250001 c -0.825,0 -1.5,0.675 -1.5,1.5 v 12.75 h -1.5 z"
       style="color:#eff0f1;fill:currentColor;fill-opacity:1;stroke-width:0.375"
       sodipodi:nodetypes="ccssccsscccssccssccs" />
    <path
       id="Playlist-2"
       class="st0"
       d="m 19.598366,7.445473 z m 0,0 z m 0.653682,10.204098 c 0.325,-0.6 0.487499,-1.328572 0.487499,-2.057142 h -4.468744 c -0.4875,0 -0.975012,0.08571 -1.462512,0.214284 -2.6,0.685715 -4.265616,3.085715 -3.696872,5.357143 0.568756,2.27143 3.168757,3.514286 5.809384,2.785715 2.640616,-0.728572 4.306245,-3.128571 3.696872,-5.357143 -0.0813,-0.342857 -0.203128,-0.642857 -0.365627,-0.942857 z"
       style="fill:#2e3238;fill-opacity:1;stroke-width:0.41726"
       sodipodi:nodetypes="ccccccccccccsccscc" />
    <path
       id="Playlist-s-9"
       class="st1"
       d="M 19.746319,7.445473 Z M 21.7,7.021 h -2.437499 v 12.857143 c 0,2.357143 -1.828129,4.285713 -4.062501,4.285713 v 1.714287 c 3.128128,0 5.6875,-2.7 5.6875,-6 V 8.735286 H 21.7 c 1.340629,0 2.4375,1.157143 2.4375,2.571428 h 1.625 C 25.7625,8.949572 23.934372,7.021 21.7,7.021 Z"
       style="fill:#eff0f1;fill-opacity:1;stroke-width:0.41726"
       sodipodi:nodetypes="cccccccccscsccscsc" />
  </g>
</svg>
