<?xml version="1.0" encoding="UTF-8" standalone="no"?>
<svg
   inkscape:version="1.3.2 (091e20ef0f, 2023-11-25)"
   sodipodi:docname="kaffeine-symbolic.svg"
   id="svg44"
   version="1.1"
   height="32"
   width="32"
   style="enable-background:new"
   xmlns:inkscape="http://www.inkscape.org/namespaces/inkscape"
   xmlns:sodipodi="http://sodipodi.sourceforge.net/DTD/sodipodi-0.dtd"
   xmlns="http://www.w3.org/2000/svg"
   xmlns:svg="http://www.w3.org/2000/svg"
   xmlns:rdf="http://www.w3.org/1999/02/22-rdf-syntax-ns#"
   xmlns:cc="http://creativecommons.org/ns#"
   xmlns:dc="http://purl.org/dc/elements/1.1/">
  <metadata
     id="metadata48">
    <rdf:RDF>
      <cc:Work
         rdf:about="">
        <dc:format>image/svg+xml</dc:format>
        <dc:type
           rdf:resource="http://purl.org/dc/dcmitype/StillImage" />
      </cc:Work>
    </rdf:RDF>
  </metadata>
  <sodipodi:namedview
     showguides="false"
     inkscape:current-layer="svg44"
     inkscape:window-maximized="1"
     inkscape:window-y="0"
     inkscape:window-x="0"
     inkscape:cy="15.944001"
     inkscape:cx="15.944001"
     inkscape:zoom="10.035122"
     showgrid="true"
     id="namedview46"
     inkscape:window-height="994"
     inkscape:window-width="1920"
     inkscape:pageshadow="2"
     inkscape:pageopacity="0"
     guidetolerance="10"
     gridtolerance="10"
     objecttolerance="10"
     borderopacity="1"
     bordercolor="#000000"
     pagecolor="#02334b"
     inkscape:document-rotation="0"
     inkscape:pagecheckerboard="true"
     inkscape:showpageshadow="true"
     inkscape:deskcolor="#02334b">
    <inkscape:grid
       id="grid1"
       units="px"
       originx="-6.4999952"
       originy="-16.5"
       spacingx="1"
       spacingy="1"
       empcolor="#0099e5"
       empopacity="0.30196078"
       color="#0099e5"
       opacity="0.14901961"
       empspacing="5"
       dotted="false"
       gridanglex="30"
       gridanglez="30"
       visible="true" />
  </sodipodi:namedview>
  <defs
     id="defs4">
    <linearGradient
       id="linearGradient5606"
       inkscape:swatch="solid">
      <stop
         style="stop-color:#000000"
         offset="0"
         id="stop5608" />
    </linearGradient>
  </defs>
  <g
     id="g128"
     transform="matrix(0,0.23269337,-0.3257329,0,25.78665,-11.831588)">
    <g
       id="g126">
      <g
         id="g124">
        <g
           id="g122">
          <g
             id="g120">
            <g
               id="g118">
              <g
                 id="g116">
                <g
                   id="g114" />
              </g>
            </g>
          </g>
        </g>
      </g>
    </g>
  </g>
  <g
     id="g146"
     transform="matrix(0,0.23269337,-0.3257329,0,25.78665,-11.831588)">
    <g
       id="g144">
      <g
         id="g142">
        <g
           id="g140">
          <g
             id="g138">
            <g
               id="g136">
              <g
                 id="g134">
                <g
                   id="g132" />
              </g>
            </g>
          </g>
        </g>
      </g>
    </g>
  </g>
  <g
     id="kaffeine"
     style="enable-background:new">
    <rect
       id="rect11"
       style="opacity:0.00100002"
       y="0"
       x="0"
       height="32"
       width="32" />
    <path
       id="Movie"
       class="st0"
       d="M 26.38621,7.0749999 5.6551735,12.0625 5.241379,10.6375 25.931027,5.6125 Z M 4.8275868,26.5 H 23.862078 C 26.137922,26.5 28,24.812501 28,22.75 v -10.5 h -1.655183 v 1.5 H 4.8275868 Z m 9.1034402,-3 v -6 l 5.793105,2.999999 z"
       style="fill:#cdd8e5;fill-opacity:0.403922;stroke-width:0.393919" />
    <path
       id="Movie-s"
       class="st1"
       d="M 27.17242,6.8875 25.55863,7.2624999 24.731027,4.375 26.344817,4 Z M 5.6137922,8.9874999 4,9.3624999 4.8275868,12.137499 V 15.25 H 6.482758 v -3.3 z M 16.082763,12.25 h -1.862078 l -1.65516,3 h 1.862055 z m 4.551712,0 H 18.77242 l -1.655183,3 h 1.862078 z m 4.551735,0 h -1.862078 l -1.655159,3 h 1.862054 z m -15.475867,0 -1.6551695,3 H 9.917238 l 1.655182,-3 z M 23.034475,26.5 H 6.482758 V 28 H 23.034475 C 25.765525,28 28,25.975001 28,23.5 v -9.75 h -1.655183 v 9.75 c 0,1.65 -1.489634,3 -3.310342,3 z M 17.24137,6.1749999 l -1.779292,0.45 2.441369,2.4749999 1.779316,-0.45 z m -4.386187,1.05 -1.779315,0.45 L 13.517237,10.15 15.296553,9.6999998 Z m -4.3862172,1.0875 -1.7793105,0.45 2.4413789,2.4750001 1.7793078,-0.45 z M 24.068973,7.5999999 21.62758,5.125 l -1.779315,0.4499999 2.441393,2.475 z"
       style="fill:#eff0f1;fill-opacity:1;stroke-width:0.393919" />
  </g>
</svg>
