<?xml version="1.0" encoding="UTF-8" standalone="no"?>
<svg
   width="32.000015"
   height="31.999973"
   version="1.1"
   id="svg6"
   sodipodi:docname="kdeconnect-symbolic.svg"
   inkscape:version="1.3.2 (091e20ef0f, 2023-11-25)"
   xmlns:inkscape="http://www.inkscape.org/namespaces/inkscape"
   xmlns:sodipodi="http://sodipodi.sourceforge.net/DTD/sodipodi-0.dtd"
   xmlns="http://www.w3.org/2000/svg"
   xmlns:svg="http://www.w3.org/2000/svg">
  <sodipodi:namedview
     id="namedview1"
     pagecolor="#000000"
     bordercolor="#999999"
     borderopacity="1"
     inkscape:showpageshadow="2"
     inkscape:pageopacity="0"
     inkscape:pagecheckerboard="0"
     inkscape:deskcolor="#d1d1d1"
     inkscape:zoom="16.83798"
     inkscape:cx="16.391515"
     inkscape:cy="20.786341"
     inkscape:window-width="1920"
     inkscape:window-height="994"
     inkscape:window-x="0"
     inkscape:window-y="0"
     inkscape:window-maximized="1"
     inkscape:current-layer="svg6"
     showgrid="false">
    <inkscape:grid
       id="grid1"
       units="px"
       originx="-1"
       originy="-85"
       spacingx="1"
       spacingy="1"
       empcolor="#0099e5"
       empopacity="0.30196078"
       color="#0099e5"
       opacity="0.14902"
       empspacing="5"
       dotted="false"
       gridanglex="30"
       gridanglez="30"
       visible="false" />
  </sodipodi:namedview>
  <defs
     id="defs10" />
  <namedview
     id="namedview8"
     pagecolor="#ffffff"
     bordercolor="#000000"
     borderopacity="0.25"
     inkscape:showpageshadow="2"
     inkscape:pageopacity="0.0"
     inkscape:pagecheckerboard="0"
     inkscape:deskcolor="#d1d1d1"
     showgrid="false"
     inkscape:zoom="48.3125"
     inkscape:cx="6.8926261"
     inkscape:cy="7.9896507"
     inkscape:window-width="1920"
     inkscape:window-height="1011"
     inkscape:window-x="0"
     inkscape:window-y="0"
     inkscape:window-maximized="1"
     inkscape:current-layer="svg6" />
  <style
     type="text/css"
     id="current-color-scheme">.ColorScheme-Text{color:#31363b;}.ColorScheme-Background{color:#eff0f1;}.ColorScheme-Highlight{color:#3daee9;}.ColorScheme-ViewText{color:#31363b;}.ColorScheme-ViewBackground{color:#fcfcfc;}.ColorScheme-ViewHover{color:#93cee9;}.ColorScheme-ViewFocus{color:#3daee9;}.ColorScheme-ButtonText{color:#31363b;}.ColorScheme-ButtonBackground{color:#eff0f1;}.ColorScheme-ButtonHover{color:#93cee9;}.ColorScheme-ButtonFocus { color: #3daee9; } </style>
  <g
     id="kdeconnect">
    <rect
       width="32.000015"
       height="31.999973"
       rx="0"
       ry="0"
       x="-4.4677737e-09"
       y="1.4697265e-07"
       id="rect3860-6"
       style="opacity:0.01;fill:#eff0f1;fill-opacity:0;stroke:none" />
    <path
       style="color:#d3dae3;fill:#eff0f1;fill-opacity:1;fill-rule:evenodd;stroke-width:0.499207;image-rendering:optimizeQuality;shape-rendering:geometricPrecision;text-rendering:geometricPrecision"
       d="m 16.500725,11.345013 -1.505423,0.262277 v 5.185115 l 1.497625,-0.193047 -0.0078,-2.337112 1.766726,2.586711 1.735522,-0.249599 -1.996822,-2.677381 2.003645,-2.246427 -1.756972,-0.323719 -1.752099,2.246437 z m -3.165868,1.324061 c -0.01451,7.66e-4 -0.02811,0.0075 -0.039,0.0185 l -0.51676,0.522607 c -0.02249,0.02256 -0.0262,0.05781 -0.0088,0.08484 l 0.624009,0.958435 c -0.11772,0.208908 -0.20666,0.437963 -0.264232,0.677635 L 12.05268,15.195316 C 12.02281,15.202616 12,15.229666 12,15.260666 v 0.340272 0.340281 c 0,0.03099 0.02275,0.058 0.05268,0.06538 l 1.077388,0.264224 c 0.05753,0.239668 0.146514,0.468734 0.264234,0.677636 l -0.623992,0.958419 c -0.01741,0.02699 -0.0137,0.06224 0.0088,0.08483 l 0.516759,0.522602 c 0.02178,0.02197 0.05562,0.02381 0.08185,0.0078 l 0.977925,-0.599609 c 0.191859,0.11177 0.491976,0.201695 0.710789,0.2613 l 0.229128,1.106642 c 0.0064,0.03193 0.03176,0.05457 0.06336,0.05457 h 0.385129 0.385131 c 0.03167,0 0.057,-0.0226 0.06338,-0.05457 l 0.22913,-1.106635 c 0.218811,-0.05957 0.518921,-0.149536 0.710789,-0.261305 l 0.977937,0.599627 c 0.02632,0.01595 0.06008,0.01421 0.08182,-0.0078 l 0.516762,-0.522603 c 0.02247,-0.02256 0.02623,-0.05782 0.0088,-0.08483 l -0.519681,-0.79853 -0.06437,0.0096 -0.364656,-0.534312 c -0.372438,0.780735 -1.160075,1.278279 -2.025099,1.279213 -1.240671,0 -2.24643,-1.00576 -2.24643,-2.246421 0.0012,-0.852715 0.484157,-1.631502 1.248014,-2.010477 v -0.490401 c -0.142394,0.04745 -0.282304,0.101023 -0.390006,0.163816 l -0.977904,-0.599599 c -0.01319,-0.008 -0.02844,-0.01192 -0.04292,-0.01055 z"
       class="ColorScheme-Text"
       id="path10" />
    <path
       id="Mobile"
       class="st0"
       d="m 11.500008,4.05 c -1.6500004,0 -3.0000004,1.35 -3.0000004,3 H 22.000008 v 16.5 H 8.5000076 v 3 H 20.500008 c 1.65,0 3,-1.35 3,-3 V 4.05 Z"
       style="fill:#cdd8e5;fill-opacity:0.403922;stroke-width:0.375" />
    <path
       id="Mobile-s"
       class="st1"
       d="M 10.000008,23.55 H 8.5000076 V 7.05 c 0,-1.65 1.35,-3 3.0000004,-3 h 1.5 v 1.5 h -1.5 c -0.825,0 -1.5,0.675 -1.5,1.5 z m 12,0 c 0,1.65 -1.35,3 -3,3 h -9 v 1.5 h 9 c 2.475,0 4.5,-2.025 4.5,-4.5 z m 0,-16.5 h 1.5 v -1.5 h -1.5 z m -5.25,17.25 h -1.5 v 1.5 h 1.5 z"
       style="fill:#eff0f1;fill-opacity:1;stroke-width:0.375" />
  </g>
</svg>
