<?xml version="1.0" encoding="UTF-8" standalone="no"?>
<svg
   width="32"
   height="32"
   version="1"
   id="svg12"
   sodipodi:docname="klipper-symbolic.svg"
   inkscape:version="1.3.2 (091e20ef0f, 2023-11-25)"
   xmlns:inkscape="http://www.inkscape.org/namespaces/inkscape"
   xmlns:sodipodi="http://sodipodi.sourceforge.net/DTD/sodipodi-0.dtd"
   xmlns="http://www.w3.org/2000/svg"
   xmlns:svg="http://www.w3.org/2000/svg"
   xmlns:rdf="http://www.w3.org/1999/02/22-rdf-syntax-ns#"
   xmlns:cc="http://creativecommons.org/ns#"
   xmlns:dc="http://purl.org/dc/elements/1.1/">
  <style
     id="current-color-scheme"
     type="text/css">.ColorScheme-Text { color:#d6dbf1; }
</style>
  <metadata
     id="metadata18">
    <rdf:RDF>
      <cc:Work
         rdf:about="">
        <dc:format>image/svg+xml</dc:format>
        <dc:type
           rdf:resource="http://purl.org/dc/dcmitype/StillImage" />
      </cc:Work>
    </rdf:RDF>
  </metadata>
  <defs
     id="defs16" />
  <sodipodi:namedview
     pagecolor="#201933"
     bordercolor="#000000"
     borderopacity="1"
     objecttolerance="10"
     gridtolerance="10"
     guidetolerance="10"
     inkscape:pageopacity="0"
     inkscape:pageshadow="2"
     inkscape:window-width="1920"
     inkscape:window-height="994"
     id="namedview14"
     showgrid="true"
     inkscape:zoom="11.313709"
     inkscape:cx="16.440232"
     inkscape:cy="23.334523"
     inkscape:window-x="0"
     inkscape:window-y="0"
     inkscape:window-maximized="1"
     inkscape:current-layer="svg12"
     inkscape:document-rotation="0"
     inkscape:pagecheckerboard="true"
     inkscape:lockguides="false"
     showguides="false"
     inkscape:showpageshadow="2"
     inkscape:deskcolor="#201933">
    <sodipodi:guide
       position="-7.990292,18.558977"
       orientation="1,0"
       id="guide8806"
       inkscape:locked="false" />
    <inkscape:grid
       id="grid1"
       units="px"
       originx="0"
       originy="0"
       spacingx="1"
       spacingy="1"
       empcolor="#0099e5"
       empopacity="0.30196078"
       color="#0099e5"
       opacity="0.14901961"
       empspacing="5"
       dotted="false"
       gridanglex="30"
       gridanglez="30"
       visible="true" />
  </sodipodi:namedview>
  <g
     id="klipper">
    <rect
       style="opacity:0.00100002"
       width="32"
       height="32"
       x="0"
       y="0"
       id="rect7" />
    <path
       id="Attachment"
       class="st0"
       d="M 18.25,7 H 7 V 26.5 H 21.25 C 23.3125,26.5 25,24.8125 25,22.75 V 13 L 19.75,7.75 v 3.75 h -1.5 z"
       style="fill:#cdd8e5;fill-opacity:0.403922;stroke-width:0.375" />
    <path
       id="Attachment-s"
       class="st1"
       d="M 12.25,4 C 14.3125,4 16,5.6875 16,7.75 v 6 c 0,2.0625 -1.6875,3.75 -3.75,3.75 -2.0625,0 -3.75,-1.6875 -3.75,-3.75 v -3 C 8.5,9.5125 9.5125,8.5 10.75,8.5 11.9875,8.5 13,9.5125 13,10.75 V 14.5 H 11.5 V 10.75 C 11.5,10.3375 11.1625,10 10.75,10 10.3375,10 10,10.3375 10,10.75 v 3 c 0,1.2375 1.0125,2.25 2.25,2.25 1.2375,0 2.25,-1.0125 2.25,-2.25 v -6 C 14.5,6.5125 13.4875,5.5 12.25,5.5 11.275,5.5 10.45,6.1375 10.1125,7 H 8.575 C 8.9125,5.275 10.45,4 12.25,4 Z M 25,13 h -6.75 v 1.5 h 5.25 v 9 c 0,1.65 -1.35,3 -3,3 H 8.5 V 28 h 12 c 2.475,0 4.5,-2.025 4.5,-4.5 z"
       style="fill:#eff0f1;fill-opacity:1;stroke-width:0.375" />
  </g>
</svg>
