<?xml version="1.0" encoding="UTF-8" standalone="no"?>
<svg
   viewBox="0 0 32 32"
   version="1.1"
   id="svg1"
   sodipodi:docname="plasmavault-symbolic.svg"
   width="32"
   height="32"
   inkscape:version="1.3.2 (091e20ef0f, 2023-11-25)"
   xmlns:inkscape="http://www.inkscape.org/namespaces/inkscape"
   xmlns:sodipodi="http://sodipodi.sourceforge.net/DTD/sodipodi-0.dtd"
   xmlns="http://www.w3.org/2000/svg"
   xmlns:svg="http://www.w3.org/2000/svg">
  <sodipodi:namedview
     id="namedview1"
     pagecolor="#000000"
     bordercolor="#999999"
     borderopacity="1"
     inkscape:showpageshadow="2"
     inkscape:pageopacity="0"
     inkscape:pagecheckerboard="0"
     inkscape:deskcolor="#d1d1d1"
     showgrid="true"
     inkscape:zoom="11.90625"
     inkscape:cx="15.706037"
     inkscape:cy="23.013123"
     inkscape:window-width="1920"
     inkscape:window-height="994"
     inkscape:window-x="0"
     inkscape:window-y="0"
     inkscape:window-maximized="1"
     inkscape:current-layer="svg1">
    <inkscape:grid
       id="grid2"
       units="px"
       originx="3"
       originy="-55"
       spacingx="1"
       spacingy="1"
       empcolor="#0099e5"
       empopacity="0.30196078"
       color="#0099e5"
       opacity="0.14902"
       empspacing="5"
       dotted="false"
       gridanglex="30"
       gridanglez="30"
       visible="true" />
  </sodipodi:namedview>
  <defs
     id="defs1">
    <style
       type="text/css"
       id="current-color-scheme">.ColorScheme-Text { color: #fcfcfc; } </style>
  </defs>
  <g
     id="plasmavault-5">
    <rect
       style="opacity:0.00100002"
       width="32"
       height="32"
       x="0"
       y="0"
       id="rect7-3" />
    <path
       id="Computer"
       class="st0"
       d="M 26.5,7 H 28 v 13.5 c 0,1.65 -1.35,3 -3,3 H 4 v -3 H 26.5 Z M 16,25 Z"
       style="fill:#cdd8e5;fill-opacity:0.403922;stroke-width:0.375"
       sodipodi:nodetypes="ccssccccccccc" />
    <path
       id="Computer-s"
       class="st1"
       d="M 5.5,20.5 H 4 V 10 C 4,8.35 5.35,7 7,7 H 28 V 8.5 H 7 C 6.175,8.5 5.5,9.175 5.5,10 Z m 21,0 c 0,1.65 -1.35,3 -3,3 H 16 V 25 h 1.5 v 0 0 0 0 h 6 c 2.475,0 4.5,-2.025 4.5,-4.5 z"
       style="fill:#eff0f1;fill-opacity:1;stroke-width:0.375"
       sodipodi:nodetypes="ccssccssccscccccccscc" />
    <path
       id="Key"
       class="st0"
       d="m 18.5,12.20025 c 0,0.4375 -0.34375,0.78125 -0.78125,0.78125 -0.4375,0 -0.78125,-0.34375 -0.78125,-0.78125 0,-0.4375 0.34375,-0.78125 0.78125,-0.78125 0.4375,0 0.78125,0.34375 0.78125,0.78125 z m 1.25,0.78125 c 0,1.546865 -1.265635,2.8125 -2.8125,2.8125 -0.28125,0 -0.5625,-0.04683 -0.8125,-0.125 l -3.25,3.25 H 11 v -1.5625 h 0.9375 V 16.419 h 0.9375 v -0.9375 h 0.9375 V 14.544 l 0.515635,-0.515635 C 14.203135,13.70025 14.125,13.3565 14.125,12.9815 c 0,-1.546875 1.265635,-2.8125 2.8125,-2.8125 1.546865,0 2.8125,1.265625 2.8125,2.8125 z"
       style="clip-rule:evenodd;fill:#cdd8e5;fill-opacity:0.403922;fill-rule:evenodd;stroke-width:0.15625" />
    <path
       id="Key-s"
       class="st1"
       d="m 19.125,10.169 c -0.328135,0 -0.625,0.125 -0.859365,0.34375 -0.1875,-0.109375 -0.40627,-0.1875 -0.625,-0.25 C 18,9.82525 18.53125,9.544 19.125,9.544 c 1.03125,0 1.875,0.84375 1.875,1.875 0,1.03125 -0.84375,1.875 -1.875,1.875 -0.984365,0 -1.796865,-0.765628 -1.875,-1.71875 0.125,-0.09375 0.296865,-0.15625 0.46875,-0.15625 0.04682,0 0.109385,0 0.15625,0.01564 0.01555,0.6875 0.5625,1.234371 1.25,1.234371 0.6875,0 1.25,-0.562496 1.25,-1.249996 0,-0.6875 -0.5625,-1.25 -1.25,-1.25 z m -7.046875,8.75 H 11.625 v 0.625 h 0.453125 c 0.500004,0 0.96874,-0.203135 1.328125,-0.546865 l 3.21875,-3.21877 c -0.25,-0.03132 -0.484365,-0.09372 -0.703135,-0.171865 l -2.96873,2.953135 C 12.71875,18.794 12.40625,18.919 12.078125,18.919 Z"
       style="fill:#ecedee;fill-opacity:1;stroke-width:0.15625" />
  </g>
</svg>
