<?xml version="1.0" encoding="UTF-8" standalone="no"?>
<svg
   width="32"
   height="32"
   version="1.1"
   id="svg1"
   sodipodi:docname="quassel-symbolic.svg"
   inkscape:version="1.3.2 (091e20ef0f, 2023-11-25)"
   xmlns:inkscape="http://www.inkscape.org/namespaces/inkscape"
   xmlns:sodipodi="http://sodipodi.sourceforge.net/DTD/sodipodi-0.dtd"
   xmlns="http://www.w3.org/2000/svg"
   xmlns:svg="http://www.w3.org/2000/svg">
  <defs
     id="defs1" />
  <sodipodi:namedview
     id="namedview1"
     pagecolor="#000000"
     bordercolor="#999999"
     borderopacity="1"
     inkscape:showpageshadow="2"
     inkscape:pageopacity="0"
     inkscape:pagecheckerboard="0"
     inkscape:deskcolor="#d1d1d1"
     inkscape:zoom="17.318182"
     inkscape:cx="16.225722"
     inkscape:cy="19.228346"
     inkscape:window-width="1920"
     inkscape:window-height="994"
     inkscape:window-x="0"
     inkscape:window-y="0"
     inkscape:window-maximized="1"
     inkscape:current-layer="svg1" />
  <style
     type="text/css"
     id="current-color-scheme">.ColorScheme-Text{color:#7B7C7E;}.ColorScheme-Background{color:#EFF0F1;}.ColorScheme-Highlight{color:#3DAEE6;}.ColorScheme-ViewText{color:#7B7C7E;}.ColorScheme-ViewBackground{color:#FCFCFC;}.ColorScheme-ViewHover{color:#3DAEE6;}.ColorScheme-ViewFocus{color:#1E92FF;}.ColorScheme-ButtonText{color:#7B7C7E;}.ColorScheme-ButtonBackground{color:#EFF0F1;}.ColorScheme-ButtonHover{color:#3DAEE6;}.ColorScheme-ButtonFocus { color: #1E92FF; } </style>
  <g
     id="quassel">
    <rect
       style="opacity:0.00100002"
       width="32"
       height="32"
       x="0"
       y="0"
       id="rect17-5" />
    <path
       id="Chat"
       class="st0"
       d="M 28.250001,5.714286 V 7.428571 H 5.5 v 15.428572 h 10.500001 l 0.0875,0.257143 C 17.093751,26.028572 19.850001,28 23.000001,28 v -5.142857 h 2.625 c 2.40625,0 4.375,-1.928571 4.375,-4.285714 V 5.714286 Z M 9,17.714286 Z m 0,-3.428572 z m 0,-1.714285 z"
       style="fill:#cdd8e5;fill-opacity:0.403922;stroke-width:0.433013"
       sodipodi:nodetypes="ccccccccssccccccccccccccccc" />
    <path
       id="Chat-s"
       class="st1"
       d="m 30.000001,7.428571 v 12 c 0,2.828572 -2.3625,5.142858 -5.25,5.142858 h -1.75 v -1.714286 h 1.75 c 1.925,0 3.5,-1.542857 3.5,-3.428572 v -12 z M 2,7.428571 C 2,5.542857 3.575,4 5.5,4 H 16.875001 V 5.714286 H 5.5 c -0.9625,0 -1.75,0.771428 -1.75,1.714285 v 5.142858 H 2 Z M 16.000001,22.857143 H 7.25 v 1.714286 h 9.537501 c -0.2625,-0.471429 -0.525,-0.942857 -0.7,-1.457143 z"
       style="fill:#eff0f1;fill-opacity:1;stroke-width:0.433013"
       sodipodi:nodetypes="cssccssccssccssccsccccsc" />
    <path
       d="m 11,11.95 v 1.749999 H 9.250001 V 14.575 H 11 v 1.749999 H 9.250001 v 0.874999 H 11 v 1.75 h 0.875 v -1.75 h 1.749999 v 1.75 h 0.874999 v -1.75 h 1.75 v -0.874999 h -1.75 V 14.575 h 1.75 v -0.875001 h -1.75 V 11.95 h -0.874999 v 1.749999 H 11.875 V 11.95 Z m 0.875,2.625 h 1.749999 v 1.749999 H 11.875 Z"
       style="color:#d5c289;fill:#eff0f1;fill-opacity:1;stroke-width:0.0875"
       class="ColorScheme-Text"
       id="path58-2-6-3" />
    <rect
       width="1.75"
       height="1.75"
       x="19.25"
       y="17.299999"
       rx="0.875"
       style="color:#d5c289;fill:#eff0f1;fill-opacity:1;stroke-width:0.0875"
       class="ColorScheme-Text"
       id="rect62-1-5-5"
       ry="0.875" />
    <rect
       width="1.75"
       height="1.75"
       x="23.25"
       y="17.299999"
       rx="0.875"
       style="color:#d5c289;fill:#eff0f1;fill-opacity:1;stroke-width:0.0875"
       class="ColorScheme-Text"
       id="rect62-1-5-5-6"
       ry="0.875" />
  </g>
</svg>
