<?xml version="1.0" encoding="UTF-8" standalone="no"?>
<svg
   width="32"
   height="32"
   version="1.1"
   id="svg1404"
   sodipodi:docname="ring-symbolic.svg"
   inkscape:version="1.3.2 (091e20ef0f, 2023-11-25)"
   xmlns:inkscape="http://www.inkscape.org/namespaces/inkscape"
   xmlns:sodipodi="http://sodipodi.sourceforge.net/DTD/sodipodi-0.dtd"
   xmlns="http://www.w3.org/2000/svg"
   xmlns:svg="http://www.w3.org/2000/svg">
  <sodipodi:namedview
     id="namedview1406"
     pagecolor="#02334b"
     bordercolor="#000000"
     borderopacity="1"
     inkscape:showpageshadow="2"
     inkscape:pageopacity="0.0"
     inkscape:pagecheckerboard="true"
     inkscape:deskcolor="#02334b"
     showgrid="false"
     inkscape:zoom="10.429825"
     inkscape:cx="15.820016"
     inkscape:cy="24.0656"
     inkscape:window-width="1920"
     inkscape:window-height="994"
     inkscape:window-x="0"
     inkscape:window-y="0"
     inkscape:window-maximized="1"
     inkscape:current-layer="svg1404">
    <inkscape:grid
       type="xygrid"
       id="grid1730"
       originx="-7.1656861"
       originy="-100"
       spacingy="1"
       spacingx="1"
       units="px"
       visible="false" />
  </sodipodi:namedview>
  <defs
     id="l4k1">
    <style
       type="text/css"
       id="current-color-scheme" />
  </defs>
  <g
     id="ring-kde-3">
    <rect
       style="opacity:0.00100002"
       width="32"
       height="32"
       x="0"
       y="0"
       id="rect1394-6" />
    <path
       id="Page_1_"
       class="st0  ColorScheme-Highlight "
       d="m 21.249999,8.5 v 0 l -1.5,-1.5 V 7 H 9.2500007 V 26.5 H 22 c 2.0625,0 3.75,-1.6875 3.75,-3.75 V 13 Z M 12.25,10.75 Z m 0,3.75 z m 0,7.5 z m 0,-3.75 z"
       sodipodi:nodetypes="ccccccsscccccccccccccccccccccc"
       style="color:#cdd8e5;fill:#cdd8e5;fill-opacity:0.403922;stroke-width:0.375" />
    <path
       id="Page-s"
       class="st1  ColorScheme-Text "
       d="m 22.55,13 h 3.199999 v 10.5 c 0,2.475 -2.024999,4.5 -4.5,4.5 H 10.75 v -1.5 h 10.499999 c 1.65,0 3,-1.350001 3,-3 v -9 H 22.55 Z M 6.2500007,7 c 0,-1.65 1.35,-3 3,-3 H 16.749999 V 5.5 H 9.2500007 c -0.825,0 -1.5,0.675 -1.5,1.5 v 12.75 h -1.5 z"
       style="color:#eff0f1;fill:currentColor;fill-opacity:1;stroke-width:0.375"
       sodipodi:nodetypes="ccssccsscccssccssccs" />
    <path
       inkscape:connector-curvature="0"
       style="color:#eff0f1;fill:currentColor;fill-opacity:0.6;stroke-width:0.295438"
       id="path6313-36-4"
       d="m 12.197082,13.220572 -0.872834,1.558852 c -0.581898,1.039236 9.496763,7.039236 10.078655,6.000001 L 22.27574,19.220576 C 22.857637,18.18134 12.778971,12.18134 12.197082,13.220572 Z"
       class="ColorScheme-Text" />
    <path
       inkscape:connector-curvature="0"
       style="color:#eff0f1;fill:currentColor;fill-opacity:0.6;stroke-width:0.295438"
       id="path6309-7-7"
       d="m 21.402903,13.220572 0.872837,1.558852 c 0.581897,1.039236 -9.496769,7.039236 -10.078658,6.000001 L 11.324248,19.220576 C 10.74235,18.18134 20.821011,12.18134 21.402903,13.220572 Z"
       class="ColorScheme-Text" />
    <path
       inkscape:connector-curvature="0"
       style="color:#eff0f1;fill:currentColor;fill-opacity:1;stroke-width:0.295438"
       id="rect5354-53-8"
       d="m 15.927153,11 h 1.745676 c 1.163795,0 1.163795,12 0,12 h -1.745676 c -1.163773,0 -1.163773,-12 0,-12 z"
       class="ColorScheme-Text" />
  </g>
</svg>
