<?xml version="1.0" encoding="UTF-8" standalone="no"?>
<svg
   width="32"
   height="32"
   x="0"
   y="0"
   version="1.1"
   xml:space="preserve"
   id="svg1459"
   sodipodi:docname="thunderbird-symbolic.svg"
   inkscape:version="1.3.2 (091e20ef0f, 2023-11-25)"
   xmlns:inkscape="http://www.inkscape.org/namespaces/inkscape"
   xmlns:sodipodi="http://sodipodi.sourceforge.net/DTD/sodipodi-0.dtd"
   xmlns="http://www.w3.org/2000/svg"
   xmlns:svg="http://www.w3.org/2000/svg"><defs
   id="defs1463">
  
  
  
 
  
  
  
 </defs><sodipodi:namedview
   id="namedview1461"
   pagecolor="#02334b"
   bordercolor="#000000"
   borderopacity="1"
   inkscape:showpageshadow="2"
   inkscape:pageopacity="0"
   inkscape:pagecheckerboard="true"
   inkscape:deskcolor="#02334b"
   showgrid="true"
   inkscape:zoom="7.375"
   inkscape:cx="11.118644"
   inkscape:cy="22.101695"
   inkscape:window-width="1920"
   inkscape:window-height="994"
   inkscape:window-x="0"
   inkscape:window-y="0"
   inkscape:window-maximized="1"
   inkscape:current-layer="svg1459"><inkscape:grid
     type="xygrid"
     id="grid1674"
     originx="-17"
     originy="-38"
     spacingy="1"
     spacingx="1"
     units="px"
     visible="true" /></sodipodi:namedview>
 
 
<rect
   style="opacity:0.00100002;fill:#bac8df;fill-opacity:1;stroke-width:0.999999"
   width="32"
   height="32"
   x="0"
   y="0"
   id="rect2" /><path
   style="fill:#eff0f1;fill-opacity:1;stroke:none;stroke-width:0.0363636;stroke-linecap:round;stroke-linejoin:round;stroke-miterlimit:4;stroke-dasharray:none;stroke-opacity:1"
   d="m 21.999995,15.853005 c 0,3.313725 -2.686287,5.999999 -6,5.999999 2.590126,-0.694024 4.363618,-3.818187 4.636372,-5.181808 -0.802015,0.601479 -5.07071,2.312062 -7.112772,2.312062 -0.574488,0 -0.994214,0.115171 0.292352,2.343583 -0.725573,-0.194439 -1.650904,-0.854536 -1.805955,-0.992723 -1.233294,-1.098878 -2.0099931,-2.699301 -2.0099931,-4.481113 0,-3.313724 2.6862881,-6.000003 5.9999961,-6.000003 3.313715,0 6,2.686279 6,6.000003"
   id="path4135-3"
   inkscape:connector-curvature="0"
   sodipodi:nodetypes="cccccsssc" /><rect
   style="fill:#0c0c0c;fill-opacity:1;stroke:none;stroke-width:0.0363636;stroke-linecap:round;stroke-linejoin:round;stroke-miterlimit:4;stroke-dasharray:none;stroke-opacity:1"
   id="rect4137-6"
   width="9.2767153"
   height="6.1844721"
   x="13.212386"
   y="11.87984"
   rx="1.0909051"
   ry="1.0909053"
   transform="rotate(7.0825579)" /><path
   style="color:#000000;font-style:normal;font-variant:normal;font-weight:normal;font-stretch:normal;font-size:medium;line-height:normal;font-family:sans-serif;text-indent:0;text-align:start;text-decoration:none;text-decoration-line:none;text-decoration-style:solid;text-decoration-color:#000000;letter-spacing:normal;word-spacing:normal;text-transform:none;writing-mode:lr-tb;direction:ltr;baseline-shift:baseline;text-anchor:start;white-space:normal;clip-rule:nonzero;display:inline;overflow:visible;visibility:visible;isolation:auto;mix-blend-mode:normal;color-interpolation:sRGB;color-interpolation-filters:linearRGB;solid-color:#000000;solid-opacity:1;fill:#ffffff;fill-opacity:1;fill-rule:evenodd;stroke:none;stroke-width:0.727272;stroke-linecap:butt;stroke-linejoin:miter;stroke-miterlimit:4;stroke-dasharray:none;stroke-dashoffset:0;stroke-opacity:1;color-rendering:auto;image-rendering:auto;shape-rendering:auto;text-rendering:auto;enable-background:accumulate"
   d="m 20.892572,14.23834 c -1.505847,0.789806 -3.07204,1.76316 -3.946736,2.207533 -0.874687,0.44439 -1.343542,0.693467 -1.749676,0.693467 -0.406139,0 -0.661274,-0.210845 -1.035995,-0.585564 -0.374718,-0.374726 -1.944198,-1.808341 -2.616089,-2.308773 0.749989,0.850477 2.287252,2.5441 2.614724,2.909335 0.327457,0.36526 0.599035,0.471767 1.039448,0.471767 0.440413,0 0.940867,-0.228381 1.915481,-0.777767 0.974597,-0.549369 2.755124,-1.679905 3.778843,-2.609998 z"
   id="path4139-7"
   inkscape:connector-curvature="0"
   sodipodi:nodetypes="czzzczzzc" /><path
   style="fill:#e1e1e1;fill-opacity:1;fill-rule:evenodd;stroke:none;stroke-width:0.363635px;stroke-linecap:butt;stroke-linejoin:miter;stroke-opacity:1"
   d="m 15.999995,13.943907 c 0,0 2.329405,0.238859 2.702608,1.631703 0.373206,1.392828 -0.781594,3.043114 -0.781594,3.043114 2.828169,-1.632869 2.393523,-4.499803 2.169886,-5.492999"
   id="path4153-5"
   inkscape:connector-curvature="0"
   sodipodi:nodetypes="czcc" /><path
   style="fill:#e1e1e1;fill-opacity:1;fill-rule:evenodd;stroke:none;stroke-width:0.363635px;stroke-linecap:butt;stroke-linejoin:miter;stroke-opacity:1"
   d="m 19.017047,13.040496 c 0,0 0.303885,1.798152 0.303885,2.830689 0,1.032584 0.138063,2.829631 -1.139128,4.106817 3.060705,-0.820099 2.999998,-3.029922 2.999998,-6.306815 z"
   id="path4155-3"
   inkscape:connector-curvature="0"
   sodipodi:nodetypes="czccc" /><path
   style="fill:#fefdfd;fill-opacity:1;fill-rule:evenodd;stroke:none;stroke-width:0.363635px;stroke-linecap:butt;stroke-linejoin:miter;stroke-opacity:1"
   d="m 11.6404,19.399104 8.115766,0.782866 c 0,0 -0.175542,0.140808 -0.267472,0.20876 -0.09188,0.06779 -0.284162,0.198593 -0.284162,0.198593 l -7.37419,-0.916217 z"
   id="path4229-5"
   inkscape:connector-curvature="0"
   sodipodi:nodetypes="cczccc" /><path
   style="fill:#e1e1e1;fill-opacity:1;fill-rule:evenodd;stroke:none;stroke-width:0.363635px;stroke-linecap:butt;stroke-linejoin:miter;stroke-opacity:1"
   d="m 12.743815,19.671202 c 0,0 -2.471083,-1.909102 -2.471083,-4.363663 0,-2.454535 0.818179,-2.181814 0.818179,-2.181814 l 1.636358,0.545462 c 0,0 -1.090903,-0.567465 -1.090903,1.909094 0,2.47656 1.107449,4.090921 1.107449,4.090921 z"
   id="path4166-6"
   inkscape:connector-curvature="0"
   sodipodi:nodetypes="czcczc" /><path
   style="fill:#e1e1e1;fill-opacity:1;fill-rule:evenodd;stroke:none;stroke-width:0.363635px;stroke-linecap:butt;stroke-linejoin:miter;stroke-opacity:1"
   d="m 14.093679,21.542102 c -0.757262,-0.202881 -2.424571,-1.190086 -3.242722,-2.60718 -0.818148,-1.417096 -0.578225,-3.627383 -0.578225,-3.627383 l 1.363637,-0.277163 c 0,0 -0.587024,1.811926 -0.316503,3.315837 0.270519,1.503958 0.552013,1.391692 2.773813,3.195889 z"
   id="path4170-2"
   inkscape:connector-curvature="0"
   sodipodi:nodetypes="czcczc" /><ellipse
   style="fill:#e1e1e1;fill-opacity:1;stroke:none;stroke-width:0.363636;stroke-linecap:round;stroke-linejoin:round;stroke-miterlimit:4;stroke-dasharray:none;stroke-opacity:1"
   id="path4174-9"
   cx="6.4840822"
   cy="19.003572"
   rx="1.4348499"
   ry="1.2154019"
   transform="rotate(-30.000015)" /><path
   style="fill:#e1e1e1;fill-opacity:1;fill-rule:evenodd;stroke:none;stroke-width:0.363635px;stroke-linecap:butt;stroke-linejoin:miter;stroke-opacity:1"
   d="m 13.818179,13.671187 c 0.146161,0.545449 0,1.636352 0.330444,2.140352 0.760466,-0.760458 1.57865,-1.594903 2.396826,-2.140352 z"
   id="path4176-1"
   inkscape:connector-curvature="0"
   sodipodi:nodetypes="cccc" /><path
   style="fill:#e1e1e1;fill-opacity:1;fill-rule:evenodd;stroke:none;stroke-width:0.363635px;stroke-linecap:butt;stroke-linejoin:miter;stroke-opacity:1"
   d="m 11.636366,16.671196 c 0,0 -0.0818,-1.363657 0.818179,-2.181831 0.899999,-0.818178 1.909084,-0.826716 1.909084,-0.826716 l -3.127833,-1.244321 z"
   id="path4178-2"
   inkscape:connector-curvature="0"
   sodipodi:nodetypes="czccc" /><ellipse
   style="fill:#e6e6e6;fill-opacity:1;stroke:none;stroke-width:0.363635;stroke-linecap:round;stroke-linejoin:round;stroke-miterlimit:4;stroke-dasharray:none;stroke-opacity:1"
   id="path4180-7"
   cx="14.771997"
   cy="13.534825"
   rx="0.13636358"
   ry="0.13636367" /><path
   style="fill:#ffffff;fill-opacity:0;stroke:none;stroke-width:0.363635;stroke-linecap:round;stroke-linejoin:round;stroke-miterlimit:4;stroke-dasharray:none;stroke-opacity:1"
   d="m 21.999995,15.853005 c 0,-2.72728 -2.686287,-5.72728 -6,-5.72728 -3.313708,0 -5.9999961,3 -5.9999961,5.72728 0,-3.313724 2.6862881,-6.000003 5.9999961,-6.000003 3.313713,0 6,2.686279 6,6.000003 z"
   id="path4188-9-0"
   inkscape:connector-curvature="0"
   sodipodi:nodetypes="cscsc" /><path
   style="fill:#ffffff;fill-opacity:1;stroke:none;stroke-width:0.363635;stroke-linecap:round;stroke-linejoin:round;stroke-miterlimit:4;stroke-dasharray:none;stroke-opacity:1"
   d="m 15.999995,21.853004 c 3.313713,0 6,-2.686274 6,-5.999999 0,2.478211 -2.218044,5.1816 -5.1094,5.654696 0,0 -0.270167,0.131385 -0.4187,0.189304 -0.148547,0.05792 -0.4719,0.155999 -0.4719,0.155999 z m -2.324719,-0.77925 c -2.159207,-0.969111 -3.6752771,-3.171891 -3.6752771,-5.220749 0,2.648611 1.7161681,4.896393 4.0971761,5.692015 l -0.286158,-0.230644 z"
   id="path4188-9-2-9"
   inkscape:connector-curvature="0"
   sodipodi:nodetypes="ccczcccccc" /><path
   d="m 15.24999,13.903 c 0,0.207207 -0.16779,0.375 -0.374995,0.375 -0.207034,0 -0.375,-0.167793 -0.375,-0.375 0,-0.207032 0.167966,-0.375 0.375,-0.375 0.207205,0 0.374995,0.167968 0.374995,0.375 z"
   id="path72-3-3-3-3"
   style="color:#e5e9ef;fill:#221c11;fill-opacity:1;stroke-width:0.00595254"
   class="ColorScheme-Text" /><path
   style="opacity:0;stroke-width:0.999999"
   d="M 0,0 H 32.000001 V 32.000001 H 0 Z"
   id="path6-3" /><path
   id="Zoom-4-9-0-6"
   class="st0  ColorScheme-Highlight "
   d="m 25.695855,23.049084 v 0 C 26.572773,21.433701 28,17.98462 28,16.000002 28,9.3538474 22.646145,4 15.999993,4 9.3538437,4 4.0000003,9.3538474 4.0000003,16.000002 4.0000003,22.646158 9.3538437,28 15.999993,28 c 3.969235,0 7.476924,-1.938453 9.692315,-4.938455 z m -9.69586,1.258615 c -4.569229,0 -8.3076855,-3.73846 -8.3076855,-8.307697 0,-4.56923 3.7384565,-8.3076928 8.3076855,-8.3076928 4.569233,0 8.307703,3.7384628 8.307703,8.3076928 0,4.569236 -3.738469,8.307697 -8.307703,8.307697 z"
   sodipodi:nodetypes="ccssssccscccs"
   style="color:#cdd8e5;fill:#cdd8e5;fill-opacity:0.403922;stroke-width:1" /><path
   id="Zoom-s-8-9-7"
   class="st1  ColorScheme-Text "
   d="M 25.080226,23.049084 Z M 23.848978,9.5053294 Z M 25.69229,23.061544 c 1.661531,-2.261539 2.492301,-5.076924 2.261529,-7.892307 -0.184611,-2.907694 -1.430775,-5.6307728 -3.507698,-7.6615433 l -1.292306,1.2923088 c 1.84616,1.8461565 2.953854,4.3846165 2.953854,7.2000025 0,2.123077 -0.646159,4.107695 -1.800003,5.769235 z"
   style="color:#eff0f1;fill:currentColor;fill-opacity:1;stroke-width:0.307694"
   sodipodi:nodetypes="ccccccccccccccccsccc" /></svg>
