<?xml version="1.0" encoding="UTF-8" standalone="no"?>
<svg
   width="32"
   height="32"
   version="1.1"
   id="svg1"
   sodipodi:docname="yakuake-symbolic.svg"
   inkscape:version="1.3.2 (091e20ef0f, 2023-11-25)"
   xmlns:inkscape="http://www.inkscape.org/namespaces/inkscape"
   xmlns:sodipodi="http://sodipodi.sourceforge.net/DTD/sodipodi-0.dtd"
   xmlns="http://www.w3.org/2000/svg"
   xmlns:svg="http://www.w3.org/2000/svg">
  <defs
     id="defs1" />
  <sodipodi:namedview
     id="namedview1"
     pagecolor="#000000"
     bordercolor="#999999"
     borderopacity="1"
     inkscape:showpageshadow="2"
     inkscape:pageopacity="0"
     inkscape:pagecheckerboard="0"
     inkscape:deskcolor="#d1d1d1"
     inkscape:zoom="6.122902"
     inkscape:cx="15.842161"
     inkscape:cy="15.842161"
     inkscape:window-width="1920"
     inkscape:window-height="994"
     inkscape:window-x="0"
     inkscape:window-y="0"
     inkscape:window-maximized="1"
     inkscape:current-layer="svg1" />
  <style
     type="text/css"
     id="current-color-scheme">.ColorScheme-Background{color:#181818;}.ColorScheme-ButtonBackground{color:#343434;}.ColorScheme-Highlight{color:#1a73e8;}.ColorScheme-Text{color:#232629;}.ColorScheme-ViewBackground{color:#242424;}.ColorScheme-NegativeText { color: #ff4747; } </style>
  <g
     id="yakuake"
     style="fill:#fcfcfc;fill-opacity:1">
    <rect
       id="rect11"
       width="32"
       height="32"
       opacity="0.00100002"
       style="fill:#fcfcfc;fill-opacity:1"
       x="0"
       y="0" />
    <path
       id="rect43-5"
       class="ColorScheme-Text"
       d="m 4.1016,8.3691 v 0.046875 h 23.797 V 8.3691 Z m 23.797,0.046875 v 16.566 H 4.1016 v -16.566 H 3.16605 v 17.5 h 25.668 v -17.5 H 27.8985 Z m -11.061,4.0469 -3.5,3.5 1.2383,1.2383 3.5,-3.5 z"
       fill-opacity=".3"
       style="color:#dfdfdf;fill:#d1d5e9;fill-opacity:0.4" />
    <path
       id="path1467"
       d="m 17.458,13.083 -3.5,3.5"
       color="#000000"
       fill="#2980b9"
       stroke-width="1.75"
       style="fill:#d1d5e9;fill-opacity:0.4;-inkscape-stroke:none" />
    <path
       id="rect63-3"
       class="ColorScheme-Text"
       d="m 2.5833,6.0833 h 26.833 c 0.32317,0 0.58333,0.26017 0.58333,0.58333 v 1.1667 c 0,0.32317 -0.26017,0.58333 -0.58333,0.58333 H 2.5833 c -0.32317,0 -0.58333,-0.26017 -0.58333,-0.58333 v -1.1667 c 0,-0.32317 0.26017,-0.58333 0.58333,-0.58333 z m 8.493,6.3804 -1.2379,1.2379 2.8835,2.881 -2.8835,2.881 1.2379,1.2379 4.119,-4.119 z m 4.9244,8.7873 v 1.75 h 6.4158 v -1.75 z"
       style="color:#dfdfdf;fill:#eff0f1;fill-opacity:1" />
  </g>
</svg>
