<?xml version="1.0" encoding="UTF-8" standalone="no"?>
<svg
   viewBox="0 0 20 20"
   id="svg6"
   width="20"
   height="20"
   version="1.1"
   sodipodi:docname="media-skip-forward.svg"
   inkscape:version="1.3.2 (091e20ef0f, 2023-11-25)"
   xmlns:inkscape="http://www.inkscape.org/namespaces/inkscape"
   xmlns:sodipodi="http://sodipodi.sourceforge.net/DTD/sodipodi-0.dtd"
   xmlns="http://www.w3.org/2000/svg"
   xmlns:svg="http://www.w3.org/2000/svg">
  <defs
     id="defs1" />
  <sodipodi:namedview
     id="namedview1"
     pagecolor="#ffffff"
     bordercolor="#999999"
     borderopacity="1"
     inkscape:showpageshadow="2"
     inkscape:pageopacity="0"
     inkscape:pagecheckerboard="0"
     inkscape:deskcolor="#d1d1d1"
     inkscape:zoom="15.875"
     inkscape:cx="10.456693"
     inkscape:cy="14.551181"
     inkscape:window-width="1920"
     inkscape:window-height="996"
     inkscape:window-x="0"
     inkscape:window-y="0"
     inkscape:window-maximized="1"
     inkscape:current-layer="svg6"
     showgrid="true">
    <inkscape:grid
       id="grid1"
       units="px"
       originx="0"
       originy="-26"
       spacingx="1"
       spacingy="1"
       empcolor="#0099e5"
       empopacity="0.30196078"
       color="#0099e5"
       opacity="0.14902"
       empspacing="5"
       dotted="false"
       gridanglex="30"
       gridanglez="30"
       visible="true" />
  </sodipodi:namedview>
  <style
     type="text/css"
     id="current-color-scheme">.ColorScheme-Text { color: #fcfcfc; }
</style>
  <g
     id="media-skip-forward">
    <rect
       id="rect101"
       style="opacity:0.00100002;stroke-width:0.625"
       y="0"
       x="0"
       height="20"
       width="20" />
    <path
       id="Move-7-26-4"
       class="st0"
       d="m 3,12.194344 v 0 0 0 0 -5.2686113 0 L 3.000122,3.35 9.651527,7.8219087 c 3.021811,2.0316383 2.914744,1.1025625 -0.05007,3.7319153 L 3,16.45 Z"
       sodipodi:nodetypes="ccccccccsccc"
       style="fill:#cdd8e5;fill-opacity:0.403922;stroke-width:0.540137" />
    <path
       id="Move-s-5-1-8"
       class="st1"
       d="m 10.076032,10.791413 -5.420045,3.507343 1.677054,0.536029 5.270111,-3.429236 C 12.609211,10.581505 12.935429,10.499907 13,9.6809198 12.93543,9.0930956 12.444544,8.7607486 11.367838,8.0265027 L 7.18675,5.4 7.1589,6.8667284 9.868544,8.5101033 c 2.238948,1.5120677 2.361291,0.8875713 0.20749,2.2813097 z m -3.742991,4.043372 v 0 l -1.677054,-0.536029 1.12e-4,1.634198 z"
       sodipodi:nodetypes="sccccccccsccssc"
       style="fill:#eff0f1;fill-opacity:1;stroke-width:0.487047" />
    <rect
       style="fill:#eff0f1;fill-opacity:1;stroke-width:1.60841"
       class="ColorScheme-Text"
       width="11"
       height="1.5"
       x="4.5"
       y="-16.800001"
       id="rect64-5"
       transform="rotate(90)" />
  </g>
</svg>
