<?xml version="1.0" encoding="UTF-8" standalone="no"?>
<svg
   width="22"
   height="22"
   viewBox="0 0 22 22"
   version="1.1"
   id="svg2"
   sodipodi:docname="notifications.svg"
   inkscape:version="1.3.2 (091e20ef0f, 2023-11-25)"
   xmlns:inkscape="http://www.inkscape.org/namespaces/inkscape"
   xmlns:sodipodi="http://sodipodi.sourceforge.net/DTD/sodipodi-0.dtd"
   xmlns="http://www.w3.org/2000/svg"
   xmlns:svg="http://www.w3.org/2000/svg">
  <defs
     id="defs2" />
  <sodipodi:namedview
     id="namedview2"
     pagecolor="#ffffff"
     bordercolor="#999999"
     borderopacity="1"
     inkscape:showpageshadow="2"
     inkscape:pageopacity="0"
     inkscape:pagecheckerboard="0"
     inkscape:deskcolor="#d1d1d1"
     showgrid="true"
     inkscape:zoom="22.45064"
     inkscape:cx="10.556492"
     inkscape:cy="10.957371"
     inkscape:window-width="1920"
     inkscape:window-height="996"
     inkscape:window-x="0"
     inkscape:window-y="0"
     inkscape:window-maximized="1"
     inkscape:current-layer="svg2">
    <inkscape:grid
       id="grid1"
       units="px"
       originx="2"
       originy="-13"
       spacingx="1"
       spacingy="1"
       empcolor="#0099e5"
       empopacity="0.30196078"
       color="#0099e5"
       opacity="0.14902"
       empspacing="5"
       dotted="false"
       gridanglex="30"
       gridanglez="30"
       visible="true" />
  </sodipodi:namedview>
  <style
     type="text/css"
     id="current-color-scheme">.ColorScheme-Text{color:#232629;}.ColorScheme-ButtonFocus{color:#3daee9;}.ColorScheme-NegativeText { color: #da4453; } </style>
  <path
     style="fill:none;stroke-width:1.09091"
     inkscape:connector-curvature="0"
     d="M 1.8042401,-37.126662 H 25.804241 v 24 H 1.8042401 Z"
     id="path6" />
  <path
     id="Path_164"
     data-name="Path 164"
     d="m 21.898903,-21.888684 -1.72014,-1.166551 c -0.470642,-0.318067 -0.753435,-0.854782 -0.75325,-1.429599 v -2.779523 c -0.0026,-2.320757 -1.383526,-4.409816 -3.495307,-5.287535 -0.665938,-2.099701 -3.586031,-2.099701 -4.251969,0 -2.1117843,0.877717 -3.4927531,2.966776 -3.4953155,5.287535 v 2.779523 c -6.78e-5,0.573571 -0.2818793,1.109166 -0.751001,1.427309 l -1.7223821,1.168841 c -1.6733987,1.128874 -0.8835896,3.767979 1.1242793,3.762017 h 4.7218963 c 0,3.049988 4.497051,3.049988 4.497051,0 h 4.721897 c 2.007869,0.006 2.797679,-2.633143 1.12428,-3.762017 z m -1.12428,2.762017 H 6.8337879 c -0.898357,0.0077 -1.251519,-1.313244 -0.499181,-1.812763 l 1.7212578,-1.166551 c 0.781733,-0.530324 1.2512754,-1.422969 1.2513061,-2.378853 v -2.779523 c 0,-6.099976 8.9941002,-6.099976 8.9941002,0 v 2.779523 c 3.1e-5,0.955884 0.469573,1.848529 1.251306,2.378853 l 1.722383,1.167697 c 0.75006,0.50051 0.396652,1.818761 -0.500337,1.811617 z m -6.970424,2.155807 c -0.620892,6e-6 -1.124237,-0.524155 -1.124272,-1.155807 h 2.248507 c -3.5e-5,0.631652 -0.50338,1.155813 -1.124272,1.155807 z m 0.562137,-13.153077 c -1.8e-5,0.315826 -0.251691,0.571843 -0.562137,0.57184 -1.241765,1.4e-5 -2.248427,1.024074 -2.248499,2.287358 0,0.762509 -1.12428,0.762509 -1.12428,0 1.08e-4,-1.894939 1.51012,-3.431033 3.372779,-3.431038 0.310446,-3e-6 0.562119,0.256014 0.562137,0.57184 z"
     style="fill:#d3dae3;fill-opacity:1;stroke-width:1.13396"
     sodipodi:nodetypes="cccccccccccccccccccccsscccccccccccccsc" />
  <g
     id="notification-inactive"
     transform="translate(-209.82493,-686.24546)">
    <path
       style="fill:none"
       inkscape:connector-curvature="0"
       d="m 209.82493,686.24546 h 22 v 22 h -22 z"
       id="path6-0" />
    <path
       id="Bell"
       class="st0"
       d="m 217.10774,694.05796 c 0.37188,-0.6375 0.90313,-1.19531 1.56719,-1.56719 l 0.53125,0.92969 c -0.95625,0.55781 -1.59375,1.59375 -1.59375,2.7625 h -1.0625 c 0,-0.74375 0.18594,-1.4875 0.55781,-2.125 z m -1.62031,2.125 c 0,-2.92188 2.39063,-5.3125 5.3125,-5.3125 2.92188,0 5.3125,2.39062 5.3125,5.3125 v 7.96875 h -11.6875 v -1.0625 h 10.625 v -1.0625 h -9.5625 z"
       style="clip-rule:evenodd;fill:#cdd8e5;fill-opacity:0.403922;fill-rule:evenodd;stroke-width:0.265625" />
    <path
       id="Bell-s"
       class="st1"
       d="m 218.67493,690.87046 c 0,-1.16875 0.95625,-2.125 2.125,-2.125 h 0.53125 v 1.0625 h -0.53125 c -0.58438,0 -1.0625,0.47812 -1.0625,1.0625 v 0.10625 c -0.37188,0.0797 -0.71719,0.18594 -1.0625,0.34531 z m 5.87031,1.56719 -0.74375,0.74375 c 0.77031,0.77031 1.24844,1.83281 1.24844,3.00156 v 5.84375 h 1.0625 v -5.84375 c 0,-0.69062 -0.13281,-1.38125 -0.39844,-2.04531 -0.26562,-0.6375 -0.66406,-1.22188 -1.16875,-1.7 z m 2.62969,11.71406 v -1.0625 h -2.125 v 1.0625 z m -4.78125,0 h -3.1875 c 0,0.87656 0.71719,1.59375 1.59375,1.59375 0.87656,0 1.59375,-0.71719 1.59375,-1.59375 z"
       style="fill:#eff0f1;fill-opacity:1;stroke-width:0.265625" />
  </g>
</svg>
