<?xml version="1.0" encoding="UTF-8" standalone="no"?>
<svg
   width="22"
   height="22"
   version="1.1"
   id="svg3"
   sodipodi:docname="notification-active.svg"
   inkscape:version="1.3.2 (091e20ef0f, 2023-11-25)"
   xmlns:inkscape="http://www.inkscape.org/namespaces/inkscape"
   xmlns:sodipodi="http://sodipodi.sourceforge.net/DTD/sodipodi-0.dtd"
   xmlns="http://www.w3.org/2000/svg"
   xmlns:svg="http://www.w3.org/2000/svg">
  <defs
     id="defs3" />
  <sodipodi:namedview
     id="namedview3"
     pagecolor="#ffffff"
     bordercolor="#999999"
     borderopacity="1"
     inkscape:showpageshadow="2"
     inkscape:pageopacity="0"
     inkscape:pagecheckerboard="0"
     inkscape:deskcolor="#d1d1d1"
     showgrid="true"
     inkscape:zoom="17.318182"
     inkscape:cx="10.7979"
     inkscape:cy="10.682415"
     inkscape:window-width="1920"
     inkscape:window-height="996"
     inkscape:window-x="0"
     inkscape:window-y="0"
     inkscape:window-maximized="1"
     inkscape:current-layer="svg3">
    <inkscape:grid
       id="grid1"
       units="px"
       originx="-6"
       originy="-25"
       spacingx="1"
       spacingy="1"
       empcolor="#0099e5"
       empopacity="0.30196078"
       color="#0099e5"
       opacity="0.14902"
       empspacing="5"
       dotted="false"
       gridanglex="30"
       gridanglez="30"
       visible="true" />
  </sodipodi:namedview>
  <style
     type="text/css"
     id="current-color-scheme">.ColorScheme-Text{color:#232629;}.ColorScheme-ButtonFocus{color:#3daee9;}.ColorScheme-NegativeText { color: #da4453; } </style>
  <g
     id="g1"
     transform="translate(-5.3648294,-49.083994)">
    <path
       style="fill:none;stroke-width:1"
       inkscape:connector-curvature="0"
       d="M -6.2499998e-7,3.75e-6 H 21.999999 V 22.000004 H -6.2499998e-7 Z"
       id="path14" />
    <path
       id="Path_164-9"
       data-name="Path 164"
       d="M 18.195258,13.700546 16.666241,12.680547 A 1.4990163,1.5000883 0 0 1 15.996687,11.430544 V 9.0002103 a 4.9967212,5.0002944 0 0 0 -3.106939,-4.6232704 1.9856968,1.9871169 0 0 0 -3.7795279,0 4.9967212,5.0002944 0 0 0 -3.1069472,4.6232704 v 2.4303337 a 1.4990163,1.5000883 0 0 1 -0.6675564,1.248001 l -1.5310064,1.022001 a 1.7988197,1.800106 0 0 0 0.9993596,3.300336 h 4.1972417 a 1.998689,2.0001182 0 0 0 3.9973776,0 h 4.197243 a 1.7988197,1.800106 0 0 0 0.999358,-3.300336 z m -0.99936,2.300004 H 4.804043 A 0.79947525,0.80004697 0 0 1 4.3603266,14.530548 l 1.530007,-1.019999 A 2.4983606,2.5001472 0 0 0 7.0026058,11.430544 V 9.0002103 a 3.9973778,4.0002364 0 0 1 7.9947542,0 v 2.4303337 a 2.4983606,2.5001472 0 0 0 1.112274,2.080005 l 1.531005,1.020998 a 0.79947525,0.80004697 0 0 1 -0.444741,1.469003 z m -6.195934,2.000001 a 0.9993444,1.0000591 0 0 1 -0.999353,-1.000002 h 1.998669 a 0.9993444,1.0000591 0 0 1 -0.999352,1.000002 z M 11.499639,6.499875 a 0.49967209,0.50002941 0 0 1 -0.499675,0.5000003 1.9986881,2.0001175 0 0 0 -1.9986658,2.0000015 0.4996798,0.50003712 0 0 1 -0.9993596,0 2.9980328,3.0001767 0 0 1 2.9980254,-3.0000024 0.49967209,0.50002941 0 0 1 0.499675,0.5000006 z"
       style="fill:#d3dae3;fill-opacity:1;stroke-width:0.999673" />
    <path
       d="m 17.47797,6.3333616 c 0,1.0985542 -0.889,1.9881415 -1.986788,1.9881415 -1.096872,0 -1.986852,-0.8895873 -1.986852,-1.9881415 0,-1.0976277 0.88998,-1.9881951 1.986852,-1.9881951 1.097788,0 1.986788,0.8905674 1.986788,1.9881951 z"
       id="path72-3-7-36-2"
       style="color:#e5e9ef;fill:#00ccff;fill-opacity:1;stroke:#bac8df;stroke-width:0.0236609;stroke-opacity:1"
       class="ColorScheme-Text" />
  </g>
  <g
     id="notification-active-6"
     transform="translate(-209.82493,-726.24546)">
    <path
       style="fill:none"
       inkscape:connector-curvature="0"
       d="m 209.82493,726.24546 h 22 v 22 h -22 z"
       id="path14-7" />
    <path
       id="Bell-3"
       class="st0"
       d="m 217.82493,736.24546 z m -2.2875,-0.0625 c 0,-2.92188 2.39063,-5.3125 5.3125,-5.3125 2.92188,0 5.3125,2.39062 5.3125,5.3125 v 7.96875 h -11.6875 v -1.0625 h 10.625 v -1.0625 h -9.5625 z"
       style="clip-rule:evenodd;fill:#cdd8e5;fill-opacity:0.403922;fill-rule:evenodd;stroke-width:0.265625"
       sodipodi:nodetypes="ccccccsssccccccs" />
    <path
       id="Bell-s-6"
       class="st1"
       d="m 218.67493,730.87046 c 0,-1.16875 0.95625,-2.125 2.125,-2.125 h 0.53125 v 1.0625 h -0.53125 c -0.58438,0 -1.0625,0.47812 -1.0625,1.0625 v 0.10625 c -0.37188,0.0797 -0.71719,0.18594 -1.0625,0.34531 z m 5.87031,1.56719 -0.74375,0.74375 c 0.77031,0.77031 1.24844,1.83281 1.24844,3.00156 v 5.84375 h 1.0625 v -5.84375 c 0,-0.69062 -0.13281,-1.38125 -0.39844,-2.04531 -0.26562,-0.6375 -0.66406,-1.22188 -1.16875,-1.7 z m 2.62969,11.71406 v -1.0625 h -2.125 v 1.0625 z m -4.78125,0 h -3.1875 c 0,0.87656 0.71719,1.59375 1.59375,1.59375 0.87656,0 1.59375,-0.71719 1.59375,-1.59375 z"
       style="fill:#eff0f1;fill-opacity:1;stroke-width:0.265625" />
    <path
       d="m 221.23828,739.27599 c 0.23823,-0.59634 2.23145,-3.60256 0.85422,-4.43 -0.76897,-0.46209 -1.83942,-0.16428 -2.6582,0.38072 l -0.0556,0.51893 c 0.48349,-0.16429 0.97879,-0.16429 1.12739,0.22682 0.36167,0.95139 -0.87632,2.61705 -1.21477,3.4893 -0.91819,2.3664 1.28586,2.64007 2.85813,1.66475 l 0.0601,-0.5614 c -0.85545,0.23242 -1.46573,-0.0529 -0.97125,-1.28912 z"
       id="path2"
       style="fill:#eff0f1;fill-opacity:1;stroke-width:0.101851" />
    <circle
       cx="220.82919"
       cy="732.7597"
       r="1.1042645"
       id="circle4"
       style="fill:#eff0f1;fill-opacity:1;stroke-width:0.101851" />
  </g>
</svg>
