<?xml version="1.0" encoding="UTF-8" standalone="no"?>
<svg
   viewBox="0 0 22 22"
   version="1.1"
   id="svg1"
   sodipodi:docname="system-reboot.svg"
   inkscape:version="1.3.2 (091e20ef0f, 2023-11-25)"
   width="22"
   height="22"
   xmlns:inkscape="http://www.inkscape.org/namespaces/inkscape"
   xmlns:sodipodi="http://sodipodi.sourceforge.net/DTD/sodipodi-0.dtd"
   xmlns:xlink="http://www.w3.org/1999/xlink"
   xmlns="http://www.w3.org/2000/svg"
   xmlns:svg="http://www.w3.org/2000/svg">
  <sodipodi:namedview
     id="namedview1"
     pagecolor="#ffffff"
     bordercolor="#000000"
     borderopacity="0.25"
     inkscape:showpageshadow="2"
     inkscape:pageopacity="0.0"
     inkscape:pagecheckerboard="0"
     inkscape:deskcolor="#d1d1d1"
     inkscape:zoom="12.326157"
     inkscape:cx="10.546677"
     inkscape:cy="-2.3527203"
     inkscape:window-width="1920"
     inkscape:window-height="996"
     inkscape:window-x="0"
     inkscape:window-y="0"
     inkscape:window-maximized="1"
     inkscape:current-layer="svg1" />
  <defs
     id="defs1">
    <style
       type="text/css"
       id="style1">.ColorScheme-Text {
        color:#d8dee9;
      }
      .ColorScheme-Highlight {
        color:#88c0d0;
      }</style>
    <linearGradient
       id="a-5"
       x1="16"
       x2="16"
       y1="1"
       y2="31"
       gradientUnits="userSpaceOnUse">
      <stop
         stop-color="#f4282c"
         offset="0"
         id="stop1009" />
      <stop
         stop-color="#fac136"
         offset="1"
         id="stop1011" />
    </linearGradient>
    <linearGradient
       inkscape:collect="always"
       xlink:href="#linearGradient52"
       id="linearGradient5"
       gradientUnits="userSpaceOnUse"
       gradientTransform="matrix(0.6875,0,0,0.6875,108.66985,103.7705)"
       x1="-199"
       y1="91"
       x2="-167"
       y2="91" />
    <linearGradient
       inkscape:collect="always"
       id="linearGradient52">
      <stop
         style="stop-color:#4e51ac;stop-opacity:1"
         offset="0"
         id="stop39" />
      <stop
         style="stop-color:#008080;stop-opacity:1"
         offset="1"
         id="stop40" />
    </linearGradient>
  </defs>
  <g
     id="22-22-system-reboot-0"
     transform="translate(236)">
    <path
       style="fill:none"
       d="m -236,0 v 22 h 22 V 0 Z"
       id="path9" />
    <path
       id="Refresh-2"
       class="st0"
       d="m -219.11506,17.805063 c 1.64953,-1.237856 2.85231,-2.977554 3.40215,-4.917988 l 0.0688,0.0335 c 0.13745,-0.568753 0.24055,-1.271325 0.27491,-1.840076 l -1.26227,-0.02493 -0.0138,-0.0045 -2.48639,0.01295 c -0.0479,2.456292 -2.48467,5.340547 -5.82534,5.336288 -3.40215,-0.004 -6.18573,-2.709912 -6.18573,-6.022026 0,-3.312112 2.78357,-6.022025 6.18573,-6.022025 1.34024,0 2.61174,0.434924 3.64271,1.137494 l -2.95544,2.877041 h 7.56034 V 1.010266 l -2.16503,2.107709 c -1.3746,-1.104037 -3.0585,-1.806607 -4.81113,-2.040796 -2.13063,-0.267646 -4.26128,0.167278 -6.08263,1.204404 -1.82136,1.037127 -3.26469,2.609545 -4.08946,4.516526 -0.82476,1.906963 -0.96221,4.014676 -0.41237,6.022022 0.54983,2.007337 1.75262,3.747035 3.43651,5.018354 1.6839,1.23786 3.74581,1.90697 5.87644,1.90697 2.13064,0 4.19255,-0.66911 5.84208,-1.940433 z"
       style="fill:#cdd8e5;fill-opacity:0.403922;stroke-width:0.339074"
       sodipodi:nodetypes="cccccccsssccccccssscsc" />
    <path
       id="Refresh-s-72"
       class="st1"
       d="m -223.75436,4.456245 c 0.8935,0.167278 1.71826,0.535291 2.43993,1.037126 l -0.99659,0.970219 c -0.51548,-0.33456 -1.09968,-0.56875 -1.71826,-0.669119 -0.92786,-0.167277 -1.89008,-0.100367 -2.78358,0.26764 -0.89349,0.368016 -1.61517,0.970222 -2.165,1.739705 -0.51547,0.769474 -0.82477,1.672786 -0.82477,2.609547 h -1.3746 c 0,-1.204403 0.37801,-2.341906 1.03095,-3.34557 0.65295,-1.003682 1.64953,-1.773156 2.78358,-2.20808 1.16842,-0.501836 2.40556,-0.602202 3.60834,-0.401468 z m 4.60493,12.579343 c -0.75603,0.869845 -1.60032,1.538965 -2.59692,2.007344 -0.99658,0.468376 -2.14546,0.702564 -3.21079,0.702564 v 1.254544 c 1.27151,0 2.54303,-0.183963 3.71145,-0.752704 1.1684,-0.535297 2.23373,-1.338231 3.12722,-2.341903 0.89349,-1.003666 1.5808,-2.174619 2.06191,-3.479394 0.20619,-0.535283 0.65347,-2.106317 0.67862,-3.380168 l -1.24776,-1.95e-4 c 0.012,1.003815 -0.27952,2.130148 -0.56964,2.911983 -0.37585,1.14533 -1.19805,2.208085 -1.95409,3.077929 z"
       style="fill:#eff0f1;fill-opacity:1;stroke-width:0.339074"
       sodipodi:nodetypes="ccccscccsccsscccsccccss" />
  </g>
</svg>
