<?xml version="1.0" encoding="UTF-8" standalone="no"?>
<svg
   width="22"
   height="22"
   version="1.1"
   id="svg6"
   sodipodi:docname="system-user-list.svg"
   inkscape:version="1.3.2 (091e20ef0f, 2023-11-25)"
   xmlns:inkscape="http://www.inkscape.org/namespaces/inkscape"
   xmlns:sodipodi="http://sodipodi.sourceforge.net/DTD/sodipodi-0.dtd"
   xmlns="http://www.w3.org/2000/svg"
   xmlns:svg="http://www.w3.org/2000/svg">
  <defs
     id="defs10">
    <linearGradient
       id="a-5"
       x1="16"
       x2="16"
       y1="1"
       y2="31"
       gradientUnits="userSpaceOnUse">
      <stop
         stop-color="#f4282c"
         offset="0"
         id="stop1009" />
      <stop
         stop-color="#fac136"
         offset="1"
         id="stop1011" />
    </linearGradient>
  </defs>
  <sodipodi:namedview
     id="namedview8"
     pagecolor="#ffffff"
     bordercolor="#000000"
     borderopacity="0.25"
     inkscape:showpageshadow="2"
     inkscape:pageopacity="0.0"
     inkscape:pagecheckerboard="0"
     inkscape:deskcolor="#d1d1d1"
     showgrid="false"
     inkscape:zoom="12.422581"
     inkscape:cx="10.545313"
     inkscape:cy="17.629187"
     inkscape:window-width="1920"
     inkscape:window-height="996"
     inkscape:window-x="0"
     inkscape:window-y="0"
     inkscape:window-maximized="1"
     inkscape:current-layer="svg6" />
  <style
     type="text/css"
     id="current-color-scheme">
        .ColorScheme-Text {
            color:#d8d8d8;
        }
    </style>
  <g
     id="22-22-system-user-list">
    <path
       style="fill:none;stroke-width:1"
       d="M 0,0 V 22 H 22 V 0 Z"
       id="path84-3-7" />
    <path
       id="Friends"
       class="st0"
       d="m 9.9000001,6.4285712 c 0,-1.8857143 1.5428569,-3.4285714 3.4285719,-3.4285714 1.885714,0 3.428571,1.5428571 3.428571,3.4285714 0,1.8857144 -1.542857,3.4285715 -3.428571,3.4285715 -1.885715,0 -3.4285719,-1.5428571 -3.4285719,-3.4285715 z M 10.471429,11 c -2.2000003,0 -4.0000004,1.8 -4.0000004,4 v 2.857143 H 17.9 c 1.257143,0 2.285715,-1.028572 2.285715,-2.285714 V 15 c 0,-2.2 -1.8,-4 -4.000001,-4 z"
       style="fill:#cdd8e5;fill-opacity:0.403922;stroke-width:0.285714" />
    <path
       id="Friends-s"
       class="st1"
       d="m 3.0428572,6.9999998 c 0,-1.5714286 1.2857143,-2.8571429 2.8571429,-2.8571429 1.5714286,0 2.8571429,1.2857143 2.8571429,2.8571429 0,1.5714286 -1.2857143,2.8571429 -2.8571429,2.8571429 -1.5714286,0 -2.8571429,-1.2857143 -2.8571429,-2.8571429 z M 5.9000001,5.2857141 c -0.9428572,0 -1.7142858,0.7714286 -1.7142858,1.7142857 0,0.9428572 0.7714286,1.7142858 1.7142858,1.7142858 0.9428571,0 1.7142857,-0.7714286 1.7142857,-1.7142858 0,-0.9428571 -0.7714286,-1.7142857 -1.7142857,-1.7142857 z m 1.7142857,6.8571429 c 0.028571,0 0.028571,0 0.057143,0 0.3428571,-0.314286 0.7142857,-0.6 1.1714285,-0.8 C 8.4714287,11.114286 8.0714287,11 7.6142858,11 H 4.1857143 C 2.9285714,11 1.9,12.028571 1.9,13.285714 v 2.285715 h 1.1428572 v -2.285715 c 0,-0.628571 0.5142857,-1.142857 1.1428571,-1.142857 z m 0,5.714286 V 19 h 9.1428572 c 1.885714,0 3.428572,-1.542857 3.428572,-3.428571 V 15 h -1.142858 v 0.571429 c 0,1.257142 -1.028571,2.285714 -2.285714,2.285714 z"
       style="fill:#eff0f1;fill-opacity:1;stroke-width:0.285714" />
  </g>
</svg>
