<?xml version="1.0" encoding="UTF-8" standalone="no"?>
<svg
   viewBox="0 0 22 22"
   version="1.1"
   id="svg1"
   sodipodi:docname="system-log-out-rtl.svg"
   width="22"
   height="22"
   inkscape:version="1.3.2 (091e20ef0f, 2023-11-25)"
   xmlns:inkscape="http://www.inkscape.org/namespaces/inkscape"
   xmlns:sodipodi="http://sodipodi.sourceforge.net/DTD/sodipodi-0.dtd"
   xmlns="http://www.w3.org/2000/svg"
   xmlns:svg="http://www.w3.org/2000/svg">
  <sodipodi:namedview
     id="namedview1"
     pagecolor="#ffffff"
     bordercolor="#999999"
     borderopacity="1"
     inkscape:showpageshadow="2"
     inkscape:pageopacity="0"
     inkscape:pagecheckerboard="0"
     inkscape:deskcolor="#d1d1d1"
     inkscape:zoom="8.6590909"
     inkscape:cx="11.086614"
     inkscape:cy="29.564304"
     inkscape:window-width="1920"
     inkscape:window-height="996"
     inkscape:window-x="0"
     inkscape:window-y="0"
     inkscape:window-maximized="1"
     inkscape:current-layer="svg1" />
  <defs
     id="defs3051">
    <style
       type="text/css"
       id="current-color-scheme">.ColorScheme-Text {color:#fcfcfc;}</style>
  </defs>
  <g
     id="22-22-system-log-out-1"
     transform="rotate(180,-36.000002,11)">
    <path
       style="fill:none"
       d="m -94.000003,0 v 22 h 22 V 0 Z"
       id="path29" />
    <path
       id="LogIn-9"
       class="st0"
       d="m -89.85278,6 4.8077,4.375 -4.8077,4.375 v -2.5 h -2.747223 V 8.5 h 2.747223 z m 14.388731,12.062508 c 1.270661,-0.500015 2.094815,-1.625015 2.094815,-2.875016 V 2.249999 l -1.373654,0.625 v 1e-6 l -8.24173,3.43751 V 21 Z"
       style="fill:#cdd8e5;fill-opacity:0.403922;stroke-width:0.327583"
       sodipodi:nodetypes="cccccccccscccccc" />
    <path
       id="LogIn-s-4"
       class="st1"
       d="M -88.479141,17.25 V 13.5 l 1.373638,-1.25 v 5 z m 15.109907,-15 v 13.875 c 0,1.5 -0.995892,2.843746 -2.506854,3.437492 L -79.550588,21 v -1.343754 l 3.159346,-1.218753 C -75.395303,18.031246 -74.742888,17.125 -74.742888,16.125 V 2.875 Z M -88.479141,3.5 c 0,-1.375 1.236253,-2.5 2.747292,-2.5 h 5.494461 v 1.25 h -5.494461 c -0.755539,0 -1.373654,0.562496 -1.373654,1.25 v 3.437507 l -1.373638,-1.250013 z"
       style="clip-rule:evenodd;fill:#eff0f1;fill-opacity:1;fill-rule:evenodd;stroke-width:0.327583" />
  </g>
</svg>
