<?xml version="1.0" encoding="UTF-8" standalone="no"?>
<svg
   viewBox="0 0 22 22"
   version="1.1"
   id="svg1"
   sodipodi:docname="system-users.svg"
   inkscape:version="1.3.2 (091e20ef0f, 2023-11-25)"
   width="22"
   height="22"
   xmlns:inkscape="http://www.inkscape.org/namespaces/inkscape"
   xmlns:sodipodi="http://sodipodi.sourceforge.net/DTD/sodipodi-0.dtd"
   xmlns="http://www.w3.org/2000/svg"
   xmlns:svg="http://www.w3.org/2000/svg">
  <sodipodi:namedview
     id="namedview1"
     pagecolor="#ffffff"
     bordercolor="#999999"
     borderopacity="1"
     inkscape:showpageshadow="2"
     inkscape:pageopacity="0"
     inkscape:pagecheckerboard="0"
     inkscape:deskcolor="#d1d1d1"
     inkscape:zoom="12.245804"
     inkscape:cx="11.432487"
     inkscape:cy="10.534221"
     inkscape:window-width="1920"
     inkscape:window-height="996"
     inkscape:window-x="0"
     inkscape:window-y="0"
     inkscape:window-maximized="1"
     inkscape:current-layer="svg1" />
  <defs
     id="defs3051">
    <style
       type="text/css"
       id="current-color-scheme">.ColorScheme-Text { color: #fcfcfc; } </style>
  </defs>
  <g
     id="22-22-system-users-7">
    <path
       style="fill:none"
       d="M 0,0 V 22 H 22 V 0 Z"
       id="path89-3" />
    <path
       class="st0"
       d="M 11,3 C 8.8,3 7,4.8 7,7 c 0,2.2 1.8,4 4,4 2.2,0 4,-1.8 4,-4 0,-2.2 -1.8,-4 -4,-4 z m 0,7 C 9.35,10 8,8.65 8,7 8,6.825 8.025,6.675 8.05,6.5 h 0.175 c 0.6,0 1.125,-0.4 1.275,-1 0.15,0.6 0.675,1 1.275,1 H 13.95 C 13.975,6.675 14,6.825 14,7 c 0,1.65 -1.35,3 -3,3 z m 3,2 c 2.2,0 4,1.8 4,4 0,1.1 -0.9,2 -2,2 H 4 v -2 c 0,-2.2 1.8,-4 4,-4 z"
       id="path4-7"
       style="fill:#cdd8e5;fill-opacity:0.403922;stroke-width:0.25" />
    <path
       id="User-s-2"
       class="st1"
       d="m 14.975,6.5 h -1 C 13.725,5.075 12.475,4 11,4 9.525,4 8.275,5.075 8.05,6.5 h -1 C 7.3,4.525 8.975,3 11.025,3 c 2.05,0 3.7,1.525 3.95,3.5 z M 17,16 c 0,1.1 -0.9,2 -2,2 H 5 v 1 h 10 c 1.65,0 3,-1.35 3,-3 z"
       style="fill:#eff0f1;fill-opacity:1;stroke-width:0.25" />
  </g>
</svg>
