<?xml version="1.0" encoding="UTF-8" standalone="no"?>
<svg
   width="32"
   height="32"
   version="1.1"
   id="svg1"
   sodipodi:docname="video-display-brightness-symbolic.svg"
   inkscape:version="1.3.2 (091e20ef0f, 2023-11-25)"
   xmlns:inkscape="http://www.inkscape.org/namespaces/inkscape"
   xmlns:sodipodi="http://sodipodi.sourceforge.net/DTD/sodipodi-0.dtd"
   xmlns="http://www.w3.org/2000/svg"
   xmlns:svg="http://www.w3.org/2000/svg">
  <defs
     id="defs1" />
  <sodipodi:namedview
     id="namedview1"
     pagecolor="#000000"
     bordercolor="#999999"
     borderopacity="1"
     inkscape:showpageshadow="2"
     inkscape:pageopacity="0"
     inkscape:pagecheckerboard="0"
     inkscape:deskcolor="#d1d1d1"
     inkscape:zoom="5.953125"
     inkscape:cx="27.380577"
     inkscape:cy="8.9028871"
     inkscape:window-width="1920"
     inkscape:window-height="994"
     inkscape:window-x="0"
     inkscape:window-y="0"
     inkscape:window-maximized="1"
     inkscape:current-layer="svg1" />
  <style
     type="text/css"
     id="current-color-scheme">
      .ColorScheme-Text {
        color:#7B7C7E;
      }
      .ColorScheme-Background{
        color:#EFF0F1;
      }
      .ColorScheme-Highlight{
        color:#3DAEE6;
      }
      .ColorScheme-ViewText {
        color:#7B7C7E;
      }
      .ColorScheme-ViewBackground{
        color:#FCFCFC;
      }
      .ColorScheme-ViewHover {
        color:#3DAEE6;
      }
      .ColorScheme-ViewFocus{
        color:#1E92FF;
      }
      .ColorScheme-ButtonText {
        color:#7B7C7E;
      }
      .ColorScheme-ButtonBackground{
        color:#EFF0F1;
      }
      .ColorScheme-ButtonHover {
        color:#3DAEE6;
      }
      .ColorScheme-ButtonFocus{
        color:#1E92FF;
      }
</style>
  <g
     id="video-display-brightness-5">
    <rect
       style="opacity:0.00100002"
       width="32"
       height="32"
       x="0"
       y="1.3897704e-07"
       id="rect7" />
    <path
       d="m 19.127173,12.979133 c -0.197095,-0.269582 -0.197095,-0.635712 0,-0.905293 l 0.683208,-0.929231 C 20.205396,10.606461 19.771941,9.8555391 19.10837,9.9284391 L 17.963933,10.053219 C 17.629886,10.090147 17.31071,9.9052851 17.176515,9.5971573 L 16.711916,8.5432572 c -0.268684,-0.6108854 -1.135386,-0.6108854 -1.40407,0 L 14.843247,9.5971573 C 14.708326,9.9026548 14.391225,10.085724 14.059198,10.049807 L 12.914773,9.9250115 c -0.663575,-0.072911 -1.097041,0.6780175 -0.702022,1.2161695 l 0.683256,0.929221 c 0.197093,0.26958 0.197093,0.635707 0,0.905287 l -0.683256,0.929209 c -0.39502,0.538152 0.03845,1.289081 0.702022,1.21617 l 1.144425,-0.12463 c 0.332029,-0.03592 0.64913,0.147155 0.784049,0.452655 l 0.464599,1.0539 c 0.268684,0.610886 1.135386,0.610886 1.40407,0 l 0.464599,-1.0539 c 0.134913,-0.305481 0.451988,-0.488549 0.784,-0.452655 l 1.144436,0.12463 c 0.66357,0.0729 1.097026,-0.678022 0.702011,-1.21617 z M 17.610345,9.1170907 Z m -5.336116,3.6775623 z m 7.480655,-0.519281 z M 13.910603,9.4143211 Z M 14.383738,15.9017 Z m 3.834711,-0.346749 z"
       id="path4"
       style="fill:#eff0f1;fill-opacity:1;stroke-width:0.170814"
       sodipodi:nodetypes="ccccccccccccccccccccccccccccccccccccccccccccccccccccccc" />
    <path
       id="Computer"
       class="st0"
       d="m 28.014286,4 h 1.714285 v 15.428571 c 0,1.885715 -1.542857,3.428572 -3.428571,3.428572 h -24 v -3.428572 h 25.714286 z m -6,24 -3.428572,-1.714286 H 10.871429 V 28 Z"
       style="fill:#cdd8e5;fill-opacity:0.403922;stroke-width:0.428571" />
    <path
       id="Computer-s"
       class="st1"
       d="M 4.014286,19.428571 H 2.3 v -12 C 2.3,5.542857 3.842857,4 5.728571,4 h 24 v 1.714286 h -24 c -0.942857,0 -1.714285,0.771428 -1.714285,1.714285 z m 24,0 c 0,1.885715 -1.542857,3.428572 -3.428572,3.428572 h -8.571428 v 1.714286 C 16.014286,26.457143 17.557143,28 19.442857,28 h 2.571429 v -1.714286 h -2.571429 c -0.942857,0 -1.714286,-0.771428 -1.714286,-1.714285 h 6.857143 c 2.828572,0 5.142857,-2.314286 5.142857,-5.142858 z"
       style="fill:#eff0f1;fill-opacity:1;stroke-width:0.428571" />
  </g>
</svg>
