<?xml version="1.0" encoding="UTF-8" standalone="no"?>
<svg
   viewBox="0 0 32 32"
   version="1.1"
   id="svg1"
   sodipodi:docname="compass.svg"
   width="32"
   height="32"
   inkscape:version="1.3.2 (091e20ef0f, 2023-11-25)"
   xmlns:inkscape="http://www.inkscape.org/namespaces/inkscape"
   xmlns:sodipodi="http://sodipodi.sourceforge.net/DTD/sodipodi-0.dtd"
   xmlns="http://www.w3.org/2000/svg"
   xmlns:svg="http://www.w3.org/2000/svg">
  <sodipodi:namedview
     id="namedview1"
     pagecolor="#d7d7d7"
     bordercolor="#999999"
     borderopacity="1"
     inkscape:showpageshadow="2"
     inkscape:pageopacity="0"
     inkscape:pagecheckerboard="0"
     inkscape:deskcolor="#d1d1d1"
     inkscape:zoom="10.482736"
     inkscape:cx="15.83556"
     inkscape:cy="7.9177802"
     inkscape:window-width="1920"
     inkscape:window-height="996"
     inkscape:window-x="0"
     inkscape:window-y="0"
     inkscape:window-maximized="1"
     inkscape:current-layer="svg1" />
  <defs
     id="defs3051">
    <style
       type="text/css"
       id="current-color-scheme">
            .ColorScheme-Text {
                color:#d8d8d8;
            }
        </style>
  </defs>
  <g
     id="compass-5">
    <path
       style="clip-rule:evenodd;fill:#ffffc1;fill-opacity:0;fill-rule:evenodd;stroke-width:1.00213;stroke-linejoin:round;stroke-miterlimit:1.41421"
       d="M 0,0 V 32 H 32 V 0 Z"
       id="rect817-0"
       inkscape:connector-curvature="0" />
    <path
       id="Compass-9"
       class="st0"
       d="m 14.307695,15.187501 -4.230771,7.3125 7.615381,-4.0625 z M 16,27.375001 c 6.092305,0 11,-4.7125 11,-10.5625 C 27,10.962501 22.092305,6.25 16,6.25 9.907695,6.25 5,10.962501 5,16.812501 c 0,5.85 4.907695,10.5625 11,10.5625 z"
       style="clip-rule:evenodd;fill:#cdd8e5;fill-opacity:0.403922;fill-rule:evenodd;stroke-width:0.414578" />
    <path
       id="Compass-s-1"
       class="st1"
       d="M 14.307695,6.371875 C 13.715381,6.453125 13.165381,6.575 12.615381,6.7375 V 5.84375 C 12.615381,4.259375 13.926924,3 15.576924,3 c 1.65,0 2.961533,1.259375 2.961533,2.84375 v 0.690625 c -0.55,-0.121875 -1.1,-0.203125 -1.692305,-0.24375 V 5.84375 c 0,-0.690625 -0.55,-1.21875 -1.269228,-1.21875 -0.719229,0 -1.269229,0.528125 -1.269229,1.21875 z m 0,8.815626 3.38461,3.25 4.230771,-7.3125 z m 11,2.4375 v 0.8125 c 0,4.671875 -3.723076,8.490625 -8.461543,8.896875 v -1.584375 h -1.692304 v 3.25 H 16 c 6.092305,0 11,-4.7125 11,-10.5625 v -2.4375 h -3.384619 v 1.625 z"
       style="fill:#eff0f1;fill-opacity:1;stroke-width:0.414578" />
  </g>
</svg>
