<?xml version="1.0" encoding="UTF-8" standalone="no"?>
<svg
   viewBox="0 0 22 22"
   version="1.1"
   id="svg1"
   sodipodi:docname="games-config-custom-symbolic.svg"
   width="22"
   height="22"
   inkscape:version="1.4.2 (unknown)"
   xmlns:inkscape="http://www.inkscape.org/namespaces/inkscape"
   xmlns:sodipodi="http://sodipodi.sourceforge.net/DTD/sodipodi-0.dtd"
   xmlns="http://www.w3.org/2000/svg"
   xmlns:svg="http://www.w3.org/2000/svg">
  <sodipodi:namedview
     id="namedview1"
     pagecolor="#ffffff"
     bordercolor="#999999"
     borderopacity="1"
     inkscape:showpageshadow="2"
     inkscape:pageopacity="0"
     inkscape:pagecheckerboard="0"
     inkscape:deskcolor="#d1d1d1"
     inkscape:zoom="6.3656639"
     inkscape:cx="11.389228"
     inkscape:cy="11.232136"
     inkscape:window-width="1920"
     inkscape:window-height="996"
     inkscape:window-x="0"
     inkscape:window-y="0"
     inkscape:window-maximized="1"
     inkscape:current-layer="svg1" />
  <defs
     id="defs3051">
    <style
       type="text/css"
       id="current-color-scheme">
      .ColorScheme-Text {
        color:#fcfcfc;
      }
      .ColorScheme-Highlight {
        color:#3daee9;
      }
      </style>
  </defs>
  <g
     id="configure-1">
    <path
       id="Adjust"
       class="st0"
       d="m 10.993,17 v -1 h 1.770496 c -0.03712,-1 1.124125,-1.971429 2.163942,-1.971429 1.236537,0 2.248249,1.028572 2.248249,2.285715 0,1.257143 -1.011712,2.285714 -2.248249,2.285714 -1.039817,0 -1.939116,-0.6 -2.163942,-1.6 z M 10.515247,5 c -0.09136,1 1.124125,1.971 2.163941,1.971 C 13.915725,6.971 14.927,6.1428571 14.927,4.8857143 14.927,3.6285714 14.015537,2.6 12.779,2.6 11.739184,2.6 11.069,3 10.6,4 H 8.7447501 v 1 z m -1.2084344,5.6 c 0,-1.257143 -1.0117125,-2.2857143 -2.2482501,-2.2857143 -1.0398157,0 -1.9391152,0.7142853 -2.1639406,1.7142853 H 3.1241249 V 11 h 1.770497 C 5,12 6.0187468,12.885714 7.0585625,12.885714 c 1.2365376,0 2.2482501,-1.028571 2.2482501,-2.285714 z"
       style="fill:#cdd8e5;fill-opacity:0.403922;stroke-width:0.283363"
       sodipodi:nodetypes="cccssscccsssccccssccccss" />
    <path
       id="Adjust-s"
       class="st1"
       d="m 19.062,6 c 0,-0.6285714 -0.405731,-1 -1.024,-1 H 14.843129 C 14.899339,4.8285714 14.910483,4.6188905 14.9,4.486 14.886729,4.3177712 14.898782,4.169924 14.8,4 h 2.93775 C 18.974288,4 19.986,4.7428571 19.986,6 Z M 9.2225031,11 H 19.986 V 10.028571 H 9.2225031 C 9.2787101,10.2 9.3068121,10.4 9.3068121,10.6 c 0,0.2 -0.028103,0.228571 -0.084309,0.4 z M 19.986,16 h -2.895 c 0.05621,0.171429 0.08468,0.214 0.08468,0.414 0,0.2 -0.02809,0.300286 -0.0843,0.471714 H 19.986 Z M 2,17 h 9.555063 V 16 H 2 Z M 2,5 H 9.3068126 V 4 H 2 Z m 0,6 H 3.6861878 V 10.028571 H 2 Z m 12.927438,6.657 C 14.309169,17.657 13.703,16.942857 13.703,16.314286 V 16 h -1.023812 v 0.314286 c 0,1.257143 1.011712,2.285714 2.24825,2.285714 z M 7.0585625,11.742857 C 6.4402941,11.742857 5.9344376,11.228571 5.9344376,10.6 V 10.028571 H 4.8103127 V 10.6 c 0,1.257143 1.0117121,2.285714 2.2482498,2.285714 z M 11.355,4 H 10.5 v 1 c 0,1.0004804 0.94265,1.971 2.179188,1.971 V 6.229 C 12.060919,6.229 11.355,5.6970145 11.355,5 Z"
       style="fill:#eff0f1;fill-opacity:1;stroke-width:0.283363"
       sodipodi:nodetypes="cscscsccccccscccscccccccccccccccccccsccscccsccsccccsccsc" />
  </g>
</svg>
