<?xml version="1.0" encoding="UTF-8" standalone="no"?>
<svg
   viewBox="0 0 20 20"
   version="1.1"
   id="svg1"
   sodipodi:docname="media-eject.svg"
   width="20"
   height="20"
   inkscape:version="1.4.2 (unknown)"
   xmlns:inkscape="http://www.inkscape.org/namespaces/inkscape"
   xmlns:sodipodi="http://sodipodi.sourceforge.net/DTD/sodipodi-0.dtd"
   xmlns="http://www.w3.org/2000/svg"
   xmlns:svg="http://www.w3.org/2000/svg">
  <sodipodi:namedview
     id="namedview1"
     pagecolor="#ffffff"
     bordercolor="#000000"
     borderopacity="0.25"
     inkscape:showpageshadow="2"
     inkscape:pageopacity="0.0"
     inkscape:pagecheckerboard="0"
     inkscape:deskcolor="#d1d1d1"
     inkscape:zoom="8.5173039"
     inkscape:cx="10.273204"
     inkscape:cy="0.99796838"
     inkscape:window-width="1920"
     inkscape:window-height="996"
     inkscape:window-x="0"
     inkscape:window-y="0"
     inkscape:window-maximized="1"
     inkscape:current-layer="svg1" />
  <defs
     id="defs1">
    <style
       type="text/css"
       id="style1">.ColorScheme-Text { color:#d8dee9; }
</style>
  </defs>
  <g
     id="media-eject-5">
    <path
       id="Move-7-0-9"
       class="st0"
       d="m 12.625846,13.033296 v 0 0 0 0 l -6.0319437,8.5e-5 v 0 l -4.0937022,-6.2e-5 5.1195806,-6.2080515 c 2.325927,-2.8203903 1.2622829,-2.7204436 4.2726153,0.0466 l 5.605586,6.1613485 z"
       sodipodi:nodetypes="ccccccccsccc"
       style="fill:#cdd8e5;fill-opacity:0.403922;stroke-width:0.558331" />
    <path
       id="Move-s-5-6-0"
       class="st1"
       d="M 10.82644,6.4290019 14.841955,11.487674 15.455588,9.9224152 11.52953,5.0036995 C 10.586078,4.0647225 10.492558,3.7602513 9.5549494,3.7 8.8820533,3.7603026 8.5015438,4.2184351 7.6609936,5.2233773 L 4.6540465,9.1257734 6.3333134,9.1517861 8.2146772,6.6227609 C 9.9457182,4.5330569 9.2307132,4.4188656 10.82644,6.4290562 Z m 4.629148,3.4934133 v 0 l -0.613633,1.5652588 1.870887,-1.3e-4 z"
       sodipodi:nodetypes="sccccccccsccssc"
       style="fill:#eff0f1;fill-opacity:1;stroke-width:0.503458" />
    <rect
       style="fill:#eff0f1;fill-opacity:1;stroke-width:1.81452"
       class="ColorScheme-Text"
       width="15"
       height="1.4000008"
       x="-17.5"
       y="-16.299999"
       id="rect64-5-8-9"
       transform="scale(-1)" />
  </g>
</svg>
