<?xml version="1.0" encoding="UTF-8" standalone="no"?>
<svg
   viewBox="0 0 20 20"
   id="svg6"
   version="1.1"
   sodipodi:docname="media-seek-forward.svg"
   width="20"
   height="20"
   inkscape:version="1.4.2 (unknown)"
   xmlns:inkscape="http://www.inkscape.org/namespaces/inkscape"
   xmlns:sodipodi="http://sodipodi.sourceforge.net/DTD/sodipodi-0.dtd"
   xmlns="http://www.w3.org/2000/svg"
   xmlns:svg="http://www.w3.org/2000/svg">
  <defs
     id="defs1" />
  <sodipodi:namedview
     id="namedview1"
     pagecolor="#ffffff"
     bordercolor="#999999"
     borderopacity="1"
     inkscape:showpageshadow="2"
     inkscape:pageopacity="0"
     inkscape:pagecheckerboard="0"
     inkscape:deskcolor="#d1d1d1"
     inkscape:zoom="12.245804"
     inkscape:cx="9.8401052"
     inkscape:cy="16.372955"
     inkscape:window-width="1920"
     inkscape:window-height="996"
     inkscape:window-x="0"
     inkscape:window-y="0"
     inkscape:window-maximized="1"
     inkscape:current-layer="svg6"
     showgrid="true">
    <inkscape:grid
       id="grid2"
       units="px"
       originx="-1"
       originy="-27"
       spacingx="1"
       spacingy="1"
       empcolor="#0099e5"
       empopacity="0.30196078"
       color="#0099e5"
       opacity="0.14902"
       empspacing="5"
       dotted="false"
       gridanglex="30"
       gridanglez="30"
       visible="true" />
  </sodipodi:namedview>
  <style
     type="text/css"
     id="current-color-scheme">.ColorScheme-Text { color: #fcfcfc; }
</style>
  <g
     transform="translate(-23,6)"
     id="22-22-media-seek-forward"
     style="fill:#d3dae3;fill-opacity:1">
    <rect
       id="rect32"
       y="0"
       x="22"
       height="22"
       width="22"
       style="opacity:0.00100002;fill:#d3dae3;fill-opacity:1" />
  </g>
  <g
     id="media-seek-forward">
    <path
       id="Move-s-5-1-8-2"
       class="st1"
       d="M 9.067843,10.870797 3.611964,14.2745 5.276996,14.83022 10.582218,11.501906 C 11.597394,10.698417 11.923923,10.62207 12,9.810249 11.94398,9.225996 11.459111,8.889224 10.395683,8.145314 L 6.262957,5.479562 6.214267,6.9347 8.893407,8.603959 c 2.211544,1.532279 2.34247,0.914284 0.174436,2.266838 z M 5.276996,14.83022 v 0 L 3.611964,14.2745 3.588784,15.896224 Z"
       sodipodi:nodetypes="sccccccccsccssc"
       style="fill:#eff0f1;fill-opacity:1;stroke-width:0.484599" />
    <path
       id="Move-7-26-4-7"
       class="st0"
       d="m 2,12.276827 v 0 0 0 0 -5.228394 0 V 3.5 l 6.760981,4.532102 c 3.012272,2.019222 2.891413,1.135483 -0.103091,3.70272 L 2,16.5 Z"
       sodipodi:nodetypes="ccccccccsccc"
       style="fill:#cdd8e5;fill-opacity:0.403922;stroke-width:0.537423" />
    <path
       id="Move-s-5-1-8-2-0"
       class="st1"
       d="m 15.067843,10.870806 -5.455879,3.403703 1.665032,0.55572 5.305222,-3.328314 C 17.597394,10.698426 17.923923,10.622079 18,9.810258 17.94398,9.226005 17.459111,8.889233 16.395683,8.145323 l -4.132726,-2.665752 -0.04869,1.455138 2.67914,1.669259 c 2.211544,1.532279 2.34247,0.914284 0.174436,2.266838 z m -3.790847,3.959423 v 0 l -1.665032,-0.55572 -0.02318,1.621724 z"
       sodipodi:nodetypes="sccccccccsccssc"
       style="fill:#eff0f1;fill-opacity:1;stroke-width:0.484599" />
    <path
       id="Move-7-26-4-7-4"
       class="st0"
       d="m 8,12.276836 v 0 0 0 0 -5.228394 0 -3.548433 l 6.760981,4.532102 c 3.012272,2.019222 2.891413,1.135483 -0.103091,3.70272 L 8,16.500009 Z"
       sodipodi:nodetypes="ccccccccsccc"
       style="fill:#cdd8e5;fill-opacity:0.403922;stroke-width:0.537423" />
  </g>
</svg>
