<?xml version="1.0" encoding="UTF-8" standalone="no"?>
<svg
   width="32"
   height="32"
   version="1.1"
   id="svg1"
   sodipodi:docname="system-user-prompt.svg"
   inkscape:version="1.3.2 (091e20ef0f, 2023-11-25)"
   xmlns:inkscape="http://www.inkscape.org/namespaces/inkscape"
   xmlns:sodipodi="http://sodipodi.sourceforge.net/DTD/sodipodi-0.dtd"
   xmlns="http://www.w3.org/2000/svg"
   xmlns:svg="http://www.w3.org/2000/svg">
  <defs
     id="defs1" />
  <sodipodi:namedview
     id="namedview1"
     pagecolor="#ffffff"
     bordercolor="#999999"
     borderopacity="1"
     inkscape:showpageshadow="2"
     inkscape:pageopacity="0"
     inkscape:pagecheckerboard="0"
     inkscape:deskcolor="#d1d1d1"
     inkscape:zoom="5.953125"
     inkscape:cx="16.461942"
     inkscape:cy="29.396325"
     inkscape:window-width="1920"
     inkscape:window-height="996"
     inkscape:window-x="0"
     inkscape:window-y="0"
     inkscape:window-maximized="1"
     inkscape:current-layer="svg1" />
  <style
     type="text/css"
     id="current-color-scheme">.ColorScheme-Text { color: #fcfcfc; } </style>
  <g
     id="system-user-prompt">
    <path
       style="fill:none"
       d="M 0,0 V 32 H 32 V 0 Z"
       id="path44-5" />
    <path
       id="Battery-7"
       class="st0"
       d="m 28.132657,8.6245364 0.862631,0.4351948 -0.08682,4.6892848 0.01678,-0.04893 c 0,0.624535 -0.99341,1.397406 -1.859523,1.397406 L 8.02358,15.042501 C 6.205914,15.040901 3.833954,14.612174 3.829002,14.08965 l -0.051,-5.381835 3.209401,1.753e-4 z"
       style="fill:#cdd8e5;fill-opacity:0.403922;stroke-width:0.295323;enable-background:new"
       sodipodi:nodetypes="ccccccsccc" />
    <path
       id="Battery-s"
       class="st1"
       d="m 28.991822,10.181524 -0.0086,0.01718 0.0086,-0.0187 -0.01986,2.717326 -0.0081,0.823488 c -0.0057,0.581947 -0.314748,1.371742 -1.742904,1.370012 l -1.727006,-0.02887 0.0052,-0.724027 1.753806,1.65e-4 c 0.476053,6.99e-4 0.997,-0.02786 0.997,-0.901886 v -2.597424 -0.0076 L 28.988,11.203463 H 28.9846 L 28.9881,11.20334 28.25,10.83197 V 9.6434168 C 28.26675,8.8411365 28.075009,8.7128982 27.406,8.7146831 l -20.05998,4.1e-6 V 8 L 27.453,8.009284 c 1.428156,0.00223 1.549129,0.7699221 1.546988,1.061243 z M 3.8,8.6983833 v 0.016482 H 3 l 3e-6,4.6216937 c 1e-6,0.775962 0.547779,1.70037 2.451988,1.702554 l 18.310932,0.02094 0.0052,-0.70541 L 5.457,14.333723 C 4.468826,14.331414 3.815204,13.900451 3.8,13.340392 Z"
       style="fill:#eff0f1;fill-opacity:1;stroke-width:0.276263"
       sodipodi:nodetypes="ccccsccccscccccccccccsccccssccccc" />
    <path
       id="Battery-7-1"
       class="st0"
       d="m 3.867608,23.385663 -0.863026,-0.434481 0.08256,-4.689346 -0.01674,0.04891 c -5.67e-4,-0.624542 0.992141,-1.398232 1.858253,-1.398958 l 19.042187,0.03913 c 1.817667,1.12e-4 4.20043,0.427571 4.196158,0.95011 l -0.044,5.381869 -3.110226,0.0017 z"
       style="fill:#cdd8e5;fill-opacity:0.403922;stroke-width:0.295323;enable-background:new"
       sodipodi:nodetypes="ccccccsccc" />
    <path
       id="Battery-s-5"
       class="st1"
       d="m 3.007029,21.829381 0.0086,-0.01718 -0.0086,0.01871 0.01739,-2.71734 0.0074,-0.823497 c 0.0052,-0.581951 0.313502,-1.372007 1.741659,-1.371466 l 1.727032,0.02744 -0.0045,0.724029 -1.753805,0.0014 c -0.476054,-3.06e-4 -0.996974,0.02867 -0.996181,0.90272 l 0.0024,2.597423 7e-6,0.0076 -0.73838,-0.371345 0.0034,-3e-6 -0.0035,1.27e-4 0.738437,0.370754 0.0011,1.188554 c -0.01602,0.802294 0.175836,0.930375 0.844844,0.92803 l 20.059971,-0.01675 6.49e-4,0.714688 L 4.547972,24 C 3.119815,23.999066 2.998145,23.23146 3.000021,22.940139 Z m 25.193158,1.462142 -1.5e-5,-0.0165 0.764007,-6.37e-4 0.03171,-4.717541 c 0.0052,-0.775954 -0.549236,-1.604098 -2.453446,-1.604684 l -18.310943,-0.0059 -0.0046,0.705408 18.311134,0.0059 c 0.988175,0.0016 1.642101,0.336079 1.657814,0.896125 z"
       style="fill:#eff0f1;fill-opacity:1;stroke-width:0.276263"
       sodipodi:nodetypes="ccccsccccscccccccccccsccccssccccc" />
    <path
       id="Other-4"
       class="st0"
       d="m 19.142843,11.353913 c 0,-0.843273 0.707157,-1.533217 1.571419,-1.533217 0.864296,0 1.571458,0.689944 1.571458,1.533217 0,0.843272 -0.707162,1.53321 -1.571458,1.53321 -0.864262,0 -1.571419,-0.689938 -1.571419,-1.53321 z m 6.285711,-1.533217 c -0.864274,0 -1.571427,0.689944 -1.571427,1.533217 0,0.843272 0.707153,1.53321 1.571427,1.53321 C 26.29284,12.887123 27,12.197185 27,11.353913 27,10.51064 26.29284,9.820696 25.428554,9.820696 Z"
       style="fill:#eff0f1;fill-opacity:1;stroke-width:0.194029" />
    <path
       class="st1"
       d="m 17.571427,11.353913 c 0,0.843272 -0.707173,1.53321 -1.571467,1.53321 -0.86428,0 -1.57142,-0.689938 -1.57142,-1.53321 0,-0.843273 0.70714,-1.533217 1.57142,-1.533217 0.864294,0 1.571467,0.689944 1.571467,1.533217 z m -0.785743,0 c 0,0.421633 -0.353564,0.766608 -0.785724,0.766608 -0.432131,0 -0.785708,-0.344975 -0.785708,-0.766608 0,-0.421639 0.353577,-0.766611 0.785708,-0.766611 0.43216,0 0.785724,0.344972 0.785724,0.766611 z m 9.428596,0 v 0.766608 c 0,0.421638 -0.353563,0.766602 -0.785726,0.766602 v 0.766614 C 26.29284,13.653737 27,12.963789 27,12.120521 v -0.766608 z"
       id="path5-8"
       style="fill:#eff0f1;fill-opacity:1;stroke-width:0.194029" />
    <path
       id="Other-4-9"
       class="st0"
       d="m 9.814303,20.265739 c 0,-0.843266 0.707157,-1.533215 1.571419,-1.533215 0.864296,0 1.571458,0.689949 1.571458,1.533215 0,0.843269 -0.707162,1.533218 -1.571458,1.533218 -0.864262,0 -1.571419,-0.689949 -1.571419,-1.533218 z m 6.285711,-1.533215 c -0.864274,0 -1.571427,0.689949 -1.571427,1.533215 0,0.843269 0.707153,1.533218 1.571427,1.533218 0.864286,0 1.571446,-0.689949 1.571446,-1.533218 0,-0.843266 -0.70716,-1.533215 -1.571446,-1.533215 z"
       style="fill:#eff0f1;fill-opacity:1;stroke-width:0.194029" />
    <path
       class="st1"
       d="m 8.242887,20.265739 c 0,0.843269 -0.707173,1.533218 -1.571467,1.533218 -0.86428,0 -1.57142,-0.689949 -1.57142,-1.533218 0,-0.843266 0.70714,-1.533215 1.57142,-1.533215 0.864294,0 1.571467,0.689949 1.571467,1.533215 z m -0.785743,0 c 0,0.421632 -0.353564,0.766609 -0.785724,0.766609 -0.432131,0 -0.785708,-0.344977 -0.785708,-0.766609 0,-0.42164 0.353577,-0.766612 0.785708,-0.766612 0.43216,0 0.785724,0.344972 0.785724,0.766612 z m 9.428596,0 v 0.766609 c 0,0.421637 -0.353563,0.766609 -0.785726,0.766609 v 0.766605 c 0.864286,0 1.571446,-0.689949 1.571446,-1.533214 v -0.766609 z"
       id="path5-8-4"
       style="fill:#eff0f1;fill-opacity:1;stroke-width:0.194029" />
  </g>
</svg>
