<?xml version="1.0" encoding="UTF-8" standalone="no"?>
<svg
   viewBox="0 0 32 32"
   version="1.1"
   id="svg1"
   sodipodi:docname="system-suspend.svg"
   width="32"
   height="32"
   inkscape:version="1.3.2 (091e20ef0f, 2023-11-25)"
   xmlns:inkscape="http://www.inkscape.org/namespaces/inkscape"
   xmlns:sodipodi="http://sodipodi.sourceforge.net/DTD/sodipodi-0.dtd"
   xmlns="http://www.w3.org/2000/svg"
   xmlns:svg="http://www.w3.org/2000/svg">
  <defs
     id="defs1" />
  <sodipodi:namedview
     id="namedview1"
     pagecolor="#ffffff"
     bordercolor="#999999"
     borderopacity="1"
     inkscape:showpageshadow="2"
     inkscape:pageopacity="0"
     inkscape:pagecheckerboard="0"
     inkscape:deskcolor="#d1d1d1"
     inkscape:zoom="12.245804"
     inkscape:cx="16.168804"
     inkscape:cy="9.7176143"
     inkscape:window-width="1920"
     inkscape:window-height="996"
     inkscape:window-x="0"
     inkscape:window-y="0"
     inkscape:window-maximized="1"
     inkscape:current-layer="svg1" />
  <style
     type="text/css"
     id="current-color-scheme">.ColorScheme-Text {color:#fcfcfc;}</style>
  <g
     id="system-suspend">
    <circle
       style="opacity:0;fill:#000000;fill-opacity:1;stroke-width:1.06667"
       id="circle949"
       r="16"
       cy="-1.2142934"
       cx="22.59481"
       transform="rotate(48.076238)" />
    <path
       id="Zoom"
       class="st0"
       d="m 19.191486,26.953324 v 0 c 1.86016,-0.433577 3.610191,-1.337708 5.146567,-2.684631 C 29.48312,19.758064 29.905874,12.078215 25.285617,7.0552342 20.66537,2.0322507 12.798853,1.6195204 7.6537964,6.130145 2.5087305,10.640774 2.0859665,18.32062 6.7062233,23.343602 9.4655443,26.34344 13.40465,27.678859 17.26716,27.317137 v 0 0 0 z M 9.5645956,20.837703 C 6.3881651,17.384402 6.6833732,12.021744 10.220599,8.920691 13.757845,5.8196368 19.250824,6.1078356 22.427254,9.5611342 25.603675,13.014436 25.308477,18.377092 21.771241,21.478145 18.234005,24.579196 12.741027,24.291 9.5645956,20.837703 Z"
       sodipodi:nodetypes="ccssssccccccsssss"
       style="fill:#cdd8e5;fill-opacity:0.403922;stroke-width:0.474482" />
    <path
       id="Zoom-s"
       class="st1"
       d="m 16.442477,10.063618 c -1.771017,-0.09246 -3.546398,0.511721 -4.87425,1.670248 l 1.289087,1.39473 c 1.973845,-1.722134 5.039048,-1.562089 6.811557,0.355666 l 1.43552,-1.252464 c -1.192413,-1.290124 -2.890928,-2.075706 -4.661914,-2.16818 z m 12.052303,7.416724 0.0026,-0.0032 0.0021,-0.0014 -0.01609,-0.0053 0.01141,0.0035 0.0052,-0.0151 z"
       sodipodi:nodetypes="ccccccccccccc"
       style="fill:#eff0f1;fill-opacity:1;stroke-width:0.475441" />
    <path
       d="M 17.966394,19.74572 16.21467,19.7174 18.674418,16.427722 c 0.210481,-0.284626 0.260081,-0.679261 0.128695,-1.018238 -0.135559,-0.339039 -0.427441,-0.558543 -0.752978,-0.563811 l -3.533505,-0.05706 c -0.466863,-0.0078 -0.851112,0.41584 -0.860225,0.947829 -0.01008,0.531992 0.360473,0.967538 0.827315,0.975084 l 1.751766,0.02832 -2.459759,3.289693 c -0.210501,0.284634 -0.260081,0.679269 -0.128715,1.018208 0.135578,0.339061 0.42744,0.558552 0.752988,0.563814 l 3.533486,0.05706 c 0.466881,0.0077 0.851141,-0.415853 0.860244,-0.947794 0.01008,-0.531984 -0.364778,-0.967645 -0.827346,-0.975112 z"
       id="path4-3-3-4"
       style="fill:#eff0f1;fill-opacity:1;stroke-width:0.045729" />
    <path
       id="Power-s-5-2-4"
       class="st1"
       d="m 28.303186,17.457798 v 3.69e-4 l -1.710117,-3.69e-4 v 0 c 0,5.482549 -5.714677,9.893317 -11.40086,9.893317 V 29 c 6.62674,0 13.110977,-5.152771 13.110977,-11.542202 z"
       style="fill:#eff0f1;fill-opacity:1;stroke-width:0.419809"
       sodipodi:nodetypes="ccccccc" />
  </g>
</svg>
