<?xml version="1.0" encoding="UTF-8" standalone="no"?>
<svg
   viewBox="0 0 32 32"
   version="1.1"
   id="svg1"
   sodipodi:docname="system-shutdown-update.svg"
   width="32"
   height="32"
   inkscape:version="1.3.2 (091e20ef0f, 2023-11-25)"
   xmlns:inkscape="http://www.inkscape.org/namespaces/inkscape"
   xmlns:sodipodi="http://sodipodi.sourceforge.net/DTD/sodipodi-0.dtd"
   xmlns="http://www.w3.org/2000/svg"
   xmlns:svg="http://www.w3.org/2000/svg">
  <sodipodi:namedview
     id="namedview1"
     pagecolor="#ffffff"
     bordercolor="#999999"
     borderopacity="1"
     inkscape:showpageshadow="2"
     inkscape:pageopacity="0"
     inkscape:pagecheckerboard="0"
     inkscape:deskcolor="#d1d1d1"
     inkscape:zoom="12.245804"
     inkscape:cx="16.413785"
     inkscape:cy="29.397825"
     inkscape:window-width="1920"
     inkscape:window-height="1004"
     inkscape:window-x="0"
     inkscape:window-y="0"
     inkscape:window-maximized="1"
     inkscape:current-layer="svg1"
     showgrid="false">
    <inkscape:grid
       id="grid1"
       units="px"
       originx="8"
       originy="-121.00001"
       spacingx="1"
       spacingy="1"
       empcolor="#0099e5"
       empopacity="0.30196078"
       color="#0099e5"
       opacity="0.14902"
       empspacing="5"
       dotted="false"
       gridanglex="30"
       gridanglez="30"
       visible="false" />
  </sodipodi:namedview>
  <defs
     id="defs3051">
    <style
       type="text/css"
       id="current-color-scheme">.ColorScheme-Text {color:#fcfcfc;}</style>
  </defs>
  <g
     id="system-shutdown"
     transform="translate(47.000003)">
    <path
       style="color:#000000;overflow:visible;opacity:0;fill:none;fill-opacity:1;stroke-width:1.06667"
       id="path945-9"
       overflow="visible"
       d="m -31.000003,7.4314998e-7 c -8.82859,0 -16,7.17140995685002 -16,16.00000025685002 0,8.828587 7.17141,16 16,16 8.82859,0 16,-7.171413 16,-16 0,-8.8285903 -7.17141,-16.00000025685002 -16,-16.00000025685002 z"
       inkscape:connector-curvature="0" />
    <path
       id="Power"
       class="st0"
       d="m -29.248242,11.937501 c 0,0.89375 -0.78735,1.625 -1.7497,1.625 h -1.74969 V 3.8125007 h 3.49939 z m 3.14939,-1.665627 c 1.79345,1.340627 2.9745,3.412497 2.9745,5.728127 0,4.02187 -3.54309,7.3125 -7.87359,7.3125 -4.33054,0 -7.873689,-3.29063 -7.873689,-7.3125 0,-2.31563 1.18106,-4.3875 2.974499,-5.728127 l -2.712039,-3.1687483 c -1.9684,1.4625 -3.455675,3.4937453 -4.155545,5.7281253 -0.699895,2.275 -0.65615,4.67188 0.2187,6.90625 0.831125,2.23437 2.405845,4.14375 4.461745,5.525 2.055929,1.38125 4.549239,2.1125 7.086329,2.1125 2.53705,0 5.0304,-0.73125 7.08629,-2.1125 2.0559,-1.38125 3.63065,-3.29063 4.46176,-5.525 0.83103,-2.23437 0.91859,-4.63125 0.17499,-6.90625 -0.74365,-2.274999 -2.1434,-4.2656253 -4.15564,-5.7281253 z"
       style="fill:#cdd8e5;fill-opacity:0.403922;stroke-width:0.421554" />
    <path
       id="Power-s"
       class="st1"
       d="m -31.872792,11.937501 c 0,0.44687 0.39365,0.8125 0.87485,0.8125 v 1.625 c -1.4435,0 -2.62454,-1.09687 -2.62454,-2.4375 V 5.4375007 c 0,-1.340625 1.18104,-2.4375 2.62454,-2.4375 1.44351,0 2.62455,1.096875 2.62455,2.4375 v 4.0625 h -1.74969 v -4.0625 c 0,-0.446875 -0.39371,-0.8125 -0.87486,-0.8125 -0.4812,0 -0.87485,0.365625 -0.87485,0.8125 z m 13.12279,5.6875 v -1.625 h -1.74969 v 1.625 c 0,5.40313 -4.68054,9.75 -10.49825,9.75 v 1.625 c 6.78009,0 12.24794,-5.07813 12.24794,-11.375 z"
       style="fill:#eff0f1;fill-opacity:1;stroke-width:0.421554" />
  </g>
  <ellipse
     style="fill:#eff0f1;fill-opacity:1;fill-rule:evenodd;stroke:none;stroke-width:0.0180001;stroke-opacity:1"
     id="path32-7"
     cx="8.0000267"
     cy="22"
     rx="5.0000272"
     ry="5" />
  <path
     d="m 9.1668961,25.999999 c 0.1612721,0 0.2916357,-0.132737 0.2916357,-0.296293 v -3.851848 h 1.7495302 c 0.258686,0 0.389926,-0.319112 0.206189,-0.505786 L 8.2062401,18.086526 c -0.05454,-0.05537 -0.12861,-0.08652 -0.206187,-0.08652 -0.07758,0 -0.151363,0.03109 -0.206191,0.08682 l -3.208012,3.259552 c -0.182859,0.185484 -0.05454,0.505484 0.206188,0.505484 h 1.750121 v 3.851849 c 0,0.163854 0.130944,0.296292 0.291632,0.296292 z m -1.166843,-7.285027 z"
     id="path4-0"
     style="fill:#8b96a7;fill-opacity:1;stroke-width:0.999992"
     sodipodi:nodetypes="sscsccsccscsssccccccc" />
</svg>
