<?xml version="1.0" encoding="UTF-8" standalone="no"?>
<svg
   viewBox="0 0 32 32"
   version="1.1"
   id="svg1"
   sodipodi:docname="system-log-out-rtl.svg"
   width="32"
   height="32"
   inkscape:version="1.3.2 (091e20ef0f, 2023-11-25)"
   xmlns:inkscape="http://www.inkscape.org/namespaces/inkscape"
   xmlns:sodipodi="http://sodipodi.sourceforge.net/DTD/sodipodi-0.dtd"
   xmlns="http://www.w3.org/2000/svg"
   xmlns:svg="http://www.w3.org/2000/svg">
  <sodipodi:namedview
     id="namedview1"
     pagecolor="#ffffff"
     bordercolor="#999999"
     borderopacity="1"
     inkscape:showpageshadow="2"
     inkscape:pageopacity="0"
     inkscape:pagecheckerboard="0"
     inkscape:deskcolor="#d1d1d1"
     inkscape:zoom="8.6590909"
     inkscape:cx="16.052493"
     inkscape:cy="6.8136483"
     inkscape:window-width="1920"
     inkscape:window-height="996"
     inkscape:window-x="0"
     inkscape:window-y="0"
     inkscape:window-maximized="1"
     inkscape:current-layer="svg1" />
  <defs
     id="defs3051">
    <style
       type="text/css"
       id="current-color-scheme">.ColorScheme-Text {color:#fcfcfc;}</style>
  </defs>
  <g
     id="system-log-out"
     transform="rotate(180,39.999999,16)">
    <path
       style="color:#000000;overflow:visible;opacity:0;fill:none;fill-opacity:1;stroke-width:1.06667"
       id="path951-2"
       overflow="visible"
       d="m 63.999997,2.0864343e-7 c -8.82763,0 -16,7.17236999135657 -16,15.99999979135657 0,8.82763 7.17237,16 16,16 8.82763,0 16,-7.17237 16,-16 0,-8.8276298 -7.17237,-15.99999979135657 -16,-15.99999979135657 z"
       inkscape:connector-curvature="0" />
    <path
       id="LogIn"
       class="st0"
       d="m 55.071387,9.5000002 6.25001,5.6874998 -6.25001,5.6875 v -3.25 h -3.57139 V 12.75 h 3.57139 z M 73.776737,25.18126 c 1.65186,-0.65002 2.72326,-2.11252 2.72326,-3.73752 V 4.6 l -1.78575,0.9 V 5.4375 L 63.999997,9.906263 V 29 Z"
       style="fill:#cdd8e5;fill-opacity:0.403922;stroke-width:0.425857"
       sodipodi:nodetypes="cccccccccscccccc" />
    <path
       id="LogIn-s"
       class="st1"
       d="M 56.857117,24.125 V 19.25 l 1.78573,-1.625 v 6.5 z M 76.499997,4.6250002 V 22.6625 c 0,1.95 -1.29466,3.69687 -3.25891,4.46874 L 68.464237,29 v -1.74688 l 4.10715,-1.58438 c 1.29472,-0.52812 2.14286,-1.70624 2.14286,-3.00624 V 5.4375002 Z m -19.64288,1.625 c 0,-1.7875 1.60713,-3.25 3.57148,-3.25 h 7.1428 v 1.625 h -7.1428 c -0.9822,0 -1.78575,0.731245 -1.78575,1.625 V 10.71876 l -1.78573,-1.6250168 z"
       style="clip-rule:evenodd;fill:#eff0f1;fill-opacity:1;fill-rule:evenodd;stroke-width:0.425857" />
  </g>
</svg>
