<?xml version="1.0" encoding="UTF-8" standalone="no"?>
<svg
   width="32"
   height="32"
   version="1.1"
   id="svg1"
   sodipodi:docname="system-user-list.svg"
   inkscape:version="1.3.2 (091e20ef0f, 2023-11-25)"
   xmlns:inkscape="http://www.inkscape.org/namespaces/inkscape"
   xmlns:sodipodi="http://sodipodi.sourceforge.net/DTD/sodipodi-0.dtd"
   xmlns="http://www.w3.org/2000/svg"
   xmlns:svg="http://www.w3.org/2000/svg">
  <defs
     id="defs1">
    <linearGradient
       id="a-5"
       x1="16"
       x2="16"
       y1="1"
       y2="31"
       gradientUnits="userSpaceOnUse">
      <stop
         stop-color="#f4282c"
         offset="0"
         id="stop1009" />
      <stop
         stop-color="#fac136"
         offset="1"
         id="stop1011" />
    </linearGradient>
  </defs>
  <sodipodi:namedview
     id="namedview1"
     pagecolor="#ffffff"
     bordercolor="#999999"
     borderopacity="1"
     inkscape:showpageshadow="2"
     inkscape:pageopacity="0"
     inkscape:pagecheckerboard="0"
     inkscape:deskcolor="#d1d1d1"
     inkscape:zoom="5.953125"
     inkscape:cx="16.125984"
     inkscape:cy="16.293963"
     inkscape:window-width="1920"
     inkscape:window-height="996"
     inkscape:window-x="0"
     inkscape:window-y="0"
     inkscape:window-maximized="1"
     inkscape:current-layer="svg1" />
  <style
     type="text/css"
     id="current-color-scheme">
        .ColorScheme-Text {
            color:#fcfcfc;
        }
    </style>
  <g
     id="system-user-list">
    <path
       style="fill:none"
       d="M 0,0 V 32 H 32 V 0 Z"
       id="path84-3" />
    <path
       id="Friends-0"
       class="st0"
       d="M 14.35,9.14286 C 14.35,6.3142865 16.664288,4 19.492866,4 c 2.828557,0 5.142845,2.3142865 5.142845,5.14286 0,2.828563 -2.314288,5.142851 -5.142845,5.142851 C 16.664288,14.285711 14.35,11.971423 14.35,9.14286 Z M 15.207134,16 c -3.3,0 -5.999996,2.7 -5.999996,6 v 4.285711 H 26.35 c 1.885711,0 3.428577,-1.542845 3.428577,-3.428577 V 22 c 0,-3.3 -2.7,-6 -6,-6 z"
       style="fill:#cdd8e5;fill-opacity:0.403922;stroke-width:0.428577" />
    <path
       id="Friends-s-4"
       class="st1"
       d="m 4.0642866,10 c 0,-2.3571423 1.9285711,-4.2857135 4.2857134,-4.2857135 2.357134,0 4.285711,1.9285712 4.285711,4.2857135 0,2.357134 -1.928577,4.285711 -4.285711,4.285711 C 5.9928577,14.285711 4.0642866,12.357134 4.0642866,10 Z M 8.35,7.4285711 c -1.4142866,0 -2.5714289,1.1571423 -2.5714289,2.5714289 0,1.414288 1.1571423,2.571423 2.5714289,2.571423 1.414289,0 2.571423,-1.157135 2.571423,-2.571423 0,-1.4142866 -1.157134,-2.5714289 -2.571423,-2.5714289 z m 2.571423,10.2857169 c 0.04289,0 0.04289,0 0.08577,0 0.514276,-0.471422 1.07143,-0.9 1.757142,-1.2 C 12.207137,16.171423 11.607137,16 10.921426,16 H 5.7785711 C 3.8928577,16 2.35,17.542866 2.35,19.428577 v 3.428557 h 1.7142866 v -3.428557 c 0,-0.942866 0.7714268,-1.714289 1.7142845,-1.714289 z m 0,8.571423 V 28 h 13.714288 c 2.828577,0 5.142866,-2.314289 5.142866,-5.142866 V 22 h -1.714289 v 0.857134 c 0,1.885732 -1.542865,3.428577 -3.428577,3.428577 z"
       style="fill:#eff0f1;fill-opacity:1;stroke-width:0.428577" />
  </g>
</svg>
