<?xml version="1.0" encoding="UTF-8" standalone="no"?>
<svg
   viewBox="0 0 32 32"
   version="1.1"
   id="svg1"
   sodipodi:docname="system-log-out.svg"
   width="32"
   height="32"
   inkscape:version="1.3.2 (091e20ef0f, 2023-11-25)"
   xmlns:inkscape="http://www.inkscape.org/namespaces/inkscape"
   xmlns:sodipodi="http://sodipodi.sourceforge.net/DTD/sodipodi-0.dtd"
   xmlns="http://www.w3.org/2000/svg"
   xmlns:svg="http://www.w3.org/2000/svg">
  <sodipodi:namedview
     id="namedview1"
     pagecolor="#ffffff"
     bordercolor="#999999"
     borderopacity="1"
     inkscape:showpageshadow="2"
     inkscape:pageopacity="0"
     inkscape:pagecheckerboard="0"
     inkscape:deskcolor="#d1d1d1"
     inkscape:zoom="8.6590909"
     inkscape:cx="16.052493"
     inkscape:cy="6.8136483"
     inkscape:window-width="1920"
     inkscape:window-height="996"
     inkscape:window-x="0"
     inkscape:window-y="0"
     inkscape:window-maximized="1"
     inkscape:current-layer="svg1"
     showgrid="true">
    <inkscape:grid
       id="grid1"
       units="px"
       originx="0"
       originy="0"
       spacingx="1"
       spacingy="1"
       empcolor="#0099e5"
       empopacity="0.30196078"
       color="#0099e5"
       opacity="0.14902"
       empspacing="5"
       dotted="false"
       gridanglex="30"
       gridanglez="30"
       visible="true" />
  </sodipodi:namedview>
  <defs
     id="defs3051">
    <style
       type="text/css"
       id="current-color-scheme">.ColorScheme-Text {color:#fcfcfc;}</style>
  </defs>
  <path
     style="color:#000000;overflow:visible;opacity:0;fill:none;fill-opacity:1;stroke-width:1.06667"
     id="path951-2"
     overflow="visible"
     d="M 16,2.0864343e-7 C 7.17237,2.0864343e-7 0,7.1723702 0,16 0,24.82763 7.17237,32 16,32 24.82763,32 32,24.82763 32,16 32,7.1723702 24.82763,2.0864343e-7 16,2.0864343e-7 Z"
     inkscape:connector-curvature="0" />
  <path
     id="LogIn"
     class="st0"
     d="m 6.2856794,11 5.7500076,5.25 -5.7500076,5.25 v -3 H 2 V 14 H 6.2856794 Z M 23.4946,25.47501 C 25.014316,24.874995 26,23.524995 26,22.024995 V 6.4769232 L 24.357113,7.307692 V 7.2499998 L 14.5,11.375012 V 29 Z"
     style="fill:#cdd8e5;fill-opacity:0.403922;stroke-width:0.425858"
     sodipodi:nodetypes="cccccccccscccccc" />
  <path
     id="LogIn-s"
     class="st1"
     d="M 7.9285514,24.5 V 20 L 9.571425,18.5 v 6 z M 26,6.5 v 16.65 c 0,1.8 -1.191081,3.412495 -2.998194,4.124994 L 18.607104,29 v -1.612502 l 3.778574,-1.462504 C 23.576826,25.437498 24.357113,24.35 24.357113,23.15 V 7.25 Z M 7.9285514,8 c 0,-1.65 1.4785576,-3 3.2857566,-3 h 6.571384 V 6.5 H 11.214308 C 10.310691,6.5 9.571425,7.1749953 9.571425,8 v 4.125009 L 7.9285514,10.624994 Z"
     style="clip-rule:evenodd;fill:#eff0f1;fill-opacity:1;fill-rule:evenodd;stroke-width:0.425858" />
</svg>
