<?xml version="1.0" encoding="UTF-8" standalone="no"?>
<svg
   viewBox="0 0 32 32"
   version="1.1"
   id="svg1"
   sodipodi:docname="system-users.svg"
   width="32"
   height="32"
   inkscape:version="1.3.2 (091e20ef0f, 2023-11-25)"
   xmlns:inkscape="http://www.inkscape.org/namespaces/inkscape"
   xmlns:sodipodi="http://sodipodi.sourceforge.net/DTD/sodipodi-0.dtd"
   xmlns="http://www.w3.org/2000/svg"
   xmlns:svg="http://www.w3.org/2000/svg">
  <sodipodi:namedview
     id="namedview1"
     pagecolor="#ffffff"
     bordercolor="#999999"
     borderopacity="1"
     inkscape:showpageshadow="2"
     inkscape:pageopacity="0"
     inkscape:pagecheckerboard="0"
     inkscape:deskcolor="#d1d1d1"
     inkscape:zoom="8.4189901"
     inkscape:cx="15.67884"
     inkscape:cy="25.893842"
     inkscape:window-width="1920"
     inkscape:window-height="996"
     inkscape:window-x="0"
     inkscape:window-y="0"
     inkscape:window-maximized="1"
     inkscape:current-layer="svg1" />
  <defs
     id="defs3051">
    <style
       type="text/css"
       id="current-color-scheme">
      .ColorScheme-Text {
        color:#fcfcfc;
      }
      </style>
    <linearGradient
       id="a-26"
       x1="16"
       x2="16"
       y1="-1121.5"
       y2="-1091.5"
       gradientUnits="userSpaceOnUse">
      <stop
         stop-color="#70d8c3"
         offset="0"
         id="stop1173" />
      <stop
         stop-color="#66e26b"
         offset="1"
         id="stop1175" />
    </linearGradient>
  </defs>
  <g
     id="system-users-1">
    <path
       style="fill:none"
       d="M 0,0 V 32 H 32 V 0 Z"
       id="path94-9" />
    <path
       class="st0"
       d="m 16,4 c -3.3,0 -6,2.7 -6,6 0,3.3 2.7,6 6,6 3.3,0 6,-2.7 6,-6 0,-3.3 -2.7,-6 -6,-6 z m 0,10.5 c -2.475,0 -4.5,-2.025 -4.5,-4.5 0,-0.2625 0.0375,-0.4875 0.075,-0.75 h 0.2625 c 0.9,0 1.6875,-0.6 1.9125,-1.5 0.225,0.9 1.0125,1.5 1.9125,1.5 H 20.425 C 20.4625,9.5125 20.5,9.7375 20.5,10 c 0,2.475 -2.025,4.5 -4.5,4.5 z m 4.5,3 c 3.3,0 6,2.7 6,6 0,1.65 -1.35,3 -3,3 h -18 v -3 c 0,-3.3 2.7,-6 6,-6 z"
       id="path4"
       style="fill:#cdd8e5;fill-opacity:0.403922;stroke-width:0.375" />
    <path
       id="User-s"
       class="st1"
       d="m 21.9625,9.25 h -1.5 C 20.0875,7.1125 18.2125,5.5 16,5.5 c -2.2125,0 -4.0875,1.6125 -4.425,3.75 h -1.5 C 10.45,6.2875 12.9625,4 16.0375,4 c 3.075,0 5.55,2.2875 5.925,5.25 z M 25,23.5 c 0,1.65 -1.35,3 -3,3 H 7 V 28 h 15 c 2.475,0 4.5,-2.025 4.5,-4.5 z"
       style="fill:#eff0f1;fill-opacity:1;stroke-width:0.375" />
  </g>
</svg>
