<?xml version="1.0" encoding="UTF-8" standalone="no"?>
<svg
   viewBox="0 0 32 32"
   version="1.1"
   id="svg1"
   sodipodi:docname="system-suspend-hibernate.svg"
   width="32"
   height="32"
   inkscape:version="1.3.2 (091e20ef0f, 2023-11-25)"
   xmlns:inkscape="http://www.inkscape.org/namespaces/inkscape"
   xmlns:sodipodi="http://sodipodi.sourceforge.net/DTD/sodipodi-0.dtd"
   xmlns="http://www.w3.org/2000/svg"
   xmlns:svg="http://www.w3.org/2000/svg">
  <defs
     id="defs1" />
  <sodipodi:namedview
     id="namedview1"
     pagecolor="#ffffff"
     bordercolor="#999999"
     borderopacity="1"
     inkscape:showpageshadow="2"
     inkscape:pageopacity="0"
     inkscape:pagecheckerboard="0"
     inkscape:deskcolor="#d1d1d1"
     inkscape:zoom="8.6590909"
     inkscape:cx="15.821522"
     inkscape:cy="25.291339"
     inkscape:window-width="1920"
     inkscape:window-height="996"
     inkscape:window-x="0"
     inkscape:window-y="0"
     inkscape:window-maximized="1"
     inkscape:current-layer="svg1" />
  <style
     type="text/css"
     id="current-color-scheme">.ColorScheme-Text {color:#fcfcfc;}</style>
  <g
     id="system-suspend-hibernate"
     transform="translate(141)">
    <path
       id="path938-3"
       overflow="visible"
       d="M -125,2.0864343e-7 C -133.82763,2.0864343e-7 -141,7.1723702 -141,16 c 0,8.82763 7.17237,16 16,16 8.82763,0 16,-7.17237 16,-16 C -109,7.1723702 -116.17237,2.0864343e-7 -125,2.0864343e-7 Z"
       inkscape:connector-curvature="0"
       style="color:#000000;overflow:visible;opacity:0;fill:none;fill-opacity:1;stroke-width:1.06667" />
    <path
       id="Stopwatch"
       class="st0"
       d="m -125.01101,23.587628 c 4.57727,0 8.68244,-3.919431 8.68244,-8.403277 0,-4.483848 -4.10517,-8.4032815 -8.68244,-8.4032815 -4.57727,0 -8.68217,3.9194335 -8.68217,8.4032815 0,4.483846 4.1049,8.403277 8.68217,8.403277 z m 1.048,-20.5876278 -0.006,0.00683 c 2.8608,0.2547636 5.61756,1.4266774 7.80217,3.5157415 4.88939,4.7895573 4.88939,12.5343863 0,17.2729903 -4.88945,4.73857 -12.79567,4.789501 -17.68504,0.05083 -4.8898,-4.738647 -4.83778,-12.534434 -4.3e-4,-17.3239868 2.18416,-2.1400699 4.94093,-3.3119831 7.80174,-3.5157964 l 0.004,-0.00419 z"
       style="fill:#cdd8e5;fill-opacity:0.403922;stroke-width:0.514802"
       sodipodi:nodetypes="ssssscccsccccc" />
    <rect
       x="-121.23904"
       y="13.833914"
       width="3.7497463"
       height="1.0118333"
       id="rect12"
       style="fill:#eff0f1;fill-opacity:1;stroke-width:1.73553" />
    <polygon
       points="-781,583.1 -783.6,585.7 -782.7,586.5 -780.1,584 -780.1,587.6 -778.9,587.6 -778.9,584 -776.9,586 -776.9,584.3 -778,583.1 -776.9,583.1 -776.9,581.9 -778,581.9 -776.9,580.7 -776.9,579 -778.9,581 -778.9,577.4 -780.1,577.4 -780.1,581 -782.7,578.4 -783.6,579.3 -781,581.9 -784.6,581.9 -784.6,583.1 "
       id="polygon16"
       transform="matrix(0.637942,0,0,0.60250115,370.48723,-337.3641)"
       style="fill:#eff0f1;fill-opacity:1" />
    <path
       d="m -121.94048,16.484947 v -4.940522 c 0,-0.602483 -0.57425,-1.144753 -1.21218,-1.144753 -0.63793,0 -1.21204,0.482045 -1.21204,1.144753 v 4.940522 c -0.51044,0.361552 -0.82933,0.903759 -0.82933,1.506246 0,1.02426 0.89311,1.928001 2.04137,1.928001 1.08453,0 2.04148,-0.843501 2.04148,-1.928001 0,-0.602487 -0.31902,-1.144694 -0.8293,-1.506246 z m -1.24577,-5.482318 0.006,0.0032 -1.4e-4,0.01219 0.003,-0.0108 0.007,0.0045 -0.003,-0.01253 -0.008,0.01234 0.006,-0.01273 -0.002,0.0077 z"
       id="path6-6"
       style="fill:#eff0f1;fill-opacity:1;stroke-width:0.620054"
       sodipodi:nodetypes="cssscsssccccccccccc" />
    <path
       id="Power-s-5-2"
       class="st1"
       d="m -112.683,17.4578 v -0.0017 l -1.71884,0.0017 v 0 c 0,5.482551 -5.74382,9.89331 -11.45901,9.89331 V 29 c 6.66055,0 13.17785,-5.152764 13.17785,-11.5422 z"
       style="fill:#eff0f1;fill-opacity:1;stroke-width:0.420876"
       sodipodi:nodetypes="ccccccc" />
  </g>
</svg>
