<?xml version="1.0" encoding="UTF-8" standalone="no"?>
<svg
   viewBox="0 0 16 16"
   version="1.1"
   id="svg1"
   sodipodi:docname="filename-bpm-amarok.svg"
   inkscape:version="1.3.2 (091e20ef0f, 2023-11-25)"
   xmlns:inkscape="http://www.inkscape.org/namespaces/inkscape"
   xmlns:sodipodi="http://sodipodi.sourceforge.net/DTD/sodipodi-0.dtd"
   xmlns="http://www.w3.org/2000/svg"
   xmlns:svg="http://www.w3.org/2000/svg">
  <sodipodi:namedview
     id="namedview1"
     pagecolor="#8d8d8d"
     bordercolor="#999999"
     borderopacity="1"
     inkscape:showpageshadow="2"
     inkscape:pageopacity="0"
     inkscape:pagecheckerboard="0"
     inkscape:deskcolor="#7e7e7e"
     inkscape:zoom="8.5626212"
     inkscape:cx="-4.3211067"
     inkscape:cy="41.751234"
     inkscape:window-width="1920"
     inkscape:window-height="1007"
     inkscape:window-x="0"
     inkscape:window-y="0"
     inkscape:window-maximized="1"
     inkscape:current-layer="svg1" />
  <defs
     id="defs3051">
    <style
       type="text/css"
       id="current-color-scheme">
      .ColorScheme-Text {
        color:#fcfcfc;
      }
      </style>
  </defs>
  <g
     id="Dashboard_1_"
     transform="matrix(0.21428571,0,0,0.21428571,1.1428573,1.1428573)"
     style="stroke-width:4.66667">
	<path
   id="Dashboard"
   class="st0"
   d="M 58.8,44 C 59.6,41.5 60,38.8 60,36 60,20.5 47.5,8 32,8 16.5,8 4,20.5 4,36 c 0,2.8 0.4,5.5 1.2,8 H 20 c 0,-6.6 5.4,-12 12,-12 6.6,0 12,5.4 12,12 z M 64,36 c 0,6 -1.6,11.5 -4.5,16.3 L 54,56 H 7 C 2.6,50.5 0,43.6 0,36 0,18.3 14.3,4 32,4 49.7,4 64,18.3 64,36 Z"
   style="opacity:1;fill:#cdd8e5;stroke-width:4.66667;fill-opacity:0.40392157" />

	<path
   id="Dashboard-s"
   class="st1"
   d="m 22.1,14.2 c 2.2,-1 4.5,-1.6 6.8,-1.9 l 0.5,4 c -2,0.3 -3.9,0.8 -5.7,1.6 -2.2,1 -4.2,2.4 -5.9,4.1 L 15,19 c 2.1,-2 4.4,-3.7 7.1,-4.8 z m 13,-2 -0.5,4 c 1.9,0.3 3.8,0.8 5.6,1.6 2.5,1.1 4.7,2.7 6.5,4.7 L 29.6,39.6 32.4,42.4 52,22.8 v 0 c -0.6,-0.9 -1.3,-1.8 -2,-2.6 -2.3,-2.6 -5,-4.6 -8.1,-6 -2.2,-1 -4.5,-1.7 -6.8,-2 z M 9,29.1 C 8,32.4 7.7,35.8 8.2,39.2 l 4,-0.5 c -0.4,-2.8 -0.1,-5.7 0.7,-8.4 0.4,-1.5 1.1,-2.9 1.8,-4.2 l -3.5,-2 c -0.9,1.5 -1.6,3.2 -2.2,5 z m 45,-2.6 -3.1,3.1 c 0.1,0.2 0.1,0.4 0.2,0.6 0.8,2.7 1.1,5.6 0.7,8.4 l 4,0.5 C 56.2,35.7 56,32.3 55,29 54.7,28.1 54.4,27.3 54,26.5 Z M 58.8,44 c -0.3,1.1 -0.7,2.2 -1.2,3.2 -1.1,2.4 -2.4,4.7 -4.1,6.7 -1.1,1.4 -3,2.1 -5.1,2.1 H 12 v 4 h 36.5 c 3,0 6.1,-1.1 8.1,-3.6 1.9,-2.3 3.5,-4.9 4.7,-7.6 0.7,-1.6 1.2,-3.2 1.7,-4.8 0,0 -4.2,0 -4.2,0 z"
   style="fill:#eff0f1;stroke-width:4.66667;fill-opacity:1" />

</g>
</svg>
