<?xml version="1.0" encoding="UTF-8" standalone="no"?>
<svg
   viewBox="0 0 16 16"
   version="1.1"
   id="svg1"
   sodipodi:docname="window-pin.svg"
   width="16"
   height="16"
   inkscape:version="1.4.2 (unknown)"
   xmlns:inkscape="http://www.inkscape.org/namespaces/inkscape"
   xmlns:sodipodi="http://sodipodi.sourceforge.net/DTD/sodipodi-0.dtd"
   xmlns="http://www.w3.org/2000/svg"
   xmlns:svg="http://www.w3.org/2000/svg">
  <defs
     id="defs1" />
  <sodipodi:namedview
     id="namedview1"
     pagecolor="#ffffff"
     bordercolor="#999999"
     borderopacity="1"
     inkscape:showpageshadow="2"
     inkscape:pageopacity="0"
     inkscape:pagecheckerboard="0"
     inkscape:deskcolor="#d1d1d1"
     inkscape:zoom="16.882174"
     inkscape:cx="8.2039197"
     inkscape:cy="19.39916"
     inkscape:window-width="1920"
     inkscape:window-height="996"
     inkscape:window-x="0"
     inkscape:window-y="0"
     inkscape:window-maximized="1"
     inkscape:current-layer="svg1"
     showgrid="true">
    <inkscape:grid
       id="grid1"
       units="px"
       originx="0"
       originy="0"
       spacingx="1"
       spacingy="1"
       empcolor="#0099e5"
       empopacity="0.30196078"
       color="#0099e5"
       opacity="0.14902"
       empspacing="5"
       enabled="true"
       visible="true" />
  </sodipodi:namedview>
  <style
     type="text/css"
     id="current-color-scheme">
        .ColorScheme-Text {
            color:#fcfcfc;
        }
    </style>
  <g
     id="g1"
     transform="translate(0,-20)">
    <path
       id="Tack-5"
       class="st0"
       d="M 13.6,26.355 9.645,22.4 l -0.9975,0.997499 0.735,0.735 -2.975,2.975 C 5.585,26.285 3.905,26.635 3.0825,27.457499 L 5.585,29.925 l -0.98,0.98 0.49,0.49 0.98,-0.98 2.4675,2.485 c 0.8225,-0.822501 1.1725,-2.502501 0.35,-3.325 l 2.975,-2.975 0.245,0.245 c 0.28,0.28 0.7175,0.28 0.9975,0 z"
       style="fill:#cdd8e5;fill-opacity:0.403922;stroke-width:0.175" />
    <path
       id="Tack-s-3"
       class="st1"
       d="m 11.8675,25.62 1.2425,1.242499 c -0.28,0.28 -0.7175,0.28 -0.9975,0 L 11.8675,26.6 l -2.975,2.975 -0.49,-0.49 z m -6.3,4.305 2.975,2.975 C 8.7,32.742506 8.84,32.55 8.9625,32.34 L 6.075,29.435 Z M 3.59,32.9 5.62,30.87 5.13,30.38 3.1,32.41 2.4,33.6 Z"
       style="fill:#eff0f1;fill-opacity:1;stroke-width:0.175" />
  </g>
</svg>
