<?xml version="1.0" encoding="UTF-8" standalone="no"?>
<svg
   viewBox="0 0 20 20"
   version="1.1"
   id="svg2"
   sodipodi:docname="media-mount.svg"
   inkscape:version="1.4.2 (unknown)"
   width="20"
   height="20"
   xmlns:inkscape="http://www.inkscape.org/namespaces/inkscape"
   xmlns:sodipodi="http://sodipodi.sourceforge.net/DTD/sodipodi-0.dtd"
   xmlns="http://www.w3.org/2000/svg"
   xmlns:svg="http://www.w3.org/2000/svg">
  <defs
     id="defs2" />
  <sodipodi:namedview
     id="namedview2"
     pagecolor="#ffffff"
     bordercolor="#999999"
     borderopacity="1"
     inkscape:showpageshadow="2"
     inkscape:pageopacity="0"
     inkscape:pagecheckerboard="0"
     inkscape:deskcolor="#d1d1d1"
     showgrid="true"
     inkscape:zoom="24.491608"
     inkscape:cx="9.9625962"
     inkscape:cy="10.309654"
     inkscape:window-width="1920"
     inkscape:window-height="996"
     inkscape:window-x="0"
     inkscape:window-y="0"
     inkscape:window-maximized="1"
     inkscape:current-layer="svg2">
    <inkscape:grid
       id="grid1"
       units="px"
       originx="2"
       originy="-50"
       spacingx="1"
       spacingy="1"
       empcolor="#0099e5"
       empopacity="0.30196078"
       color="#0099e5"
       opacity="0.14902"
       empspacing="5"
       dotted="false"
       gridanglex="30"
       gridanglez="30"
       visible="true" />
  </sodipodi:namedview>
  <style
     type="text/css"
     id="current-color-scheme">.ColorScheme-Text { color: #fcfcfc; }
</style>
  <path
     id="Move-7-0-9"
     class="st0"
     d="m 7.374154,3.500085 v 0 0 0 0 L 13.406098,3.5 v 0 l 4.093702,6.2e-5 -5.119581,6.208051 c -2.325927,2.820391 -1.262283,2.720444 -4.272615,-0.0466 L 2.502018,3.500165 Z"
     sodipodi:nodetypes="ccccccccsccc"
     style="fill:#cdd8e5;fill-opacity:0.403922;stroke-width:0.558331" />
  <path
     id="Move-s-5-6-0"
     class="st1"
     d="M 9.17356,10.104379 5.158045,5.045707 4.544412,6.610966 8.47047,11.529682 c 0.943452,0.938977 1.036972,1.243448 1.974581,1.303699 0.672896,-0.0603 1.053405,-0.518435 1.893955,-1.523377 l 3.006948,-3.902396 -1.679267,-0.02601 -1.881364,2.529025 c -1.731041,2.089704 -1.016036,2.203895 -2.611763,0.193705 z M 4.544412,6.610966 v 0 l 0.613633,-1.565259 -1.870887,1.3e-4 z"
     sodipodi:nodetypes="sccccccccsccssc"
     style="fill:#eff0f1;fill-opacity:1;stroke-width:0.503458" />
  <rect
     style="color:#d8dee9;fill:#eff0f1;fill-opacity:1;stroke-width:1.8145"
     class="ColorScheme-Text"
     width="15"
     height="1.5"
     x="2.5"
     y="15"
     id="rect64-5-8-9" />
</svg>
