<?xml version="1.0" encoding="UTF-8" standalone="no"?>
<svg
   viewBox="0 0 22 22"
   version="1.1"
   id="svg1"
   sodipodi:docname="system-suspend-hibernate.svg"
   width="22"
   height="22"
   inkscape:version="1.3.2 (091e20ef0f, 2023-11-25)"
   xmlns:inkscape="http://www.inkscape.org/namespaces/inkscape"
   xmlns:sodipodi="http://sodipodi.sourceforge.net/DTD/sodipodi-0.dtd"
   xmlns="http://www.w3.org/2000/svg"
   xmlns:svg="http://www.w3.org/2000/svg">
  <defs
     id="defs1" />
  <sodipodi:namedview
     id="namedview1"
     pagecolor="#ffffff"
     bordercolor="#999999"
     borderopacity="1"
     inkscape:showpageshadow="2"
     inkscape:pageopacity="0"
     inkscape:pagecheckerboard="0"
     inkscape:deskcolor="#d1d1d1"
     inkscape:zoom="8.6590909"
     inkscape:cx="10.855643"
     inkscape:cy="20.440945"
     inkscape:window-width="1920"
     inkscape:window-height="996"
     inkscape:window-x="0"
     inkscape:window-y="0"
     inkscape:window-maximized="1"
     inkscape:current-layer="svg1" />
  <style
     type="text/css"
     id="current-color-scheme">.ColorScheme-Text {color:#fcfcfc;}</style>
  <g
     id="22-22-system-suspend-hibernate-2"
     transform="translate(283)">
    <path
       style="fill:none"
       d="m -283,0 v 22 h 22 V 0 Z"
       id="path49-1-0" />
    <path
       id="Stopwatch-5"
       class="st0"
       d="m -272.04325,16.836637 c 3.52098,0 6.6788,-3.014947 6.6788,-6.46406 0,-3.449113 -3.15782,-6.464062 -6.6788,-6.464062 -3.52098,0 -6.67859,3.014949 -6.67859,6.464062 0,3.449113 3.15761,6.46406 6.67859,6.46406 z M -271.2371,1 l -0.005,0.0052 c 2.20062,0.195972 4.3212,1.097444 6.00167,2.704417 3.76107,3.684274 3.76107,9.641835 0,13.286915 -3.76111,3.645054 -9.84282,3.684231 -13.60388,0.0391 -3.76138,-3.645113 -3.72136,-9.641872 -3.3e-4,-13.326144 1.68013,-1.646207 3.80072,-2.547679 6.00134,-2.704458 l 0.003,-0.0032 z"
       style="fill:#cdd8e5;fill-opacity:0.403922;stroke-width:0.396002"
       sodipodi:nodetypes="ssssscccsccccc" />
    <rect
       x="-269.14172"
       y="9.3337765"
       width="2.8844202"
       height="0.77833331"
       id="rect12-0"
       style="fill:#eff0f1;fill-opacity:1;stroke-width:1.33502" />
    <polygon
       points="-776.9,584.3 -778,583.1 -776.9,583.1 -776.9,581.9 -778,581.9 -776.9,580.7 -776.9,579 -778.9,581 -778.9,577.4 -780.1,577.4 -780.1,581 -782.7,578.4 -783.6,579.3 -781,581.9 -784.6,581.9 -784.6,583.1 -781,583.1 -783.6,585.7 -782.7,586.5 -780.1,584 -780.1,587.6 -778.9,587.6 -778.9,584 -776.9,586 "
       id="polygon16-4"
       transform="matrix(0.49072462,0,0,0.46346242,109.10924,-260.81854)"
       style="fill:#eff0f1;fill-opacity:1" />
    <path
       d="M -269.68131,11.373036 V 7.572634 c 0,-0.463448 -0.44173,-0.880579 -0.93244,-0.880579 -0.49072,0 -0.93234,0.370804 -0.93234,0.880579 v 3.800402 c -0.39265,0.278117 -0.63795,0.695199 -0.63795,1.158651 0,0.787892 0.68701,1.483077 1.57029,1.483077 0.83425,0 1.57037,-0.648847 1.57037,-1.483077 0,-0.463452 -0.2454,-0.880534 -0.63793,-1.158651 z m -0.95828,-4.217168 0.005,0.0025 -1.1e-4,0.0094 0.002,-0.0083 0.005,0.0035 -0.002,-0.0096 -0.006,0.0095 0.005,-0.0098 -0.001,0.0059 z"
       id="path6-6-8"
       style="fill:#eff0f1;fill-opacity:1;stroke-width:0.476965"
       sodipodi:nodetypes="cssscsssccccccccccc" />
    <path
       id="Power-s-5-2-7"
       class="st1"
       d="m -262.56017,12.121384 v -0.0013 l -1.32218,0.0013 v 0 c 0,4.217347 -4.41832,7.610239 -8.81462,7.610239 V 21 c 5.1235,0 10.1368,-3.963665 10.1368,-8.878616 z"
       style="fill:#eff0f1;fill-opacity:1;stroke-width:0.323751"
       sodipodi:nodetypes="ccccccc" />
  </g>
</svg>
