<?xml version="1.0" encoding="UTF-8" standalone="no"?>
<svg
   width="22"
   height="22"
   version="1.1"
   id="svg6"
   sodipodi:docname="system-user-prompt.svg"
   inkscape:version="1.3.2 (091e20ef0f, 2023-11-25)"
   xmlns:inkscape="http://www.inkscape.org/namespaces/inkscape"
   xmlns:sodipodi="http://sodipodi.sourceforge.net/DTD/sodipodi-0.dtd"
   xmlns="http://www.w3.org/2000/svg"
   xmlns:svg="http://www.w3.org/2000/svg">
  <defs
     id="defs10" />
  <sodipodi:namedview
     id="namedview8"
     pagecolor="#ffffff"
     bordercolor="#000000"
     borderopacity="0.25"
     inkscape:showpageshadow="2"
     inkscape:pageopacity="0.0"
     inkscape:pagecheckerboard="0"
     inkscape:deskcolor="#d1d1d1"
     showgrid="false"
     inkscape:zoom="16"
     inkscape:cx="9.4375"
     inkscape:cy="17.28125"
     inkscape:window-width="1920"
     inkscape:window-height="996"
     inkscape:window-x="0"
     inkscape:window-y="0"
     inkscape:window-maximized="1"
     inkscape:current-layer="svg6" />
  <style
     type="text/css"
     id="current-color-scheme">
        .ColorScheme-Text {
            color:#d8d8d8;
        }
    </style>
  <g
     id="22-22-system-user-prompt-6">
    <path
       style="fill:none;stroke-width:1"
       d="M 0,0 V 22 H 22 V 0 Z"
       id="path44-5-7-1" />
    <path
       id="Battery-7-9"
       class="st0"
       d="m 19.7123,5.468391 0.61995,0.326388 -0.0624,3.516877 0.0121,-0.0367 c 0,0.468393 -0.71395,1.048029 -1.33641,1.048029 L 5.260367,10.281755 C 3.95405,10.280555 2.249373,9.959015 2.245815,9.56713 l -0.03665,-4.036278 2.306527,1.32e-4 z"
       style="fill:#cdd8e5;fill-opacity:0.403922;stroke-width:0.216815;enable-background:new"
       sodipodi:nodetypes="ccccccsccc" />
    <path
       id="Battery-s-0"
       class="st1"
       d="m 20.32976,6.636107 -0.006,0.01289 0.006,-0.01404 -0.0143,2.037943 -0.006,0.617603 c -0.004,0.436448 -0.22621,1.028784 -1.25259,1.027488 l -1.241161,-0.02165 0.0036,-0.543005 1.260431,1.23e-4 c 0.34212,5.27e-4 0.71652,-0.02088 0.71652,-0.6764 v -1.948021 -0.0055 l 0.53051,0.278963 h -0.002 l 0.003,-9.4e-5 -0.53045,-0.278519 V 6.232492 C 19.80942,5.630796 19.67155,5.53462 19.19075,5.535959 l -14.416676,3e-6 V 5 L 19.22453,5.007 c 1.02639,0.0017 1.11333,0.577428 1.11179,0.795913 z M 2.224943,5.523775 v 0.01236 H 1.65 l 2e-6,3.466184 c 1e-6,0.581958 0.393677,1.275252 1.762191,1.276884 l 13.159669,0.0157 0.0036,-0.529041 L 3.4158,9.750172 C 2.70562,9.748472 2.235876,9.425227 2.22495,9.005188 Z"
       style="fill:#eff0f1;fill-opacity:1;stroke-width:0.202822"
       sodipodi:nodetypes="ccccsccccscccccccccccsccccssccccc" />
    <path
       id="Battery-7-1-9"
       class="st0"
       d="m 2.273531,16.538968 -0.620238,-0.325849 0.05933,-3.51693 -0.01203,0.03671 c -4.07e-4,-0.468393 0.713031,-1.04865 1.335487,-1.049191 l 13.685206,0.02932 c 1.30632,8.6e-5 3.018764,0.320676 3.015694,0.712565 l -0.0316,4.036306 -2.235261,0.0012 z"
       style="fill:#cdd8e5;fill-opacity:0.403922;stroke-width:0.216815;enable-background:new"
       sodipodi:nodetypes="ccccccsccc" />
    <path
       id="Battery-s-5-1"
       class="st1"
       d="m 1.655052,15.37179 0.0062,-0.0129 -0.0062,0.01404 0.0125,-2.037955 0.0053,-0.617608 c 0.0037,-0.436452 0.225307,-1.02898 1.251692,-1.028577 l 1.241181,0.02058 -0.0032,0.543008 -1.260422,10e-4 c -0.34213,-2.29e-4 -0.716504,0.0215 -0.715934,0.677024 l 0.0017,1.948021 5e-6,0.0055 -0.530658,-0.278502 0.0024,-2e-6 -0.0025,9.6e-5 0.530698,0.278058 7.91e-4,0.891394 c -0.01151,0.601707 0.126369,0.697763 0.607171,0.696006 l 14.416665,-0.01255 4.67e-4,0.536002 -14.450414,0.0056 C 1.736108,16.999209 1.648667,16.423541 1.650015,16.205054 Z m 18.105778,1.096577 -10e-6,-0.01236 0.54907,-4.78e-4 0.0228,-3.538073 c 0.004,-0.581947 -0.39473,-1.203041 -1.763245,-1.203483 l -13.159676,-0.0042 -0.0033,0.529044 13.159813,0.0042 c 0.710188,0.0012 1.180148,0.252051 1.191448,0.67208 z"
       style="fill:#eff0f1;fill-opacity:1;stroke-width:0.202822"
       sodipodi:nodetypes="ccccsccccscccccccccccsccccssccccc" />
    <path
       id="Other-4-7"
       class="st0"
       d="m 13.251512,7.515375 c 0,-0.632438 0.508219,-1.149886 1.129344,-1.149886 0.621153,0 1.129374,0.517448 1.129374,1.149886 0,0.632435 -0.508221,1.149883 -1.129374,1.149883 -0.621125,0 -1.129344,-0.517448 -1.129344,-1.149883 z m 4.517402,-1.149886 c -0.621132,0 -1.129346,0.517448 -1.129346,1.149886 0,0.632435 0.508214,1.149883 1.129346,1.149883 0.621146,0 1.129366,-0.517448 1.129366,-1.149883 0,-0.632438 -0.50822,-1.149886 -1.129366,-1.149886 z"
       style="fill:#eff0f1;fill-opacity:1;stroke-width:0.142449" />
    <path
       class="st1"
       d="m 12.12217,7.515375 c 0,0.632435 -0.50823,1.149883 -1.12938,1.149883 -0.621139,0 -1.129345,-0.517448 -1.129345,-1.149883 0,-0.632438 0.508206,-1.149886 1.129345,-1.149886 0.62115,0 1.12938,0.517448 1.12938,1.149886 z m -0.564697,0 c 0,0.316216 -0.254099,0.574941 -0.564683,0.574941 -0.310563,0 -0.564671,-0.258725 -0.564671,-0.574941 0,-0.31622 0.254108,-0.574943 0.564671,-0.574943 0.310584,0 0.564683,0.258723 0.564683,0.574943 z m 6.776128,0 v 0.574941 c 0,0.316219 -0.254096,0.574942 -0.564687,0.574942 v 0.574944 c 0.621146,0 1.129366,-0.517447 1.129366,-1.149886 V 7.515375 Z"
       id="path5-8-7"
       style="fill:#eff0f1;fill-opacity:1;stroke-width:0.142449" />
    <path
       id="Other-4-9-1"
       class="st0"
       d="m 6.547292,14.199084 c 0,-0.632438 0.508219,-1.149886 1.129345,-1.149886 0.621151,0 1.129373,0.517448 1.129373,1.149886 0,0.632435 -0.508222,1.149883 -1.129373,1.149883 -0.621126,0 -1.129345,-0.517448 -1.129345,-1.149883 z m 4.517405,-1.149886 c -0.621135,0 -1.129351,0.517448 -1.129351,1.149886 0,0.632435 0.508216,1.149883 1.129351,1.149883 0.621143,0 1.129364,-0.517448 1.129364,-1.149883 0,-0.632438 -0.508221,-1.149886 -1.129364,-1.149886 z"
       style="fill:#eff0f1;fill-opacity:1;stroke-width:0.142449" />
    <path
       class="st1"
       d="m 5.41795,14.199084 c 0,0.632435 -0.50823,1.149883 -1.12938,1.149883 -0.621139,0 -1.129345,-0.517448 -1.129345,-1.149883 0,-0.632438 0.508206,-1.149886 1.129345,-1.149886 0.62115,0 1.12938,0.517448 1.12938,1.149886 z m -0.564697,0 c 0,0.316216 -0.254099,0.574941 -0.564683,0.574941 -0.310563,0 -0.564671,-0.258725 -0.564671,-0.574941 0,-0.31622 0.254108,-0.574943 0.564671,-0.574943 0.310584,0 0.564683,0.258723 0.564683,0.574943 z m 6.776128,0 v 0.574941 c 0,0.316219 -0.254098,0.574942 -0.564684,0.574942 v 0.574944 c 0.621143,0 1.129364,-0.517447 1.129364,-1.149886 v -0.574941 z"
       id="path5-8-4-1"
       style="fill:#eff0f1;fill-opacity:1;stroke-width:0.142449" />
  </g>
</svg>
