<?xml version="1.0" encoding="UTF-8" standalone="no"?>
<svg
   viewBox="0 0 22 22"
   version="1.1"
   id="svg1"
   sodipodi:docname="system-switch-user.svg"
   width="22"
   height="22"
   inkscape:version="1.3.2 (091e20ef0f, 2023-11-25)"
   xmlns:inkscape="http://www.inkscape.org/namespaces/inkscape"
   xmlns:sodipodi="http://sodipodi.sourceforge.net/DTD/sodipodi-0.dtd"
   xmlns="http://www.w3.org/2000/svg"
   xmlns:svg="http://www.w3.org/2000/svg">
  <sodipodi:namedview
     id="namedview1"
     pagecolor="#ffffff"
     bordercolor="#999999"
     borderopacity="1"
     inkscape:showpageshadow="2"
     inkscape:pageopacity="0"
     inkscape:pagecheckerboard="0"
     inkscape:deskcolor="#d1d1d1"
     inkscape:zoom="12.245804"
     inkscape:cx="10.860863"
     inkscape:cy="11.187506"
     inkscape:window-width="1920"
     inkscape:window-height="996"
     inkscape:window-x="0"
     inkscape:window-y="0"
     inkscape:window-maximized="1"
     inkscape:current-layer="svg1" />
  <defs
     id="defs3051">
    <style
       type="text/css"
       id="current-color-scheme">
      .ColorScheme-Text {
        color:#d8d8d8;
      }
      </style>
  </defs>
  <g
     id="22-22-system-switch-user-2">
    <path
       style="fill:none"
       d="M 0,0 V 22 H 22 V 0 Z"
       id="path79" />
    <path
       id="Exchange_2_-1"
       class="st0"
       d="M 0.25,14.333333 5.634615,7.666662 v 4.166671 h 8.076923 v -1.666666 h 1.346147 v 2.5 c 0,2.291666 -1.514431,4.166666 -3.365377,4.166666 H 5.634615 V 21 Z"
       style="fill:#cdd8e5;fill-opacity:0.403922;stroke-width:0.374472" />
    <path
       id="Exchange-s_1_-7"
       class="st1"
       d="M 17.076908,1 21.788462,6.833338 17.076908,12.666667 16.100938,11.5 19.197092,7.666662 H 9.673085 c -0.740385,0 -1.346162,0.75 -1.346162,1.666671 v 0.833334 H 6.980762 V 9.333333 C 6.980762,7.5 8.1923,6 9.673085,6 h 9.524007 L 16.134623,2.208333 Z m -3.36537,10.833333 V 13.5 c 0,1.833333 -1.21153,3.333333 -2.692307,3.333333 H 5.634615 V 18.5 h 5.384616 c 2.221161,0 4.038454,-2.25 4.038454,-5 v -1.666667 z"
       style="fill:#eff0f1;fill-opacity:1;stroke-width:0.374472" />
  </g>
</svg>
