<?xml version="1.0" encoding="UTF-8" standalone="no"?>
<svg
   viewBox="0 0 16 16"
   version="1.1"
   id="svg1"
   sodipodi:docname="window-pin.svg"
   width="16"
   height="16"
   inkscape:version="1.3.2 (091e20ef0f, 2023-11-25)"
   xmlns:inkscape="http://www.inkscape.org/namespaces/inkscape"
   xmlns:sodipodi="http://sodipodi.sourceforge.net/DTD/sodipodi-0.dtd"
   xmlns="http://www.w3.org/2000/svg"
   xmlns:svg="http://www.w3.org/2000/svg">
  <defs
     id="defs1" />
  <sodipodi:namedview
     id="namedview1"
     pagecolor="#ffffff"
     bordercolor="#999999"
     borderopacity="1"
     inkscape:showpageshadow="2"
     inkscape:pageopacity="0"
     inkscape:pagecheckerboard="0"
     inkscape:deskcolor="#d1d1d1"
     inkscape:zoom="16.882174"
     inkscape:cx="8.2335367"
     inkscape:cy="12.261454"
     inkscape:window-width="1920"
     inkscape:window-height="996"
     inkscape:window-x="0"
     inkscape:window-y="0"
     inkscape:window-maximized="1"
     inkscape:current-layer="svg1" />
  <style
     type="text/css"
     id="current-color-scheme">
        .ColorScheme-Text {
            color:#fcfcfc;
        }
    </style>
  <g
     id="16-16-window-unpin">
    <path
       id="rect847-9"
       d="M 0,0 H 16 V 16 H 0 Z"
       fill="none" />
    <path
       id="Tack-5"
       class="st0"
       d="M 13.6,6.355 9.645,2.4 8.6475,3.397499 l 0.735,0.735 -2.975,2.975 C 5.585,6.285 3.905,6.635 3.0825,7.457499 L 5.585,9.925 l -0.98,0.98 0.49,0.49 0.98,-0.98 2.4675,2.485 C 9.365,12.077499 9.715,10.397499 8.8925,9.575 l 2.975,-2.975 0.245,0.245 c 0.28,0.28 0.7175,0.28 0.9975,0 z"
       style="fill:#cdd8e5;fill-opacity:0.403922;stroke-width:0.175" />
    <path
       id="Tack-s-3"
       class="st1"
       d="M 11.8675,5.62 13.11,6.862499 c -0.28,0.28 -0.7175,0.28 -0.9975,0 L 11.8675,6.6 8.8925,9.575 8.4025,9.085 Z m -6.3,4.305 2.975,2.975 C 8.7,12.742506 8.84,12.55 8.9625,12.34 L 6.075,9.435 Z M 3.59,12.9 5.62,10.87 5.13,10.38 3.1,12.41 2.4,13.6 Z"
       style="fill:#eff0f1;fill-opacity:1;stroke-width:0.175" />
  </g>
</svg>
