<?xml version="1.0" encoding="UTF-8" standalone="no"?>
<svg
   viewBox="0 0 22 22"
   version="1.1"
   id="svg4"
   sodipodi:docname="audio-volume-medium.svg"
   width="22"
   height="22"
   inkscape:version="1.3.2 (091e20ef0f, 2023-11-25)"
   xmlns:inkscape="http://www.inkscape.org/namespaces/inkscape"
   xmlns:sodipodi="http://sodipodi.sourceforge.net/DTD/sodipodi-0.dtd"
   xmlns:xlink="http://www.w3.org/1999/xlink"
   xmlns="http://www.w3.org/2000/svg"
   xmlns:svg="http://www.w3.org/2000/svg">
  <defs
     id="defs4">
    <linearGradient
       inkscape:collect="always"
       xlink:href="#linearGradient4088"
       id="linearGradient2225-5"
       x1="-46.438114"
       y1="49.294899"
       x2="-19.552532"
       y2="49.651234"
       gradientUnits="userSpaceOnUse"
       gradientTransform="matrix(0.65625002,0,0,0.66666667,32.523438,-21.666667)" />
    <linearGradient
       inkscape:collect="always"
       id="linearGradient4088">
      <stop
         style="stop-color:#eff0f1;stop-opacity:1"
         offset="0"
         id="stop4080" />
      <stop
         style="stop-color:#eff0f1;stop-opacity:1"
         offset="0.43528166"
         id="stop4082" />
      <stop
         style="stop-color:#eff0f1;stop-opacity:0.60000002"
         offset="0.69697893"
         id="stop4084" />
      <stop
         style="stop-color:#eff0f1;stop-opacity:0.6"
         offset="1"
         id="stop4086" />
    </linearGradient>
  </defs>
  <sodipodi:namedview
     id="namedview4"
     pagecolor="#ffffff"
     bordercolor="#999999"
     borderopacity="1"
     inkscape:showpageshadow="2"
     inkscape:pageopacity="0"
     inkscape:pagecheckerboard="0"
     inkscape:deskcolor="#d1d1d1"
     inkscape:zoom="8.41899"
     inkscape:cx="20.667562"
     inkscape:cy="14.015933"
     inkscape:window-width="1920"
     inkscape:window-height="994"
     inkscape:window-x="0"
     inkscape:window-y="0"
     inkscape:window-maximized="1"
     inkscape:current-layer="svg4" />
  <style
     id="current-color-scheme"
     type="text/css">.ColorScheme-Text { color: #fcfcfc; } </style>
  <g
     id="22-22-audio-volume-medium">
    <path
       style="opacity:0.00100002;fill:#c8b7b7"
       d="M 0,0 H 22 V 22 H 0 Z"
       id="path12" />
    <path
       id="Sound-3-9"
       class="st0"
       d="M 12.125,19 H 11 L 6.5,14.428571 V 7.5714287 H 5.375 V 14.428571 H 2 v -4 C 2,8.8571427 3.2656247,7.5714287 4.8124999,7.5714287 L 5.375,6.4285713 H 5.9375001 L 6.5,5.9142855 6.7812501,7.285714 11,3 h 1.125 z"
       style="fill:#cdd8e5;fill-opacity:0.403922;stroke-width:0.283473" />
    <path
       id="Sound-s-6-1"
       class="st1"
       d="M 15.78125,17.342857 C 16.7375,16.6 17.525,15.628571 18.059375,14.542857 18.59375,13.428571 18.875,12.228571 18.875,11 18.875,9.7714287 18.59375,8.5714287 18.059375,7.4571427 17.525,6.3428573 16.7375,5.4 15.78125,4.6571427 l 0.675,-0.9142854 C 17.553125,4.6 18.425,5.685714 19.04375,6.9428573 19.690626,8.2 20,9.6 20,11 c 0,1.4 -0.309374,2.8 -0.928125,4.057143 -0.61875,1.257142 -1.490625,2.342857 -2.5875,3.2 z m -0.675,-4.428572 c -0.253125,0.628572 -0.61875,1.2 -1.096875,1.657144 l 0.7875,0.8 c 0.5625,-0.571429 1.040625,-1.285715 1.35,-2.028572 0.309375,-0.771428 0.478125,-1.571428 0.478125,-2.4 0,-0.828572 -0.16875,-1.6285717 -0.478125,-2.3999997 C 15.8375,7.7714287 15.3875,7.085714 14.796875,6.514286 l -0.7875,0.8 C 14.4875,7.8 14.853125,8.3714287 15.10625,8.9714287 15.359375,9.6 15.5,10.257143 15.5,10.942857 c 0,0.685714 -0.140625,1.371428 -0.39375,1.971428 z M 3.1250002,13.285714 V 9.8571427 C 3.1250002,8.6 4.1375002,7.5714287 5.375,7.5714287 V 6.4285713 C 3.5187502,6.4285713 2,7.9714287 2,9.8571427 V 13.285714 Z M 9.3687498,3 6.5,5.9142855 v 1.6571432 l 3.684375,-3.7428574 z"
       style="fill:url(#linearGradient2225-5);fill-opacity:1;stroke-width:0.283473" />
  </g>
</svg>
