<?xml version="1.0" encoding="UTF-8" standalone="no"?>
<svg
   version="1.1"
   viewBox="0 0 24 24"
   width="24"
   height="24"
   id="svg2"
   sodipodi:docname="update-low.svg"
   inkscape:version="1.3.2 (091e20ef0f, 2023-11-25)"
   xmlns:inkscape="http://www.inkscape.org/namespaces/inkscape"
   xmlns:sodipodi="http://sodipodi.sourceforge.net/DTD/sodipodi-0.dtd"
   xmlns="http://www.w3.org/2000/svg"
   xmlns:svg="http://www.w3.org/2000/svg">
  <sodipodi:namedview
     id="namedview2"
     pagecolor="#ffffff"
     bordercolor="#999999"
     borderopacity="1"
     inkscape:showpageshadow="2"
     inkscape:pageopacity="0"
     inkscape:pagecheckerboard="0"
     inkscape:deskcolor="#d1d1d1"
     inkscape:zoom="31.666667"
     inkscape:cx="12"
     inkscape:cy="12"
     inkscape:window-width="1870"
     inkscape:window-height="994"
     inkscape:window-x="0"
     inkscape:window-y="0"
     inkscape:window-maximized="1"
     inkscape:current-layer="svg2" />
  <defs
     id="defs1">
    <style
       type="text/css"
       id="current-color-scheme">.ColorScheme-Text { color:#eff0f1; }
.ColorScheme-Highlight { color:#3daee9; }
</style>
  </defs>
  <g
     transform="translate(1,1)"
     id="g2">
    <path
       class="ColorScheme-Text"
       fill="currentColor"
       d="m10.943359 3.0019531c-2.3096783 0.0179358-4.5777809 1.0323219-6.1289059 2.921875-2.4818 3.023337-2.4103312 7.4081339 0.1679688 10.34961l0.7519531-0.658204c-2.2602-2.578617-2.3221844-6.4042931-0.1464844-9.0546871 2.175699-2.650394 5.9425094-3.3375469 8.9121094-1.6230469l-0.5 0.8671875 2.480469-0.2988281-0.980469-2.2988282-0.5 0.8652344c-1.270312-0.7334062-2.670833-1.0810739-4.056641-1.0703125zm6.072266 2.7265625-0.751953 0.6582032c1.498615 1.7097401 2.023814 3.9662772 1.578125 6.0664062a3.9904534 4.0021063 0 0 1 0.878906 0.625c0.193608-0.721967 0.289408-1.46347 0.277344-2.205078-0.029962-1.8417764-0.693272-3.6737934-1.982422-5.1445314zm-6.017578 0.2714844-4.0000001 4h2v5h3.1406251a3.9904534 4.0021063 0 0 1 0.859375-1.626953v-3.373047h2l-4-4zm-2.998047 10.197266-2.4824219 0.298828 0.9824219 2.298828 0.5-0.865234c1.8980665 1.095835 4.087429 1.331359 6.082031 0.794921a3.9904534 4.0021063 0 0 1-0.623047-0.882812c-1.644174 0.350774-3.4090691 0.115547-4.958984-0.779297l0.5-0.865234z"
       id="path1" />
    <path
       d="m16 13a2.9999907 2.9999907 0 0 0-3 3 2.9999907 2.9999907 0 0 0 3 3 2.9999907 2.9999907 0 0 0 3-3 2.9999907 2.9999907 0 0 0-3-3z"
       id="path2"
       style="fill:#00ccff" />
  </g>
</svg>
