<?xml version="1.0" encoding="UTF-8" standalone="no"?>
<svg
   id="svg"
   version="1.1"
   viewBox="0 0 22 22"
   sodipodi:docname="device-notifier-symbolic.svg"
   inkscape:version="1.3.2 (091e20ef0f, 2023-11-25)"
   width="22"
   height="22"
   xmlns:inkscape="http://www.inkscape.org/namespaces/inkscape"
   xmlns:sodipodi="http://sodipodi.sourceforge.net/DTD/sodipodi-0.dtd"
   xmlns="http://www.w3.org/2000/svg"
   xmlns:svg="http://www.w3.org/2000/svg"
   xmlns:rdf="http://www.w3.org/1999/02/22-rdf-syntax-ns#"
   xmlns:cc="http://creativecommons.org/ns#"
   xmlns:dc="http://purl.org/dc/elements/1.1/">
  <sodipodi:namedview
     id="namedview27"
     pagecolor="#201933"
     bordercolor="#000000"
     borderopacity="1"
     inkscape:pageshadow="2"
     inkscape:pageopacity="0.0"
     inkscape:pagecheckerboard="true"
     showgrid="true"
     inkscape:zoom="9.208459"
     inkscape:cx="11.402559"
     inkscape:cy="19.981628"
     inkscape:window-width="1920"
     inkscape:window-height="994"
     inkscape:window-x="0"
     inkscape:window-y="0"
     inkscape:window-maximized="1"
     inkscape:current-layer="svg"
     inkscape:showpageshadow="2"
     inkscape:deskcolor="#201933">
    <inkscape:grid
       type="xygrid"
       id="grid951"
       originx="-11.000011"
       originy="-56.000011"
       spacingy="1"
       spacingx="1"
       units="px"
       visible="true" />
  </sodipodi:namedview>
  <metadata
     id="metadata47">
    <rdf:RDF>
      <cc:Work
         rdf:about="">
        <dc:format>image/svg+xml</dc:format>
        <dc:type
           rdf:resource="http://purl.org/dc/dcmitype/StillImage" />
      </cc:Work>
    </rdf:RDF>
  </metadata>
  <defs
     id="defs3">
    <style
       id="current-color-scheme"
       type="text/css">.ColorScheme-Text { color:#333333; } .ColorScheme-Highlight { color:#5294e2; } .ColorScheme-ButtonBackground { color:#dedede; }</style>
  </defs>
  <g
     id="22-22-device-notifier-3">
    <rect
       style="opacity:0.00100002"
       width="22"
       height="22"
       x="0"
       y="-4.6325681e-08"
       id="rect2" />
    <path
       id="Save-3"
       class="st0"
       d="M 14.428575,12.008137 H 7.5714228 v 5.179136 H 14.428575 Z M 8.4285777,4.757345 H 5 V 18.2231 h 9.857142 C 16.035718,18.2231 17,17.057794 17,15.633533 V 4.757345 H 14.428575 13.571426 V 8.900654 H 8.4285777 Z"
       sodipodi:nodetypes="ccccccccsscccccc"
       style="clip-rule:evenodd;fill:#cdd8e5;fill-opacity:0.403922;fill-rule:evenodd;stroke-width:0.235565" />
    <path
       id="Save-s-6"
       class="st1"
       d="M 12.463505,3.084916 V 7.864827 H 9.5446847 V 3.084916 Z m 3.730453,5.815738 2e-5,7.250791 c 3e-6,1.139411 -0.822552,2.071655 -1.765403,2.071655 H 5.8571423 v 0.750975 l 8.5714327,0.02591 C 15.842851,19.004185 17,17.860559 17,16.151443 V 8.900654 Z"
       sodipodi:nodetypes="ccccccssccsscc"
       style="fill:#eff0f1;fill-opacity:1;stroke-width:0.235565" />
    <path
       d="M 9.7386302,3 C 9.4545362,3 9.2285282,3.359959 9.2285443,3.681661 V 5.03716 h 0.5101021 l -1.62e-5,-0.679079 c 0.014583,-0.80438 0,-0.859918 0.5101048,-0.859918 h 1.534438 c 0.505944,-3.4e-5 0.508403,0.06601 0.505944,0.859918 l 2.4e-5,0.679079 h 0.510092 l -1.1e-5,-1.35812 C 12.799222,3.270033 12.585936,3 12.296212,3.000034 Z M 10.248738,4.358121 V 5.03716 h 0.510107 V 4.358121 Z m 1.020206,0 V 5.03716 H 11.77904 V 4.358121 Z"
       style="solid-color:#d5c289;fill:#cdd8e5;fill-opacity:0.403922;fill-rule:evenodd;stroke-width:0.58854"
       id="path4-7-3-7"
       sodipodi:nodetypes="ccccccccccccccccccccccc" />
  </g>
</svg>
