<?xml version="1.0" encoding="UTF-8" standalone="no"?>
<svg
   width="22"
   height="22"
   version="1.1"
   id="svg32"
   sodipodi:docname="kalarm-symbolic.svg"
   inkscape:version="1.3.2 (091e20ef0f, 2023-11-25)"
   xmlns:inkscape="http://www.inkscape.org/namespaces/inkscape"
   xmlns:sodipodi="http://sodipodi.sourceforge.net/DTD/sodipodi-0.dtd"
   xmlns="http://www.w3.org/2000/svg"
   xmlns:svg="http://www.w3.org/2000/svg"
   xmlns:rdf="http://www.w3.org/1999/02/22-rdf-syntax-ns#"
   xmlns:cc="http://creativecommons.org/ns#"
   xmlns:dc="http://purl.org/dc/elements/1.1/">
  <style
     id="current-color-scheme"
     type="text/css">.ColorScheme-NegativeText { color:#bf616a; }
.ColorScheme-Text { color:#d6dbf1; }
</style>
  <metadata
     id="metadata38">
    <rdf:RDF>
      <cc:Work
         rdf:about="">
        <dc:format>image/svg+xml</dc:format>
        <dc:type
           rdf:resource="http://purl.org/dc/dcmitype/StillImage" />
      </cc:Work>
    </rdf:RDF>
  </metadata>
  <defs
     id="defs36" />
  <sodipodi:namedview
     pagecolor="#201933"
     bordercolor="#000000"
     borderopacity="1"
     objecttolerance="10"
     gridtolerance="10"
     guidetolerance="10"
     inkscape:pageopacity="0"
     inkscape:pageshadow="2"
     inkscape:window-width="1920"
     inkscape:window-height="994"
     id="namedview34"
     showgrid="true"
     inkscape:zoom="11.313709"
     inkscape:cx="11.048543"
     inkscape:cy="11.844038"
     inkscape:window-x="0"
     inkscape:window-y="0"
     inkscape:window-maximized="1"
     inkscape:current-layer="svg32"
     inkscape:document-rotation="0"
     inkscape:lockguides="true"
     showguides="true"
     inkscape:pagecheckerboard="true"
     inkscape:showpageshadow="true"
     inkscape:deskcolor="#201933">
    <inkscape:grid
       id="grid1"
       units="px"
       originx="32"
       originy="-8"
       spacingx="1"
       spacingy="1"
       empcolor="#0099e5"
       empopacity="0.30196078"
       color="#0099e5"
       opacity="0.14902"
       empspacing="5"
       dotted="false"
       gridanglex="30"
       gridanglez="30"
       visible="true" />
  </sodipodi:namedview>
  <g
     id="22-22-kalarm-3">
    <rect
       style="opacity:0.00100002"
       width="22"
       height="22"
       x="0"
       y="0"
       id="rect2-6" />
    <path
       id="Alarm-35"
       class="st0"
       d="m 16.3,11.533333 c 0,2.933334 -2.4,5.333334 -5.333334,5.333334 -2.9333327,0 -5.3333327,-2.4 -5.3333327,-5.333334 C 5.6333333,8.6 8.0333333,6.2 10.966666,6.2 13.9,6.2 16.3,8.6 16.3,11.533333 Z m -0.32,-8.08 c -0.933333,-0.72 -2.24,-0.56 -2.96,0.346667 L 12.646666,4.253333 C 12.113333,4.12 11.553333,4.066667 10.966666,4.066667 6.8333333,4.066667 3.5,7.4 3.5,11.533333 3.5,15.666667 6.8333333,19 10.966666,19 15.1,19 18.433333,15.666667 18.433333,11.533333 c 0,-1.226666 -0.293333,-2.4 -0.826666,-3.413333 L 17.98,7.64 C 18.7,6.733333 18.54,5.426667 17.633333,4.733333 Z"
       style="clip-rule:evenodd;fill:#cdd8e5;fill-opacity:0.403922;fill-rule:evenodd;stroke-width:0.266667" />
    <path
       id="Alarm-s-62"
       class="st1"
       d="M 4.9666667,5.16 C 4.5133333,5.533333 4.4333333,6.2 4.78,6.653333 l 0.2666667,0.32 C 4.8333333,7.266667 4.62,7.586667 4.4333333,7.906667 l -0.48,-0.613334 c -0.72,-0.906666 -0.56,-2.24 0.3466667,-2.96 L 5.98,3 6.6466667,3.826667 Z m 12.4000003,6.373333 c 0,1.92 -0.853334,3.653334 -2.213334,4.826667 l 0.693334,0.8 v 0 0 l 1.68,1.68 0.746666,-0.746667 -1.68,-1.68 C 17.58,15.293333 18.193333,13.88 18.38,12.386667 18.593333,10.52 18.113333,8.653333 16.993333,7.16 L 16.14,7.8 c 0.773333,1.04 1.226667,2.32 1.226667,3.733333 z M 11.5,7.266667 H 10.433333 V 11.8 l 2.346667,1.76 0.64,-0.853333 -1.92,-1.44 z m -6.1866667,9.146666 -1.68,1.68 L 4.38,18.84 6.06,17.16 C 5.82,16.946667 5.5533333,16.68 5.3133333,16.413333 Z"
       style="fill:#eff0f1;fill-opacity:1;stroke-width:0.266667" />
  </g>
</svg>
