<?xml version="1.0" encoding="UTF-8" standalone="no"?>
<svg
   width="22"
   height="22"
   version="1.1"
   id="svg12"
   sodipodi:docname="klipper-symbolic.svg"
   inkscape:version="1.3.2 (091e20ef0f, 2023-11-25)"
   xmlns:inkscape="http://www.inkscape.org/namespaces/inkscape"
   xmlns:sodipodi="http://sodipodi.sourceforge.net/DTD/sodipodi-0.dtd"
   xmlns="http://www.w3.org/2000/svg"
   xmlns:svg="http://www.w3.org/2000/svg"
   xmlns:rdf="http://www.w3.org/1999/02/22-rdf-syntax-ns#"
   xmlns:cc="http://creativecommons.org/ns#"
   xmlns:dc="http://purl.org/dc/elements/1.1/">
  <style
     id="current-color-scheme"
     type="text/css">.ColorScheme-Text { color:#d6dbf1; }
</style>
  <metadata
     id="metadata18">
    <rdf:RDF>
      <cc:Work
         rdf:about="">
        <dc:format>image/svg+xml</dc:format>
        <dc:type
           rdf:resource="http://purl.org/dc/dcmitype/StillImage" />
      </cc:Work>
    </rdf:RDF>
  </metadata>
  <defs
     id="defs16" />
  <sodipodi:namedview
     pagecolor="#201933"
     bordercolor="#000000"
     borderopacity="1"
     objecttolerance="10"
     gridtolerance="10"
     guidetolerance="10"
     inkscape:pageopacity="0"
     inkscape:pageshadow="2"
     inkscape:window-width="1920"
     inkscape:window-height="994"
     id="namedview14"
     showgrid="true"
     inkscape:zoom="9.8623729"
     inkscape:cx="11.153502"
     inkscape:cy="-5.5767512"
     inkscape:window-x="0"
     inkscape:window-y="0"
     inkscape:window-maximized="1"
     inkscape:current-layer="svg12"
     inkscape:document-rotation="0"
     inkscape:pagecheckerboard="true"
     inkscape:lockguides="false"
     inkscape:showpageshadow="true"
     inkscape:deskcolor="#201933">
    <inkscape:grid
       id="grid1"
       units="px"
       originx="-13.629945"
       originy="-56.797071"
       spacingx="1"
       spacingy="1"
       empcolor="#0099e5"
       empopacity="0.30196078"
       color="#0099e5"
       opacity="0.14902"
       empspacing="5"
       dotted="false"
       gridanglex="30"
       gridanglez="30"
       visible="true" />
  </sodipodi:namedview>
  <g
     id="22-22-klipper-3">
    <rect
       style="opacity:0.00100002"
       width="22"
       height="22"
       x="0"
       y="0"
       id="rect2" />
    <path
       id="Attachment-0"
       class="st0"
       d="M 12.5,5 H 5 v 13 h 9.5 C 15.875,18 17,16.875 17,15.5 V 9 L 13.5,5.5 V 8 h -1 z"
       style="fill:#cdd8e5;fill-opacity:0.403922;stroke-width:0.25" />
    <path
       id="Attachment-s-4"
       class="st1"
       d="M 8.5,3 C 9.875,3 11,4.125 11,5.5 v 4 C 11,10.875 9.875,12 8.5,12 7.125,12 6,10.875 6,9.5 v -2 C 6,6.675 6.675,6 7.5,6 8.325,6 9,6.675 9,7.5 V 10 H 8 V 7.5 C 8,7.225 7.775,7 7.5,7 7.225,7 7,7.225 7,7.5 v 2 C 7,10.325 7.675,11 8.5,11 9.325,11 10,10.325 10,9.5 v -4 C 10,4.675 9.325,4 8.5,4 7.85,4 7.3,4.425 7.075,5 H 6.05 C 6.275,3.85 7.3,3 8.5,3 Z M 17,9 h -4.5 v 1 H 16 v 6 c 0,1.1 -0.9,2 -2,2 H 6 v 1 h 8 c 1.65,0 3,-1.35 3,-3 z"
       style="fill:#eff0f1;fill-opacity:1;stroke-width:0.25" />
  </g>
</svg>
