<?xml version="1.0" encoding="UTF-8" standalone="no"?>
<svg
   width="22"
   height="22"
   version="1.1"
   id="svg12"
   sodipodi:docname="konversation-symbolic.svg"
   inkscape:version="1.3.2 (091e20ef0f, 2023-11-25)"
   xmlns:inkscape="http://www.inkscape.org/namespaces/inkscape"
   xmlns:sodipodi="http://sodipodi.sourceforge.net/DTD/sodipodi-0.dtd"
   xmlns="http://www.w3.org/2000/svg"
   xmlns:svg="http://www.w3.org/2000/svg"
   xmlns:rdf="http://www.w3.org/1999/02/22-rdf-syntax-ns#"
   xmlns:cc="http://creativecommons.org/ns#"
   xmlns:dc="http://purl.org/dc/elements/1.1/">
  <style
     id="current-color-scheme"
     type="text/css">.ColorScheme-Text { color:#d6dbf1; }
</style>
  <metadata
     id="metadata18">
    <rdf:RDF>
      <cc:Work
         rdf:about="">
        <dc:format>image/svg+xml</dc:format>
        <dc:type
           rdf:resource="http://purl.org/dc/dcmitype/StillImage" />
      </cc:Work>
    </rdf:RDF>
  </metadata>
  <defs
     id="defs16" />
  <sodipodi:namedview
     pagecolor="#201933"
     bordercolor="#000000"
     borderopacity="1"
     objecttolerance="10"
     gridtolerance="10"
     guidetolerance="10"
     inkscape:pageopacity="0"
     inkscape:pageshadow="2"
     inkscape:window-width="1920"
     inkscape:window-height="994"
     id="namedview14"
     showgrid="true"
     inkscape:zoom="9.8125005"
     inkscape:cx="11.10828"
     inkscape:cy="19.159235"
     inkscape:window-x="0"
     inkscape:window-y="0"
     inkscape:window-maximized="1"
     inkscape:current-layer="svg12"
     inkscape:document-rotation="0"
     inkscape:pagecheckerboard="true"
     inkscape:showpageshadow="true"
     inkscape:lockguides="true"
     inkscape:deskcolor="#201933">
    <inkscape:grid
       type="xygrid"
       id="grid10976"
       originx="23"
       originy="-67.99999"
       spacingy="1"
       spacingx="1"
       units="px"
       visible="true" />
  </sodipodi:namedview>
  <g
     id="22-22-konversation">
    <rect
       style="opacity:0.00100002"
       width="22"
       height="22"
       x="0"
       y="0"
       id="rect2" />
    <path
       id="Megaphone-3"
       class="st0"
       d="m 13.025,7 h 4.725 l 1.6875,1.714286 v 4 H 17.75 V 8.142857 h -1.125 v 4.571429 L 15.5,17.857143 h -3.375 l 1.125,-5.142857 h -0.225 c -3.0375,0 -5.878126,1.485714 -7.65,4 H 4.25 V 3 h 1.125 c 1.771874,2.514286 4.6125,4 7.65,4 z"
       style="fill:#cdd8e5;fill-opacity:0.403922;stroke-width:0.283474" />
    <path
       id="Megaphone-s-6"
       class="st1"
       d="M 13.5875,19 H 12.96875 L 13.25,17.857143 h 0.3375 c 0.534375,0 0.984375,-0.371429 1.096875,-0.885714 L 15.6125,12.714286 H 17.75 c 0.61875,0 1.125,-0.514286 1.125,-1.142857 V 9.285714 c 0,-0.628571 -0.50625,-1.142857 -1.125,-1.142857 V 7 C 18.9875,7 20,8.028571 20,9.285714 v 2.285715 c 0,1.257142 -1.0125,2.285714 -2.25,2.285714 H 16.5125 L 15.78125,17.2 C 15.55625,18.257143 14.628125,19 13.5875,19 Z M 4.25,8.714286 V 7.571429 C 3.0125,7.571429 2,8.6 2,9.857143 c 0,1.257143 1.0125,2.285714 2.25,2.285714 V 11 C 3.63125,11 3.125,10.485714 3.125,9.857143 3.125,9.228571 3.63125,8.714286 4.25,8.714286 Z M 16.625,7 H 15.5 v 1.142857 h 1.125 z"
       style="fill:#eff0f1;fill-opacity:1;stroke-width:0.283474" />
  </g>
</svg>
