<?xml version="1.0" encoding="UTF-8" standalone="no"?>
<svg
   width="22"
   height="22"
   version="1.1"
   id="svg12"
   sodipodi:docname="korgac-symbolic.svg"
   inkscape:version="1.3.2 (091e20ef0f, 2023-11-25)"
   xmlns:inkscape="http://www.inkscape.org/namespaces/inkscape"
   xmlns:sodipodi="http://sodipodi.sourceforge.net/DTD/sodipodi-0.dtd"
   xmlns="http://www.w3.org/2000/svg"
   xmlns:svg="http://www.w3.org/2000/svg"
   xmlns:rdf="http://www.w3.org/1999/02/22-rdf-syntax-ns#"
   xmlns:cc="http://creativecommons.org/ns#"
   xmlns:dc="http://purl.org/dc/elements/1.1/">
  <style
     id="current-color-scheme"
     type="text/css">.ColorScheme-Text { color:#d6dbf1; }
</style>
  <metadata
     id="metadata18">
    <rdf:RDF>
      <cc:Work
         rdf:about="">
        <dc:format>image/svg+xml</dc:format>
        <dc:type
           rdf:resource="http://purl.org/dc/dcmitype/StillImage" />
      </cc:Work>
    </rdf:RDF>
  </metadata>
  <defs
     id="defs16" />
  <sodipodi:namedview
     pagecolor="#201933"
     bordercolor="#000000"
     borderopacity="1"
     objecttolerance="10"
     gridtolerance="10"
     guidetolerance="10"
     inkscape:pageopacity="0"
     inkscape:pageshadow="2"
     inkscape:window-width="1920"
     inkscape:window-height="994"
     id="namedview14"
     showgrid="true"
     inkscape:zoom="9.8623729"
     inkscape:cx="11.153502"
     inkscape:cy="11.254898"
     inkscape:window-x="0"
     inkscape:window-y="0"
     inkscape:window-maximized="1"
     inkscape:current-layer="svg12"
     inkscape:document-rotation="0"
     inkscape:pagecheckerboard="true"
     inkscape:lockguides="false"
     inkscape:showpageshadow="true"
     inkscape:deskcolor="#201933">
    <inkscape:grid
       id="grid1"
       units="px"
       originx="-13.629945"
       originy="-23.797072"
       spacingx="1"
       spacingy="1"
       empcolor="#0099e5"
       empopacity="0.30196078"
       color="#0099e5"
       opacity="0.14902"
       empspacing="5"
       dotted="false"
       gridanglex="30"
       gridanglez="30"
       visible="true" />
  </sodipodi:namedview>
  <g
     id="22-22-korgac-3">
    <rect
       style="opacity:0.00100002;fill:#a8aeca;fill-opacity:1"
       width="22"
       height="22"
       x="0"
       y="0"
       id="rect2-6" />
    <path
       id="Calendar-8"
       class="st0"
       d="m 4,4.999999 v 3 h 13 v 1 H 4 v 9 h 11.5 c 1.375,0 2.5,-1.125 2.5,-2.5 v -10.5 z m 3.5,11.5 H 6 v -1.5 h 1.5 z m 0,-2.5 H 6 v -1.5 h 1.5 z m 2.5,2.5 H 8.5 v -1.5 H 10 Z m 0,-2.5 H 8.5 v -1.5 H 10 Z m 0,-2.5 H 8.5 v -1.5 H 10 Z m 2.5,5 H 11 v -1.5 h 1.5 z m 0,-2.5 H 11 v -1.5 h 1.5 z m 0,-2.5 H 11 v -1.5 h 1.5 z m 2.5,2.5 h -1.5 v -1.5 H 15 Z m 0,-2.5 h -1.5 v -1.5 H 15 Z"
       style="fill:#cdd8e5;fill-opacity:0.403922;stroke-width:0.25" />
    <path
       id="Calendar-s-7"
       class="st1"
       d="m 17,15.999999 v -7 h 1 v 7 c 0,1.65 -1.35,3 -3,3 H 5 v -1 h 10 c 1.1,0 2,-0.9 2,-2 z m 0,-8 v -3 h 1 v 3 z m -3,-3.5 c 0,-0.825 0.675,-1.5 1.5,-1.5 H 16 v 1 h -0.5 c -0.275,0 -0.5,0.225 -0.5,0.5 v 2.5 h -1 z m -8,0 c 0,-0.825 0.675,-1.5 1.5,-1.5 H 8 v 1 H 7.5 c -0.275,0 -0.5,0.225 -0.5,0.5 v 2.5 H 6 Z"
       style="fill:#eff0f1;fill-opacity:1;stroke-width:0.25" />
  </g>
</svg>
