<?xml version="1.0" encoding="UTF-8" standalone="no"?>
<svg
   width="22"
   height="22"
   version="1.1"
   id="svg12"
   sodipodi:docname="kruler-symbolic.svg"
   inkscape:version="1.3.2 (091e20ef0f, 2023-11-25)"
   xmlns:inkscape="http://www.inkscape.org/namespaces/inkscape"
   xmlns:sodipodi="http://sodipodi.sourceforge.net/DTD/sodipodi-0.dtd"
   xmlns="http://www.w3.org/2000/svg"
   xmlns:svg="http://www.w3.org/2000/svg"
   xmlns:rdf="http://www.w3.org/1999/02/22-rdf-syntax-ns#"
   xmlns:cc="http://creativecommons.org/ns#"
   xmlns:dc="http://purl.org/dc/elements/1.1/">
  <style
     id="current-color-scheme"
     type="text/css">.ColorScheme-Text { color:#d6dbf1; }
</style>
  <metadata
     id="metadata18">
    <rdf:RDF>
      <cc:Work
         rdf:about="">
        <dc:format>image/svg+xml</dc:format>
        <dc:type
           rdf:resource="http://purl.org/dc/dcmitype/StillImage" />
      </cc:Work>
    </rdf:RDF>
  </metadata>
  <defs
     id="defs16" />
  <sodipodi:namedview
     pagecolor="#201933"
     bordercolor="#000000"
     borderopacity="1"
     objecttolerance="10"
     gridtolerance="10"
     guidetolerance="10"
     inkscape:pageopacity="0"
     inkscape:pageshadow="2"
     inkscape:window-width="1920"
     inkscape:window-height="994"
     id="namedview14"
     showgrid="true"
     inkscape:zoom="11.313708"
     inkscape:cx="11.136932"
     inkscape:cy="17.854447"
     inkscape:window-x="0"
     inkscape:window-y="0"
     inkscape:window-maximized="1"
     inkscape:current-layer="svg12"
     inkscape:document-rotation="0"
     inkscape:pagecheckerboard="true"
     inkscape:lockguides="false"
     inkscape:showpageshadow="true"
     inkscape:deskcolor="#201933">
    <inkscape:grid
       id="grid1"
       units="px"
       originx="-25"
       originy="-110"
       spacingx="1"
       spacingy="1"
       empcolor="#0099e5"
       empopacity="0.30196078"
       color="#0099e5"
       opacity="0.14902"
       empspacing="5"
       dotted="false"
       gridanglex="30"
       gridanglez="30"
       visible="true" />
  </sodipodi:namedview>
  <g
     id="22-22-akonadi"
     transform="rotate(90,11,11)">
    <path
       style="opacity:0.00100002"
       d="M 0,0 H 22 V 22 H 0 Z"
       id="path2" />
    <path
       id="List-4"
       class="st0"
       d="M 7.625,3 H 20 v 12 c 0,1.571429 -1.265625,2.857143 -2.8125,2.857143 H 7.625 v -3.428571 h 11.25 V 12.142857 H 7.625 V 8.7142858 h 11.25 V 6.4285714 H 7.625 Z M 2,12.142857 H 5.375 V 8.7142858 H 2 Z m 3.375,2.285715 H 2 v 3.428571 h 3.375 z"
       style="fill:#cdd8e5;fill-opacity:0.403922;stroke-width:0.283473" />
    <path
       id="List-s-8"
       class="st1"
       d="M 3.125,6.4285714 H 2 V 5.2857143 C 2,4.0285714 3.0125,3 4.25,3 H 5.375 V 4.1428571 H 4.25 c -0.61875,0 -1.125,0.5142857 -1.125,1.1428572 z M 18.875,3 V 6.4285714 H 20 V 3 Z m 0,5.7142858 V 12.142857 H 20 V 8.7142858 Z m 0,5.7142862 v 1.142857 c 0,1.257143 -1.0125,2.285714 -2.25,2.285714 h -9 V 19 h 9 C 18.48125,19 20,17.457143 20,15.571429 V 14.428572 Z M 5.375,19 V 17.857143 H 3.125 V 19 Z"
       style="fill:#eff0f1;fill-opacity:1;stroke-width:0.283473" />
  </g>
</svg>
