<?xml version="1.0" encoding="UTF-8" standalone="no"?>
<svg
   width="22"
   height="22"
   version="1.1"
   id="svg1"
   sodipodi:docname="kup-symbolic.svg"
   inkscape:version="1.3.2 (091e20ef0f, 2023-11-25)"
   xmlns:inkscape="http://www.inkscape.org/namespaces/inkscape"
   xmlns:sodipodi="http://sodipodi.sourceforge.net/DTD/sodipodi-0.dtd"
   xmlns="http://www.w3.org/2000/svg"
   xmlns:svg="http://www.w3.org/2000/svg">
  <defs
     id="defs1" />
  <sodipodi:namedview
     id="namedview1"
     pagecolor="#000000"
     bordercolor="#999999"
     borderopacity="1"
     inkscape:showpageshadow="2"
     inkscape:pageopacity="0"
     inkscape:pagecheckerboard="0"
     inkscape:deskcolor="#d1d1d1"
     inkscape:zoom="8.6590909"
     inkscape:cx="11.317585"
     inkscape:cy="11.2021"
     inkscape:window-width="1920"
     inkscape:window-height="994"
     inkscape:window-x="0"
     inkscape:window-y="0"
     inkscape:window-maximized="1"
     inkscape:current-layer="svg1" />
  <style
     type="text/css"
     id="current-color-scheme">.ColorScheme-Text { color: #fcfcfc; } </style>
  <g
     id="22-22-kup-5">
    <rect
       style="opacity:0.00100002;fill:#d6dbf1;fill-opacity:1"
       width="22"
       height="22"
       x="0"
       y="0"
       id="rect2" />
    <path
       id="Zoom-4-9-9"
       class="st0  ColorScheme-Highlight "
       d="m 17.463906,15.699387 h 2e-6 C 18.04852,14.622465 19.000012,12.323079 19.000012,11.000002 19.000012,6.5692306 15.430769,3 11,3 6.569229,3 3,6.5692306 3,11.000002 3,15.430771 6.569229,19 11,19 c 2.646158,0 4.984617,-1.292301 6.46154,-3.292304 z m -6.463907,0.839078 c -3.04616,0 -5.53846,-2.492307 -5.53846,-5.538463 0,-3.0461548 2.4923,-5.5384624 5.53846,-5.5384624 3.046159,0 5.538469,2.4923076 5.538469,5.5384624 0,3.046156 -2.49231,5.538463 -5.538469,5.538463 z"
       sodipodi:nodetypes="ccssssccscccs"
       style="color:#cdd8e5;fill:#cdd8e5;fill-opacity:0.403922;stroke-width:0.666664;enable-background:new" />
    <path
       id="Zoom-s-8-7"
       class="st1  ColorScheme-Text"
       d="M 17.053491,15.699387 Z M 16.232659,6.6702189 Z m 1.228862,9.0374771 c 1.107695,-1.507694 1.661544,-3.384617 1.507696,-5.261541 C 18.84614,8.5076933 18.015372,6.6923087 16.630754,5.3384621 l -0.861542,0.8615392 c 1.230772,1.2307682 1.969239,2.9230771 1.969239,4.8000007 0,1.415384 -0.430773,2.738462 -1.199999,3.846156 z"
       style="color:#eff0f1;fill:currentColor;fill-opacity:1;stroke-width:0.307696;enable-background:new"
       sodipodi:nodetypes="ccccccccccccccccsccc" />
    <polygon
       id="X-3-3"
       class="st0"
       points="15.2,60 32,43.2 48.8,60 60,48.8 43.2,32 60,15.2 48.8,4 4,48.8 "
       style="fill:#cdd8e5;fill-opacity:0.403922"
       transform="matrix(0.14285714,0,0,0.1427934,6.428573,6.4306105)" />
    <path
       id="X-s-5-6"
       class="st1"
       d="m 8.028573,9.186523 1.6,1.599286 -0.4,0.399822 L 7.61429,9.5863449 c -0.442855,-0.4426597 -0.442855,-1.1566264 0,-1.6135652 l 0.985716,-0.9709955 0.4,0.3998214 -0.971433,0.9709951 c -0.228567,0.2284693 -0.228567,0.5997324 0,0.8139223 z m 6.571433,-0.1856311 -2,1.9991071 0.4,0.399822 2,-1.9991081 z m -1.914288,5.0977261 -1.6,-1.599288 -2.085712,2.099062 0.4,0.399821 1.685712,-1.684961 1.185718,1.185188 c 0.671425,0.671125 1.757138,0.671125 2.42857,0 l 0.3,-0.299868 -0.4,-0.399822 -0.3,0.299868 c -0.442861,0.442657 -1.171432,0.442657 -1.614288,0 z"
       style="fill:#eff0f1;fill-opacity:1;stroke-width:0.142822" />
  </g>
</svg>
