<?xml version="1.0" encoding="UTF-8" standalone="no"?>
<svg
   width="22"
   height="22"
   version="1.1"
   id="svg12"
   sodipodi:docname="nulloy-symbolic.svg"
   inkscape:version="1.3.2 (091e20ef0f, 2023-11-25)"
   xmlns:inkscape="http://www.inkscape.org/namespaces/inkscape"
   xmlns:sodipodi="http://sodipodi.sourceforge.net/DTD/sodipodi-0.dtd"
   xmlns="http://www.w3.org/2000/svg"
   xmlns:svg="http://www.w3.org/2000/svg">
  <style
     id="current-color-scheme"
     type="text/css">.ColorScheme-Text { color:#eff0f1; }
</style>
  <defs
     id="defs16" />
  <sodipodi:namedview
     id="namedview14"
     pagecolor="#02334b"
     bordercolor="#000000"
     borderopacity="1"
     inkscape:showpageshadow="2"
     inkscape:pageopacity="0"
     inkscape:pagecheckerboard="true"
     inkscape:deskcolor="#02334b"
     showgrid="true"
     inkscape:zoom="10.429825"
     inkscape:cx="11.21783"
     inkscape:cy="19.079898"
     inkscape:window-width="1920"
     inkscape:window-height="994"
     inkscape:window-x="0"
     inkscape:window-y="0"
     inkscape:window-maximized="1"
     inkscape:current-layer="svg12"
     showguides="false">
    <inkscape:grid
       type="xygrid"
       id="grid559"
       originx="-8"
       originy="-60"
       spacingy="1"
       spacingx="1"
       units="px"
       visible="true" />
  </sodipodi:namedview>
  <g
     id="22-22-mellowplayer">
    <rect
       style="opacity:0.00100002;fill:#d1d5e9;fill-opacity:1"
       width="22"
       height="22"
       x="0"
       y="0"
       id="rect4" />
    <path
       id="Page_1_-6"
       class="st0  ColorScheme-Highlight "
       d="m 14.5,6 v 0 l -1,-1 v 0 h -7 V 18 H 15 c 1.375,0 2.5,-1.125 2.5,-2.5 V 9 Z m -6,1.5 z m 0,2.5 z m 0,5 z m 0,-2.5 z"
       sodipodi:nodetypes="ccccccsscccccccccccccccccccccc"
       style="color:#cdd8e5;fill:#cdd8e5;fill-opacity:0.403922;stroke-width:0.25" />
    <path
       id="Page-s-1"
       class="st1  ColorScheme-Text "
       d="M 15.366667,9 H 17.5 v 7 c 0,1.65 -1.349999,3 -3,3 h -7 v -1 h 7 c 1.1,0 2,-0.900001 2,-2 V 10 H 15.366667 Z M 4.5,5 c 0,-1.1 0.900001,-2 2,-2 h 5 v 1 h -5 c -0.549999,0 -1,0.45 -1,1 v 8.5 h -1 z"
       style="color:#eff0f1;fill:currentColor;fill-opacity:1;stroke-width:0.25"
       sodipodi:nodetypes="ccssccsscccssccssccs" />
    <path
       style="fill:#eff0f1;fill-opacity:1;stroke-width:0.333333"
       d="M 10.461385,7.5 A 2.4285716,2.4285716 0 0 0 8.033,9.928388 a 2.4285716,2.4285716 0 0 0 0.179037,0.907548 1.3333332,1.3333332 0 0 1 1.154296,-0.669271 1.3333332,1.3333332 0 0 1 0.0035,0 v -1.46484 c 1.47e-4,0 -0.01161,-0.132515 0.09245,-0.184895 0.02526,-0.01275 0.05087,-0.01741 0.07423,-0.01688 0.06998,8.67e-4 0.124349,0.0469 0.124349,0.0469 l 1.328777,0.790363 a 1.3333332,1.3333332 0 0 1 1.043598,-0.503902 1.3333332,1.3333332 0 0 1 0.67513,0.185546 2.4285716,2.4285716 0 0 0 -2.246746,-1.518886 z M 9.702921,8.959633 v 2.531251 2.526694 l 2.102213,-1.249345 2.151696,-1.277349 -2.146489,-1.277345 z M 13.033,9.166665 a 2.3333332,2.3333332 0 0 0 -0.112632,0.0072 1.3333332,1.3333332 0 0 1 0.445965,0.992837 1.3333332,1.3333332 0 0 1 -0.10742,0.520837 l 0.965491,0.574871 c 0,0 0.141929,0.06909 0.141929,0.235678 0,0.167026 -0.143228,0.221352 -0.143228,0.221352 L 13.2524,12.296262 a 1.3333332,1.3333332 0 0 1 0.113933,0.53711 1.3333332,1.3333332 0 0 1 -0.446614,0.993488 2.3333332,2.3333332 0 0 0 0.113281,0.0067 2.3333332,2.3333332 0 0 0 2.333333,-2.33335 A 2.3333332,2.3333332 0 0 0 13.033,9.166811 Z M 10.036254,9.546225 11.63977,10.5 l 1.664712,0.990884 -1.669269,0.990882 -1.598959,0.949879 V 11.490884 Z M 8.211388,12.164064 A 2.4285716,2.4285716 0 0 0 8.033,13.071611 2.4285716,2.4285716 0 0 0 10.461385,15.5 2.4285716,2.4285716 0 0 0 12.710081,13.979818 1.3333332,1.3333332 0 0 1 12.033,14.166664 1.3333332,1.3333332 0 0 1 10.978962,13.647131 l -1.375649,0.817716 c 0,0 -0.06898,0.06174 -0.158203,0.02215 C 9.343237,14.441427 9.3696,14.325535 9.3696,14.325535 v -1.492184 a 1.3333332,1.3333332 0 0 1 -0.0035,0 1.3333332,1.3333332 0 0 1 -1.154927,-0.66927 z"
       id="path13-7-6-8" />
    <path
       style="opacity:0.5;fill:#d1d5e9;fill-opacity:1;stroke-width:0.333333"
       d="m 12.033,8.833335 a 1.3333332,1.3333332 0 0 0 -1.043622,0.503909 l 0.991539,0.589185 1.277996,0.761073 A 1.3333332,1.3333332 0 0 0 13.366333,10.166665 1.3333332,1.3333332 0 0 0 12.033,8.833335 Z m -2.666667,1.33333 A 1.3333332,1.3333332 0 0 0 8.033,11.5 a 1.3333332,1.3333332 0 0 0 1.333333,1.333335 1.3333332,1.3333332 0 0 0 0.0035,0 v -1.342451 -1.324219 a 1.3333332,1.3333332 0 0 0 -0.0035,0 z m 3.886067,2.129563 -1.27669,0.758461 -0.996748,0.592442 A 1.3333332,1.3333332 0 0 0 12.033,14.166664 1.3333332,1.3333332 0 0 0 13.366333,12.833335 1.3333332,1.3333332 0 0 0 13.2524,12.296228 Z"
       id="path15-5-2-7" />
  </g>
</svg>
