<?xml version="1.0" encoding="UTF-8" standalone="no"?>
<svg
   viewBox="0 0 22 22"
   version="1.1"
   id="svg4"
   sodipodi:docname="plasma-browser-integration-symbolic.svg"
   width="22"
   height="22"
   inkscape:version="1.3.2 (091e20ef0f, 2023-11-25)"
   xmlns:inkscape="http://www.inkscape.org/namespaces/inkscape"
   xmlns:sodipodi="http://sodipodi.sourceforge.net/DTD/sodipodi-0.dtd"
   xmlns="http://www.w3.org/2000/svg"
   xmlns:svg="http://www.w3.org/2000/svg">
  <sodipodi:namedview
     id="namedview4"
     pagecolor="#000000"
     bordercolor="#999999"
     borderopacity="1"
     inkscape:showpageshadow="2"
     inkscape:pageopacity="0"
     inkscape:pagecheckerboard="0"
     inkscape:deskcolor="#d1d1d1"
     showguides="true"
     inkscape:zoom="8.6590909"
     inkscape:cx="11.317585"
     inkscape:cy="10.624672"
     inkscape:window-width="1920"
     inkscape:window-height="994"
     inkscape:window-x="0"
     inkscape:window-y="0"
     inkscape:window-maximized="1"
     inkscape:current-layer="svg4" />
  <defs
     id="defs3051">
    <style
       type="text/css"
       id="current-color-scheme">.ColorScheme-Text { color: #fcfcfc; } </style>
  </defs>
  <g
     id="22-22-plasma-browser-integration">
    <rect
       style="opacity:0.00100002;fill:#d3dae3;fill-opacity:1"
       width="22"
       height="22"
       x="0"
       y="0"
       id="rect2" />
    <path
       id="Page_1_-0"
       class="st0  ColorScheme-Highlight "
       d="m 14.5,6 v 0 l -1,-1 V 5 H 6.500001 V 18 H 15 c 1.375,0 2.5,-1.125 2.5,-2.5 V 9 Z m -6,1.5 z m 0,2.5 z m 0,5 z m 0,-2.5 z"
       sodipodi:nodetypes="ccccccsscccccccccccccccccccccc"
       style="color:#cdd8e5;fill:#cdd8e5;fill-opacity:0.403922;stroke-width:0.25" />
    <path
       id="Page-s-2"
       class="st1  ColorScheme-Text "
       d="m 15.366667,9 h 2.133332 v 7 c 0,1.65 -1.35,3 -2.999999,3 H 7.500001 V 18 H 14.5 c 1.1,0 2,-0.900001 2,-2 V 10 H 15.366667 Z M 4.500001,5 c 0,-1.1 0.9,-2 2,-2 H 11.5 V 4 H 6.500001 c -0.55,0 -1,0.45 -1,1 v 8.5 h -1 z"
       style="color:#eff0f1;fill:currentColor;fill-opacity:1;stroke-width:0.25"
       sodipodi:nodetypes="ccssccsscccssccssccs" />
    <path
       id="path20-3"
       style="color:#31363b;fill:#eff0f1;fill-opacity:1;stroke-width:0.306159"
       d="m 9.346096,7.3793823 c -0.2548894,0 -0.4615234,0.2045877 -0.4615234,0.4569608 0,0.252372 0.206634,0.456962 0.4615234,0.456962 0.2548941,0 0.4615258,-0.20459 0.4615258,-0.456962 0,-0.2523731 -0.2066317,-0.4569608 -0.4615258,-0.4569608 z m 3.230666,0 c -0.56249,-0.3091221 -1.229495,0.3455646 -0.923044,0.9139228 l 1.384569,1.3708849 -1.384569,1.370887 c -0.380226,0.628764 0.37208,1.231689 0.923044,0.91392 L 14.884412,9.66419 Z M 8.2692055,10.121153 C 7.8443873,10.121153 7.5,10.462133 7.5,10.88276 c 0,0.420618 0.3443873,0.761597 0.7692055,0.761597 0.4248236,0 0.7692058,-0.340979 0.7692058,-0.761597 0,-0.420627 -0.3443822,-0.761607 -0.7692058,-0.761607 z m 1.9999385,2.74177 c -0.5097862,0 -0.923048,0.409177 -0.923048,0.91392 0,0.504745 0.4132618,0.913926 0.923048,0.913926 0.509787,0 0.923048,-0.409181 0.923048,-0.913926 0,-0.504743 -0.413261,-0.91392 -0.923048,-0.91392 z"
       class="ColorScheme-Text "
       sodipodi:nodetypes="ssssscccccccssssssssss" />
    <path
       style="fill:#eff0f1;fill-opacity:1;stroke-width:0.00840822"
       inkscape:connector-curvature="0"
       d="m 15.310685,14.395189 c 0.120702,-0.230384 0.189055,-0.491773 0.189055,-0.769906 0,-0.525282 -0.243922,-0.993596 -0.625414,-1.301054 0.02936,0.02682 0.0574,0.05366 0.08027,0.07377 0.117321,0.107237 0.220297,0.23206 0.302169,0.367777 -0.004,0 -0.004,0.0016 -0.004,0.0017 0.05642,0.08127 0.100449,0.171743 0.135862,0.265573 -0.02024,-0.02758 -0.08861,-0.07036 -0.05567,-0.0046 0.01578,0.03265 0.05567,0.04941 0.06751,0.08125 0.0093,-0.0015 0.004,-0.01257 0.0098,-0.01257 0.0093,0.01586 -0.0039,0.03511 0.01577,0.04687 0.02346,0.07711 0.04132,0.156707 0.05409,0.237974 -0.07083,0.01934 -0.128264,0.09049 -0.173011,0.004 -0.02346,-0.04604 -0.03551,-0.07792 -0.06747,-0.119787 -0.02355,-0.03181 -0.05744,-0.05617 -0.06685,-0.09717 -0.01581,-0.067 -0.126613,-0.10724 -0.129979,-0.180958 -0.0034,-0.01085 -0.02783,-0.06366 -0.02625,-0.0653 0.0067,-0.0059 0.004,-0.03347 0.004,-0.04106 0.0039,-0.02758 0.0075,-0.04942 0.0034,-0.07707 -0.06005,0.01586 -0.110573,-0.0084 -0.172162,-0.01418 0.004,-0.0016 0.004,-0.0027 0.004,-0.0046 -0.01771,-0.01586 -0.03033,-0.0268 -0.05148,-0.03857 0.0235,-0.02348 -0.0033,-0.01341 -0.0042,-0.02843 -0.004,-0.02095 0.05143,-0.01168 0.06063,-0.01587 -0.0033,-0.0026 -0.0075,-0.006 -0.0075,-0.0093 -0.02173,-0.004 -0.01877,0.01932 -0.04301,0.0027 -0.01872,-0.01341 -0.02096,-0.0039 -0.03887,-0.0027 0.004,0.004 0.004,0.0093 0.004,0.01417 0,0 -0.03033,-0.02181 -0.02704,-0.0039 0.01781,0.01672 0.02785,0.03427 0.04897,0.05104 -0.0125,0.0065 -0.02342,-0.0013 -0.03452,-0.0093 0.0033,0.0046 0.0066,0.03096 0.0109,0.03348 -0.02461,-0.0027 -0.03887,-0.01417 -0.02855,-0.03516 -0.0187,-0.0027 -0.05908,-0.04194 -0.06334,-0.06115 -0.0054,-0.0351 -0.0541,-0.03939 -0.05741,-0.06116 -0.0094,-0.0013 -0.106346,-0.06782 -0.103841,-0.04857 0.004,0.03097 0.05569,0.07377 0.08778,0.07709 0.0041,0.02596 0.05409,0.01933 0.05478,0.04773 -0.0465,-0.01254 -0.02847,-0.01586 -0.02344,0.01676 -0.0032,-0.004 -0.02703,0.03605 -0.03031,0.01585 0.0489,0.004 -0.106336,-0.116454 -0.100467,-0.103048 -0.03451,-0.03517 -0.04049,-0.04857 -0.08605,-0.02519 -0.02178,0.01085 -0.09624,-0.0276 -0.07671,0.02096 -0.0029,0.004 -0.102957,0.04687 -0.05906,0.06616 -0.01346,0.0185 -0.0345,0.03426 -0.05316,0.04192 -0.02271,-0.0083 -0.06419,0.02265 -0.07765,0.0027 -0.01582,-0.02595 -0.02699,-0.01586 -0.05408,-0.01758 -0.02793,-0.0027 -0.004,-0.09384 -0.004,-0.105554 0,-0.01669 -0.01418,-0.04028 0.02098,-0.03773 0.03045,0.0027 0.05994,0.0093 0.09115,0.01255 0.03449,-0.0041 0.04806,0.0075 0.04565,-0.03942 -0.0029,0 -0.0029,0.0013 -0.004,0.0013 0.021,-0.03426 -0.07339,-0.04356 -0.07339,-0.06198 0,-0.01257 0.05478,-0.0013 0.06062,-0.0027 0,-0.0059 -0.0039,-0.01086 -0.0039,-0.01757 0.04385,0.004 0.04974,-0.01254 0.08697,-0.02016 0.03112,-0.0065 0.02703,-0.03942 0.06413,-0.03693 0.01089,0.0013 0.05064,0.0039 0.04131,-0.01341 -0.02177,-0.03771 -0.02177,-0.03771 0.0187,-0.05367 0.004,0.0117 0.0076,0.01586 0.0098,0.02014 -0.004,0 -0.004,0.0065 -0.004,0.01506 0.0075,0.0013 0.01254,0.0039 0.0109,0.01339 -0.004,-0.0059 -0.0093,-0.0039 -0.01345,-0.0059 -0.004,0.0093 -0.004,0.01586 -0.004,0.0117 0.02033,0.0027 0.04479,0.0013 0.06504,0.0039 -0.004,0.02435 0.07435,-0.0039 0.09289,0.004 -0.0031,0.0016 -0.0041,0.004 -0.0041,0.004 0.0075,0.0013 0.01581,0.0013 0.0228,0.0013 -0.0053,-0.04194 0.06998,-0.05783 0.06998,-0.04687 0,-0.01006 -0.03379,-0.02265 -0.02344,-0.02684 0.02851,-0.01505 0.06231,0.0075 0.0937,-0.0039 -0.01202,-0.01252 -0.158691,-0.0085 -0.13675,-0.03607 -0.01246,-0.0039 -0.01092,-0.01167 -0.01707,-0.02015 0.004,0.0013 0.06582,-0.02094 0.06505,-0.02349 -0.01196,-0.02845 -0.06004,-0.004 -0.06505,0.004 0.004,0.01341 -0.06232,0.0075 -0.06012,0.0276 0.0043,0.02181 0.03038,0.01586 0.03542,0.03513 0.0031,0.0039 -0.06503,0.03007 -0.02348,0.03773 0.0031,0.01585 -0.04976,0.02843 -0.06063,0.0276 -0.0095,-0.0016 -0.02941,-0.03943 -0.0345,-0.04769 -0.01244,-0.0185 -0.01871,-0.03264 -0.03969,-0.01934 -0.0076,0.0039 -0.06998,0.02015 -0.0726,-0.0027 -0.003,-0.0059 0.0109,0.0013 0.0094,-0.0093 -0.0094,-0.0013 -0.0094,-0.0013 -0.01581,0 0.004,-0.0039 0.004,-0.0059 0.0095,-0.0075 -0.04389,-0.03014 0.03978,-0.04687 0.06005,-0.04437 -0.0066,-0.0016 -0.0095,-0.0027 -0.01419,-0.0039 0.01259,-0.0013 0.110563,-0.04027 0.113921,-0.05027 -0.01345,0.0013 -0.01872,0.0027 -0.03104,0.0027 0.004,-0.0013 0.0094,-0.0027 0.0099,-0.0027 -0.004,0 -0.0093,-0.0016 -0.0093,-0.0016 0.0039,-0.0046 0.04565,-0.0016 0.04657,-0.0016 -0.004,-0.0013 -0.004,-0.0013 -0.0093,-0.0013 0.0066,-0.0027 0.01413,-0.004 0.02173,-0.0027 -0.0041,-0.0017 -0.0041,-0.0017 -0.0041,-0.0027 0.02033,-0.0059 0.04558,0 0.06677,-0.0039 -0.01581,-0.0027 0.03804,-0.01256 0.03291,0.0039 0.02176,0.0027 0.04481,0.0093 0.06748,0.02094 -0.261035,-0.165089 -0.570787,-0.261438 -0.903323,-0.261438 -0.93179,0 -1.687183,0.750641 -1.687183,1.674697 0,0.61074 0.328321,1.143557 0.819538,1.435934 -0.0098,-0.0142 -0.004,-0.0301 -0.0098,-0.04688 -0.01086,-0.02264 -0.02862,-0.02596 -0.02862,-0.057 0,-0.06198 -0.004,-0.100536 -0.02947,-0.162527 -0.02678,-0.03512 -0.02251,-0.113104 -0.0302,-0.15667 -0.01501,-0.04193 -0.02093,-0.08459 -0.03877,-0.125653 -0.01953,-0.04438 -0.07427,-0.07542 -0.122327,-0.08127 -0.0624,-0.01087 -0.07176,-0.06363 -0.109791,-0.104716 -0.03219,-0.03347 -0.06413,-0.07205 -0.08948,-0.109751 -0.01258,-0.01677 -0.03802,-0.01848 -0.04566,-0.04769 -0.0067,-0.02682 0.01955,-0.03773 0.01955,-0.06199 -0.03724,-0.02015 -0.02632,-0.02517 -0.0254,-0.06529 0.0026,-0.03426 0.04808,-0.07122 0.04729,-0.106389 -0.0093,-0.004 -0.01258,-0.0082 -0.0093,-0.01585 -0.0076,-0.03345 -0.05072,-0.08881 -0.0076,-0.106399 -0.0093,-0.04604 0.04812,-0.07709 0.08266,-0.09217 0.0076,-0.0039 0.0159,-0.02683 0.02625,-0.01341 0.0042,0.004 0.0042,0.01086 -0.004,0.01586 0,0.01087 -0.0067,0.06447 0.01772,0.06365 0.01084,-0.0018 -0.03041,-0.05783 0.02628,-0.06117 -0.004,-0.01004 -0.01588,-0.0039 -0.01869,-0.01586 0.02032,-0.0016 0.0448,0.01668 0.05644,0.03006 0.0094,0.01005 0.04564,0.0046 0.05741,0.0093 0.01687,0.0066 0.05063,-0.01584 0.07343,-0.01584 -0.004,0.0026 -0.0093,0.0039 -0.01187,0.0026 0.0076,0.03774 0.092,0.04688 0.115633,0.08126 0.01871,0.0268 0.09791,0.03426 0.127453,0.03347 0.03452,-0.0026 0.09368,0.08126 0.07761,0.103046 -0.02456,0.03263 0.0109,0.07292 0.042,0.06955 0.03118,-0.004 0.0039,-0.05865 0.06334,-0.03426 0.02271,0.01005 0.03118,0.0083 0.0379,0.03515 0.02782,-0.004 0.06507,-0.01338 0.09789,-0.0046 0.03281,0.0093 0.0532,0.03007 0.08782,0.03774 0.07502,0.01586 0.0039,0.152476 -0.01417,0.185985 -0.01262,0.02519 0.02543,0.109751 0.02033,0.14661 -0.0159,0.06443 -0.02633,0.08712 -0.0819,0.123153 -0.01514,0.0093 -0.04388,0.03942 -0.0405,0.06036 0.004,0.01756 0.01088,0.03606 0.01692,0.05366 -0.0098,0.01256 -0.01515,0.02683 -0.01515,0.04193 v 0 c -0.0039,0.04027 -0.02112,0.07624 -0.02859,0.118123 -0.004,0.0276 -0.09115,0.04027 -0.09458,0.03179 0.01587,0.04275 0.07761,0.02435 0.04893,0.08882 -0.0099,0.02264 -0.04558,0.02762 -0.0658,0.03263 -0.02537,0.006 0.0022,0.03428 0,0.04767 0.01182,0.0268 -0.02866,0.01336 -0.04481,0.01765 -0.0304,0.0085 0.0456,0.04275 0.0405,0.03264 0.0076,0.01586 -0.01781,0.0072 -0.02367,0.0094 0.0067,0.01586 0.03119,0.05446 0.0026,0.06782 -0.04561,0.0276 0.03452,0.04358 0.04211,0.06528 0.194981,0.07791 0.407666,0.121478 0.630491,0.121478 0.638072,0 1.193433,-0.351861 1.479546,-0.870445 0.0093,-0.01667 0.01504,-0.02595 0.02355,-0.03347 z m -0.638088,-2.056721 c 0,0.0043 -0.0039,0.01254 -0.01196,0.0117 -0.0042,0 -0.0075,-0.004 -0.0075,-0.0059 0.0042,0 0.0094,-0.0016 0.01261,-0.0016 -0.01408,-0.01087 0.004,-0.0065 0.0065,-0.004 z m -0.06831,0.0092 c -0.004,0.004 -0.0076,0.0082 -0.0109,0.0134 -0.0094,-0.0075 0.0075,-0.01419 0.0109,-0.0134 z m -0.10469,0.03011 c -0.01245,0.0013 -0.0076,0.02517 -0.02699,0.01168 0.004,-0.0027 0.004,-0.0027 0.004,0 0.0039,0 0.0093,-0.0027 0.0093,-0.004 -0.02938,-0.0059 -0.004,-0.03181 0.01345,-0.0065 z m -0.13758,-0.208619 c -0.0039,0.0013 -0.0039,0.0013 -0.0039,0.0013 0.0039,0.0016 0.0075,0.0016 0.0098,0.0027 -0.0076,-0.0016 0.01708,0.0016 0.02036,0.0027 -0.0158,-0.01419 0.01709,-0.0046 0.01783,-0.0046 0,0.0017 -0.003,0.0017 -0.003,0.0039 0.0075,-0.0016 0.01776,0 0.02792,0.002 -0.0041,-0.0013 -0.0041,-0.002 -0.0041,-0.004 0.0055,0.0013 0.01254,0 0.01866,0 -0.004,0 -0.01952,-0.0013 -0.02011,-0.0013 -0.0039,0 -0.01871,0.0013 -0.02101,-0.0039 0.0041,0 0.0094,0 0.01345,0.0013 v -0.0013 c 0.004,0 0.004,0 0.0066,0 -0.003,-0.0013 -0.004,-0.0013 -0.004,-0.0017 0.02782,0 0.07171,-0.0043 0.09789,0.0065 -0.0094,0.0016 -0.05315,0.0085 -0.07759,0.004 0.0039,0.0016 0.0075,0.0027 0.0109,0.004 -0.0039,0.0013 -0.0039,0 -0.0039,0 0.01252,0.0016 0.02938,0.004 0.04298,0.01005 -0.01248,0.0013 -0.01708,0.0039 -0.02854,0.0046 -0.004,-0.0013 -0.004,-0.0027 0,-0.004 -0.004,0 -0.01501,-0.0013 -0.02024,-0.0016 0,-0.0027 0.004,-0.0016 0.0055,-0.0039 -0.004,0 -0.0055,-0.0027 -0.0093,-0.004 -0.01872,0.004 -0.07261,0.02435 -0.07435,0.004 0.0094,0 0.01708,0.0013 0.02625,0.0013 -0.004,-0.0017 -0.03111,0 -0.03111,-0.0046 0,0 0.01583,-0.0027 0.0246,-0.004 -0.0109,0 -0.03039,0.0027 -0.03546,-0.0016 0.003,-0.0013 0.004,-0.0013 0.004,-0.0013 -0.0053,-0.0013 -0.01091,-0.0027 -0.0095,-0.0039 -0.004,-0.0013 -0.0075,-0.0027 -0.01198,-0.004 0.0098,-0.0013 0.01955,-0.002 0.02939,0.0013 z m -0.02769,0.0046 v 0 c 0,0.0013 0,0.0013 0,0 0,0.0013 0,0 0,0 z m -0.0029,0 c 0.004,0.0016 0.0094,0.0027 0.01089,0.0059 -0.0055,0 -0.01501,-0.004 -0.01089,-0.0059 z m 0.683629,0.655997 c 0.0034,0.01005 -0.03377,0.03011 -0.03801,0.0093 0.0094,-0.004 0.0263,-0.0085 0.03801,-0.0093 z m -0.168767,-0.0059 c -0.01196,0.0046 -0.03725,-0.004 -0.04728,-0.0093 0.01579,-0.0013 0.03451,0.004 0.04728,0.0093 z m -0.241121,-0.09024 c -0.004,0.0059 -0.004,0.03016 -0.004,0.03016 -0.0098,-0.0013 -0.0541,-0.02517 -0.05478,-0.03345 0.0094,-0.0027 0.0481,0.0014 0.0574,0.004 z m -0.134026,-0.115477 c 0,0.004 0.004,0.0059 0.004,0.0059 -0.004,0.0072 -0.004,0.02179 -0.004,0.02518 -0.0075,-0.0027 -0.01091,-0.02015 -0.01583,-0.02599 0.0039,0 0.01092,-0.0017 0.01583,-0.0046 z m -0.0075,0.05702 c -0.003,-0.0046 -0.0075,-0.0093 -0.0094,-0.01505 0.05569,-0.0082 0.01583,0.07376 0.0094,0.01505 z m -0.109723,0.004 c 0.003,0.0072 -0.01584,-0.004 -0.01584,-0.004 0.0094,-0.0065 0.01347,-0.0046 0.01584,0.004 z m -0.147916,-0.36846 c -0.004,0.004 -0.0098,0.0059 -0.01581,0.0082 0.0065,0.01254 0.01954,0.01587 0.0398,0.0046 0.004,0.01087 -0.02025,0.02015 -0.02181,0.02598 0.02625,0.0065 0.06507,0.03266 0.06679,0.05954 0.0039,-0.0013 0.0039,-0.0027 0.0075,-0.0027 0.01503,-0.0065 0.01503,0.0093 -0.0029,0.02762 0.0039,0.0013 0.0094,0.0018 0.01421,0.004 0,0.0043 -0.115641,0.01505 -0.128298,0.01419 0.0075,-0.0134 0.04564,-0.01934 0.04564,-0.0268 -0.004,0.004 -0.0413,-0.0027 -0.0413,-0.0046 0,-0.0085 0.01349,-0.01085 0.01349,-0.02682 0.01089,0.0013 0.02938,0.0013 0.02938,-0.01255 -0.0098,0 -0.0187,-0.0016 -0.0109,-0.01166 -0.004,-0.0013 -0.03219,0.0026 -0.031,-0.004 0,-0.01505 0.01778,-0.0075 -0.004,-0.0185 -0.0039,0.0027 -0.0039,0.004 0,0.004 -0.0039,0 -0.0039,0 -0.0039,0 0,-0.01586 -0.004,-0.01252 -0.004,-0.02433 -0.0094,-0.0016 -0.01412,-0.0039 -0.01412,-0.0075 0.004,0 0.01779,0.0046 0.01779,0.0027 -0.0125,-0.004 0.04391,-0.03347 0.04201,-0.01169 z m -0.02938,0.07035 c 0,-0.0027 0.0028,-0.004 0.0041,-0.0046 0.0028,0 0.0039,0.0013 0.0039,0.0013 0,0.0013 -0.0028,0.0027 -0.0028,0.0043 -0.004,-0.0013 -0.004,-0.0013 -0.0076,-0.0013 z m -0.02354,-0.07292 c 0,0.004 -0.004,0.0085 -0.0126,0.0075 -0.01348,0 0.0109,-0.0075 0.0126,-0.0075 z m -0.06914,0.06865 c 0.0027,-0.0075 0.02179,-0.0045 0.02699,-0.0075 -0.0126,-0.01338 0.02093,-0.01338 0.02697,-0.0117 0.03888,0.0027 0.0098,0.02015 0.0098,0.02436 -0.0028,0.03095 -0.02179,0.04103 -0.05642,0.03855 -0.03622,-0.0027 0.004,-0.02517 0.004,-0.03427 -0.004,-0.004 -0.0066,-0.0065 -0.012,-0.0093 z M 13.1421,12.209354 c 0.0067,0 0.01419,0 0.02032,0 -0.004,0 -0.0093,0 -0.01258,-0.0027 0.004,-0.0027 0.01087,-0.002 0.01687,-0.002 -0.0022,-0.0013 -0.004,-0.0013 -0.004,-0.0016 0.0077,-0.0016 0.01586,-0.0016 0.02363,-0.0027 -0.0041,-0.0013 -0.0098,-0.0013 -0.0067,-0.0027 0.01348,0 0.0413,0.01167 0.04973,0.0059 l -0.0022,-0.0013 c 0.0098,-0.0013 0.0092,0.0013 0.0038,0.0046 0.01346,-0.0075 0.01688,0.0093 0.03889,-0.0059 0.0039,-0.0013 -0.0098,-0.0039 -0.01416,-0.0039 0.0098,0 0.01257,-0.0013 0.0067,-0.0027 -0.01089,0 -0.01954,-0.002 -0.02107,-0.004 0.0039,-0.0013 0.0093,-0.002 0.01259,-0.0027 -0.004,0.0013 -0.01192,0.0013 -0.01772,0.0013 0.0093,-0.004 0.01873,-0.004 0.02939,-0.004 -0.0098,-0.0016 -0.02032,0.004 -0.03037,0.0016 0.0052,-0.0013 0.0093,-0.0016 0.01418,-0.0027 -0.0095,0.0016 -0.01778,0.0016 -0.02701,0.0016 0.04891,-0.01766 0.187369,-0.03006 0.236313,-0.01255 -0.02542,0.0065 0.04131,-0.004 0.03888,0.0027 -0.004,0.0046 -0.0421,0.0046 -0.04564,0.0046 0.0039,0.0013 0.01344,-0.0013 0.02033,-0.0013 -0.03544,0.01003 -0.07341,0.0092 -0.108879,0.01766 0.0041,0 0.0053,0 0.0095,0 -0.004,0.0027 -0.004,0.0027 -0.01258,0.0027 0.004,0.0013 0.0067,0.0013 0.0067,0.004 -0.0159,0.004 -0.02456,0.0065 -0.0413,0.0085 -0.004,0.0075 -0.01782,0.004 -0.02458,0.01005 0.004,-0.0013 0.01587,-0.0016 0.0141,0 -0.027,0.02599 -0.08947,0.004 -0.129126,0.0065 0.0077,-0.0027 0.01587,-0.004 0.02458,-0.004 -0.02173,-0.01004 0.02781,-0.004 0.03452,-0.004 -0.01087,-0.0082 -0.02939,-0.0065 -0.0405,-0.0039 0,0.0013 0.0037,0.0016 0.0022,0.0027 -0.0093,0 -0.03888,-0.0027 -0.04728,0.0013 0.0036,0 0.0041,0 0.0041,0 -0.0036,0 -0.0041,0.0013 -0.0067,0.0013 0.0022,0 0.0036,-0.0013 0.0036,-0.0013 -0.0039,0 -0.0041,-0.0013 -0.0067,-0.0039 0.01185,-0.0027 0.02366,-0.004 0.03549,-0.004 -0.0041,-0.0013 -0.02273,-0.0016 -0.03382,-0.0016 0.0022,0 0.004,0 0.004,-0.0013 -0.01349,0.0039 -0.02113,0.0039 -0.0152,0 z m 0.146848,0.0553 c -0.0098,0.004 -0.03289,0.004 -0.04385,0.004 -0.0022,0 -0.0169,-0.0039 -0.01258,-0.0065 0.01258,-0.01005 0.04298,-0.0017 0.05644,0.0016 z m -0.188254,-0.05275 c 0.004,0 0.01087,0 0.01349,-0.0013 -0.0036,0.0013 -0.004,0.0027 -0.004,0.0039 0.0068,0 -0.01419,0.0013 -0.0093,-0.0027 z m 0.01949,0.01586 c 0.004,-0.0013 0.004,0 0,0 v 0 c -0.0094,0 -0.04207,0.0027 -0.02172,-0.0013 -0.0099,-0.0084 0.0322,-0.01088 0.02172,0.0013 z m 0.01522,0.0016 c -0.0041,0.0027 -0.0076,0.004 -0.01189,0.004 -0.004,0 -0.02276,-0.0013 -0.02276,-0.0013 0.01186,-0.0027 0.02358,-0.0027 0.03453,-0.0027 z m 0.02032,0.01255 c -0.004,0.0013 -0.01085,0.0013 -0.01588,0.0013 -0.004,0.004 0.0098,0.0016 0.01353,0.0039 -0.0095,0.0027 0.116476,-0.0084 0.11817,-0.0013 -0.004,0 -0.004,0.0013 -0.0076,0.0027 0.004,0 0.004,0 0.004,0 -0.03117,0.01933 -0.09024,-0.0093 -0.118169,0.0059 -0.0076,0 -0.05907,0 -0.03116,-0.004 -0.0039,-0.0085 -0.0068,-0.01004 -0.01521,-0.004 -0.0067,0 -0.0135,-0.0016 -0.02034,-0.004 0.004,-0.004 0.06998,-0.004 0.07172,0.0027 z m -0.06063,0.0084 c 0.01257,0.0059 -0.03548,0.0039 -0.03548,0.0039 0.004,-0.0016 0.0093,-0.0027 0.0095,-0.0027 0.0093,-0.004 0.01689,-0.0059 0.02629,-0.0027 z m -0.07604,-0.02597 c 0.0036,0 0.004,-0.0013 0.004,-0.0016 -0.004,0 -0.0055,-0.0013 -0.004,-0.0016 0.01087,-0.0016 0.0456,-0.0046 0.05409,0.0039 -0.0036,0 -0.004,0.0013 -0.004,0.0016 0.004,0.004 -0.0093,0.0046 -0.0236,0.0046 -0.0041,0.0013 -0.0076,0.0013 -0.01258,0.0016 0.004,0 0.0053,-0.0013 0.0095,-0.0016 -0.01181,0 -0.02457,-0.0016 -0.02698,-0.004 0.0055,0.0013 0.01259,-0.0013 0.01768,-0.004 -0.0098,0.0016 -0.0135,0.0027 -0.01417,0.0016 z m -0.0263,0.0093 c 0.0098,-0.0013 0.004,0.0039 0.01188,0.0039 -0.004,0.0013 -0.0055,0.0027 -0.0093,0.0027 -0.004,0.0013 -0.0067,-0.004 -0.004,-0.0059 z m -0.0036,0.01169 v 0 c 0,-0.0039 0.0187,0.0027 0.02366,0.004 h 0.0025 c -0.0036,-0.0013 -0.004,-0.0013 -0.004,-0.0016 0.0093,-0.0046 0.01588,0.0027 0.0254,-0.004 -0.0067,0.0013 -0.01256,0.0013 -0.0098,-0.0016 0.004,-0.0013 0.038,0 0.038,0 0,0.02178 -0.04298,0.0084 -0.05238,0.01417 0.004,-0.004 0.01688,-0.004 0.02178,-0.0059 -0.004,-0.0027 -0.01259,-0.002 -0.02033,-0.002 0,0.0015 0,0.0015 0,0.0015 0,0 0,0 -0.0026,-0.0015 -0.0093,0.002 -0.01689,0.0027 -0.02275,0.0027 0.0026,-0.0013 0.0026,-0.0013 0.0036,-0.0027 -0.004,0.002 -0.004,0 -0.0067,-0.0013 z m 0.038,0.02436 c -0.0076,0.004 -0.0152,0.004 -0.02361,0.0065 0.0041,0 0.02033,-0.004 0.0095,0.0027 0.0036,0 0.0067,0.0013 0.0093,0.0013 -0.01587,0.0093 -0.05477,0.02263 -0.06914,0.0027 0.0109,-0.0065 0.02175,0.0014 0.03283,-0.0065 -0.03042,-0.0013 0.0397,-0.004 0.0421,-0.0059 z m -0.04889,0.0494 c -0.0076,0.0027 -0.06163,0.0027 -0.03382,-0.0027 -0.01086,0.0027 0.0421,-0.01586 0.03382,0.0027 z m -0.01181,-0.06034 c -0.004,0.0013 -0.004,0 -0.0076,0.0013 0.0055,-0.0039 0.01188,-0.0039 0.0187,-0.0043 -0.0036,0.004 -0.004,0.0059 -0.01086,0.004 z m -0.04898,-0.02516 c 0.0055,-0.0039 0.02634,-0.0027 0.038,-0.0027 0.0039,-0.0013 0.0041,-0.0013 0.0075,-0.0013 -0.0026,0.0013 -0.004,0.0013 -0.0075,0.0013 -0.0036,0 -0.004,0.0013 -0.004,0.0013 0.0026,0.0013 0.0036,0.002 0.0036,0.0027 -0.02275,0.0027 -0.0254,0.004 -0.0093,0.0027 -0.004,0.0039 -0.02033,0.004 -0.02778,0.004 -0.0093,0.0013 0.0041,-0.004 0.01872,-0.0093 -0.0068,-0.0016 -0.01189,-0.0013 -0.01688,0.0013 z m -0.01087,0.004 c -0.0041,0.0039 -0.0093,0.0039 -0.01187,0.0013 0.004,-0.0027 0.0093,-0.0027 0.01187,-0.0013 z m -0.02625,0.01004 c 0.004,-0.0013 0.0093,-0.0013 0.01258,-0.0013 -0.004,0.0027 -0.0077,0.0041 -0.01195,0.004 -0.0036,-0.0013 -0.0041,-0.0016 -0.0026,-0.0027 z m -0.004,-0.0059 c 0.004,0.0016 0.004,0.004 -0.0055,0.004 -0.004,0.0046 -0.0093,0.0075 -0.01688,0.0059 0.0055,-0.0075 0.01353,-0.01087 0.02276,-0.01005 z m -0.03218,0.01666 c 0.004,-0.0027 0.0068,-0.0027 0.01194,-0.0027 -0.0026,0 -0.0036,-0.0013 -0.004,-0.0013 0.004,-0.0016 0.0077,-0.0027 0.01188,-0.0027 -0.0036,0 -0.004,-0.0013 0,-0.0016 0.01949,-0.0027 0.03888,0.01166 0.06006,0.004 -0.004,0.0013 -0.004,0 -0.0068,-0.0013 0.004,0 0.0068,-0.0013 0.0093,-0.0027 -0.01588,-0.0013 0.01953,-0.0065 0.02274,-0.0065 -0.01943,0.0093 0.02036,0.0059 0.01688,0.0082 -0.02777,0.01585 -0.0717,0.004 -0.102124,0.0093 0,0.0059 -0.004,0.0075 -0.01419,0.0045 0.004,-0.0027 0.0093,-0.0045 0.01419,-0.0045 0,0 0,-0.0013 0,-0.0013 -0.004,0 -0.0055,0.0017 -0.0076,0.0027 -0.0076,0.0016 -0.01586,0.0027 -0.02363,0.0016 0.0041,-0.004 0.0093,-0.0075 0.0142,-0.0065 -0.0036,0.0013 -0.004,0 -0.004,0 z m -0.07262,0.05444 c 0.0039,-0.0046 0.02627,-0.02264 0.03982,-0.02761 -0.0026,0 -0.0036,0 -0.004,0 0.0041,-0.0027 0.0067,-0.004 0.0099,-0.0065 0.0026,0.0027 0,0.004 -0.0026,0.0046 0.004,0 0.004,0.0016 0.004,0.0065 0.02113,-0.0041 0.05479,0.0065 0.05147,0.0065 0.02032,-0.0013 0.04049,-0.03265 0.06749,-0.02345 -0.0036,-0.0013 -0.02458,0.01417 -0.02629,0.01761 -0.0098,0.02095 0.0036,0.0082 0.01588,0.02015 -0.0067,0.0027 -0.02115,0.0013 -0.027,0.0039 0.0026,-0.0013 0.004,0.004 0.004,0.004 -0.01952,0.0093 -0.134206,0.01341 -0.139263,0.0075 -0.0036,-0.0013 -0.0095,0 -0.01522,0 0.01689,-0.01341 0.02623,-0.01254 0.0465,-0.01504 -0.0093,-0.0039 -0.02103,-0.0016 -0.027,0 z m -0.02455,0.0185 c 0.004,-0.0013 0.004,0.0016 0.004,0.0065 -0.004,0.0013 -0.0098,0.0013 -0.01522,0.0027 0.004,-0.0039 0.0076,-0.0065 0.01086,-0.0093 z m -0.271486,0.931571 c 0.004,-0.0059 0.004,-0.0093 0.01087,-0.01085 0.004,-0.0059 0.004,-0.01167 0.0067,-0.0065 -0.01189,0.03428 -0.0135,0.01005 -0.01773,0.01756 z m 0.08604,0.163362 c -0.04891,0.0018 -0.02697,-0.02516 -0.02101,-0.02435 0.0093,0.0026 0.01588,0.01086 0.01953,0.01502 0,-0.0015 0,-0.0026 0,-0.004 0.004,0.004 0.004,0.0072 0.0036,0.01256 z m 0.0026,-0.09134 c 0.01421,-0.03427 0.004,-0.08881 -0.04813,-0.09466 -0.01349,-0.04525 -0.0177,0.01166 -0.05907,0.006 0.04131,-0.05276 0.07343,-0.06116 0.119007,-0.01586 0.0142,0.01503 0.0481,0.062 0.04653,0.07459 0.02276,0.0065 0.0055,0.01933 0.01688,0.03511 -0.02361,0.03094 -0.04893,-0.0015 -0.07503,-0.0039 z m 0.06996,-0.190159 c 0.0039,-0.004 0.004,0.01255 0.004,0.01586 -0.0093,0.01758 -0.004,-0.01339 -0.004,-0.01586 z m 0.06914,0.285673 c -0.0036,-0.01586 -0.02623,0.02266 -0.03219,0.02095 0,0 -0.03723,-0.0653 -0.05239,-0.02352 -0.0397,-0.02354 0.03888,-0.03015 0.04298,-0.02758 0.0026,-0.0072 0.0036,-0.0821 0.02112,-0.05367 0.0093,0.01418 0.02179,0.004 0.0345,0.004 0.02635,0.004 0.02277,0.02926 0.03219,0.04688 -0.0036,-0.0059 -0.0039,-0.0084 0,0.0015 0,0 0,-0.0015 0,-0.0015 0.004,0.01086 0.0095,0.03426 0.0095,0.03262 -0.004,0 -0.05567,0 -0.05567,-0.0015 z m -0.05661,-0.333538 c 0.004,-0.004 0.0093,-0.0059 0.01349,-0.0059 0.004,0.0015 0.004,0.004 0.004,0.0082 -0.0093,0 -0.01521,-0.0027 -0.01871,-0.0027 z m 0.04886,0.176767 c -0.0036,0.01086 -0.0076,0.01587 -0.01945,0.01502 -0.01187,-0.0039 0.01688,-0.01257 0.01945,-0.01502 z m -0.02033,-0.169199 c 0,0.0027 0,0.0046 0,0.0085 -0.004,0 -0.0036,-0.0046 0,-0.0085 z m 0.108873,0.348505 c 0.0055,-0.01761 0.03453,0.0059 0.03546,0.01505 -0.0093,0.01256 -0.0405,0.004 -0.03546,-0.01505 z m 0.361407,-0.764104 c -0.02698,0.01506 0.0026,-0.03093 0.038,-0.03264 -0.0094,0.0017 -0.01182,-0.0017 -0.0054,-0.0085 -0.02699,0.0014 -0.07263,0.03181 -0.09369,0.0268 -0.02276,-0.004 -0.09287,0.05187 -0.05409,0.05105 -0.02355,0.0083 -0.05821,0.0065 -0.08354,0.01773 0.004,0 0.01952,-0.0039 0.02367,0.0013 -0.01421,0.004 -0.07857,0.02683 -0.07437,0.03607 -0.01187,0.0065 -0.01587,0.04439 -0.03794,0.04361 0.0036,0 0.0095,-0.03181 0.0099,-0.03514 -0.004,0.004 -0.02455,0.03858 -0.02273,0.04439 0.0036,0 0.004,0 0.004,0 -0.004,0.0072 -0.0095,0.01339 -0.01773,0.01586 0,0.0043 0.004,0.0059 0.0055,0.0065 -0.0068,0.0083 -0.02457,0.0046 -0.01258,0.01849 -0.01511,0.01168 -0.03548,0.01419 -0.05147,0.02517 0,0 0.0026,0.0018 0.0026,0.0018 -0.06505,0.0268 -0.122382,0.05533 -0.130825,0.131528 -0.004,0.01934 -0.02536,0.104719 -0.05407,0.10137 -0.02629,-0.004 0.02366,-0.127338 0.02032,-0.137389 0,-0.0014 -0.07262,-0.01341 -0.06914,-0.02016 -0.01088,0.0027 -0.02174,0 -0.03452,0.004 0.004,0.004 0.004,0.004 0.0093,0.0014 -0.0076,0.01168 -0.01689,0.01848 -0.01351,0.02599 -0.02113,0.0093 -0.0405,-0.03347 -0.06916,-0.01771 -0.04298,0.02266 -0.07434,0.04275 -0.09875,0.08543 -0.0026,0 -0.0026,0 -0.0036,0 -0.0055,0.01504 -0.132509,0.222845 -0.07435,0.235418 0.07933,0.01665 0.08268,-0.09384 0.168806,-0.07959 -0.01086,0.02264 -0.03042,0.03857 -0.0405,0.06117 -0.0067,0.01419 -0.01349,0.02181 -0.02034,0.03012 -0.0098,0.01586 -0.09791,0.08796 -0.02114,0.09133 0.09199,0.0059 0.0236,0.09217 0.004,0.139071 -0.01588,0.04194 -0.04972,0.178444 0.02946,0.144935 0.03792,-0.01586 0.0389,0.04027 0.04485,0.06201 -0.004,0.004 -0.03114,0.02926 -0.03114,0.02926 -0.0036,-0.01257 0.01257,-0.05701 -0.004,-0.06365 -0.03548,-0.01256 -0.03791,0.07124 -0.05569,0.06365 -0.03382,-0.01341 -0.01688,-0.142419 -0.04201,-0.150793 -0.0039,0.004 -0.0039,0.0093 -0.0039,0.01256 -0.004,-0.0016 -0.004,-0.0018 -0.0055,-0.0026 -0.0067,-0.02598 0.01589,-0.05274 0.01418,-0.08039 -0.0036,-0.02435 -0.0041,-0.04523 0.0036,-0.06953 -0.0228,-0.0065 -0.04388,-0.02264 -0.05567,-0.05188 -0.004,-0.01085 0.0026,-0.06445 -0.01089,-0.06699 -0.0075,-0.03096 -0.02173,0.0093 -0.03622,0.0045 -0.01588,-0.004 -0.02101,-0.0578 -0.03452,-0.0578 0.04481,-0.242114 0.144323,-0.473333 0.289499,-0.674401 0.07085,-0.09886 0.153608,-0.188499 0.244759,-0.269763 0.02948,-0.0268 0.06582,-0.05864 0.111427,-0.04277 0.0077,0.0027 0.03119,0.0013 0.0448,-0.01005 -0.0026,0 -0.0036,0 -0.0036,0 -0.0075,0.0016 -0.03042,0.0046 -0.02698,0.0027 0.0041,-0.0027 0.01258,-0.0027 0.02698,-0.0027 0.0036,0 0.004,0 0.004,0 0,0 -0.0026,0 -0.0026,0 0.03546,0.0016 0.09196,0.0085 0.112238,0.004 0.0041,-0.0027 0.0076,-0.004 0.0076,-0.004 0,0.0027 -0.004,0.004 -0.0076,0.004 -0.004,0.0027 -0.004,0.004 0.0041,0.0027 0.0142,-0.01086 0.03801,-0.0082 0.04386,-0.01666 -0.0041,0.0013 -0.0076,0.0016 -0.01258,0.0027 0.0041,-0.0027 0.0093,-0.004 0.01258,-0.0065 0.0041,-0.004 -0.02032,-0.0046 -0.0159,-0.0085 0.0159,-0.01169 0.07263,-0.01339 0.05906,-0.004 -0.0053,0.0027 -0.01186,0.004 -0.01769,0.004 0.0026,0.0039 0.0135,0.0013 0.01871,0.0027 -0.01871,0.0043 0.004,0.0013 -0.0093,0.01085 -0.004,0 0.04651,-0.01167 0.03715,-0.0039 -0.01188,-0.0013 -0.01588,0.0039 -0.01418,0.01254 0.01351,0.01341 0.05409,-0.0235 0.06504,-0.02595 -0.0026,0 -0.08359,-0.0016 -0.07342,-0.0093 0.01182,0.0039 0.02172,0.0039 0.03042,-0.004 -0.004,-0.0016 -0.02865,-0.0027 -0.02865,-0.0027 -0.004,-0.01085 0.0312,-0.01586 0.0372,-0.01851 -0.0098,0.004 -0.02781,0.002 -0.03801,0.0065 0.0036,0 0.004,0 0.004,-0.0013 -0.0093,0.004 -0.01767,0.0075 -0.0278,0.0065 0.02948,-0.02015 0.04483,-0.02015 0.08529,-0.0218 -0.0067,0.004 -0.01258,0.0041 -0.02032,0.0065 0.01952,-0.004 0.03714,-0.004 0.05567,-0.004 -0.0067,0.0017 -0.03968,0.01006 -0.02944,0.01006 -0.02175,0.01004 0.06997,-0.02095 0.07501,-0.0046 0.0022,0.0013 -0.004,0.0084 -0.0054,0.0084 0.03889,0 0.07083,0.01253 0.10803,0.01337 0,0.0013 -0.0022,0.0017 -0.0022,0.0027 0.004,-0.0013 0.0092,0 0.0118,0.004 -0.0041,0.0013 -0.0093,0 -0.01089,0.0027 0.0039,-0.0013 0.0095,0 0.0125,0.0016 -0.004,0.0016 -0.0076,0.0016 -0.0109,0.004 0.004,0.0016 0.0481,0.01586 0.0473,0.01766 -0.004,0.02015 -0.03621,0.01085 -0.05238,0.0093 -0.0039,0.004 -0.004,0.0013 -0.0067,0.0059 0.0093,-0.0013 0.01253,0.01085 0.02459,0.0093 -0.0093,0.03012 -0.0093,0.01254 -0.04299,0.01933 -0.0022,-0.0016 0.0389,0.01759 0.01781,0.02261 -0.02639,0.004 -0.05645,-0.01339 -0.07265,-0.02095 -0.0053,-0.0039 -0.07501,0.004 -0.07262,0.0013 0.0152,-0.02016 0.05478,-0.01341 0.07605,-0.02351 -0.01689,-0.0046 0.04388,-0.01585 0.02362,-0.03007 0,0.01341 -0.03282,0.0039 -0.03219,0.0039 0.0093,-0.0039 0.01689,-0.0075 0.02703,-0.0065 -0.0041,-0.0027 -0.02865,-0.0039 -0.02941,-0.0039 0.0041,-0.0013 0.0076,-0.0016 0.01186,-0.004 -0.004,-0.0027 -0.0054,-0.0046 -0.0093,-0.0046 -0.004,0 -0.01089,0.0016 -0.01419,0.0046 0.0041,-0.004 0.0099,-0.0046 0.01419,-0.0046 0,0 0.0022,0 0.0038,0 -0.0099,-0.0039 -0.04808,0.004 -0.04049,-0.0016 -0.0054,0 -0.01587,0 -0.02698,0.0013 0.0093,0.0013 0.01687,0.0046 0.02541,0.0046 -0.01587,0.01342 -0.0465,0.02761 -0.07935,0.03774 0.0067,-0.0016 0.004,0.0016 0.004,0.004 -0.0055,0 -0.0076,-0.0016 -0.004,-0.004 -0.004,0.0016 -0.01085,0.004 -0.01689,0.0046 0,0.0016 0.0026,0.0027 0,0.004 0.0041,-0.0027 0.0278,0.0013 0.03041,0.0065 0,0.0016 -0.004,0.004 -0.0036,0.0046 0.0041,0.0039 0.0152,0.0013 0.01589,0.0039 -0.02272,0.0059 -0.06164,0.01005 -0.0853,0.01166 -0.0055,0 -0.0036,-0.0027 0.004,-0.0046 -0.0067,-0.0013 -0.01688,0.0013 -0.02104,0.0013 0.0076,-0.0059 0.02864,-0.01758 0.04483,-0.02517 -0.01769,0.0027 -0.03454,0.0027 -0.0481,-0.0017 -0.0036,0.0075 0.01588,0.0039 0.02944,0.0065 -0.01955,0.01586 -0.06916,0.02266 -0.09877,0.01933 0.004,0.0013 0.0041,0.0027 0.0077,0.0039 -0.02626,0.02355 -0.08778,0.04277 -0.119845,0.06364 0.02536,-0.0039 0.02274,0.0046 0.0055,0.02265 0.06007,-0.0027 0.05409,0.03264 0.102144,0.03095 0.01588,0.01086 -0.0076,0.02599 -0.0095,0.03426 0.0053,-0.0013 0.01688,-0.0013 0.01186,0.0046 -0.004,0.0013 -0.0076,-0.0013 -0.01186,-0.0027 0.0036,0.0039 0.0098,0.0039 0.03042,0.0039 0.0236,-0.02598 -0.004,-0.0351 0.04206,-0.05367 0.05742,-0.02265 0.01522,-0.02265 0.01418,-0.05188 0.06162,-0.01341 0.0372,-0.06782 0.119,-0.02843 0.02362,0.01085 0.09457,0.03181 0.112257,-0.0013 -0.01085,0.0185 -0.004,0.02097 0.0054,0.02435 -0.004,-0.0027 -0.0067,-0.004 -0.0095,-0.0075 0.02101,-0.02844 0.06676,0.03181 0.03026,0.04439 0.004,0.004 0.0098,0.0082 0.0246,0.0082 l -0.0022,0.0013 c -0.01196,0.02015 0.04809,0.01417 0.04298,0.02015 -0.0093,0.0084 -0.0473,0.01172 -0.06411,0.01586 0.0039,0.0082 0.07088,-0.0093 0.07672,-0.01167 0.02096,0.07036 -0.19074,0.06367 -0.234631,0.09887 0.0041,0 0.112248,-0.02519 0.103847,-0.0093 -0.0076,0.01254 -0.02701,0.0093 -0.03796,0.01586 0.0054,0 0.01257,0.0017 0.01586,0.0017 -0.03802,0.04603 0.0473,0.04028 0.04297,0.0486 -0.01348,0.01505 -0.087,0.02682 -0.102943,0.03514 z m -0.119574,-0.298851 c -0.0092,0.004 -0.02699,0.01006 -0.03546,0.01087 0.0036,-0.0014 0.004,-0.0027 0.004,-0.0039 0.0098,-0.004 0.02032,-0.01007 0.03118,-0.0075 z m 0.240562,0.171739 c 0.01344,0.0027 -0.01193,0.01006 0,0 z m -0.0039,0.02094 c -0.01258,0.01005 -0.03219,-0.004 -0.04202,-0.0117 0.02274,-0.0039 0.03116,0.0059 0.04202,0.0117 z m -0.03451,0.05188 c -0.0093,0.01673 -0.0398,-0.0013 -0.03722,-0.0046 0.0022,-0.0027 0.0041,-0.0039 0.0041,-0.0039 0.0076,0.01085 0.01873,0.01418 0.03218,0.01005 z m 0.01255,0.01005 c 0.0076,-0.0075 0.01587,-0.01419 0.02632,-0.0185 0,0.0027 0.004,0.0039 0.004,0.0046 -0.004,0.0039 -0.01517,0.0082 0.0039,0.0082 -0.0041,0.01168 -0.03383,0.01255 -0.03038,0.004 z m 0.09126,-0.02262 c 0,0 -0.03451,0.01757 -0.03288,0.01417 0.004,-0.004 0.0067,-0.0065 0.01192,-0.0084 -0.0093,0 -0.08604,-0.0059 -0.08528,-0.0059 0.004,-0.0082 0.01587,-0.0039 0.01954,-0.01337 -0.0039,0 -0.0039,-0.0013 -0.0039,-0.0027 0.03032,-0.0093 0.0541,-0.05446 0.087,-0.05446 0.0098,0 -0.0294,0.0318 -0.03037,0.03425 0.0076,-0.0039 0.01519,-0.0039 0.02362,-0.0027 -0.004,0.0017 -0.0053,0.004 -0.0067,0.0072 0.0039,0 0.0093,0 0.01249,0 0,0.0013 -0.0039,0.0027 -0.0039,0.0027 0.0039,0 0.0067,-0.0017 0.0098,-0.0027 0.0076,0.0027 0.01694,0.0027 0.02172,0 -0.0039,0.0046 -0.0039,0.0093 -0.0075,0.0167 0.004,-0.0013 0.0053,-0.0017 0.0095,-0.0017 -0.0053,0.01167 -0.0041,0.0046 -0.0095,0.01666 0.0075,0.0013 0.0053,-0.0017 0.0109,-0.004 -0.01415,0.03941 -0.0125,0.01758 -0.02778,0.0027 z m 0.430663,-0.348492 c -0.0066,0.02014 -0.03219,-0.01253 -0.03543,0 0.0055,0.004 0.0405,0.0085 0.03621,0.02181 -0.004,0.0093 -0.04388,-0.0059 -0.04975,-0.0075 -0.004,0.0059 0.004,0.0059 -0.0075,0.0075 -0.004,0.0059 0.03622,0.004 0.04483,0.0065 -0.03622,0.01255 -0.07606,0.0185 -0.113927,0.0185 -0.02458,0.0065 -0.0389,0.02343 -0.06751,0.02264 0.0026,-0.0016 0.0026,-0.0026 0.0039,-0.004 -0.02627,0.004 -0.05742,0.05783 -0.07083,0.05619 -0.0096,-0.0013 -0.07263,-0.02927 -0.04974,-0.04194 -0.004,-0.0046 -0.02359,-0.0085 -0.01253,-0.02353 -0.004,-0.0013 -0.004,-0.0013 -0.004,0 0.004,-0.0134 0.02701,-0.01586 0.03547,-0.02678 -0.0093,-0.0016 -0.02787,-0.0027 -0.02702,-0.0075 0.0075,-0.0016 0.01877,0.0075 0.02362,0 -0.0039,0 -0.021,-0.01086 -0.02786,-0.01005 0.0076,-0.004 0.0093,-0.0065 0.0024,-0.0084 0.01192,-0.02845 -0.04976,-0.02845 -0.06681,-0.02436 0.0023,0 0.0023,0.0013 0.0039,0.0013 -0.004,0.0014 -0.01092,0 -0.01587,-0.0027 0.004,-0.0013 0.004,-0.0013 0.004,-0.0027 -0.004,-0.0027 -0.0098,-0.0039 -0.01517,-0.0017 0.0052,-0.0093 0.02706,0 0.03452,-0.0082 -0.004,0 -0.0405,0.004 -0.03888,-0.0027 0.0076,-0.01506 0.04651,-0.0013 0.05479,-0.01668 -0.0039,0.0013 -0.01088,0 -0.01586,-0.0016 0.0093,-0.01755 0.09371,-0.02095 0.106353,-0.02178 0.004,-0.0059 0.01255,-0.0046 0.01958,-0.0027 -0.0025,-0.0013 -0.0038,-0.0027 -0.0025,-0.0027 0.004,-0.0059 0.03803,0 0.0448,0 -0.004,0 -0.0099,-0.0013 -0.01409,-0.004 0.004,-0.0016 0.0093,-0.0027 0.01263,-0.0027 -0.0039,-0.0013 -0.0039,-0.0013 -0.0039,-0.0016 0.08435,-0.01934 0.178081,-0.01506 0.264176,-0.01254 -0.0055,0.004 -0.01587,0.0084 -0.02782,0.01004 0.0094,-0.0013 0.01588,-0.0017 0.01588,0 -0.0027,0.0013 -0.0345,0.01086 -0.03621,0.01341 0.0096,-0.0016 0.173037,-0.02095 0.171336,-0.01851 -0.004,0.0084 -0.03974,0.01005 -0.05743,0.01086 -0.004,0.0093 -0.07087,0.02345 -0.08267,0.03009 0.0098,-0.0027 0.02024,-0.0013 0.03033,0.002 -0.004,0.0013 -0.0053,0.0016 -0.0094,0.0016 0.0055,0.0013 0.01203,0.0027 0.0179,0.0046 -0.004,0.01087 -0.03888,-0.0046 -0.04386,0.0065 -0.0039,0.0027 0.02034,0.0013 0.01706,0.01005 -0.004,0.0093 -0.01419,0 -0.01706,0.0065 0.004,0.0039 0.01089,0.0046 0.01706,0.0039 -0.004,0.004 -0.01348,0.004 -0.02267,0.004 0,0.0016 0.0039,0.0027 0.0039,0.0039 -0.01089,0.01256 -0.03221,0.004 -0.04564,0.004 0.0096,0.004 0.01704,0.0075 0.02355,0.01167 z m 0.02096,0.03693 c 0.0066,0 0.01955,0 0.02543,-0.0013 0.0027,0.0013 -0.01956,-0.0084 -0.01871,-0.01085 0.0066,-0.0013 0.01706,-0.004 0.02355,-0.004 -0.0066,0.01502 0.0094,0.0093 0.0135,0.0059 0.004,0.0065 0.01347,0.0013 0.02033,0.004 0.0027,-0.004 0.0524,-0.0013 0.05825,0 -0.01348,0.0039 0.0066,0.01341 0.004,0.01932 -0.04894,0.02095 -0.07503,0.002 -0.120689,-0.0027 0.0039,-0.0016 0.0039,-0.0027 0.0039,-0.0027 0.004,-0.004 0.004,-0.004 0.0094,-0.0082 -0.0055,-0.0013 -0.01504,0.0016 -0.01788,-0.0016 z m 1.362237,1.816292 c -0.004,0.03012 0.03973,0.06034 0.02789,0.08796 -0.03458,0.07293 0.03112,0.146612 -0.05409,0.200232 -0.0294,0.01849 -0.06834,0.03511 -0.07504,0.07377 -0.05479,0.01085 -0.004,0.0754 -0.004,0.102206 -0.0039,0.06199 -0.0142,0.04859 -0.05315,0.08125 -0.04051,0.03427 -0.004,0.0636 -0.03617,0.104716 -0.03209,0.03774 -0.04893,0.08294 -0.07859,0.123157 -0.0125,0.01667 -0.07342,0.03855 -0.07606,0.05186 -0.033,0.004 -0.06065,-0.004 -0.09287,0.01256 -0.03038,0.01586 -0.06579,-0.0039 -0.07669,0.0014 0.0032,-0.107241 -0.08531,-0.188506 -0.09789,-0.300763 -0.004,-0.05188 -0.0066,-0.07203 -0.03112,-0.118957 -0.02545,-0.04942 -0.04657,-0.104716 -0.03623,-0.16085 0.0075,-0.04104 0.04048,-0.06868 0.04971,-0.107241 0.0094,-0.03854 -0.0095,-0.09882 -0.01958,-0.136513 -0.0109,-0.04026 -0.01345,-0.09049 -0.0405,-0.123989 -0.02703,-0.03346 -0.07339,-0.07794 -0.0557,-0.125663 0.02703,-0.07291 0.03972,-0.148284 -0.06678,-0.146612 -0.03289,0.0016 -0.0294,-0.06365 -0.06835,-0.06283 -0.05238,0.0018 -0.09458,0.06114 -0.138406,0.06201 -0.01785,0.0016 -0.03297,-0.01586 -0.05146,-0.01503 -0.02276,0 -0.03887,0.01255 -0.05907,0.02015 -0.04481,0.01503 -0.0776,-0.02843 -0.105509,-0.05617 -0.0372,-0.03774 -0.04386,-0.08797 -0.07859,-0.126498 -0.01951,-0.02095 -0.03889,-0.04273 -0.05411,-0.06782 0.0027,0 0.004,0 0.004,0 0,-0.02927 -0.01871,-0.05864 -0.004,-0.08124 0.01504,-0.02351 0.02541,-0.05618 0.027,-0.08462 0.0039,-0.04025 -0.027,-0.09802 -0.0053,-0.134881 0.01582,-0.02759 0.02698,-0.05619 0.03968,-0.08543 0.01707,-0.03605 0.03283,-0.08125 0.07262,-0.09549 0.02179,-0.0085 0.04895,-0.03095 0.05566,-0.05368 0.0075,-0.02435 0.004,-0.05277 0.01871,-0.0746 0.02265,-0.0318 0.04979,-0.05952 0.07438,-0.09049 -0.0027,0 -0.0027,0 -0.004,0 0.02699,-0.03605 0.06833,0.0039 0.115641,-0.02353 0.03791,-0.02095 0.08528,-0.04522 0.129969,-0.04688 0.0294,-0.0014 0.05645,0 0.08697,-0.0014 0.01424,0 0.03295,-0.02684 0.0456,-0.0065 0.0075,0.01003 0.01501,0.01003 0.02342,0.0027 -0.0039,0.02599 -0.01254,0.04769 -0.01254,0.07623 0,0.05104 0.04891,0.03426 0.07935,0.04439 0.0279,0.0093 0.135055,0.124823 0.133353,0.03605 -0.0039,-0.07708 0.112249,-0.01086 0.140962,-0.0014 0.0405,0.01418 0.07172,0.01933 0.111423,0.0039 0.03033,-0.01085 0.0574,0.0082 0.0886,0 0.01878,0.04604 0.01579,0.057 0.004,0.103882 -0.01708,-0.0027 -0.03459,-0.04603 -0.04891,-0.06282 0.004,0.04854 0.04891,0.106401 0.0717,0.149124 0.01507,0.0284 0.01873,0.05864 0.0345,0.08627 0.0196,0.03264 0.01088,0.07794 0.03452,0.103884 0.02542,0.02763 0.03454,0.04193 0.04299,0.08041 0.01089,0.05025 0.09287,0.08293 0.103859,0.13069 0.01579,0.06867 0.0379,0.05187 0.09458,0.04192 0.03209,-0.0065 0.0623,-0.0235 0.09285,-0.03348 0.03301,0.07958 -0.05404,0.232064 -0.09878,0.297412 -0.05144,0.07461 -0.135052,0.102207 -0.156973,0.198547 -0.0042,0.02599 -0.02859,0.03942 -0.02859,0.06782 -0.004,0.02518 0.0039,0.05187 0.0039,0.07959 z"
       id="path1025-6-3-6-6-6-6" />
  </g>
</svg>
