<?xml version="1.0" encoding="UTF-8" standalone="no"?>
<svg
   width="22"
   height="22"
   x="0"
   y="0"
   version="1.1"
   xml:space="preserve"
   id="svg1459"
   sodipodi:docname="thunderbird-symbolic.svg"
   inkscape:version="1.3.2 (091e20ef0f, 2023-11-25)"
   xmlns:inkscape="http://www.inkscape.org/namespaces/inkscape"
   xmlns:sodipodi="http://sodipodi.sourceforge.net/DTD/sodipodi-0.dtd"
   xmlns="http://www.w3.org/2000/svg"
   xmlns:svg="http://www.w3.org/2000/svg"><defs
   id="defs1463">
  
  
  
 
  
  
  
 </defs><sodipodi:namedview
   id="namedview1461"
   pagecolor="#02334b"
   bordercolor="#000000"
   borderopacity="1"
   inkscape:showpageshadow="2"
   inkscape:pageopacity="0"
   inkscape:pagecheckerboard="true"
   inkscape:deskcolor="#02334b"
   showgrid="true"
   inkscape:zoom="7.375"
   inkscape:cx="11.118644"
   inkscape:cy="22.101695"
   inkscape:window-width="1920"
   inkscape:window-height="994"
   inkscape:window-x="0"
   inkscape:window-y="0"
   inkscape:window-maximized="1"
   inkscape:current-layer="svg1459"><inkscape:grid
     type="xygrid"
     id="grid1674"
     originx="-17"
     originy="-38"
     spacingy="1"
     spacingx="1"
     units="px"
     visible="true" /></sodipodi:namedview>
 
 
<g
   id="g1"><rect
     style="opacity:0.00100002;fill:#bac8df;fill-opacity:1"
     width="22"
     height="22"
     x="0"
     y="0"
     id="rect2" /><path
     style="fill:#eff0f1;fill-opacity:1;stroke:none;stroke-width:0.0363637;stroke-linecap:round;stroke-linejoin:round;stroke-miterlimit:4;stroke-dasharray:none;stroke-opacity:1"
     d="m 15,10.902 c 0,2.209151 -1.790858,4 -4,4 1.72675,-0.462681 2.909079,-2.545458 3.090915,-3.454539 -0.534679,0.400989 -3.380475,1.541377 -4.7418491,1.541377 -0.3829939,0 -0.6628123,0.07678 0.1949029,1.562388 C 9.0602509,14.4216 8.443363,13.981534 8.339997,13.889413 7.5177971,13.156826 7,12.089877 7,10.902 c 0,-2.209148 1.7908607,-4 4,-4 2.209143,0 4,1.790852 4,4"
     id="path4135-3"
     inkscape:connector-curvature="0"
     sodipodi:nodetypes="cccccsssc" /><rect
     style="fill:#0c0c0c;fill-opacity:1;stroke:none;stroke-width:0.0363637;stroke-linecap:round;stroke-linejoin:round;stroke-miterlimit:4;stroke-dasharray:none;stroke-opacity:1"
     id="rect4137-6"
     width="6.1844783"
     height="4.1229815"
     x="9.1801481"
     y="8.2095842"
     rx="1.0909091"
     ry="1.0909091"
     transform="rotate(7.0825521)" /><path
     style="color:#000000;font-style:normal;font-variant:normal;font-weight:normal;font-stretch:normal;font-size:medium;line-height:normal;font-family:sans-serif;text-indent:0;text-align:start;text-decoration:none;text-decoration-line:none;text-decoration-style:solid;text-decoration-color:#000000;letter-spacing:normal;word-spacing:normal;text-transform:none;writing-mode:lr-tb;direction:ltr;baseline-shift:baseline;text-anchor:start;white-space:normal;clip-rule:nonzero;display:inline;overflow:visible;visibility:visible;isolation:auto;mix-blend-mode:normal;color-interpolation:sRGB;color-interpolation-filters:linearRGB;solid-color:#000000;solid-opacity:1;fill:#ffffff;fill-opacity:1;fill-rule:evenodd;stroke:none;stroke-width:0.727273;stroke-linecap:butt;stroke-linejoin:miter;stroke-miterlimit:4;stroke-dasharray:none;stroke-dashoffset:0;stroke-opacity:1;color-rendering:auto;image-rendering:auto;shape-rendering:auto;text-rendering:auto;enable-background:accumulate"
     d="m 14.261718,9.8255601 c -1.0039,0.5265339 -2.048029,1.1754379 -2.631158,1.4716889 -0.583127,0.296258 -0.895694,0.462309 -1.16645,0.462309 -0.270762,0 -0.440853,-0.140562 -0.6906642,-0.390376 -0.249811,-0.249816 -1.2961355,-1.205561 -1.7440588,-1.5391819 0.4999912,0.5669859 1.5248348,1.6960689 1.7431458,1.9395579 0.2183105,0.243505 0.3993582,0.31451 0.6929662,0.31451 0.293609,0 0.627246,-0.152252 1.276987,-0.51851 0.649733,-0.366246 1.836752,-1.119937 2.519232,-1.7399979 z"
     id="path4139-7"
     inkscape:connector-curvature="0"
     sodipodi:nodetypes="czzzczzzc" /><path
     style="fill:#e1e1e1;fill-opacity:1;fill-rule:evenodd;stroke:none;stroke-width:0.363636px;stroke-linecap:butt;stroke-linejoin:miter;stroke-opacity:1"
     d="m 11,9.629272 c 0,0 1.552937,0.159237 1.80174,1.087801 0.248804,0.928551 -0.521065,2.028741 -0.521065,2.028741 1.885446,-1.088578 1.595682,-2.999868 1.44659,-3.661997"
     id="path4153-5"
     inkscape:connector-curvature="0"
     sodipodi:nodetypes="czcc" /><path
     style="fill:#e1e1e1;fill-opacity:1;fill-rule:evenodd;stroke:none;stroke-width:0.363636px;stroke-linecap:butt;stroke-linejoin:miter;stroke-opacity:1"
     d="m 13.011367,9.026998 c 0,0 0.202591,1.198767 0.202591,1.887124 0,0.68839 0.09204,1.88642 -0.759418,2.737878 2.04047,-0.546732 1.999999,-2.019948 1.999999,-4.204544 z"
     id="path4155-3"
     inkscape:connector-curvature="0"
     sodipodi:nodetypes="czccc" /><path
     style="fill:#fefdfd;fill-opacity:1;fill-rule:evenodd;stroke:none;stroke-width:0.363636px;stroke-linecap:butt;stroke-linejoin:miter;stroke-opacity:1"
     d="m 8.0936011,13.266068 5.4105119,0.521911 c 0,0 -0.117028,0.09387 -0.178315,0.139172 -0.06126,0.04519 -0.18944,0.132396 -0.18944,0.132396 L 8.2202268,13.448734 Z"
     id="path4229-5"
     inkscape:connector-curvature="0"
     sodipodi:nodetypes="cczccc" /><path
     style="fill:#e1e1e1;fill-opacity:1;fill-rule:evenodd;stroke:none;stroke-width:0.363636px;stroke-linecap:butt;stroke-linejoin:miter;stroke-opacity:1"
     d="m 8.829211,13.447465 c 0,0 -1.6473919,-1.272732 -1.6473919,-2.909105 0,-1.636359 0.545454,-1.454543 0.545454,-1.454543 l 1.0909086,0.363639 c 0,0 -0.727273,-0.37831 -0.727273,1.27273 0,1.65104 0.7383023,2.727279 0.7383023,2.727279 z"
     id="path4166-6"
     inkscape:connector-curvature="0"
     sodipodi:nodetypes="czcczc" /><path
     style="fill:#e1e1e1;fill-opacity:1;fill-rule:evenodd;stroke:none;stroke-width:0.363636px;stroke-linecap:butt;stroke-linejoin:miter;stroke-opacity:1"
     d="M 9.7291218,14.694734 C 9.2242819,14.559479 8.112741,13.901342 7.5673079,12.956614 7.021875,12.011883 7.1818191,10.53836 7.1818191,10.53836 l 0.9090915,-0.184775 c 0,0 -0.3913474,1.207947 -0.2110004,2.210557 0.1803488,1.002637 0.3680089,0.927792 1.8492116,2.130592 z"
     id="path4170-2"
     inkscape:connector-curvature="0"
     sodipodi:nodetypes="czcczc" /><ellipse
     style="fill:#e1e1e1;fill-opacity:1;stroke:none;stroke-width:0.363636;stroke-linecap:round;stroke-linejoin:round;stroke-miterlimit:4;stroke-dasharray:none;stroke-opacity:1"
     id="path4174-9"
     cx="4.4447293"
     cy="13.124389"
     rx="0.95656681"
     ry="0.81026769"
     transform="rotate(-30.000002)" /><path
     style="fill:#e1e1e1;fill-opacity:1;fill-rule:evenodd;stroke:none;stroke-width:0.363636px;stroke-linecap:butt;stroke-linejoin:miter;stroke-opacity:1"
     d="m 9.5454538,9.447456 c 0.09744,0.3636331 0,1.090904 0.220299,1.426904 0.5069742,-0.506974 1.0524312,-1.0632709 1.5978842,-1.426904 z"
     id="path4176-1"
     inkscape:connector-curvature="0"
     sodipodi:nodetypes="cccc" /><path
     style="fill:#e1e1e1;fill-opacity:1;fill-rule:evenodd;stroke:none;stroke-width:0.363636px;stroke-linecap:butt;stroke-linejoin:miter;stroke-opacity:1"
     d="m 8.0909087,11.447461 c 0,0 -0.05454,-0.909101 0.5454545,-1.454552 C 9.2363629,9.447456 9.9090908,9.441765 9.9090908,9.441765 L 7.823863,8.612217 Z"
     id="path4178-2"
     inkscape:connector-curvature="0"
     sodipodi:nodetypes="czccc" /><ellipse
     style="fill:#e6e6e6;fill-opacity:1;stroke:none;stroke-width:0.363636;stroke-linecap:round;stroke-linejoin:round;stroke-miterlimit:4;stroke-dasharray:none;stroke-opacity:1"
     id="path4180-7"
     cx="10.181333"
     cy="9.3565512"
     rx="0.090909086"
     ry="0.090909094" /><path
     style="fill:#ffffff;fill-opacity:0;stroke:none;stroke-width:0.363636;stroke-linecap:round;stroke-linejoin:round;stroke-miterlimit:4;stroke-dasharray:none;stroke-opacity:1"
     d="m 15,10.902 c 0,-1.818183 -1.790858,-3.818183 -4,-3.818183 -2.2091393,0 -4,2 -4,3.818183 0,-2.209148 1.7908607,-4 4,-4 2.209142,0 4,1.790852 4,4 z"
     id="path4188-9-0"
     inkscape:connector-curvature="0"
     sodipodi:nodetypes="cscsc" /><path
     style="fill:#ffffff;fill-opacity:1;stroke:none;stroke-width:0.363636;stroke-linecap:round;stroke-linejoin:round;stroke-miterlimit:4;stroke-dasharray:none;stroke-opacity:1"
     d="m 11,14.902 c 2.209142,0 4,-1.790849 4,-4 0,1.652142 -1.478696,3.4544 -3.406265,3.769799 0,0 -0.180115,0.08759 -0.279137,0.126201 C 11.215567,14.83662 11,14.902 11,14.902 Z M 9.4501878,14.3825 C 8.0107148,13.736426 7,12.267907 7,10.902 c 0,1.765742 1.1441148,3.264265 2.7314518,3.794679 l -0.190772,-0.153763 z"
     id="path4188-9-2-9"
     inkscape:connector-curvature="0"
     sodipodi:nodetypes="ccczcccccc" /><path
     d="m 10.499997,9.601997 c 0,0.138141 -0.11186,0.2500031 -0.25,0.2500031 -0.138019,0 -0.2499977,-0.1118621 -0.2499977,-0.2500031 0,-0.138018 0.1119787,-0.249997 0.2499977,-0.249997 0.13814,0 0.25,0.111979 0.25,0.249997 z"
     id="path72-3-3-3-3"
     style="color:#e5e9ef;fill:#221c11;fill-opacity:1;stroke-width:0.00595255"
     class="ColorScheme-Text" /><path
     style="opacity:0"
     d="M 0,0 H 22 V 22 H 0 Z"
     id="path6-3" /><path
     id="Zoom-4-9-0-6"
     class="st0  ColorScheme-Highlight "
     d="m 17.463906,15.699388 v 0 c 0.584615,-1.076924 1.5361,-3.37631 1.5361,-4.699386 C 19.000006,6.569231 15.430768,3 10.999998,3 6.56923,3 3,6.569231 3,11.000002 c 0,4.430769 3.56923,7.999997 7.999998,7.999997 2.646155,0 4.984618,-1.292303 6.461544,-3.292304 z M 11,16.538463 c -3.046155,0 -5.53846,-2.492307 -5.53846,-5.538461 0,-3.046155 2.492305,-5.538463 5.53846,-5.538463 3.046153,0 5.538468,2.492308 5.538468,5.538463 0,3.046153 -2.492314,5.538461 -5.538468,5.538461 z"
     sodipodi:nodetypes="ccssssccscccs"
     style="color:#cdd8e5;fill:#cdd8e5;fill-opacity:0.403922" /><path
     id="Zoom-s-8-9-7"
     class="st1  ColorScheme-Text "
     d="M 17.053489,15.699388 Z M 16.232656,6.670219 Z m 1.228872,9.037475 c 1.107689,-1.507692 1.661538,-3.384616 1.507688,-5.261538 -0.123075,-1.938462 -0.95385,-3.753847 -2.338464,-5.107694 l -0.861539,0.861539 c 1.230774,1.230769 1.969237,2.923077 1.969237,4.800002 0,1.415384 -0.430773,2.738462 -1.200001,3.846154 z"
     style="color:#eff0f1;fill:currentColor;fill-opacity:1;stroke-width:0.307693"
     sodipodi:nodetypes="ccccccccccccccccsccc" /></g></svg>
