<?xml version="1.0" encoding="UTF-8" standalone="no"?>
<svg
   width="22"
   height="22"
   version="1.1"
   id="svg6"
   sodipodi:docname="kdeconnect-symbolic.svg"
   inkscape:version="1.3.2 (091e20ef0f, 2023-11-25)"
   xmlns:inkscape="http://www.inkscape.org/namespaces/inkscape"
   xmlns:sodipodi="http://sodipodi.sourceforge.net/DTD/sodipodi-0.dtd"
   xmlns="http://www.w3.org/2000/svg"
   xmlns:svg="http://www.w3.org/2000/svg">
  <sodipodi:namedview
     id="namedview1"
     pagecolor="#ffffff"
     bordercolor="#999999"
     borderopacity="1"
     inkscape:showpageshadow="2"
     inkscape:pageopacity="0"
     inkscape:pagecheckerboard="0"
     inkscape:deskcolor="#d1d1d1"
     inkscape:zoom="16.83798"
     inkscape:cx="11.402793"
     inkscape:cy="20.014277"
     inkscape:window-width="1920"
     inkscape:window-height="994"
     inkscape:window-x="0"
     inkscape:window-y="0"
     inkscape:window-maximized="1"
     inkscape:current-layer="svg6"
     showgrid="true">
    <inkscape:grid
       id="grid2"
       units="px"
       originx="-4.6325685e-08"
       originy="-57"
       spacingx="1"
       spacingy="1"
       empcolor="#0099e5"
       empopacity="0.30196078"
       color="#0099e5"
       opacity="0.14902"
       empspacing="5"
       dotted="false"
       gridanglex="30"
       gridanglez="30"
       visible="true" />
  </sodipodi:namedview>
  <defs
     id="defs10" />
  <namedview
     id="namedview8"
     pagecolor="#ffffff"
     bordercolor="#000000"
     borderopacity="0.25"
     inkscape:showpageshadow="2"
     inkscape:pageopacity="0.0"
     inkscape:pagecheckerboard="0"
     inkscape:deskcolor="#d1d1d1"
     showgrid="false"
     inkscape:zoom="48.3125"
     inkscape:cx="6.8926261"
     inkscape:cy="7.9896507"
     inkscape:window-width="1920"
     inkscape:window-height="1011"
     inkscape:window-x="0"
     inkscape:window-y="0"
     inkscape:window-maximized="1"
     inkscape:current-layer="svg6" />
  <style
     type="text/css"
     id="current-color-scheme">.ColorScheme-Text{color:#31363b;}.ColorScheme-Background{color:#eff0f1;}.ColorScheme-Highlight{color:#3daee9;}.ColorScheme-ViewText{color:#31363b;}.ColorScheme-ViewBackground{color:#fcfcfc;}.ColorScheme-ViewHover{color:#93cee9;}.ColorScheme-ViewFocus{color:#3daee9;}.ColorScheme-ButtonText{color:#31363b;}.ColorScheme-ButtonBackground{color:#eff0f1;}.ColorScheme-ButtonHover{color:#93cee9;}.ColorScheme-ButtonFocus { color: #3daee9; } </style>
  <g
     id="22-22-kdeconnect-6">
    <rect
       style="fill:#000000;fill-opacity:0;stroke:none"
       id="rect3841-7"
       width="22"
       height="22"
       x="4.6325685e-08"
       y="1.8530272e-07" />
    <path
       style="color:#d3dae3;fill:#eff0f1;fill-opacity:1;fill-rule:evenodd;stroke-width:0.332805;image-rendering:optimizeQuality;shape-rendering:geometricPrecision;text-rendering:geometricPrecision"
       d="m 11.333811,7.863342 -1.003615,0.1748513 v 3.4567427 l 0.998417,-0.128698 -0.0052,-1.5580741 1.177817,1.7244741 1.157015,-0.1664 L 12.32703,9.5813179 13.662793,8.0837 12.491479,7.8678873 11.323413,9.3655119 Z M 9.223233,8.7460493 c -0.0097,5.107e-4 -0.01874,0.005 -0.026,0.012333 L 8.852726,9.106787 c -0.01499,0.01504 -0.01747,0.03854 -0.0059,0.05656 L 9.262832,9.8023036 C 9.184352,9.941576 9.125059,10.094279 9.086678,10.25406 l -0.718263,0.17615 c -0.01991,0.0049 -0.03512,0.0229 -0.03512,0.04357 v 0.226848 0.226854 c 0,0.02066 0.01517,0.03867 0.03512,0.04359 l 0.718259,0.176149 c 0.03835,0.159779 0.09768,0.31249 0.176156,0.451758 l -0.415962,0.638945 c -0.01161,0.01799 -0.0091,0.04149 0.0059,0.05655 l 0.344506,0.348402 c 0.01452,0.01465 0.03708,0.01587 0.05457,0.0052 l 0.65195,-0.39974 c 0.127906,0.07451 0.327984,0.134464 0.47386,0.1742 l 0.152752,0.737762 c 0.0043,0.02129 0.02117,0.03638 0.04224,0.03638 h 0.256752 0.256754 c 0.02111,0 0.038,-0.01507 0.04225,-0.03638 l 0.152753,-0.737757 c 0.145874,-0.03971 0.345947,-0.09969 0.473859,-0.174203 l 0.651958,0.399751 c 0.01755,0.01063 0.04005,0.0095 0.05455,-0.0052 l 0.344508,-0.348402 c 0.01498,-0.01504 0.01749,-0.03855 0.0059,-0.05655 l -0.346454,-0.532353 -0.04291,0.0064 -0.243104,-0.356208 c -0.248292,0.52049 -0.773383,0.852186 -1.350066,0.852808 -0.827114,0 -1.49762,-0.670506 -1.49762,-1.497614 8e-4,-0.568476 0.322772,-1.0876675 0.83201,-1.3403175 v -0.326934 c -0.09493,0.031633 -0.188203,0.067349 -0.260004,0.1092107 L 9.251773,8.7531906 c -0.0088,-0.00533 -0.01896,-0.00795 -0.02861,-0.00703 z"
       class="ColorScheme-Text"
       id="path10-36" />
    <path
       id="Mobile-7"
       class="st0"
       d="M 8,3 C 6.9,3 6,3.9 6,5 h 9 V 16 H 6 v 2 h 8 c 1.1,0 2,-0.9 2,-2 V 3 Z"
       style="fill:#cdd8e5;fill-opacity:0.403922;stroke-width:0.25" />
    <path
       id="Mobile-s-5"
       class="st1"
       d="M 7,16 H 6 V 5 C 6,3.9 6.9,3 8,3 H 9 V 4 H 8 C 7.45,4 7,4.45 7,5 Z m 8,0 c 0,1.1 -0.9,2 -2,2 H 7 v 1 h 6 c 1.65,0 3,-1.35 3,-3 z M 15,5 h 1 V 4 h -1 z m -3.5,11.5 h -1 v 1 h 1 z"
       style="fill:#eff0f1;fill-opacity:1;stroke-width:0.25" />
  </g>
</svg>
