<?xml version="1.0" encoding="UTF-8" standalone="no"?>
<svg
   width="22"
   height="22"
   version="1.1"
   id="svg1"
   sodipodi:docname="akonadi-symbolic.svg"
   inkscape:version="1.3.2 (091e20ef0f, 2023-11-25)"
   xmlns:inkscape="http://www.inkscape.org/namespaces/inkscape"
   xmlns:sodipodi="http://sodipodi.sourceforge.net/DTD/sodipodi-0.dtd"
   xmlns="http://www.w3.org/2000/svg"
   xmlns:svg="http://www.w3.org/2000/svg">
  <defs
     id="defs1" />
  <sodipodi:namedview
     id="namedview1"
     pagecolor="#ffffff"
     bordercolor="#999999"
     borderopacity="1"
     inkscape:showpageshadow="2"
     inkscape:pageopacity="0"
     inkscape:pagecheckerboard="0"
     inkscape:deskcolor="#d1d1d1"
     inkscape:zoom="12.245804"
     inkscape:cx="10.942524"
     inkscape:cy="17.883677"
     inkscape:window-width="1920"
     inkscape:window-height="994"
     inkscape:window-x="0"
     inkscape:window-y="0"
     inkscape:window-maximized="1"
     inkscape:current-layer="svg1" />
  <style
     type="text/css"
     id="current-color-scheme">.ColorScheme-Text { color: #fcfcfc; } </style>
  <g
     id="22-22-akonadi-5">
    <path
       style="opacity:0.00100002"
       d="M 0,0 H 22 V 22 H 0 Z"
       id="path2-3" />
    <path
       id="List-4"
       class="st0"
       d="M 7.625,3 H 20 v 12 c 0,1.571429 -1.265625,2.857143 -2.8125,2.857143 H 7.625 v -3.428571 h 11.25 V 12.142857 H 7.625 V 8.7142858 h 11.25 V 6.4285714 H 7.625 Z M 2,12.142857 H 5.375 V 8.7142858 H 2 Z m 3.375,2.285715 H 2 v 3.428571 h 3.375 z"
       style="fill:#cdd8e5;fill-opacity:0.403922;stroke-width:0.283473" />
    <path
       id="List-s-8"
       class="st1"
       d="M 3.125,6.4285714 H 2 V 5.2857143 C 2,4.0285714 3.0125,3 4.25,3 H 5.375 V 4.1428571 H 4.25 c -0.61875,0 -1.125,0.5142857 -1.125,1.1428572 z M 18.875,3 V 6.4285714 H 20 V 3 Z m 0,5.7142858 V 12.142857 H 20 V 8.7142858 Z m 0,5.7142862 v 1.142857 c 0,1.257143 -1.0125,2.285714 -2.25,2.285714 h -9 V 19 h 9 C 18.48125,19 20,17.457143 20,15.571429 V 14.428572 Z M 5.375,19 V 17.857143 H 3.125 V 19 Z"
       style="fill:#eff0f1;fill-opacity:1;stroke-width:0.283473" />
  </g>
</svg>
