<?xml version="1.0" encoding="UTF-8" standalone="no"?>
<svg
   width="22"
   height="22"
   version="1"
   id="svg1154"
   sodipodi:docname="cadence-symbolic.svg"
   inkscape:version="1.3.2 (091e20ef0f, 2023-11-25)"
   xmlns:inkscape="http://www.inkscape.org/namespaces/inkscape"
   xmlns:sodipodi="http://sodipodi.sourceforge.net/DTD/sodipodi-0.dtd"
   xmlns="http://www.w3.org/2000/svg"
   xmlns:svg="http://www.w3.org/2000/svg">
  <style
     id="current-color-scheme"
     type="text/css">.ColorScheme-Text { color:#d1d5e9; }
</style>
  <sodipodi:namedview
     id="namedview1156"
     pagecolor="#201933"
     bordercolor="#000000"
     borderopacity="1"
     inkscape:showpageshadow="true"
     inkscape:pageopacity="0"
     inkscape:pagecheckerboard="true"
     inkscape:deskcolor="#201933"
     showgrid="true"
     inkscape:zoom="7.375"
     inkscape:cx="10.847458"
     inkscape:cy="21.830508"
     inkscape:window-width="1920"
     inkscape:window-height="994"
     inkscape:window-x="0"
     inkscape:window-y="0"
     inkscape:window-maximized="1"
     inkscape:current-layer="svg1154">
    <inkscape:grid
       type="xygrid"
       id="grid1340"
       originx="12"
       originy="-92"
       spacingy="1"
       spacingx="1"
       units="px"
       visible="true" />
  </sodipodi:namedview>
  <defs
     id="l4k1">
    <style
       type="text/css"
       id="style201" />
  </defs>
  <g
     id="22-22-cadence">
    <rect
       style="opacity:0.00100002;fill:#d1d5e9;fill-opacity:1"
       width="22"
       height="22"
       x="0"
       y="0"
       id="rect1144" />
    <path
       id="Page_1_-6"
       class="st0  ColorScheme-Highlight "
       d="m 14.499998,6 v 0 l -1,-1 V 5 H 6.5 v 12.999999 h 8.499998 c 1.375,0 2.5,-1.125 2.5,-2.5 V 9 Z M 8.4999987,7.5 Z m 0,2.4999997 z m 0,4.9999993 z m 0,-2.5 z"
       sodipodi:nodetypes="ccccccsscccccccccccccccccccccc"
       style="color:#cdd8e5;fill:#cdd8e5;fill-opacity:0.403922;stroke-width:0.25" />
    <path
       id="Page-s-7"
       class="st1  ColorScheme-Text "
       d="m 15.366665,9 h 2.133334 v 6.999999 c 0,1.65 -1.35,3 -2.999999,3 H 7.4999993 v -1 H 14.5 c 1.099999,0 2,-0.900001 2,-2 V 9.9999997 H 15.366667 Z M 4.5,5 c 0,-1.1 0.9,-2 2,-2 h 5 v 1 h -5 c -0.55,0 -1,0.45 -1,1 v 8.499999 h -1 z"
       style="color:#eff0f1;fill:currentColor;fill-opacity:1;stroke-width:0.25"
       sodipodi:nodetypes="ccssccsscccssccssccs" />
    <path
       style="color:#eff0f1;fill:currentColor;fill-opacity:1;stroke-width:0.333331"
       d="m 11.633429,7.900006 c -0.452478,0.0076 -1.142479,0.112765 -1.321279,0.307619 -0.190682,0.207807 -0.231986,0.4999647 -0.178713,0.823253 0.101567,0.616342 0.952674,1.371984 1.457026,2.051783 -0.0033,0.0034 -0.0073,0.0092 -0.0108,0.0137 -0.25404,0.316134 -0.783865,0.60614 -1.031246,0.851569 0.03988,-0.179621 0.06861,-0.574732 0.07519,-0.699231 0.0061,-0.106644 0.0025,-0.189398 -0.03027,-0.256838 -0.01657,-0.03373 -0.04624,-0.06609 -0.08692,-0.0791 -0.0407,-0.01307 -0.08269,-0.0033 -0.119133,0.01267 -0.0984,0.252472 -0.261133,0.592094 -0.39355,0.909194 -0.1217736,0.202241 -0.2078596,0.564367 -0.2636716,0.693368 -0.028733,0.06642 -0.050173,0.12435 -0.063447,0.174806 -0.012593,0.04753 -0.018693,0.08929 -0.016633,0.127932 0.069558,0.0938 0.1820247,0.08008 0.2734336,0.08594 0.03969,-6.67e-4 0.08113,-0.0075 0.126948,-0.03513 0.107525,-0.06502 0.2392,-0.167842 0.37988,-0.288092 -0.100332,0.332108 -0.117301,0.437999 -0.277344,0.80958 -0.0017,0.0055 -0.0059,0.01049 -0.0079,0.01562 -0.8444527,-0.114954 -1.725074,-0.04205 -2.32128,0.163088 -0.3127267,0.107627 -0.553556,0.347479 -0.647452,0.612309 -0.093899,0.264836 -0.036687,0.601313 0.1992147,1.018572 0.235924,0.417257 0.4961686,0.608518 0.7734306,0.667979 0.27726,0.05942 0.554158,-0.01826 0.8105414,-0.2256 C 9.4482393,15.25982 9.888966,14.342982 10.231906,13.571 c 0.0061,0.0013 0.01196,0.0014 0.01758,0.0017 0.403868,0.05961 0.79128,0.60314 1.129878,0.692391 -0.177305,0.05567 -0.384718,0.113305 -0.497071,0.169922 -0.09619,0.04848 -0.167456,0.09224 -0.209954,0.154302 -0.02127,0.03101 -0.0353,0.07287 -0.02636,0.114255 0.0089,0.04139 0.03815,0.073 0.07128,0.0957 0.06633,0.04538 0.160455,0.07036 0.300781,0.09082 0.140325,0.02041 0.375342,0.03295 0.61328,0.03615 8e-4,1.2e-5 0.0011,-10e-6 0.0016,0 8e-4,-10e-6 0.0011,1.2e-5 0.0016,0 0.237933,-0.0047 0.472948,-0.0156 0.613274,-0.03615 0.140324,-0.02042 0.234456,-0.04543 0.300778,-0.09082 0.03312,-0.0227 0.06236,-0.05429 0.07128,-0.0957 0.009,-0.04139 -0.0053,-0.08322 -0.02635,-0.114255 -0.04253,-0.0621 -0.113767,-0.105825 -0.209958,-0.154302 -0.112351,-0.05663 -0.319768,-0.114253 -0.497068,-0.169922 0.338595,-0.08925 0.726006,-0.632807 1.129872,-0.692391 0.0059,-0.0013 0.01194,-0.0013 0.01757,-0.0017 0.342945,0.771983 0.78367,1.688821 1.272449,2.083997 0.256383,0.207293 0.53328,0.285047 0.810545,0.225601 0.277253,-0.05944 0.537502,-0.250723 0.773429,-0.667979 0.235925,-0.41726 0.29311,-0.753736 0.199215,-1.018572 -0.0939,-0.264834 -0.334721,-0.504685 -0.647452,-0.612312 -0.596207,-0.205194 -1.476833,-0.278042 -2.321275,-0.163088 -0.0018,-0.0055 -0.0059,-0.01049 -0.0078,-0.01562 -0.160039,-0.371581 -0.177008,-0.477474 -0.277339,-0.80958 0.140678,0.120249 0.272354,0.223043 0.379877,0.288089 0.04579,0.02769 0.08728,0.03479 0.126951,0.03513 0.09141,-0.0063 0.203878,0.0079 0.273432,-0.08594 0.0017,-0.03865 -0.0047,-0.0804 -0.01661,-0.127932 -0.01336,-0.05045 -0.03477,-0.108381 -0.06347,-0.174806 -0.05587,-0.128998 -0.141926,-0.491122 -0.2637,-0.693364 -0.132417,-0.317099 -0.295154,-0.656721 -0.393547,-0.909194 -0.03642,-0.01704 -0.07845,-0.02573 -0.119137,-0.01267 -0.04067,0.01305 -0.07037,0.04539 -0.08692,0.0791 -0.03307,0.0674 -0.03591,0.150193 -0.03027,0.256838 0.0066,0.124499 0.03534,0.51961 0.07519,0.69923 -0.247446,-0.245419 -0.777265,-0.535431 -1.031301,-0.851565 -0.0033,-0.0033 -0.0073,-0.0093 -0.01075,-0.01371 0.504342,-0.679799 1.355452,-1.435441 1.457016,-2.051783 0.05333,-0.3232883 0.01199,-0.615445 -0.17869,-0.823253 C 12.774977,8.012755 12.084978,7.907499 11.632503,7.9 Z"
       id="path1151-5-3-5"
       class="ColorScheme-Text" />
  </g>
</svg>
