<?xml version="1.0" encoding="UTF-8" standalone="no"?>
<svg
   inkscape:version="1.3.2 (091e20ef0f, 2023-11-25)"
   sodipodi:docname="jami-symbolic.svg"
   id="svg44"
   version="1.1"
   height="22"
   width="22"
   style="enable-background:new"
   xmlns:inkscape="http://www.inkscape.org/namespaces/inkscape"
   xmlns:sodipodi="http://sodipodi.sourceforge.net/DTD/sodipodi-0.dtd"
   xmlns="http://www.w3.org/2000/svg"
   xmlns:svg="http://www.w3.org/2000/svg"
   xmlns:rdf="http://www.w3.org/1999/02/22-rdf-syntax-ns#"
   xmlns:cc="http://creativecommons.org/ns#"
   xmlns:dc="http://purl.org/dc/elements/1.1/">
  <metadata
     id="metadata48">
    <rdf:RDF>
      <cc:Work
         rdf:about="">
        <dc:format>image/svg+xml</dc:format>
        <dc:type
           rdf:resource="http://purl.org/dc/dcmitype/StillImage" />
      </cc:Work>
    </rdf:RDF>
  </metadata>
  <sodipodi:namedview
     showguides="false"
     inkscape:current-layer="svg44"
     inkscape:window-maximized="1"
     inkscape:window-y="0"
     inkscape:window-x="0"
     inkscape:cy="11.459751"
     inkscape:cx="11.360101"
     inkscape:zoom="10.035122"
     showgrid="true"
     id="namedview46"
     inkscape:window-height="994"
     inkscape:window-width="1920"
     inkscape:pageshadow="2"
     inkscape:pageopacity="0"
     guidetolerance="10"
     gridtolerance="10"
     objecttolerance="10"
     borderopacity="1"
     bordercolor="#000000"
     pagecolor="#02334b"
     inkscape:document-rotation="0"
     inkscape:pagecheckerboard="true"
     inkscape:showpageshadow="true"
     inkscape:deskcolor="#02334b">
    <inkscape:grid
       id="grid845"
       type="xygrid"
       originx="-12"
       originy="-53"
       spacingy="1"
       spacingx="1"
       units="px"
       visible="true" />
  </sodipodi:namedview>
  <defs
     id="defs4">
    <linearGradient
       id="linearGradient5606"
       inkscape:swatch="solid">
      <stop
         style="stop-color:#000000"
         offset="0"
         id="stop5608" />
    </linearGradient>
  </defs>
  <g
     id="g128"
     transform="matrix(0,0.23269337,-0.3257329,0,20.286645,-48.331588)">
    <g
       id="g126">
      <g
         id="g124">
        <g
           id="g122">
          <g
             id="g120">
            <g
               id="g118">
              <g
                 id="g116">
                <g
                   id="g114" />
              </g>
            </g>
          </g>
        </g>
      </g>
    </g>
  </g>
  <g
     id="g146"
     transform="matrix(0,0.23269337,-0.3257329,0,20.286645,-48.331588)">
    <g
       id="g144">
      <g
         id="g142">
        <g
           id="g140">
          <g
             id="g138">
            <g
               id="g136">
              <g
                 id="g134">
                <g
                   id="g132" />
              </g>
            </g>
          </g>
        </g>
      </g>
    </g>
  </g>
  <g
     id="g6"
     style="fill:#e5e9ef;fill-opacity:1"
     transform="matrix(0,0.23269337,-0.3257329,0,20.286645,-48.331588)">
    <g
       id="g4"
       style="fill:#e5e9ef;fill-opacity:1" />
  </g>
  <g
     id="g24"
     style="fill:#e5e9ef;fill-opacity:1"
     transform="matrix(0,0.23269337,-0.3257329,0,20.286645,-48.331588)">
    <g
       id="g22"
       style="fill:#e5e9ef;fill-opacity:1" />
  </g>
  <g
     id="g42"
     style="fill:#e5e9ef;fill-opacity:1"
     transform="matrix(0,0.23269337,-0.3257329,0,20.286645,-48.331588)">
    <g
       id="g40"
       style="fill:#e5e9ef;fill-opacity:1" />
  </g>
  <g
     id="g60"
     style="fill:#e5e9ef;fill-opacity:1"
     transform="matrix(0,0.23269337,-0.3257329,0,20.286645,-48.331588)">
    <g
       id="g58"
       style="fill:#e5e9ef;fill-opacity:1" />
  </g>
  <g
     id="g78"
     style="fill:#e5e9ef;fill-opacity:1"
     transform="matrix(0,0.23269337,-0.3257329,0,20.286645,-48.331588)">
    <g
       id="g76"
       style="fill:#e5e9ef;fill-opacity:1" />
  </g>
  <g
     id="g96"
     style="fill:#e5e9ef;fill-opacity:1"
     transform="matrix(0,0.23269337,-0.3257329,0,20.286645,-48.331588)">
    <g
       id="g94"
       style="fill:#e5e9ef;fill-opacity:1" />
  </g>
  <g
     id="22-22-jami">
    <rect
       style="opacity:0.00100002"
       width="22"
       height="22"
       x="0"
       y="0"
       id="rect981" />
    <path
       id="Page_1_-36"
       class="st0  ColorScheme-Highlight "
       d="m 14.499999,6 v 0 l -1,-1 V 5 H 6.5 v 13 h 8.499999 c 1.375,0 2.5,-1.125 2.5,-2.5 V 9 Z m -6,1.5 z m 0,2.5 z m 0,5 z m 0,-2.5 z"
       sodipodi:nodetypes="ccccccsscccccccccccccccccccccc"
       style="color:#cdd8e5;fill:#cdd8e5;fill-opacity:0.403922;stroke-width:0.25" />
    <path
       id="Page-s-7"
       class="st1  ColorScheme-Text "
       d="m 16.499999,9 h 1 v 7 c 0,1.65 -1.35,3 -3,3 h -7 v -1 h 7 c 1.1,0 2,-0.900001 2,-2 v -6 0 z M 4.5,5 c 0,-1.1 0.9,-2 2,-2 h 4.999999 V 4 H 6.5 c -0.55,0 -1,0.45 -1,1 v 8.5 h -1 z"
       style="color:#eff0f1;fill:currentColor;fill-opacity:1;stroke-width:0.25"
       sodipodi:nodetypes="ccssccsscccssccssccs" />
    <path
       d="m 16.158239,11.485417 c 0,-0.743306 -0.83625,-1.254375 -1.95125,-1.533125 0,-0.139375 0.04651,-0.325181 0.09294,-0.418125 C 14.578679,8.233361 14.206989,7.675861 13.835372,7.489935 13.463679,7.304127 12.813315,7.211185 11.83773,8.093866 11.74479,8.186806 11.605412,8.279673 11.512548,8.419048 11.419608,8.326108 11.28023,8.18673 11.187367,8.093866 10.211662,7.211185 9.561219,7.257696 9.189525,7.443503 8.817912,7.675821 8.446219,8.186809 8.724969,9.534127 c 0.04643,0.09294 0.09294,0.27875 0.09294,0.418126 -1.115,0.27875 -1.95125,0.789818 -1.95125,1.533124 0,0.743307 0.83625,1.254375 1.95125,1.533125 0,0.139375 -0.04651,0.325182 -0.09294,0.464557 -0.27875,1.300807 0.09294,1.858307 0.464556,2.044233 0.139376,0.09294 0.27875,0.139375 0.511068,0.139375 0.371694,0 0.882682,-0.185807 1.486694,-0.743307 0.09294,-0.09294 0.232318,-0.185807 0.325182,-0.325181 0.09294,0.09294 0.232318,0.232318 0.325181,0.325181 0.650443,0.5575 1.161432,0.743307 1.486693,0.743307 0.185807,0 0.371694,-0.04643 0.511068,-0.139375 0.371694,-0.185807 0.743308,-0.743307 0.464558,-2.044233 -0.04643,-0.139375 -0.09294,-0.27875 -0.09294,-0.418125 1.115,-0.325182 1.95125,-0.83625 1.95125,-1.579557 z M 9.654205,8.279793 c 0.139376,0 0.418126,0.04643 0.929194,0.511068 0.09294,0.09294 0.232318,0.185806 0.325182,0.325181 -0.139376,0.139375 -0.325262,0.371693 -0.464637,0.5575 -0.232318,0 -0.464557,0.04643 -0.696875,0.09294 C 9.700639,9.627107 9.654199,9.441221 9.654199,9.301846 9.468314,8.55854 9.607689,8.27979 9.654199,8.27979 Z M 9.143137,12.1359 C 8.260456,11.950016 7.795819,11.624832 7.795819,11.485457 c 0,-0.139375 0.464557,-0.464557 1.347318,-0.650443 0.09294,0.185884 0.185807,0.418125 0.27875,0.650443 -0.09294,0.232318 -0.185806,0.464557 -0.27875,0.650443 z m 1.440182,2.044034 c -0.603932,0.5575 -0.882682,0.5575 -0.929114,0.511068 -0.04643,0 -0.185806,-0.27875 0,-1.068568 0,-0.09286 0.04643,-0.27875 0.09287,-0.418125 0.232318,0.04643 0.464557,0.04643 0.696875,0.09294 0.139375,0.185808 0.27875,0.418126 0.418125,0.5575 -0.09287,0.139376 -0.185806,0.232319 -0.27875,0.325182 z m 0.929194,-1.765363 h -0.511069 c -0.09294,-0.139376 -0.185807,-0.27875 -0.27875,-0.464557 -0.09294,-0.139375 -0.185807,-0.325182 -0.232318,-0.464557 0.09294,-0.139375 0.139375,-0.325182 0.232318,-0.464557 0.09294,-0.139375 0.185807,-0.325181 0.27875,-0.464557 h 0.511069 0.511068 c 0.09294,0.139376 0.185806,0.27875 0.27875,0.464557 0.09294,0.139375 0.185806,0.325182 0.232318,0.464557 -0.09294,0.139375 -0.139375,0.325182 -0.232318,0.464557 -0.09294,0.139375 -0.185807,0.325181 -0.27875,0.464557 z m 1.858306,2.276392 c -0.04643,0 -0.325182,0 -0.929193,-0.511069 -0.09294,-0.09294 -0.232318,-0.185807 -0.325182,-0.325181 0.139375,-0.185807 0.27875,-0.371694 0.418125,-0.5575 0.232318,0 0.464557,-0.04643 0.696875,-0.09294 0.04643,0.139374 0.09294,0.27875 0.09294,0.418124 0.232318,0.789819 0.09294,1.068569 0.04643,1.068569 z m 0,-5.389234 c 0,0.139376 -0.04643,0.325262 -0.09287,0.464637 -0.232318,-0.04643 -0.464556,-0.04643 -0.696874,-0.09294 -0.139376,-0.185807 -0.27875,-0.418125 -0.418126,-0.5575 l 0.325182,-0.325182 c 0.511068,-0.464557 0.789818,-0.511068 0.882682,-0.511068 h 0.04643 c 8e-5,0 0.139452,0.27875 -0.04643,1.022057 z m 0.511068,2.834092 c -0.09294,-0.232318 -0.185806,-0.418126 -0.27875,-0.650444 0.09294,-0.232318 0.185807,-0.464556 0.27875,-0.650443 0.882682,0.185885 1.347318,0.511069 1.347318,0.650443 0,0.139376 -0.464636,0.464557 -1.347318,0.650444 z"
       id="path355-5"
       style="fill:#eff0f1;fill-opacity:1;stroke-width:0.0199107" />
    <path
       d="m 11.930597,11.485417 c 0,0.230924 -0.187206,0.418125 -0.418124,0.418125 -0.230919,0 -0.418126,-0.187206 -0.418126,-0.418125 0,-0.230918 0.187207,-0.418125 0.418126,-0.418125 0.230918,0 0.418124,0.187207 0.418124,0.418125"
       id="path357-3"
       style="fill:#eff0f1;fill-opacity:1;stroke-width:0.0199107" />
  </g>
</svg>
