<?xml version="1.0" encoding="UTF-8" standalone="no"?>
<svg
   inkscape:version="1.3.2 (091e20ef0f, 2023-11-25)"
   sodipodi:docname="kaffeine-symbolic.svg"
   id="svg44"
   version="1.1"
   height="22"
   width="22"
   style="enable-background:new"
   xmlns:inkscape="http://www.inkscape.org/namespaces/inkscape"
   xmlns:sodipodi="http://sodipodi.sourceforge.net/DTD/sodipodi-0.dtd"
   xmlns="http://www.w3.org/2000/svg"
   xmlns:svg="http://www.w3.org/2000/svg"
   xmlns:rdf="http://www.w3.org/1999/02/22-rdf-syntax-ns#"
   xmlns:cc="http://creativecommons.org/ns#"
   xmlns:dc="http://purl.org/dc/elements/1.1/">
  <metadata
     id="metadata48">
    <rdf:RDF>
      <cc:Work
         rdf:about="">
        <dc:format>image/svg+xml</dc:format>
        <dc:type
           rdf:resource="http://purl.org/dc/dcmitype/StillImage" />
      </cc:Work>
    </rdf:RDF>
  </metadata>
  <sodipodi:namedview
     showguides="false"
     inkscape:current-layer="svg44"
     inkscape:window-maximized="1"
     inkscape:window-y="0"
     inkscape:window-x="0"
     inkscape:cy="11.360101"
     inkscape:cx="11.459751"
     inkscape:zoom="10.035122"
     showgrid="true"
     id="namedview46"
     inkscape:window-height="994"
     inkscape:window-width="1920"
     inkscape:pageshadow="2"
     inkscape:pageopacity="0"
     guidetolerance="10"
     gridtolerance="10"
     objecttolerance="10"
     borderopacity="1"
     bordercolor="#000000"
     pagecolor="#02334b"
     inkscape:document-rotation="0"
     inkscape:pagecheckerboard="true"
     inkscape:showpageshadow="true"
     inkscape:deskcolor="#02334b">
    <inkscape:grid
       id="grid1"
       units="px"
       originx="-11"
       originy="-37"
       spacingx="1"
       spacingy="1"
       empcolor="#0099e5"
       empopacity="0.30196078"
       color="#0099e5"
       opacity="0.14901961"
       empspacing="5"
       dotted="false"
       gridanglex="30"
       gridanglez="30"
       visible="true" />
  </sodipodi:namedview>
  <defs
     id="defs4">
    <linearGradient
       id="linearGradient5606"
       inkscape:swatch="solid">
      <stop
         style="stop-color:#000000"
         offset="0"
         id="stop5608" />
    </linearGradient>
  </defs>
  <g
     id="g128"
     transform="matrix(0,0.23269337,-0.3257329,0,21.286645,-32.331588)">
    <g
       id="g126">
      <g
         id="g124">
        <g
           id="g122">
          <g
             id="g120">
            <g
               id="g118">
              <g
                 id="g116">
                <g
                   id="g114" />
              </g>
            </g>
          </g>
        </g>
      </g>
    </g>
  </g>
  <g
     id="g146"
     transform="matrix(0,0.23269337,-0.3257329,0,21.286645,-32.331588)">
    <g
       id="g144">
      <g
         id="g142">
        <g
           id="g140">
          <g
             id="g138">
            <g
               id="g136">
              <g
                 id="g134">
                <g
                   id="g132" />
              </g>
            </g>
          </g>
        </g>
      </g>
    </g>
  </g>
  <g
     id="22-22-kaffeine"
     style="enable-background:new">
    <path
       id="path6"
       d="m 0,0 h 22 c 0,0 0,0 0,0 v 22 c 0,0 0,0 0,0 H 0 c 0,0 0,0 0,0 z"
       style="opacity:0" />
    <path
       id="Movie-3"
       class="st0"
       d="M 17.92414,5.05 4.103449,8.375 3.827586,7.425 17.620685,4.075 Z M 3.551725,18 h 12.68966 C 17.758615,18 19,16.875001 19,15.5 v -7 h -1.103455 v 1 H 3.551725 Z m 6.06896,-2 v -4 l 3.86207,1.999999 z"
       style="fill:#cdd8e5;fill-opacity:0.403922;stroke-width:0.262613;enable-background:new" />
    <path
       id="Movie-s-6"
       class="st1"
       d="M 18.44828,4.925 17.37242,5.175 16.820685,3.25 17.896545,3 Z M 4.075861,6.325 3,6.575 3.551725,8.424999 V 10.5 H 4.655172 V 8.3 Z M 11.055175,8.5 H 9.81379 l -1.10344,2 h 1.24137 z m 3.034475,0 h -1.24137 l -1.103455,2 h 1.241385 z m 3.03449,0 h -1.241385 l -1.10344,2 h 1.24137 z m -10.317245,0 -1.103446,2 H 6.944825 L 8.04828,8.5 Z M 15.68965,18 H 4.655172 v 1 H 15.68965 C 17.51035,19 19,17.650001 19,16 V 9.5 H 17.896545 V 16 c 0,1.1 -0.99309,2 -2.206895,2 z m -3.86207,-13.55 -1.186195,0.3 1.62758,1.65 1.18621,-0.3 z m -2.924125,0.7 -1.18621,0.3 1.62758,1.65 1.18621,-0.3 z m -2.924144,0.725 -1.186208,0.3 1.627586,1.65 1.186206,-0.3 z M 16.379315,5.4 14.75172,3.75 13.56551,4.05 15.193105,5.7 Z"
       style="fill:#eff0f1;fill-opacity:1;stroke-width:0.262613;enable-background:new" />
  </g>
</svg>
