<?xml version="1.0" encoding="UTF-8" standalone="no"?>
<svg
   width="22"
   height="22"
   version="1.1"
   id="svg1"
   sodipodi:docname="kgpg-symbolic.svg"
   inkscape:version="1.3.2 (091e20ef0f, 2023-11-25)"
   xmlns:inkscape="http://www.inkscape.org/namespaces/inkscape"
   xmlns:sodipodi="http://sodipodi.sourceforge.net/DTD/sodipodi-0.dtd"
   xmlns="http://www.w3.org/2000/svg"
   xmlns:svg="http://www.w3.org/2000/svg">
  <defs
     id="defs1" />
  <sodipodi:namedview
     id="namedview1"
     pagecolor="#000000"
     bordercolor="#999999"
     borderopacity="1"
     inkscape:showpageshadow="2"
     inkscape:pageopacity="0"
     inkscape:pagecheckerboard="0"
     inkscape:deskcolor="#d1d1d1"
     inkscape:zoom="12.245804"
     inkscape:cx="11.024184"
     inkscape:cy="-2.1231762"
     inkscape:window-width="1920"
     inkscape:window-height="994"
     inkscape:window-x="0"
     inkscape:window-y="0"
     inkscape:window-maximized="1"
     inkscape:current-layer="svg1" />
  <style
     type="text/css"
     id="current-color-scheme">.ColorScheme-Text { color: #fcfcfc; } </style>
  <g
     id="22-22-kgpg">
    <rect
       style="opacity:0.00100002"
       width="22"
       height="22"
       x="0"
       y="0"
       id="rect2" />
    <path
       id="Lock-3"
       class="st0"
       d="m 11.999999,13.5 c 0,0.375 -0.2,0.7 -0.5,0.875 V 15.5 c 0,0.275 -0.225,0.5 -0.5,0.5 -0.275,0 -0.5,-0.225 -0.5,-0.5 v -1.125 c -0.3,-0.175 -0.5,-0.5 -0.5,-0.875 0,-0.55 0.45,-1 1,-1 0.55,0 1,0.45 1,1 z m 2.5,-4.5 h 1 v 1 h 1.5 v 5.5 c 0,1.375 -1.125,2.5 -2.5,2.5 h -9.5 v -8 h 9.5 z"
       style="clip-rule:evenodd;fill:#cdd8e5;fill-opacity:0.403922;fill-rule:evenodd;stroke-width:0.25" />
    <path
       id="Lock-s-6"
       class="st1"
       d="m 7.499999,10 h -1 V 7.5 c 0,-2.475 2.025,-4.5 4.5,-4.5 2.475,0 4.5,2.025 4.5,4.5 V 9 h -1 V 7.5 c 0,-1.925 -1.575,-3.5 -3.5,-3.5 -1.925,0 -3.5,1.575 -3.5,3.5 z m 9.5,0 h -2.5 v 1 h 1.5 v 5 c 0,1.1 -0.9,2 -2,2 h -8 v 1 h 8 c 1.65,0 3,-1.35 3,-3 z"
       style="fill:#eff0f1;fill-opacity:1;stroke-width:0.25" />
  </g>
</svg>
