<?xml version="1.0" encoding="UTF-8" standalone="no"?>
<svg
   width="22"
   height="22"
   version="1.1"
   id="svg6"
   sodipodi:docname="kleopatra-symbolic.svg"
   inkscape:version="1.3.2 (091e20ef0f, 2023-11-25)"
   xmlns:inkscape="http://www.inkscape.org/namespaces/inkscape"
   xmlns:sodipodi="http://sodipodi.sourceforge.net/DTD/sodipodi-0.dtd"
   xmlns:xlink="http://www.w3.org/1999/xlink"
   xmlns="http://www.w3.org/2000/svg"
   xmlns:svg="http://www.w3.org/2000/svg">
  <sodipodi:namedview
     id="namedview1"
     pagecolor="#000000"
     bordercolor="#999999"
     borderopacity="1"
     inkscape:showpageshadow="2"
     inkscape:pageopacity="0"
     inkscape:pagecheckerboard="0"
     inkscape:deskcolor="#d1d1d1"
     inkscape:zoom="17.363636"
     inkscape:cx="10.769634"
     inkscape:cy="6.8534033"
     inkscape:window-width="1920"
     inkscape:window-height="994"
     inkscape:window-x="0"
     inkscape:window-y="0"
     inkscape:window-maximized="1"
     inkscape:current-layer="svg6" />
  <defs
     id="defs10">
    <linearGradient
       gradientTransform="matrix(0.42187513,0,0,0.37500017,-146.66274,875.65612)"
       gradientUnits="userSpaceOnUse"
       x2="0"
       y2="503.79999"
       y1="543.79999"
       id="a-6">
      <stop
         id="stop4380"
         stop-color="#bd8d48" />
      <stop
         id="stop4382"
         stop-color="#e8b971"
         offset="1" />
    </linearGradient>
    <linearGradient
       xlink:href="#linearGradient4748"
       id="linearGradient4754"
       x1="16"
       y1="9"
       x2="41"
       y2="40"
       gradientUnits="userSpaceOnUse"
       gradientTransform="matrix(0.37500017,0,0,0.37500017,31.624999,1062.9871)" />
    <linearGradient
       id="linearGradient4748">
      <stop
         style="stop-color:#524220;stop-opacity:0.553"
         offset="0"
         id="stop4750" />
      <stop
         style="stop-color:#342a14;stop-opacity:0;"
         offset="1"
         id="stop4752" />
    </linearGradient>
    <linearGradient
       xlink:href="#linearGradient4402"
       id="linearGradient4408"
       x1="11.875"
       y1="-15.125"
       x2="32.125"
       y2="33.5"
       gradientUnits="userSpaceOnUse"
       gradientTransform="matrix(0.37500017,0,0,0.37500017,32,1063.3621)" />
    <linearGradient
       id="linearGradient4402">
      <stop
         style="stop-color:#ffffff;stop-opacity:1;"
         offset="0"
         id="stop4404" />
      <stop
         style="stop-color:#ffffff;stop-opacity:0;"
         offset="1"
         id="stop4406" />
    </linearGradient>
    <linearGradient
       gradientTransform="matrix(0.42187513,0,0,0.37500017,-144.66274,-175.70606)"
       gradientUnits="userSpaceOnUse"
       x2="0"
       y2="503.79999"
       y1="543.79999"
       id="a-6-7">
      <stop
         id="stop4380-5"
         stop-color="#bd8d48" />
      <stop
         id="stop4382-3"
         stop-color="#e8b971"
         offset="1" />
    </linearGradient>
    <linearGradient
       gradientTransform="matrix(0.42187513,0,0,0.37500017,-144.66274,-175.70604)"
       gradientUnits="userSpaceOnUse"
       x2="0"
       y2="503.79999"
       y1="543.79999"
       id="a-6-4">
      <stop
         id="stop4380-4"
         stop-color="#bd8d48" />
      <stop
         id="stop4382-30"
         stop-color="#e8b971"
         offset="1" />
    </linearGradient>
    <linearGradient
       xlink:href="#linearGradient4748"
       id="linearGradient4754-7"
       x1="-72.179756"
       y1="-14.891067"
       x2="-45.225029"
       y2="11.765103"
       gradientUnits="userSpaceOnUse"
       gradientTransform="matrix(0.37500017,0,0,0.37500017,33.624999,11.6249)" />
  </defs>
  <namedview
     id="namedview8"
     pagecolor="#ffffff"
     bordercolor="#000000"
     borderopacity="0.25"
     inkscape:showpageshadow="2"
     inkscape:pageopacity="0.0"
     inkscape:pagecheckerboard="0"
     inkscape:deskcolor="#d1d1d1"
     showgrid="false"
     inkscape:zoom="35.136364"
     inkscape:cx="9.4773609"
     inkscape:cy="10.98577"
     inkscape:window-width="1920"
     inkscape:window-height="1011"
     inkscape:window-x="0"
     inkscape:window-y="0"
     inkscape:window-maximized="1"
     inkscape:current-layer="svg6" />
  <style
     type="text/css"
     id="current-color-scheme">.ColorScheme-Text { color: #fcfcfc; } </style>
  <rect
     y="-20"
     x="0"
     height="22"
     width="22"
     id="rect4764"
     style="fill:none;fill-opacity:1;stroke:none;stroke-width:1;stroke-linecap:round;stroke-linejoin:round;stroke-miterlimit:4;stroke-dasharray:none;stroke-opacity:1" />
  <g
     id="kleopatra"
     transform="translate(0,-1030.3622)">
    <rect
       y="1030.3622"
       x="0"
       height="22"
       width="22"
       id="rect4764-6"
       style="fill:none;fill-opacity:1;stroke:none;stroke-width:1;stroke-linecap:round;stroke-linejoin:round;stroke-miterlimit:4;stroke-dasharray:none;stroke-opacity:1" />
    <path
       id="Eye"
       class="st0"
       d="m 12.474008,1043.9941 c 0,0.6566 -0.534596,1.1932 -1.187993,1.1932 -0.653407,0 -1.188007,-0.5366 -1.188007,-1.1932 0,-0.3275 0.0891,-0.6852 0.296996,-0.8941 0.207901,-0.2089 0.564306,-0.2987 0.891011,-0.2987 0.653397,0 1.187993,0.5376 1.187993,1.1928 z m 1.781999,-1.7882 c 0,2.6237 -2.138404,4.7707 -4.7520007,4.7707 -2.6136015,0 -4.7520029,-2.147 -4.7520029,-4.7707 0,-2.6236 2.1384014,-4.7723 4.7520029,-4.7723 2.2869017,0 4.5441027,0.7154 6.5043077,2.0887 l 2.999699,2.0865 -0.6831,0.9849 -2.999702,-2.0886 c -0.623699,-0.4472 -1.277102,-0.8053 -1.989901,-1.1031 0.594,0.7755 0.920697,1.76 0.920697,2.8039 z"
       style="fill:#cdd8e5;fill-opacity:0.403922;stroke-width:0.297598" />
    <path
       id="Eye-s"
       class="st1"
       d="m 11.880009,1042.2059 c 0,0.2374 -0.02964,0.4768 -0.1188,0.7154 -0.148504,-0.1 -0.297004,-0.12 -0.475195,-0.12 -0.653406,0 -1.188006,0.5376 -1.188006,1.1928 0,0.1798 0.02967,0.3283 0.118796,0.478 -0.2375969,0.1 -0.4751989,0.1192 -0.7127989,0.1192 -1.3068006,0 -2.3760014,-1.074 -2.3760014,-2.3853 0,-1.3133 1.0692008,-2.3862 2.3760014,-2.3862 1.3068019,0 2.3760029,1.0729 2.3760029,2.3862 z m -10.0683076,0.1485 1.2771007,-0.9839 -0.7128002,-0.9544 -1.2771012,0.9846 C 0.41580026,1041.878 0,1042.6532 0,1043.3987 c 0,0.7457 0.41580026,1.5206 1.0989007,1.9975 l 2.7027019,2.0574 c 1.6335011,1.2527 3.6531027,1.9086 5.7024037,1.9086 v -1.1927 c -1.8117014,0 -3.5640022,-0.5962 -4.9896033,-1.6699 l -2.7027016,-2.0577 c -0.3564004,-0.2385 -0.6237005,-0.6557 -0.6237005,-1.0432 0,-0.3874 0.2673001,-0.805 0.6237005,-1.0443 z"
       style="fill:#eff0f1;fill-opacity:1;stroke-width:0.297598" />
    <path
       id="Heart-s"
       class="st1"
       d="m 6.0933667,1035.4613 -0.7430017,0.4391 -0.6008872,-1.0302 0.7430027,-0.437 c 1.7678364,-1.0407 3.8644059,-1.3412 5.8559225,-0.8214 l 7.615241,2.0157 -0.296758,1.144 -7.615258,-2.0158 c -1.6919822,-0.4214 -3.4722546,-0.1684 -4.9582613,0.7056 z"
       style="fill:#eff0f1;fill-opacity:1;stroke-width:0.2976" />
    <path
       id="Heart-s-3"
       class="st1"
       d="m 20.775095,1044.2378 0.484628,-0.6256 0.740277,0.7785 -0.484638,0.6257 c -1.153124,1.4858 -2.755775,2.3825 -4.481483,2.4859 l -3.610195,0.3705 -0.0509,-1.1471 3.610698,-0.3718 c 1.460662,-0.1153 2.82218,-0.8674 3.791478,-2.1161 z"
       style="fill:#eff0f1;fill-opacity:1;stroke-width:0.269047"
       sodipodi:nodetypes="cccccccccc" />
  </g>
</svg>
